<?xml version="1.0" encoding="utf-8"?>
<!-- Generator: Adobe Illustrator 16.0.0, SVG Export Plug-In . SVG Version: 6.00 Build 0)  -->
<!DOCTYPE svg PUBLIC "-//W3C//DTD SVG 1.1//EN" "http://www.w3.org/Graphics/SVG/1.1/DTD/svg11.dtd">
<svg version="1.1" id="Layer_1" xmlns="http://www.w3.org/2000/svg" xmlns:xlink="http://www.w3.org/1999/xlink" x="0px" y="0px"
	 width="127.242px" height="125px" viewBox="0 0 127.242 125" enable-background="new 0 0 127.242 125" xml:space="preserve">
<g>
	<defs>
		<rect id="SVGID_1_" x="-389.541" y="-1490.364" width="1312.33" height="2507.303"/>
	</defs>
	<clipPath id="SVGID_2_">
		<use xlink:href="#SVGID_1_"  overflow="visible"/>
	</clipPath>
	<polygon clip-path="url(#SVGID_2_)" fill="#12E3FF" points="100.092,79.167 62.887,79.167 81.483,93.435 	"/>
	<path clip-path="url(#SVGID_2_)" fill="#12E3FF" d="M117.057,38.892H44.181c-3.176,0.004-5.75,2.577-5.753,5.754v15.343h84.383
		V44.646C122.807,41.469,120.235,38.896,117.057,38.892 M111.304,51.358h-7.671c-1.059,0-1.918-0.858-1.918-1.918
		s0.859-1.918,1.918-1.918h7.671c1.06,0,1.918,0.858,1.918,1.918S112.364,51.358,111.304,51.358"/>
	<path clip-path="url(#SVGID_2_)" fill="#12E3FF" d="M59.833,109.024h41.574c1.059-0.001,1.916-0.859,1.918-1.918V81.522
		L82.65,97.373c-0.688,0.528-1.646,0.528-2.334,0l-22.233-17.06c-0.319,0.723-0.103-0.593-0.168,26.793
		C57.917,108.165,58.774,109.023,59.833,109.024"/>
	<path clip-path="url(#SVGID_2_)" fill="#12E3FF" d="M38.428,115.604c0.004,3.175,2.578,5.75,5.754,5.753h72.875
		c3.177-0.003,5.75-2.578,5.754-5.753V63.823H38.428V115.604z M54.08,81.084c0.03-3.165,2.588-5.724,5.753-5.753h41.574
		c3.176,0.003,5.75,2.576,5.753,5.753v26.021c-0.003,3.176-2.577,5.75-5.753,5.754H59.833c-3.176-0.004-5.75-2.578-5.753-5.754
		V81.084z"/>
</g>
<g>
	<defs>
		<path id="SVGID_3_" d="M68.393,41.122l9.933-8.737c0.056,0.157,0.089,0.322,0.1,0.488v10.302c-0.002,1.058-0.86,1.917-1.919,1.918
			H57.749c-1.059-0.001-1.917-0.86-1.918-1.918V32.873c0.011-0.166,0.044-0.331,0.1-0.488l9.932,8.737
			c0.361,0.319,0.814,0.479,1.267,0.479S68.033,41.441,68.393,41.122 M60.112,30.956h14.031l-7.016,6.173L60.112,30.956z
			 M57.749,27.12c-3.176,0.004-5.75,2.577-5.754,5.753v10.302c0.004,3.177,2.578,5.75,5.754,5.754h18.758
			c3.178-0.004,5.75-2.577,5.754-5.754V32.873c-0.004-3.176-2.576-5.749-5.754-5.753H57.749z"/>
	</defs>
	<clipPath id="SVGID_4_">
		<use xlink:href="#SVGID_3_"  overflow="visible"/>
	</clipPath>
	
		<linearGradient id="SVGID_5_" gradientUnits="userSpaceOnUse" x1="-51.9634" y1="1145.9434" x2="-50.9634" y2="1145.9434" gradientTransform="matrix(102.2857 108 108 -102.2857 -118430.4922 122809.9141)">
		<stop  offset="0" style="stop-color:#3B42ED"/>
		<stop  offset="1" style="stop-color:#0000AF"/>
	</linearGradient>
	<polygon clip-path="url(#SVGID_4_)" fill="url(#SVGID_5_)" points="67.95,12.01 93.149,38.616 66.305,64.039 41.106,37.433 	"/>
</g>
<g>
	<defs>
		<path id="SVGID_6_" d="M7.744,92.591v-9.59h57.534v9.59c-0.002,1.059-0.859,1.917-1.918,1.918H9.661
			C8.602,94.508,7.745,93.649,7.744,92.591 M48.016,51.622v-7.564c0.002-0.714-0.396-1.368-1.027-1.699l-8.268-4.335l8.268-4.332
			c0.632-0.331,1.029-0.986,1.027-1.699v-7.566c0.002-1.06,0.86-1.916,1.918-1.918h34.521c1.059,0.002,1.917,0.858,1.918,1.918
			v27.196c-0.001,1.061-0.859,1.917-1.918,1.918H49.934C48.876,53.539,48.018,52.683,48.016,51.622 M7.744,8.207
			C7.745,7.149,8.602,6.29,9.661,6.289H63.36c1.059,0.001,1.916,0.86,1.918,1.918v10.466H49.934
			c-3.176,0.003-5.75,2.576-5.752,5.753v6.405l-7.601,3.984c-1.772,0.932-2.452,3.126-1.519,4.897
			c0.34,0.649,0.871,1.18,1.521,1.521l7.599,3.984v6.404c0.002,3.178,2.576,5.75,5.752,5.754h15.344v21.791H7.744V8.207z
			 M9.661,2.454C6.485,2.457,3.912,5.031,3.908,8.207v84.384c0.004,3.176,2.577,5.749,5.753,5.754H63.36
			c3.176-0.005,5.75-2.578,5.754-5.754V57.376h15.342c3.176-0.004,5.75-2.576,5.753-5.754V24.426
			c-0.003-3.177-2.577-5.75-5.753-5.753H69.114V8.207c-0.004-3.176-2.578-5.75-5.754-5.753H9.661z"/>
	</defs>
	<clipPath id="SVGID_7_">
		<use xlink:href="#SVGID_6_"  overflow="visible"/>
	</clipPath>
	
		<linearGradient id="SVGID_8_" gradientUnits="userSpaceOnUse" x1="-51.9634" y1="1145.9805" x2="-50.9634" y2="1145.9805" gradientTransform="matrix(102.2857 108 108 -102.2857 -118451.2422 122829.6172)">
		<stop  offset="0" style="stop-color:#3B42ED"/>
		<stop  offset="1" style="stop-color:#0000AF"/>
	</linearGradient>
	<polygon clip-path="url(#SVGID_7_)" fill="url(#SVGID_8_)" points="49.401,-40.632 138.083,53.003 44.714,141.432 -43.966,47.796 	
		"/>
</g>
<g>
	<defs>
		<path id="SVGID_9_" d="M17.333,15.879h7.671v7.672h-7.671V15.879z M26.921,12.044H15.415c-1.059-0.002-1.917,0.857-1.917,1.916
			v0.002v11.507c-0.001,1.059,0.858,1.917,1.916,1.917h0.001h11.507c1.06,0.001,1.917-0.857,1.918-1.916v-0.001V13.962
			C28.839,12.902,27.981,12.044,26.921,12.044L26.921,12.044z"/>
	</defs>
	<clipPath id="SVGID_10_">
		<use xlink:href="#SVGID_9_"  overflow="visible"/>
	</clipPath>
	
		<linearGradient id="SVGID_11_" gradientUnits="userSpaceOnUse" x1="-51.9634" y1="1145.9434" x2="-50.9634" y2="1145.9434" gradientTransform="matrix(102.2857 108 108 -102.2857 -118445.6172 122824.2109)">
		<stop  offset="0" style="stop-color:#3B42ED"/>
		<stop  offset="1" style="stop-color:#0000AF"/>
	</linearGradient>
	<polygon clip-path="url(#SVGID_10_)" fill="url(#SVGID_11_)" points="21.584,4.383 36.5,20.131 20.751,35.047 5.836,19.298 	"/>
</g>
<g>
	<defs>
		<path id="SVGID_12_" d="M17.333,38.893h7.671v7.672h-7.671V38.893z M26.921,35.058H15.415c-1.059-0.001-1.917,0.857-1.917,1.916
			v0.001V48.48c-0.001,1.06,0.858,1.918,1.916,1.918h0.001h11.507c1.06,0,1.917-0.856,1.918-1.917V48.48V36.975
			C28.839,35.915,27.981,35.058,26.921,35.058L26.921,35.058z"/>
	</defs>
	<clipPath id="SVGID_13_">
		<use xlink:href="#SVGID_12_"  overflow="visible"/>
	</clipPath>
	
		<linearGradient id="SVGID_14_" gradientUnits="userSpaceOnUse" x1="-51.9634" y1="1145.9424" x2="-50.9634" y2="1145.9424" gradientTransform="matrix(102.2857 108 108 -102.2857 -118456.9922 122835.0859)">
		<stop  offset="0" style="stop-color:#3B42ED"/>
		<stop  offset="1" style="stop-color:#0000AF"/>
	</linearGradient>
	<polygon clip-path="url(#SVGID_13_)" fill="url(#SVGID_14_)" points="21.584,27.396 36.499,43.145 20.751,58.059 5.836,42.311 	"/>
</g>
<g>
	<defs>
		<path id="SVGID_15_" d="M17.333,61.906h7.671v7.671h-7.671V61.906z M26.921,58.069H15.415c-1.059,0-1.917,0.859-1.917,1.917v0.002
			v11.506c-0.001,1.061,0.858,1.918,1.916,1.918h0.001h11.507c1.06,0,1.917-0.856,1.918-1.917v-0.001V59.988
			C28.839,58.929,27.981,58.071,26.921,58.069L26.921,58.069z"/>
	</defs>
	<clipPath id="SVGID_16_">
		<use xlink:href="#SVGID_15_"  overflow="visible"/>
	</clipPath>
	
		<linearGradient id="SVGID_17_" gradientUnits="userSpaceOnUse" x1="-51.9648" y1="1145.9434" x2="-50.9615" y2="1145.9434" gradientTransform="matrix(102.2857 108 108 -102.2857 -118468.4922 122845.9766)">
		<stop  offset="0" style="stop-color:#3B42ED"/>
		<stop  offset="1" style="stop-color:#0000AF"/>
	</linearGradient>
	<polygon clip-path="url(#SVGID_16_)" fill="url(#SVGID_17_)" points="21.584,50.409 36.5,66.157 20.751,81.072 5.836,65.324 	"/>
</g>
<g>
</g>
<g>
</g>
<g>
</g>
<g>
</g>
<g>
</g>
<g>
</g>
<g>
</g>
<g>
</g>
<g>
</g>
<g>
</g>
<g>
</g>
<g>
</g>
<g>
</g>
<g>
</g>
<g>
</g>
</svg>
