<?xml version="1.0" encoding="utf-8"?>
<!-- Generator: Adobe Illustrator 16.0.0, SVG Export Plug-In . SVG Version: 6.00 Build 0)  -->
<!DOCTYPE svg PUBLIC "-//W3C//DTD SVG 1.1//EN" "http://www.w3.org/Graphics/SVG/1.1/DTD/svg11.dtd">
<svg version="1.1" id="Layer_1" xmlns="http://www.w3.org/2000/svg" xmlns:xlink="http://www.w3.org/1999/xlink" x="0px" y="0px"
	 width="407.242px" height="333px" viewBox="0 0 407.242 333" enable-background="new 0 0 407.242 333" xml:space="preserve">
<path fill="#4786D1" d="M204.167,236.648c-4.425,0-8.025-3.6-8.025-8.026c0-4.424,3.6-8.024,8.025-8.024
	c4.426,0,8.026,3.601,8.026,8.024C212.193,233.049,208.593,236.648,204.167,236.648 M204.167,222.805
	c-3.208,0-5.817,2.611-5.817,5.817c0,3.208,2.609,5.818,5.817,5.818s5.818-2.61,5.818-5.818
	C209.985,225.416,207.375,222.805,204.167,222.805"/>
<path fill="#4786D1" d="M208.254,228.623c0,2.257-1.83,4.087-4.087,4.087s-4.087-1.83-4.087-4.087c0-2.258,1.83-4.088,4.087-4.088
	S208.254,226.365,208.254,228.623"/>
<g>
	<rect x="219.039" y="-411.475" fill="none" width="1312.329" height="2507.301"/>
	<path fill="#ECF3FE" d="M138.946,72.16c3.352-7.17,7.604-14.094,12.941-20.622C193.831,0.226,276.25,4.55,324.578,45.91
		c53.598,45.871,48.642,123.072,47.547,136.264c-3.811,45.887-27.635,120.584-82.435,135.8c-25.458,7.069-49.75-0.88-70.942-15.626
		c-16.737-11.645-38.806-10.558-54.781,3.094c-6.042,5.162-12.779,9.528-20.261,12.619c-16.936,6.996-32.012,5.121-38.542,4.228
		C54.26,315.316,4.535,257.361,5.004,203.172C5.541,140.988,72.091,93.292,138.946,72.16"/>
	<path fill="#DFE5EA" d="M327.389,154.205v122.257c0,0.147-0.007,0.298-0.014,0.453c0,0.071-0.007,0.142-0.014,0.213
		c0,0.063-0.007,0.135-0.014,0.205c0,0.028-0.007,0.057-0.007,0.085c-0.008,0.05-0.014,0.092-0.021,0.135
		c-0.008,0.105-0.029,0.213-0.043,0.318c-0.014,0.1-0.035,0.205-0.056,0.305c-0.008,0.05-0.022,0.1-0.036,0.148
		c0,0.035-0.007,0.078-0.022,0.113c-0.006,0.049-0.021,0.1-0.035,0.149c-0.021,0.092-0.05,0.184-0.071,0.269
		c0,0.014-0.007,0.036-0.014,0.049c-0.049,0.156-0.092,0.313-0.149,0.461c0,0.008,0,0.015-0.006,0.021
		c-0.029,0.078-0.057,0.156-0.085,0.227c-0.029,0.071-0.057,0.135-0.079,0.198c-0.006,0.021-0.021,0.042-0.021,0.058
		c-0.084,0.19-0.17,0.389-0.269,0.572c-0.028,0.058-0.064,0.129-0.099,0.192c-0.035,0.063-0.071,0.12-0.106,0.183
		c-0.036,0.058-0.064,0.121-0.107,0.178c-0.07,0.121-0.149,0.24-0.226,0.354c-0.049,0.078-0.099,0.142-0.142,0.212
		c-0.12,0.156-0.234,0.313-0.361,0.46c-0.092,0.114-0.184,0.22-0.276,0.32c-0.092,0.104-0.191,0.205-0.29,0.303
		c-0.043,0.05-0.093,0.093-0.142,0.144c-0.043,0.041-0.085,0.084-0.135,0.119c-0.049,0.051-0.106,0.1-0.162,0.149
		c-0.015,0.015-0.036,0.028-0.05,0.043c-0.135,0.12-0.277,0.233-0.418,0.339c-0.014,0.008-0.029,0.022-0.043,0.036
		c-0.113,0.078-0.226,0.163-0.346,0.241c-0.043,0.027-0.079,0.056-0.114,0.077c-0.064,0.043-0.128,0.085-0.191,0.12
		c-0.05,0.035-0.099,0.064-0.156,0.093c-0.056,0.035-0.113,0.071-0.17,0.098c-0.397,0.228-0.815,0.418-1.246,0.575
		c-0.029,0.007-0.05,0.021-0.078,0.027c-0.029,0.008-0.064,0.021-0.092,0.029c-0.1,0.034-0.199,0.07-0.305,0.1
		c-0.177,0.056-0.354,0.099-0.531,0.142c-0.092,0.021-0.184,0.042-0.277,0.063c-0.056,0.014-0.12,0.021-0.176,0.027
		c-0.071,0.014-0.149,0.029-0.22,0.043c-0.014,0-0.021,0-0.028,0.008c-0.057,0.007-0.114,0.014-0.178,0.021
		c-0.027,0-0.056,0.007-0.085,0.007c-0.049,0.008-0.106,0.014-0.155,0.021c-0.029,0-0.057,0.008-0.092,0.008
		c-0.107,0.007-0.22,0.013-0.326,0.02c-0.156,0.008-0.311,0.016-0.468,0.016h-215.99c-0.156,0-0.312-0.008-0.468-0.016
		c-0.106-0.007-0.219-0.013-0.325-0.02c-0.12-0.008-0.241-0.021-0.362-0.043c-0.07-0.007-0.141-0.014-0.205-0.029
		c-0.17-0.021-0.34-0.056-0.503-0.091c-0.049-0.007-0.092-0.022-0.141-0.035c-0.177-0.043-0.354-0.086-0.531-0.142
		c-0.107-0.036-0.206-0.065-0.305-0.1c-0.474-0.164-0.935-0.369-1.374-0.603c-0.106-0.063-0.213-0.127-0.319-0.19
		c-0.12-0.072-0.24-0.149-0.354-0.227c-0.701-0.475-1.324-1.042-1.862-1.694c-0.128-0.147-0.248-0.304-0.362-0.466
		c-0.389-0.539-0.715-1.12-0.97-1.743c-0.056-0.141-0.113-0.297-0.17-0.446c-0.057-0.148-0.099-0.305-0.149-0.461
		c-0.042-0.154-0.085-0.311-0.12-0.467c-0.035-0.148-0.064-0.291-0.092-0.438c-0.007-0.022-0.007-0.05-0.014-0.071
		c-0.022-0.143-0.043-0.29-0.057-0.432c-0.007-0.008-0.007-0.021-0.007-0.035c-0.014-0.113-0.021-0.221-0.028-0.333
		c-0.022-0.22-0.029-0.44-0.029-0.666V154.205c0-1.047,0.185-2.053,0.525-2.987c0.538-1.481,1.465-2.776,2.662-3.761
		c0.015-0.016,0.036-0.028,0.057-0.043l0.453-0.348c1.424-1.012,3.166-1.606,5.05-1.606h215.99c0.213,0,0.418,0.007,0.624,0.028
		c0.035-0.008,0.078,0,0.113,0.006c0.198,0.016,0.404,0.035,0.595,0.064c0.042,0.008,0.092,0.014,0.135,0.021
		c0.17,0.027,0.34,0.063,0.503,0.105c0.042,0.008,0.085,0.014,0.127,0.029c0.205,0.05,0.403,0.105,0.602,0.17
		c0.184,0.057,0.375,0.128,0.552,0.198c0.255,0.1,0.503,0.22,0.744,0.347c0.135,0.064,0.269,0.134,0.397,0.213
		c0.226,0.127,0.446,0.27,0.651,0.424c0.007-0.007,0.007,0,0.007,0l0.454,0.348c0.021,0.015,0.042,0.027,0.056,0.043
		c0.121,0.092,0.227,0.19,0.333,0.289c0.085,0.072,0.163,0.149,0.241,0.228c0.24,0.234,0.467,0.481,0.68,0.751
		c0.099,0.121,0.191,0.241,0.276,0.361c0.368,0.503,0.68,1.048,0.928,1.629c0.07,0.156,0.134,0.318,0.198,0.48
		c0,0.008,0.007,0.016,0.007,0.022c0.099,0.261,0.177,0.531,0.248,0.8c0.035,0.135,0.064,0.262,0.092,0.397
		c0.021,0.104,0.042,0.204,0.057,0.312c0.021,0.106,0.035,0.211,0.049,0.318c0.021,0.128,0.036,0.255,0.043,0.383
		c0.014,0.105,0.021,0.218,0.021,0.325C327.382,153.902,327.389,154.058,327.389,154.205"/>
	<path fill="#5B97EF" d="M326.865,151.217H94.429c0.539-1.479,1.466-2.775,2.663-3.76c0.015-0.015,0.036-0.028,0.057-0.043
		l0.453-0.347l107.687-81.745c3.166-2.408,7.55-2.408,10.716,0l107.68,81.745c0.007-0.007,0.007,0,0.007,0l0.454,0.347
		c0.021,0.015,0.042,0.028,0.056,0.043c0.121,0.092,0.227,0.191,0.333,0.289c0.085,0.072,0.163,0.15,0.241,0.228
		c0.24,0.233,0.467,0.481,0.68,0.751c0.099,0.121,0.191,0.24,0.276,0.361c0.368,0.502,0.68,1.047,0.928,1.629
		c0.07,0.156,0.134,0.317,0.198,0.481C326.858,151.203,326.865,151.211,326.865,151.217"/>
	<path fill="#FFFFFF" d="M310.625,278.844H107.786V94.797c0-8.646,7.01-15.656,15.658-15.656h171.524
		c8.647,0,15.657,7.01,15.657,15.656V278.844z"/>
	<path fill="#E4ECF9" d="M283.729,123.33H134.684c-2.088,0-3.797-1.708-3.797-3.797v-1.613c0-2.088,1.709-3.797,3.797-3.797h149.045
		c2.088,0,3.796,1.709,3.796,3.797v1.613C287.524,121.622,285.816,123.33,283.729,123.33"/>
	<path fill="#E4ECF9" d="M283.729,143H134.684c-2.088,0-3.797-1.709-3.797-3.797v-1.614c0-2.088,1.709-3.796,3.797-3.796h149.045
		c2.088,0,3.796,1.708,3.796,3.796v1.614C287.524,141.291,285.816,143,283.729,143"/>
	<path fill="#E4ECF9" d="M283.729,162.668H134.684c-2.088,0-3.797-1.707-3.797-3.795v-1.614c0-2.088,1.709-3.797,3.797-3.797
		h149.045c2.088,0,3.796,1.709,3.796,3.797v1.614C287.524,160.961,285.816,162.668,283.729,162.668"/>
	<path fill="#E4ECF9" d="M283.729,182.338H134.684c-2.088,0-3.797-1.709-3.797-3.797v-1.613c0-2.088,1.709-3.796,3.797-3.796
		h149.045c2.088,0,3.796,1.708,3.796,3.796v1.613C287.524,180.629,285.816,182.338,283.729,182.338"/>
	<path fill="#E4ECF9" d="M283.729,202.008H134.684c-2.088,0-3.797-1.708-3.797-3.797v-1.613c0-2.088,1.709-3.797,3.797-3.797
		h149.045c2.088,0,3.796,1.709,3.796,3.797v1.613C287.524,200.3,285.816,202.008,283.729,202.008"/>
	<path fill="#3B82F4" d="M210.65,218.613v0.007c-0.34,0.368-0.744,0.709-1.204,0.991l-106.313,65.598h-0.482
		c-0.885,0-1.735-0.128-2.535-0.375c-0.113-0.036-0.227-0.072-0.333-0.107c-1.395-0.48-2.634-1.31-3.605-2.386
		c-0.092-0.1-0.184-0.207-0.276-0.319c-0.269-0.318-0.51-0.666-0.73-1.026c-0.078-0.121-0.141-0.241-0.212-0.361
		c-0.064-0.128-0.135-0.255-0.191-0.383c-0.553-1.147-0.865-2.429-0.865-3.789V154.206c0-1.048,0.185-2.054,0.525-2.989
		c0.538-1.48,1.466-2.775,2.662-3.76c0.015-0.016,0.036-0.029,0.058-0.043l0.453-0.348c1.423-1.013,3.165-1.606,5.049-1.606h1.998
		l9.334,5.757l86.051,53.098l3.236,1.996l6.176,3.812c0.46,0.283,0.864,0.623,1.204,0.991v0.007
		C212.569,213.223,212.569,216.516,210.65,218.613"/>
	<path fill="#3B82F4" d="M327.389,154.205v122.257c0,0.147-0.007,0.298-0.014,0.453c0,0.071-0.007,0.142-0.014,0.213
		c0,0.063-0.007,0.135-0.014,0.205c0,0.028-0.007,0.057-0.007,0.085c-0.008,0.05-0.014,0.092-0.021,0.135
		c-0.008,0.105-0.029,0.213-0.043,0.318c-0.014,0.1-0.035,0.205-0.056,0.305c0,0.014-0.008,0.036-0.008,0.05
		c-0.007,0.028-0.014,0.063-0.028,0.099c0,0.035-0.007,0.078-0.022,0.113c-0.006,0.049-0.021,0.1-0.035,0.149
		c-0.021,0.092-0.042,0.177-0.071,0.269c0,0.014-0.007,0.036-0.014,0.049c-0.042,0.156-0.092,0.313-0.149,0.461
		c0,0.008,0,0.015-0.006,0.021c-0.029,0.078-0.05,0.148-0.085,0.227c-0.022,0.064-0.05,0.127-0.079,0.198
		c-0.006,0.015-0.014,0.036-0.021,0.058c-0.084,0.19-0.17,0.389-0.269,0.572c-0.028,0.058-0.064,0.129-0.099,0.192
		c-0.035,0.063-0.071,0.12-0.106,0.183c-0.036,0.058-0.064,0.121-0.107,0.178c-0.07,0.121-0.149,0.24-0.226,0.354
		c-0.049,0.078-0.099,0.142-0.142,0.212c-0.12,0.164-0.24,0.313-0.361,0.46c-0.092,0.114-0.184,0.22-0.276,0.32
		c-0.092,0.104-0.191,0.205-0.29,0.303c-0.043,0.05-0.093,0.093-0.142,0.144c-0.043,0.041-0.085,0.084-0.135,0.119
		c-0.049,0.051-0.106,0.1-0.162,0.149c-0.015,0.015-0.036,0.028-0.05,0.043c-0.135,0.12-0.277,0.233-0.418,0.339
		c-0.014,0.008-0.029,0.022-0.043,0.036c-0.113,0.078-0.226,0.163-0.346,0.241c-0.043,0.027-0.079,0.056-0.114,0.077
		c-0.064,0.043-0.128,0.085-0.191,0.12c-0.05,0.035-0.099,0.064-0.156,0.093c-0.056,0.035-0.113,0.071-0.17,0.098
		c-0.397,0.228-0.815,0.418-1.246,0.575c-0.029,0.007-0.057,0.021-0.078,0.027c-0.029,0.008-0.064,0.021-0.092,0.029
		c-0.1,0.034-0.199,0.07-0.305,0.1c-0.177,0.056-0.354,0.099-0.531,0.142c-0.092,0.021-0.184,0.042-0.277,0.063
		c-0.056,0.014-0.12,0.021-0.176,0.027c-0.071,0.014-0.149,0.029-0.22,0.043h-0.021c-0.064,0.008-0.127,0.021-0.185,0.028
		c-0.027,0-0.056,0.007-0.085,0.007c-0.049,0.008-0.099,0.014-0.155,0.021c-0.029,0-0.057,0.008-0.092,0.008
		c-0.107,0.007-0.22,0.013-0.326,0.02c-0.156,0.008-0.311,0.016-0.468,0.016h-0.481l-106.313-65.598
		c-0.46-0.283-0.864-0.623-1.197-0.992v-0.006c-1.927-2.104-1.927-5.384,0-7.494v-0.006c0.333-0.369,0.737-0.709,1.197-0.992
		l6.168-3.811l3.237-1.997l86.058-53.096l9.334-5.758h1.997c0.213,0,0.418,0.007,0.624,0.028c0.035-0.008,0.078,0,0.113,0.006
		c0.198,0.016,0.404,0.035,0.595,0.064c0.042,0.008,0.092,0.014,0.135,0.021c0.17,0.027,0.34,0.063,0.503,0.105
		c0.042,0.008,0.085,0.014,0.127,0.029c0.205,0.05,0.403,0.105,0.602,0.17c0.184,0.057,0.375,0.128,0.552,0.198
		c0.255,0.1,0.503,0.22,0.744,0.347c0.135,0.064,0.269,0.134,0.397,0.213c0.226,0.127,0.446,0.27,0.651,0.424
		c0.007-0.007,0.007,0,0.007,0l0.454,0.348c0.021,0.015,0.042,0.027,0.056,0.043c0.121,0.092,0.227,0.19,0.333,0.289
		c0.085,0.072,0.163,0.149,0.241,0.228c0.24,0.234,0.467,0.481,0.68,0.751c0.099,0.121,0.191,0.241,0.276,0.361
		c0.368,0.503,0.68,1.048,0.928,1.629c0.07,0.156,0.134,0.318,0.198,0.48c0,0.008,0.007,0.016,0.007,0.022
		c0.099,0.261,0.177,0.531,0.248,0.8c0.035,0.135,0.064,0.262,0.092,0.397c0.021,0.104,0.042,0.204,0.057,0.312
		c0.021,0.106,0.035,0.211,0.049,0.318c0.021,0.128,0.036,0.255,0.043,0.383c0.014,0.105,0.021,0.218,0.021,0.325
		C327.382,153.902,327.389,154.058,327.389,154.205"/>
	<g opacity="0.29">
		<g>
			<defs>
				<rect id="SVGID_1_" x="93.905" y="200.016" width="233.484" height="85.189"/>
			</defs>
			<clipPath id="SVGID_2_">
				<use xlink:href="#SVGID_1_"  overflow="visible"/>
			</clipPath>
			<path clip-path="url(#SVGID_2_)" fill="#474747" d="M327.389,274.807v1.271c0,5.042-3.917,9.13-8.747,9.13h-215.99
				c-4.83,0-8.747-4.088-8.747-9.13v-1.271l111.094-73.092c3.449-2.27,7.84-2.27,11.289,0L327.389,274.807z"/>
		</g>
	</g>
	<path fill="#5B97EF" d="M327.389,275.244v1.218c0,4.83-3.917,8.747-8.747,8.747h-215.99c-4.83,0-8.747-3.917-8.747-8.747v-1.218
		l111.094-70.023c3.449-2.174,7.84-2.174,11.289,0L327.389,275.244z"/>
	<path fill="#F4B545" d="M124.034,268.381c-0.019,0-0.038-0.002-0.058-0.002c-2.589-0.103-5.196-0.328-7.747-0.666
		c-0.785-0.103-1.337-0.824-1.233-1.608s0.825-1.341,1.61-1.233c2.464,0.327,4.982,0.543,7.484,0.643
		c0.791,0.031,1.407,0.697,1.375,1.49C125.436,267.775,124.799,268.381,124.034,268.381 M131.674,268.344
		c-0.76,0-1.393-0.598-1.43-1.363c-0.039-0.791,0.571-1.463,1.362-1.502c2.471-0.119,4.992-0.35,7.491-0.684
		c0.787-0.106,1.506,0.446,1.611,1.23c0.105,0.785-0.446,1.507-1.231,1.611c-2.579,0.345-5.18,0.582-7.732,0.705
		C131.721,268.344,131.698,268.344,131.674,268.344 M108.897,266.366c-0.107,0-0.215-0.012-0.323-0.037
		c-2.514-0.577-5.034-1.284-7.49-2.099c-0.752-0.248-1.159-1.061-0.91-1.813c0.249-0.75,1.062-1.158,1.812-0.908
		c2.372,0.787,4.804,1.469,7.23,2.025c0.772,0.178,1.253,0.947,1.076,1.719C110.141,265.916,109.549,266.366,108.897,266.366
		 M146.818,266.338c-0.662,0-1.256-0.461-1.4-1.134c-0.167-0.772,0.326-1.536,1.1-1.702c2.431-0.521,4.889-1.147,7.306-1.859
		c0.759-0.223,1.557,0.21,1.78,0.97c0.224,0.759-0.21,1.556-0.97,1.78c-2.485,0.731-5.013,1.376-7.514,1.912
		C147.02,266.327,146.917,266.338,146.818,266.338 M161.484,262.033c-0.582,0-1.129-0.355-1.344-0.933
		c-0.276-0.742,0.101-1.567,0.843-1.845c2.341-0.873,4.69-1.842,6.98-2.879c0.719-0.328,1.57-0.007,1.896,0.715
		c0.327,0.722,0.007,1.569-0.714,1.897c-2.348,1.063-4.758,2.058-7.161,2.954C161.819,262.004,161.65,262.033,161.484,262.033
		 M94.389,261.578c-0.189,0-0.38-0.037-0.564-0.115c-2.32-0.994-4.678-2.108-7.009-3.314c-0.704-0.363-0.979-1.229-0.616-1.932
		c0.364-0.703,1.23-0.979,1.932-0.614c2.27,1.173,4.565,2.259,6.822,3.225c0.728,0.312,1.065,1.155,0.753,1.884
		C95.475,261.254,94.945,261.578,94.389,261.578 M175.408,255.719c-0.509,0-1.003-0.271-1.262-0.75
		c-0.376-0.697-0.117-1.566,0.579-1.943c2.016-1.09,3.934-2.216,5.701-3.346c0.665-0.424,1.553-0.23,1.98,0.437
		c0.426,0.667,0.231,1.554-0.436,1.979c-1.826,1.168-3.804,2.328-5.881,3.451C175.873,255.663,175.64,255.719,175.408,255.719
		 M80.802,254.566c-0.254,0-0.51-0.067-0.743-0.208c-2.22-1.347-4.401-2.776-6.482-4.243c-0.647-0.456-0.801-1.352-0.345-1.997
		c0.457-0.647,1.35-0.8,1.998-0.345c2.027,1.429,4.152,2.82,6.317,4.134c0.676,0.41,0.892,1.293,0.481,1.968
		C81.758,254.321,81.287,254.566,80.802,254.566 M68.315,245.737c-0.321,0-0.644-0.108-0.911-0.327
		c-1.943-1.601-3.805-3.263-5.54-4.943c-0.142-0.099-0.263-0.224-0.359-0.363c-0.452-0.557-0.424-1.377,0.089-1.902
		c0.475-0.488,1.213-0.564,1.769-0.225c2.322,0.52,4.679,0.914,7.013,1.172c0.787,0.088,1.354,0.796,1.267,1.582
		c-0.088,0.788-0.789,1.355-1.583,1.267c-0.886-0.097-1.775-0.214-2.664-0.349c0.601,0.521,1.212,1.038,1.831,1.55
		c0.611,0.504,0.698,1.406,0.195,2.017C69.138,245.56,68.729,245.737,68.315,245.737 M77.847,242.396
		c-0.785,0-1.425-0.633-1.432-1.421c-0.007-0.792,0.629-1.439,1.42-1.446c1.997-0.018,4.013-0.133,5.995-0.343
		c0.405-0.044,0.885-0.095,1.478-0.166c0.781-0.104,1.5,0.467,1.593,1.253c0.094,0.787-0.467,1.5-1.253,1.594
		c-0.607,0.072-1.098,0.125-1.455,0.164c-2.134,0.227-4.244,0.346-6.333,0.365H77.847z M93.037,240.625
		c-0.663,0-1.259-0.463-1.401-1.138c-0.163-0.774,0.333-1.535,1.107-1.699c2.497-0.524,4.949-1.157,7.285-1.878
		c0.759-0.23,1.56,0.191,1.792,0.948c0.234,0.757-0.19,1.558-0.946,1.792c-2.421,0.746-4.957,1.4-7.539,1.943
		C93.234,240.616,93.134,240.625,93.037,240.625 M55.351,238.598c-0.158,0-0.318-0.026-0.475-0.081
		c-2.432-0.855-4.855-1.859-7.204-2.986c-0.713-0.343-1.015-1.199-0.672-1.913c0.343-0.714,1.198-1.013,1.913-0.672
		c2.255,1.082,4.58,2.047,6.913,2.866c0.747,0.263,1.14,1.081,0.877,1.827C56.496,238.229,55.941,238.598,55.351,238.598
		 M107.636,236.086c-0.556,0-1.085-0.324-1.318-0.867c-0.312-0.727,0.023-1.569,0.751-1.883c2.362-1.015,4.601-2.148,6.655-3.369
		c0.679-0.402,1.559-0.182,1.965,0.5c0.404,0.681,0.18,1.56-0.5,1.965c-2.162,1.283-4.512,2.476-6.988,3.539
		C108.018,236.049,107.825,236.086,107.636,236.086 M57.418,235.043c-0.409,0-0.815-0.175-1.099-0.512
		c-1.722-2.051-3.294-4.158-4.672-6.26c-0.434-0.662-0.249-1.551,0.413-1.985c0.663-0.433,1.551-0.249,1.985,0.414
		c1.316,2.007,2.82,4.023,4.469,5.987c0.51,0.605,0.431,1.511-0.175,2.019C58.07,234.933,57.743,235.043,57.418,235.043
		 M41.588,232.002c-0.258,0-0.519-0.069-0.754-0.215c-2.199-1.361-4.353-2.857-6.4-4.445c-0.626-0.485-0.74-1.387-0.254-2.012
		c0.485-0.625,1.387-0.738,2.011-0.253c1.969,1.526,4.038,2.964,6.152,4.271c0.673,0.417,0.881,1.301,0.465,1.974
		C42.537,231.76,42.068,232.002,41.588,232.002 M120.697,228.23c-0.409,0-0.815-0.176-1.099-0.514
		c-0.509-0.605-0.43-1.51,0.177-2.019c1.928-1.619,3.662-3.382,5.154-5.239c0.496-0.615,1.399-0.715,2.015-0.219
		c0.617,0.496,0.716,1.398,0.22,2.016c-1.609,2.002-3.475,3.899-5.546,5.639C121.351,228.119,121.022,228.23,120.697,228.23
		 M29.532,222.646c-0.358,0-0.715-0.134-0.994-0.401c-1.873-1.802-3.662-3.719-5.318-5.701c-0.507-0.605-0.427-1.51,0.18-2.018
		s1.511-0.428,2.019,0.179c1.59,1.902,3.309,3.744,5.107,5.474c0.57,0.55,0.588,1.457,0.039,2.026
		C30.283,222.497,29.908,222.646,29.532,222.646 M49.116,222.254c-0.539,0-1.057-0.307-1.3-0.83
		c-1.137-2.442-2.049-4.931-2.711-7.396c-0.205-0.766,0.248-1.551,1.012-1.756c0.765-0.21,1.551,0.249,1.757,1.013
		c0.619,2.306,1.474,4.638,2.541,6.931c0.335,0.719,0.023,1.57-0.695,1.904C49.525,222.211,49.319,222.254,49.116,222.254
		 M130.151,216.371c-0.213,0-0.429-0.047-0.634-0.147c-0.71-0.352-1.001-1.21-0.65-1.921c1.007-2.037,1.816-4.213,2.403-6.467
		l0.103-0.406c0.192-0.769,0.971-1.235,1.738-1.041c0.769,0.19,1.236,0.97,1.043,1.738l-0.11,0.432
		c-0.636,2.443-1.513,4.803-2.607,7.015C131.188,216.078,130.679,216.371,130.151,216.371 M19.751,210.936
		c-0.464,0-0.92-0.227-1.196-0.643c-1.434-2.164-2.758-4.432-3.933-6.74c-0.359-0.704-0.078-1.567,0.627-1.928
		c0.704-0.359,1.569-0.078,1.928,0.627c1.126,2.211,2.393,4.385,3.768,6.459c0.437,0.658,0.257,1.549-0.403,1.986
		C20.298,210.858,20.023,210.936,19.751,210.936 M45.236,207.572c-0.749,0-1.379-0.583-1.428-1.341
		c-0.053-0.817-0.08-1.646-0.08-2.466c0-1.813,0.132-3.648,0.39-5.454c0.113-0.783,0.835-1.327,1.623-1.216
		c0.783,0.113,1.327,0.84,1.215,1.623c-0.24,1.67-0.361,3.367-0.361,5.047c0,0.759,0.025,1.524,0.074,2.279
		c0.051,0.791-0.548,1.473-1.338,1.523C45.299,207.571,45.269,207.572,45.236,207.572 M133.845,201.656
		c-0.021,0-0.042-0.001-0.063-0.002c-0.791-0.035-1.404-0.703-1.37-1.494c0.024-0.553,0.036-1.107,0.035-1.662
		c0-1.878-0.137-3.795-0.408-5.697c-0.112-0.783,0.433-1.508,1.217-1.621c0.783-0.11,1.51,0.434,1.621,1.218
		c0.291,2.036,0.437,4.089,0.437,6.101c0.001,0.596-0.012,1.19-0.037,1.786C135.243,201.053,134.609,201.656,133.845,201.656
		 M12.826,197.342c-0.581,0-1.128-0.356-1.342-0.933c-0.901-2.414-1.681-4.919-2.316-7.448c-0.194-0.769,0.272-1.548,1.04-1.74
		c0.768-0.191,1.547,0.272,1.739,1.041c0.611,2.427,1.358,4.83,2.222,7.146c0.277,0.741-0.1,1.567-0.841,1.845
		C13.164,197.313,12.993,197.342,12.826,197.342 M47.339,192.53c-0.152,0-0.308-0.026-0.46-0.078
		c-0.75-0.253-1.151-1.067-0.896-1.817c0.819-2.411,1.862-4.84,3.099-7.221c0.367-0.701,1.232-0.974,1.934-0.609
		c0.702,0.365,0.975,1.23,0.61,1.934c-1.171,2.251-2.156,4.545-2.929,6.819C48.495,192.154,47.938,192.53,47.339,192.53
		 M131.735,186.594c-0.606,0-1.168-0.387-1.365-0.994c-0.751-2.331-1.705-4.635-2.835-6.842c-0.36-0.705-0.081-1.568,0.624-1.931
		c0.704-0.36,1.568-0.081,1.929,0.625c1.199,2.345,2.212,4.791,3.011,7.269c0.243,0.754-0.171,1.562-0.925,1.805
		C132.028,186.572,131.881,186.594,131.735,186.594 M9.089,182.545c-0.702,0-1.316-0.517-1.417-1.232
		c-0.36-2.539-0.595-5.149-0.699-7.756c-0.031-0.791,0.584-1.457,1.375-1.489c0.812-0.028,1.458,0.584,1.49,1.375
		c0.1,2.511,0.327,5.024,0.673,7.468c0.111,0.784-0.435,1.51-1.219,1.62C9.225,182.539,9.156,182.545,9.089,182.545 M54.333,178.985
		c-0.285,0-0.573-0.084-0.824-0.261c-0.647-0.456-0.802-1.352-0.347-1.997c1.491-2.118,3.14-4.17,4.903-6.099
		c0.534-0.586,1.441-0.625,2.025-0.093c0.584,0.535,0.625,1.441,0.091,2.026c-1.68,1.84-3.254,3.796-4.674,5.814
		C55.227,178.773,54.783,178.985,54.333,178.985 M124.807,173.035c-0.442,0-0.877-0.205-1.158-0.587
		c-1.47-2.008-3.1-3.892-4.845-5.599c-0.566-0.555-0.576-1.461-0.022-2.027c0.554-0.566,1.46-0.577,2.027-0.021
		c1.857,1.816,3.591,3.818,5.153,5.953c0.468,0.64,0.329,1.535-0.309,2.004C125.397,172.944,125.101,173.035,124.807,173.035
		 M64.625,167.723c-0.407,0-0.811-0.172-1.095-0.508c-0.511-0.604-0.437-1.509,0.167-2.02c2.017-1.71,4.138-3.275,6.303-4.654
		c0.668-0.425,1.554-0.228,1.979,0.44c0.425,0.668,0.228,1.554-0.439,1.978c-2.056,1.31-4.071,2.797-5.99,4.424
		C65.281,167.61,64.952,167.723,64.625,167.723 M8.475,167.289c-0.028,0-0.055-0.001-0.084-0.002
		c-0.79-0.045-1.394-0.723-1.349-1.513c0.152-2.63,0.431-5.236,0.832-7.744c0.125-0.782,0.859-1.315,1.642-1.19
		c0.782,0.125,1.314,0.86,1.189,1.643c-0.386,2.414-0.655,4.923-0.8,7.456C9.86,166.701,9.229,167.289,8.475,167.289
		 M113.897,162.418c-0.277,0-0.557-0.08-0.803-0.246c-2.066-1.4-4.236-2.584-6.454-3.515c-0.73-0.307-1.072-1.147-0.766-1.877
		c0.307-0.731,1.15-1.074,1.877-0.767c2.391,1.006,4.73,2.277,6.952,3.785c0.655,0.444,0.826,1.336,0.382,1.99
		C114.808,162.198,114.356,162.418,113.897,162.418 M77.5,159.577c-0.551,0-1.077-0.319-1.313-0.858
		c-0.319-0.725,0.011-1.569,0.736-1.889c2.458-1.08,4.968-1.935,7.46-2.542c0.769-0.187,1.545,0.286,1.732,1.056
		c0.187,0.769-0.285,1.545-1.054,1.731c-2.329,0.566-4.68,1.368-6.985,2.38C77.889,159.537,77.693,159.577,77.5,159.577
		 M99.887,156.586c-0.085,0-0.172-0.009-0.259-0.023c-1.958-0.358-3.97-0.539-5.979-0.539c-0.406-0.007-0.88,0.008-1.32,0.025
		c-0.794,0.043-1.457-0.588-1.488-1.377c-0.03-0.791,0.586-1.457,1.377-1.488c0.477-0.02,0.986-0.01,1.432-0.026
		c2.18,0,4.365,0.196,6.493,0.585c0.779,0.143,1.295,0.889,1.153,1.668C101.17,156.102,100.567,156.586,99.887,156.586
		 M10.937,152.228c-0.129,0-0.259-0.019-0.389-0.054c-0.762-0.215-1.206-1.006-0.992-1.769c0.7-2.487,1.545-4.968,2.512-7.374
		c0.295-0.736,1.13-1.091,1.865-0.796c0.734,0.296,1.091,1.13,0.796,1.865c-0.93,2.31-1.741,4.692-2.413,7.081
		C12.137,151.814,11.563,152.228,10.937,152.228 M16.617,138.073c-0.226,0-0.456-0.054-0.67-0.167
		c-0.699-0.371-0.966-1.238-0.595-1.939c1.207-2.272,2.552-4.521,4.002-6.682c0.442-0.656,1.332-0.833,1.989-0.392
		c0.657,0.44,0.832,1.332,0.392,1.989c-1.395,2.078-2.69,4.24-3.851,6.429C17.628,137.797,17.131,138.073,16.617,138.073
		 M25.113,125.391c-0.321,0-0.645-0.108-0.912-0.329c-0.61-0.504-0.696-1.407-0.192-2.019c1.64-1.983,3.404-3.92,5.243-5.752
		c0.561-0.558,1.468-0.557,2.027,0.004s0.557,1.469-0.003,2.027c-1.774,1.768-3.475,3.633-5.057,5.547
		C25.937,125.213,25.526,125.391,25.113,125.391 M35.927,114.604c-0.413,0-0.823-0.178-1.106-0.522
		c-0.504-0.61-0.418-1.513,0.193-2.017c1.982-1.637,4.074-3.209,6.216-4.673c0.653-0.447,1.546-0.278,1.992,0.374
		c0.447,0.654,0.279,1.546-0.374,1.992c-2.071,1.416-4.093,2.936-6.009,4.518C36.572,114.495,36.249,114.604,35.927,114.604
		 M48.541,105.979c-0.502,0-0.989-0.265-1.252-0.734c-0.387-0.688-0.141-1.563,0.55-1.95c2.242-1.258,4.576-2.436,6.938-3.504
		c0.722-0.326,1.571-0.005,1.896,0.717c0.326,0.722,0.006,1.57-0.716,1.897c-2.286,1.033-4.546,2.173-6.717,3.39
		C49.019,105.92,48.777,105.979,48.541,105.979 M62.464,99.682c-0.59,0-1.144-0.367-1.352-0.956
		c-0.263-0.746,0.128-1.565,0.874-1.829c2.424-0.856,4.921-1.622,7.421-2.277c0.764-0.201,1.549,0.258,1.75,1.023
		c0.201,0.767-0.257,1.55-1.024,1.75c-2.423,0.635-4.842,1.378-7.191,2.208C62.784,99.655,62.624,99.682,62.464,99.682"/>
	<g opacity="0.1">
		<g>
			<defs>
				<rect id="SVGID_3_" x="25.801" y="60.105" width="108.155" height="70.92"/>
			</defs>
			<clipPath id="SVGID_4_">
				<use xlink:href="#SVGID_3_"  overflow="visible"/>
			</clipPath>
			<polygon clip-path="url(#SVGID_4_)" fill="#232323" points="133.956,60.102 25.801,74.532 52.022,94.42 52.433,131.026 
				75.029,111.833 87.726,121.407 			"/>
		</g>
	</g>
	<polygon fill="#46C1AA" points="54.793,128.807 54.193,75.336 136.316,57.881 	"/>
	<path fill="#52D1BD" d="M54.56,92.336c0.416-0.209,81.757-34.455,81.757-34.455L28.161,72.313L54.56,92.336z"/>
	<polygon fill="#3CAF99" points="63.525,99.16 54.793,128.806 92.245,96.995 	"/>
	<polygon fill="#52D1BD" points="63.525,99.16 90.086,119.188 136.317,57.881 	"/>
	<g opacity="0.1">
		<g>
			<defs>
				<rect id="SVGID_5_" x="246.123" y="156.306" width="104.157" height="50.41"/>
			</defs>
			<clipPath id="SVGID_6_">
				<use xlink:href="#SVGID_5_"  overflow="visible"/>
			</clipPath>
			<path clip-path="url(#SVGID_6_)" fill="#232323" d="M347.78,158.65c-0.087-1.377-1.285-2.432-2.661-2.344l-96.648,6.144
				c-1.376,0.088-2.43,1.285-2.343,2.661l2.496,39.259c0.088,1.377,1.285,2.43,2.661,2.343l96.647-6.143
				c1.376-0.088,2.431-1.285,2.344-2.661L347.78,158.65z"/>
		</g>
	</g>
	<path fill="#FFFFFF" d="M350.376,196.961l-96.647,6.144c-1.376,0.087-2.574-0.967-2.662-2.343l-2.495-39.26
		c-0.088-1.377,0.967-2.573,2.343-2.661l96.647-6.144c1.377-0.088,2.574,0.967,2.661,2.344l2.496,39.259
		C352.807,195.676,351.752,196.873,350.376,196.961"/>
	<path fill="#3B82F4" d="M340.15,164.502l-42.175,2.681c-1.088,0.069-2.035-0.765-2.104-1.854l-0.007-0.098
		c-0.069-1.089,0.765-2.035,1.853-2.105l42.175-2.682c1.088-0.068,2.035,0.766,2.105,1.854l0.006,0.1
		C342.072,163.484,341.238,164.433,340.15,164.502"/>
	<path fill="#ECF3FE" d="M340.712,173.35l-42.175,2.682c-1.088,0.068-2.035-0.766-2.104-1.854l-0.007-0.1
		c-0.069-1.088,0.765-2.035,1.853-2.105l42.175-2.68c1.088-0.07,2.035,0.764,2.105,1.854l0.006,0.099
		C342.634,172.333,341.8,173.28,340.712,173.35"/>
	<path fill="#ECF3FE" d="M341.274,182.197l-42.174,2.682c-1.089,0.068-2.036-0.766-2.105-1.854l-0.006-0.099
		c-0.069-1.088,0.764-2.036,1.853-2.104l42.174-2.682c1.089-0.068,2.036,0.766,2.105,1.854l0.006,0.1
		C343.196,181.181,342.362,182.129,341.274,182.197"/>
	<path fill="#ECF3FE" d="M341.837,191.047l-42.174,2.681c-1.089,0.069-2.036-0.765-2.105-1.854l-0.006-0.098
		c-0.069-1.089,0.764-2.035,1.853-2.105l42.174-2.68c1.089-0.07,2.036,0.764,2.105,1.853l0.006,0.1
		C343.759,190.029,342.925,190.978,341.837,191.047"/>
	<path fill="#ECF3FE" d="M291.235,178.498c0.652,10.261-7.136,19.106-17.396,19.759c-10.26,0.651-19.106-7.136-19.758-17.396
		c-0.653-10.261,7.136-19.106,17.396-19.759C281.737,160.449,290.583,168.238,291.235,178.498"/>
	<path fill="#727272" d="M282.453,191.143c-0.957,0.842-2.025,1.562-3.184,2.136c-0.586,0.293-1.196,0.548-1.826,0.759
		c-0.666,0.227-1.355,0.406-2.061,0.536c-0.575,0.106-1.164,0.179-1.763,0.217c-0.599,0.039-1.193,0.04-1.778,0.007
		c-2.734-0.149-5.29-1.05-7.448-2.508c0.956-2.068,2.721-3.711,4.907-4.486h0.002c0.002-0.002,0.004-0.002,0.005-0.002
		c0.375-0.135,0.763-0.241,1.163-0.318c0.016-0.005,0.032-0.008,0.048-0.012c0.35-0.067,0.709-0.114,1.075-0.138l3.091-0.196
		c0.366-0.022,0.727-0.022,1.084,0.002c0.016-0.002,0.033,0,0.049,0.004c0.407,0.025,0.804,0.084,1.195,0.169h0.004v0.001
		C279.283,187.803,281.245,189.209,282.453,191.143"/>
	<path fill="#302F2F" d="M280.902,172.754l0.633,9.959c0.139,2.193-1.524,4.086-3.718,4.226l-9.362,0.595
		c-2.193,0.14-4.084-1.525-4.224-3.721l-0.633-9.959c-0.563-8.846,8.115-8.996,8.115-8.996s2.246-0.247,4.521,0.686
		c2.035,0.834,4.095,2.615,4.585,6.367C280.856,172.181,280.883,172.461,280.902,172.754"/>
	<path fill="#F4B698" d="M275.718,185.6l0.186,2.93c0.079,1.241-1.059,2.334-2.53,2.427c-1.47,0.095-2.738-0.846-2.817-2.087
		l-0.186-2.929c-0.032-0.513,0.142-1,0.464-1.402c0.074-0.094,0.156-0.183,0.246-0.266c0.17-0.161,0.368-0.302,0.586-0.416
		c0.363-0.193,0.783-0.316,1.234-0.345c0.451-0.028,0.884,0.039,1.268,0.186c0.23,0.086,0.443,0.199,0.632,0.337
		c0.01,0.006,0.021,0.015,0.03,0.021c0.089,0.066,0.173,0.138,0.25,0.214C275.45,184.626,275.685,185.088,275.718,185.6"/>
	<g opacity="0.28">
		<g>
			<defs>
				<rect id="SVGID_7_" x="265.126" y="168.586" width="14.811" height="19.369"/>
			</defs>
			<clipPath id="SVGID_8_">
				<use xlink:href="#SVGID_7_"  overflow="visible"/>
			</clipPath>
			<path clip-path="url(#SVGID_8_)" d="M279.652,175.096l0.271,4.267c0.191,2.997-1.562,5.688-4.167,6.838l0.071,1.125
				c-0.728,0.322-1.523,0.522-2.36,0.576l-0.572,0.036c-0.838,0.054-1.652-0.045-2.414-0.273l-0.072-1.125
				c-2.73-0.81-4.809-3.259-4.999-6.256l-0.271-4.264c-0.119-2.002,0.63-3.866,1.92-5.221c1.173-1.233,2.789-2.045,4.61-2.162
				l0.571-0.035c1.635-0.105,3.179,0.369,4.431,1.244h0.001C278.348,171.021,279.503,172.909,279.652,175.096"/>
		</g>
	</g>
	<path fill="#F4B698" d="M279.583,174.004l0.34,5.356c0.094,1.466-0.279,2.858-0.985,4.031c-0.001,0.003-0.004,0.005-0.004,0.005
		c-0.165,0.271-0.348,0.531-0.546,0.779c-0.387,0.48-0.835,0.91-1.335,1.275c-0.401,0.291-0.834,0.545-1.296,0.75
		c-0.729,0.322-1.525,0.521-2.361,0.573l-0.572,0.038c-0.837,0.053-1.652-0.044-2.413-0.271c-2.73-0.811-4.811-3.26-5.001-6.258
		l-0.339-5.328c-0.005-0.074-0.007-0.148-0.009-0.223c-0.072-2.035,0.745-3.915,2.112-5.248c0.215-0.21,0.445-0.406,0.687-0.59
		c1.05-0.789,2.333-1.293,3.736-1.383l0.571-0.036c1.579-0.101,3.073,0.34,4.301,1.16c0.655,0.435,1.234,0.977,1.708,1.604
		c0.197,0.256,0.372,0.526,0.531,0.81C279.206,171.93,279.515,172.931,279.583,174.004"/>
	<path fill="#F4B698" d="M282.555,176.648c0.098,1.543-1.074,2.871-2.615,2.97l-0.355-5.585c0.387-0.025,0.761,0.031,1.105,0.152
		c0.004,0,0.005,0.002,0.005,0.002C281.719,174.549,282.48,175.495,282.555,176.648"/>
	<path fill="#E29586" d="M281.491,176.715c0.061,0.955-0.664,1.779-1.619,1.84l-0.22-3.458
		C280.607,175.035,281.43,175.762,281.491,176.715"/>
	<path fill="#565656" d="M277.015,187.311v0.002l-1.634,7.261c-0.574,0.106-1.164,0.179-1.763,0.217
		c-0.599,0.039-1.193,0.041-1.778,0.007l-2.54-6.994v-0.002l1.475-0.094l0.056,0.051l2.482,2.26l2.18-2.557l0.048-0.056
		L277.015,187.311z"/>
	<path fill="#F4B698" d="M265.071,174.955l0.355,5.586c-1.542,0.098-2.871-1.072-2.969-2.615c-0.084-1.326,0.77-2.495,1.992-2.859
		c0.042-0.013,0.085-0.024,0.129-0.035c0.022-0.004,0.046-0.009,0.069-0.014C264.785,174.986,264.925,174.965,265.071,174.955"/>
	<path fill="#E29586" d="M263.52,177.857c0.061,0.955,0.884,1.681,1.839,1.619l-0.22-3.457
		C264.184,176.08,263.459,176.903,263.52,177.857"/>
	<path fill="#565656" d="M279.269,193.277c-0.586,0.294-1.196,0.549-1.826,0.76l-0.04-0.641L279.269,193.277z"/>
	<g opacity="0.2">
		<g>
			<defs>
				<rect id="SVGID_9_" x="273.313" y="187.306" width="3.703" height="4.05"/>
			</defs>
			<clipPath id="SVGID_10_">
				<use xlink:href="#SVGID_9_"  overflow="visible"/>
			</clipPath>
			<polygon clip-path="url(#SVGID_10_)" fill="#363636" points="273.313,190.018 275.481,191.357 277.016,187.311 			"/>
		</g>
	</g>
	<polygon fill="#EEEEEE" points="277.016,187.311 275.437,191.223 273.313,190.018 275.541,187.404 275.831,187.064 	"/>
	<g opacity="0.2">
		<g>
			<defs>
				<rect id="SVGID_11_" x="269.3" y="187.796" width="4.013" height="3.83"/>
			</defs>
			<clipPath id="SVGID_12_">
				<use xlink:href="#SVGID_11_"  overflow="visible"/>
			</clipPath>
			<polygon clip-path="url(#SVGID_12_)" fill="#363636" points="269.3,187.801 271.314,191.621 273.313,190.019 			"/>
		</g>
	</g>
	<polygon fill="#EEEEEE" points="273.313,190.018 271.361,191.481 269.3,187.801 270.443,187.407 270.775,187.706 	"/>
	<path fill="#302F2F" d="M280.891,172.566c-5.178,0.707-4.983-4.032-4.586-6.366C278.34,167.033,280.399,168.814,280.891,172.566"/>
	<path fill="#302F2F" d="M277.974,168.645c-0.161,0.299-1.749,3.641-4.977,3.846c-3.227,0.205-8.228,2.468-8.181,5.693
		c0.047,3.225-4.666-9.559,5.072-11.197C279.625,165.348,277.974,168.645,277.974,168.645"/>
	<g opacity="0.1">
		<g>
			<defs>
				<rect id="SVGID_13_" x="248.115" y="110.966" width="108.401" height="66.08"/>
			</defs>
			<clipPath id="SVGID_14_">
				<use xlink:href="#SVGID_13_"  overflow="visible"/>
			</clipPath>
			<path clip-path="url(#SVGID_14_)" fill="#232323" d="M356.445,151.115l-9.276-38.229c-0.325-1.34-1.687-2.17-3.028-1.845
				l-94.111,22.835c-1.34,0.325-2.17,1.687-1.845,3.026l9.276,38.23c0.325,1.339,1.687,2.169,3.027,1.844l94.112-22.834
				C355.94,153.816,356.771,152.455,356.445,151.115"/>
		</g>
	</g>
	<path fill="#F4B545" d="M356.716,150.682l-94.112,22.836c-1.34,0.324-2.702-0.506-3.027-1.846l-9.276-38.229
		c-0.325-1.34,0.505-2.702,1.845-3.028l94.112-22.835c1.34-0.325,2.702,0.505,3.027,1.847l9.276,38.229
		C358.886,148.994,358.057,150.356,356.716,150.682"/>
	<path fill="#FFDCA4" d="M294.937,142.852c2.402,9.898-3.676,19.871-13.574,22.271c-9.899,2.402-19.87-3.675-22.272-13.574
		c-2.402-9.897,3.676-19.869,13.575-22.271C282.563,126.876,292.535,132.954,294.937,142.852"/>
	<path fill="#F4B545" d="M280.72,163.455c-0.104,0.024-0.202,0.05-0.303,0.063h-0.005c-3.107,0.657-6.197,0.338-8.968-0.738
		c0.536-2.334,2.039-4.389,4.154-5.59l0.006-0.001c0.35-0.2,0.717-0.376,1.097-0.52c0.348-0.138,0.712-0.253,1.088-0.345
		l3.036-0.736c0.371-0.09,0.748-0.153,1.119-0.192l0.005-0.001c0.405-0.045,0.812-0.058,1.214-0.04
		c1.714,0.069,3.354,0.646,4.713,1.632c0.517,0.371,0.992,0.811,1.421,1.289c-1.896,2.227-4.421,3.947-7.39,4.863
		c-0.134,0.044-0.269,0.083-0.411,0.117c-0.02,0.011-0.042,0.015-0.064,0.021h-0.005c-0.026,0.013-0.053,0.02-0.087,0.022
		c-0.021,0.01-0.048,0.017-0.077,0.019c-0.101,0.035-0.21,0.063-0.318,0.088l-0.077,0.02l-0.092,0.021l-0.028,0.006L280.72,163.455z
		"/>
	<path fill="#E09F36" d="M268.464,146.033c0,0-3.444-10.038,2.122-11.604c5.565-1.564,7.512-3.543,8.972-3.396
		c1.459,0.147,4.753,9.228,4.837,11.134C284.479,144.072,268.464,146.033,268.464,146.033"/>
	<path fill="#F4CB95" d="M281.58,153.883l0.697,2.873c0.295,1.218-0.642,2.502-2.085,2.852c-1.442,0.35-2.864-0.361-3.159-1.578
		l-0.697-2.874c-0.122-0.501-0.034-1.016,0.214-1.471c0.057-0.106,0.123-0.209,0.198-0.308c0.141-0.188,0.312-0.362,0.508-0.515
		c0.326-0.255,0.722-0.45,1.164-0.557c0.443-0.108,0.884-0.116,1.29-0.039c0.244,0.046,0.475,0.121,0.687,0.224
		c0.011,0.004,0.022,0.01,0.033,0.016c0.1,0.051,0.195,0.106,0.285,0.168C281.144,152.965,281.458,153.381,281.58,153.883"/>
	<path fill="#D8A471" d="M283.645,142.775l1.015,4.185c0.714,2.938-0.555,5.916-2.938,7.511l0.268,1.104
		c-0.666,0.446-1.42,0.785-2.241,0.983l-0.561,0.138c-0.822,0.198-1.647,0.243-2.442,0.151l-0.268-1.104
		c-2.85-0.326-5.341-2.393-6.054-5.33l-1.015-4.184c-0.468-1.967-0.051-3.946,0.992-5.516c0.947-1.428,2.409-2.517,4.194-2.949
		l0.561-0.136c1.603-0.39,3.218-0.188,4.613,0.459h0.001C281.638,138.96,283.114,140.632,283.645,142.775"/>
	<path fill="#F4CB95" d="M283.383,141.707l1.275,5.256c0.319,1.314,0.246,2.64-0.152,3.842c-0.062,0.188-0.138,0.374-0.214,0.553
		c-0.094,0.225-0.196,0.438-0.313,0.646c-0.539,0.98-1.31,1.831-2.254,2.469c-0.669,0.443-1.423,0.787-2.245,0.987l-0.557,0.135
		c-0.822,0.199-1.65,0.239-2.441,0.149c-2.852-0.325-5.344-2.394-6.056-5.328l-1.322-5.452c-0.426-2,0.057-4.013,1.179-5.571
		c0.181-0.251,0.372-0.484,0.58-0.704c0.903-0.968,2.088-1.69,3.467-2.026l0.556-0.135c1.069-0.259,2.147-0.259,3.163-0.023
		c0.204,0.045,0.403,0.09,0.6,0.156c0.239,0.076,0.474,0.158,0.707,0.264C281.304,137.777,282.846,139.492,283.383,141.707"/>
	<path fill="#EDC28E" d="M286.795,143.807c0.367,1.514-0.562,3.037-2.074,3.404l-1.329-5.478c0.379-0.093,0.76-0.103,1.123-0.043
		c0.003,0.001,0.005,0.002,0.005,0.002C285.6,141.871,286.521,142.676,286.795,143.807"/>
	<path fill="#D8A471" d="M285.752,144.061c0.227,0.937-0.348,1.881-1.285,2.106l-0.823-3.391
		C284.582,142.549,285.524,143.123,285.752,144.061"/>
	<path fill="#EDC28E" d="M269.156,145.188l1.329,5.478c-1.512,0.367-3.035-0.562-3.402-2.075c-0.316-1.3,0.327-2.609,1.475-3.184
		c0.04-0.021,0.08-0.04,0.122-0.057c0.021-0.01,0.044-0.018,0.067-0.026C268.878,145.268,269.013,145.221,269.156,145.188"/>
	<path fill="#D8A471" d="M268.125,148.338c0.227,0.937,1.171,1.512,2.107,1.283l-0.822-3.391
		C268.473,146.457,267.897,147.4,268.125,148.338"/>
	<path fill="#E5B67F" d="M283.383,141.707l1.275,5.256c0.319,1.314,0.246,2.64-0.152,3.842c-0.062,0.188-0.138,0.374-0.214,0.553
		c-1.046-10.24-3.057-11.272-5.406-10.683c-2.527,0.626-3.857-2.347-3.857-2.347l3.62-1.668c0.239,0.076,0.474,0.158,0.707,0.264
		C281.304,137.777,282.846,139.492,283.383,141.707"/>
	<path fill="#CC8E2B" d="M282.75,158.691l0.941,0.979l-1.784,3.468c-0.134,0.043-0.268,0.082-0.41,0.116
		c-0.021,0.011-0.042,0.017-0.064,0.022l-0.006,0.001c-0.026,0.012-0.053,0.018-0.087,0.021l0.838-5.322l0.003-0.013l0.139-0.876
		l0.004-0.006l0.013-0.09l-0.343-1.417l2.052,2.11l-1.228,0.955L282.75,158.691z"/>
	<path fill="#FFFFFF" d="M280.868,163.426l0.076-0.02c0.109-0.025,0.218-0.052,0.319-0.088c0.029-0.002,0.056-0.008,0.076-0.02
		c0.034-0.002,0.062-0.01,0.088-0.021l0.005-0.001l0.206-0.627l1.085-3.374l-0.212-0.878l0.483-0.764l-0.604-1.111
		c0,0-0.026,0.104-0.097,0.289l-0.008,0.013l0.002,0.011c-0.186,0.52-0.648,1.584-1.496,2.326c-0.187,0.155-0.381,0.306-0.612,0.426
		c-0.355-0.013-0.694-0.08-1.008-0.184c-0.981-0.31-1.763-0.962-2.118-1.309l-0.008-0.01c-0.148-0.133-0.219-0.213-0.219-0.213
		l-0.028,1.266l0.78,0.457l0.213,0.877l2.161,2.152l0.816,0.818l0.007,0.004L280.868,163.426z"/>
	<path fill="#E09F36" d="M282.818,158.641l0.873,1.029l-2.195,3.586c-0.02,0.01-0.042,0.016-0.064,0.021l-0.005,0.001
		c-0.026,0.011-0.053,0.019-0.088,0.021c-0.02,0.012-0.047,0.019-0.076,0.02l0.81-5.107l-0.002-0.007l0.217-1.368l-0.003-0.01
		l0.008-0.014l-0.344-1.417l2.097,2.29l-1.34,0.826L282.818,158.641z"/>
	<path fill="#CC8E2B" d="M280.72,163.455c-0.104,0.024-0.202,0.05-0.303,0.063h-0.005l-3.299-2.251l0.388-1.301l-0.084-0.015
		l-1.53-0.286l0.858-2.816l0.3,1.237l0.044,0.18l0.008,0.01l0.027,0.039l0.008,0.01l0.543,0.739l0.001,0.005l3.192,4.357
		l-0.092,0.021l-0.028,0.006L280.72,163.455z"/>
	<polygon fill="#E09F36" points="280.72,163.455 277.113,161.267 277.417,159.951 277.458,159.785 275.887,159.665 276.701,156.669 
		276.745,156.849 277.045,158.086 277.053,158.096 277.881,159.222 277.882,159.227 280.945,163.406 280.868,163.426 
		280.776,163.447 280.748,163.453 	"/>
	<path fill="#E09F36" d="M278.896,135.553c0,0-3.67-0.202-4.333-0.041c-0.662,0.16-1.496,0.445-2.732,1.08
		c-1.236,0.636-2.867,2.539-2.867,2.539l-0.2,0.797c-0.154,0.265-0.307,0.56-0.301,0.633c0.006,0.066,0.012,0.293,0.016,0.499
		l-0.165,0.655c0.039-0.025,0.133-0.082,0.247-0.158l0.311,0.516c0.019-0.012,0.431-1.154,1.468-2.082
		c1.364-0.896,3.342-1.52,5.019-0.822c3.048,1.271,7.602-1.007,7.602-1.007L278.896,135.553z"/>
	<path fill="#E29D2D" d="M340.913,120.102l-41.068,9.966c-1.06,0.258-2.137-0.4-2.394-1.459l-0.024-0.097
		c-0.257-1.06,0.4-2.139,1.46-2.395l41.068-9.965c1.06-0.257,2.137,0.398,2.394,1.46l0.023,0.096
		C342.63,118.768,341.973,119.846,340.913,120.102"/>
	<path fill="#FFDCA4" d="M343.004,128.719l-41.068,9.965c-1.06,0.258-2.138-0.4-2.394-1.459l-0.024-0.098
		c-0.257-1.059,0.4-2.138,1.459-2.394l41.069-9.965c1.059-0.257,2.137,0.399,2.394,1.46l0.023,0.095
		C344.72,127.385,344.064,128.461,343.004,128.719"/>
	<path fill="#FFDCA4" d="M345.095,137.334l-41.068,9.966c-1.06,0.258-2.138-0.4-2.395-1.459l-0.023-0.097
		c-0.257-1.06,0.4-2.139,1.459-2.395l41.069-9.965c1.059-0.257,2.137,0.398,2.394,1.46l0.023,0.095
		C346.811,136,346.155,137.078,345.095,137.334"/>
	<path fill="#FFDCA4" d="M347.185,145.951l-41.068,9.965c-1.06,0.257-2.137-0.4-2.394-1.459l-0.024-0.098
		c-0.257-1.059,0.4-2.138,1.46-2.394l41.068-9.965c1.06-0.257,2.137,0.399,2.394,1.459l0.023,0.096
		C348.902,144.617,348.245,145.693,347.185,145.951"/>
	<path fill="#52D1BD" d="M281.053,272.063c-0.681,0-1.362-0.015-2.043-0.041c-0.791-0.032-1.406-0.699-1.374-1.49
		c0.032-0.791,0.712-1.403,1.49-1.374c2.456,0.1,4.929,0.008,7.409-0.277c0.783-0.092,1.497,0.476,1.587,1.261
		c0.091,0.787-0.474,1.498-1.261,1.588C284.923,271.951,282.968,272.063,281.053,272.063 M271.492,271.077
		c-0.098,0-0.198-0.01-0.298-0.031c-2.557-0.54-5.093-1.303-7.536-2.268c-0.736-0.292-1.097-1.124-0.806-1.861
		s1.124-1.094,1.861-0.806c2.292,0.906,4.673,1.624,7.073,2.13c0.775,0.164,1.27,0.924,1.107,1.698
		C272.751,270.614,272.155,271.077,271.492,271.077 M294.203,270.324c-0.636,0-1.217-0.426-1.385-1.071
		c-0.201-0.765,0.257-1.548,1.022-1.75c2.36-0.616,4.739-1.412,7.071-2.36c0.736-0.299,1.57,0.056,1.868,0.787
		c0.299,0.734-0.054,1.57-0.787,1.868c-2.447,0.996-4.945,1.83-7.424,2.479C294.445,270.309,294.323,270.324,294.203,270.324
		 M257.336,265.504c-0.249,0-0.501-0.064-0.731-0.201c-2.196-1.307-4.359-2.819-6.43-4.496c-0.616-0.498-0.71-1.4-0.212-2.016
		c0.499-0.617,1.4-0.711,2.016-0.212c1.964,1.591,4.014,3.022,6.091,4.26c0.681,0.405,0.904,1.285,0.499,1.964
		C258.301,265.254,257.825,265.504,257.336,265.504 M308.346,264.6c-0.505,0-0.994-0.265-1.256-0.737
		c-0.383-0.692-0.133-1.565,0.559-1.948c2.162-1.2,4.289-2.544,6.321-3.997c0.643-0.459,1.537-0.312,2,0.333
		c0.46,0.643,0.311,1.54-0.333,2c-2.121,1.516-4.341,2.919-6.598,4.17C308.819,264.543,308.58,264.6,308.346,264.6 M245.458,255.946
		c-0.377,0-0.753-0.148-1.035-0.441c-1.757-1.833-3.467-3.825-5.081-5.924c-0.482-0.629-0.364-1.528,0.264-2.01
		c0.628-0.484,1.526-0.365,2.01,0.262c1.55,2.017,3.19,3.931,4.876,5.687c0.548,0.571,0.53,1.479-0.041,2.026
		C246.172,255.813,245.815,255.946,245.458,255.946 M320.76,255.733c-0.392,0-0.782-0.16-1.065-0.474
		c-0.531-0.59-0.483-1.496,0.104-2.025c1.867-1.684,3.634-3.473,5.255-5.318c0.522-0.594,1.428-0.654,2.023-0.132
		c0.595,0.522,0.655,1.428,0.132,2.022c-1.694,1.931-3.541,3.799-5.49,5.558C321.444,255.61,321.102,255.733,320.76,255.733
		 M325.686,247.216c-0.728,0-1.353-0.553-1.425-1.295c-0.077-0.788,0.499-1.489,1.287-1.565c1.373-0.135,2.753-0.353,4.128-0.656
		c-0.373-0.477-0.417-1.157-0.061-1.688c1.42-2.105,2.665-4.273,3.703-6.44c0.341-0.716,1.197-1.019,1.911-0.675
		c0.714,0.343,1.017,1.197,0.674,1.912c-0.993,2.076-2.166,4.151-3.492,6.176c0.109-0.032,0.217-0.066,0.325-0.102
		c0.761-0.231,1.561,0.188,1.797,0.942c0.236,0.755-0.185,1.56-0.941,1.796c-2.562,0.8-5.175,1.335-7.765,1.588
		C325.78,247.213,325.733,247.216,325.686,247.216 M318.063,247.105c-0.061,0-0.122-0.004-0.184-0.012
		c-2.51-0.322-5.104-0.929-7.71-1.801c-0.751-0.252-1.156-1.064-0.905-1.814c0.252-0.752,1.062-1.156,1.815-0.905
		c2.429,0.813,4.84,1.379,7.165,1.678c0.785,0.101,1.34,0.819,1.239,1.604C319.39,246.579,318.774,247.105,318.063,247.105
		 M236.124,243.852c-0.479,0-0.947-0.239-1.218-0.676c-1.39-2.228-2.671-4.516-3.807-6.8c-0.352-0.709-0.064-1.569,0.645-1.922
		c0.708-0.354,1.569-0.063,1.922,0.646c1.096,2.201,2.331,4.408,3.672,6.56c0.419,0.672,0.214,1.555-0.457,1.974
		C236.645,243.781,236.382,243.852,236.124,243.852 M340.205,242.73c-0.513,0-1.01-0.275-1.267-0.76
		c-0.372-0.699-0.106-1.566,0.592-1.938c2.142-1.138,4.23-2.489,6.21-4.015c0.628-0.482,1.529-0.366,2.011,0.26
		c0.483,0.628,0.367,1.527-0.26,2.011c-2.107,1.624-4.332,3.062-6.614,4.274C340.662,242.678,340.432,242.73,340.205,242.73
		 M303.615,242.323c-0.231,0-0.464-0.056-0.681-0.174c-2.38-1.289-4.592-2.771-6.575-4.397c-0.612-0.502-0.701-1.406-0.198-2.018
		c0.504-0.613,1.407-0.701,2.017-0.198c1.843,1.512,3.902,2.89,6.121,4.093c0.697,0.377,0.955,1.248,0.578,1.943
		C304.617,242.051,304.124,242.323,303.615,242.323 M352.281,233.465c-0.354,0-0.71-0.13-0.987-0.394
		c-0.574-0.545-0.597-1.452-0.052-2.026c1.684-1.773,3.268-3.708,4.708-5.748c0.456-0.646,1.35-0.801,1.998-0.345
		c0.647,0.457,0.801,1.351,0.345,1.998c-1.52,2.153-3.192,4.194-4.973,6.069C353.039,233.316,352.66,233.465,352.281,233.465
		 M291.956,232.604c-0.432,0-0.861-0.194-1.142-0.565c-1.671-2.202-2.988-4.56-3.914-7.008c-0.28-0.741,0.094-1.569,0.834-1.849
		c0.74-0.278,1.567,0.093,1.848,0.834c0.828,2.191,2.01,4.308,3.515,6.287c0.479,0.631,0.356,1.53-0.275,2.01
		C292.564,232.508,292.258,232.604,291.956,232.604 M337.303,230.48c-0.126,0-0.254-0.017-0.38-0.051
		c-0.764-0.209-1.213-0.998-1.003-1.761c0.671-2.446,1.066-4.874,1.175-7.216c0.036-0.789,0.681-1.396,1.499-1.366
		c0.79,0.038,1.402,0.708,1.365,1.499c-0.119,2.553-0.548,5.191-1.275,7.84C338.51,230.063,337.932,230.48,337.303,230.48
		 M361.083,221.026c-0.222,0-0.447-0.052-0.658-0.16c-0.703-0.363-0.979-1.228-0.615-1.933c1.128-2.183,2.129-4.481,2.975-6.83
		c0.269-0.745,1.09-1.131,1.835-0.863c0.745,0.27,1.131,1.09,0.863,1.835c-0.888,2.467-1.94,4.88-3.126,7.175
		C362.102,220.743,361.601,221.026,361.083,221.026 M286.693,218.508c-0.76,0-1.394-0.596-1.431-1.363
		c-0.021-0.442-0.033-0.885-0.033-1.326c0-2.188,0.264-4.428,0.786-6.654c0.18-0.773,0.958-1.251,1.721-1.07
		c0.771,0.181,1.251,0.951,1.07,1.721c-0.47,2.016-0.709,4.035-0.709,6.004c0,0.395,0.01,0.791,0.029,1.187
		c0.039,0.79-0.571,1.462-1.363,1.501C286.74,218.507,286.716,218.508,286.693,218.508 M337.92,215.35
		c-0.669,0-1.268-0.471-1.405-1.151c-0.468-2.339-1.19-4.709-2.146-7.045c-0.3-0.733,0.052-1.57,0.784-1.87
		c0.732-0.298,1.57,0.052,1.87,0.784c1.024,2.505,1.801,5.051,2.304,7.567c0.155,0.777-0.348,1.533-1.124,1.688
		C338.108,215.341,338.013,215.35,337.92,215.35 M290.042,203.762c-0.22,0-0.441-0.049-0.649-0.154
		c-0.706-0.359-0.987-1.223-0.629-1.928c1.212-2.382,2.692-4.615,4.399-6.637c0.51-0.605,1.414-0.682,2.021-0.171
		c0.605,0.511,0.68,1.416,0.17,2.021c-1.566,1.854-2.923,3.902-4.034,6.086C291.067,203.477,290.563,203.762,290.042,203.762
		 M332.184,201.26c-0.472,0-0.936-0.232-1.209-0.662c-1.372-2.143-2.904-4.078-4.55-5.748c-0.556-0.563-0.549-1.472,0.014-2.026
		c0.564-0.556,1.471-0.55,2.027,0.013c1.787,1.813,3.443,3.904,4.924,6.217c0.427,0.668,0.232,1.555-0.435,1.98
		C332.715,201.186,332.448,201.26,332.184,201.26 M299.861,192.225c-0.451,0-0.894-0.211-1.173-0.606
		c-0.456-0.647-0.302-1.541,0.345-1.997c2.314-1.633,4.749-2.838,7.237-3.579c0.757-0.225,1.557,0.204,1.783,0.962
		c0.226,0.76-0.205,1.559-0.964,1.785c-2.188,0.653-4.344,1.721-6.403,3.173C300.435,192.141,300.146,192.225,299.861,192.225
		 M321.422,190.607c-0.237,0-0.477-0.06-0.699-0.184c-2.172-1.216-4.415-1.975-6.668-2.255c-0.785-0.098-1.343-0.813-1.245-1.599
		c0.098-0.786,0.807-1.344,1.599-1.246c2.623,0.326,5.218,1.201,7.715,2.599c0.691,0.388,0.937,1.261,0.55,1.951
		C322.411,190.344,321.924,190.607,321.422,190.607"/>
	<g opacity="0.1">
		<g>
			<defs>
				<rect id="SVGID_15_" x="339.934" y="167.195" width="55.865" height="55.86"/>
			</defs>
			<clipPath id="SVGID_16_">
				<use xlink:href="#SVGID_15_"  overflow="visible"/>
			</clipPath>
			<path clip-path="url(#SVGID_16_)" fill="#232323" d="M395.727,197.109c1.095-15.387-10.491-28.747-25.878-29.842
				c-15.388-1.095-28.748,10.49-29.843,25.877c-1.095,15.388,10.491,28.748,25.878,29.844
				C381.271,224.083,394.632,212.497,395.727,197.109"/>
		</g>
	</g>
	<path fill="#F4B545" d="M401.664,193.773c-1.095,15.387-14.456,26.974-29.843,25.879c-15.387-1.096-26.973-14.456-25.878-29.844
		c1.095-15.388,14.456-26.973,29.843-25.879C391.173,165.025,402.759,178.387,401.664,193.773"/>
	<path fill="#FFFFFF" d="M378.779,183.698l0.661-2.193l5.302,0.376l-4.077,14.182c-0.253,0.898-0.389,1.494-0.41,1.789
		c-0.022,0.308,0.038,0.555,0.18,0.738c0.14,0.186,0.319,0.286,0.533,0.301c0.723,0.051,1.69-0.354,2.902-1.217
		c1.212-0.861,2.301-2.076,3.267-3.642c0.966-1.567,1.518-3.314,1.655-5.242c0.114-1.606-0.083-3.142-0.591-4.604
		c-0.508-1.461-1.301-2.756-2.378-3.883c-1.077-1.126-2.442-2.044-4.093-2.754c-1.653-0.709-3.549-1.14-5.691-1.292
		c-2.183-0.155-4.204-0.013-6.065,0.425c-1.861,0.441-3.52,1.145-4.975,2.11c-1.454,0.965-2.699,2.2-3.734,3.7
		c-0.914,1.307-1.644,2.775-2.191,4.406c-0.546,1.629-0.881,3.308-1.004,5.033c-0.164,2.303,0.145,4.442,0.926,6.414
		c0.781,1.975,2,3.668,3.655,5.084c1.655,1.418,3.702,2.484,6.14,3.203s5.229,1.028,8.371,0.93c2.498-0.119,4.637-0.532,6.416-1.239
		c1.779-0.708,3.318-1.771,4.617-3.185l4.277,0.305c-0.798,1.384-1.796,2.598-2.994,3.643c-1.198,1.045-2.574,1.898-4.128,2.563
		c-1.554,0.662-3.276,1.129-5.166,1.398c-1.889,0.27-3.932,0.325-6.128,0.168c-3.294-0.234-6.228-0.876-8.804-1.927
		c-2.576-1.052-4.707-2.454-6.392-4.209s-2.909-3.793-3.672-6.115c-0.763-2.321-1.048-4.848-0.854-7.58
		c0.203-2.851,0.868-5.48,1.995-7.891c1.127-2.408,2.649-4.464,4.566-6.164s4.201-2.974,6.852-3.822
		c2.651-0.847,5.529-1.161,8.635-0.94c2.544,0.183,4.85,0.72,6.92,1.613c2.068,0.895,3.81,2.092,5.224,3.592
		s2.451,3.232,3.112,5.196s0.91,4.099,0.746,6.401c-0.128,1.794-0.575,3.527-1.34,5.203c-0.765,1.675-1.795,3.154-3.091,4.441
		c-1.295,1.287-2.782,2.272-4.459,2.952c-1.676,0.683-3.452,0.957-5.326,0.823c-1.085-0.077-1.915-0.321-2.491-0.732
		c-0.576-0.412-0.936-1.025-1.08-1.843c-1.247,1.068-2.637,1.7-4.172,1.894c-1.534,0.192-2.99-0.053-4.368-0.735
		s-2.456-1.745-3.234-3.187c-0.779-1.441-1.097-3.174-0.953-5.194c0.149-2.103,0.749-4.14,1.797-6.109
		c1.049-1.971,2.452-3.546,4.212-4.727c1.759-1.181,3.69-1.695,5.792-1.546C376.08,180.781,377.783,181.811,378.779,183.698
		 M367.054,193.318c-0.114,1.606,0.132,2.863,0.741,3.768s1.455,1.395,2.54,1.473c1.258,0.09,2.402-0.334,3.43-1.27
		c1.029-0.938,1.846-2.154,2.45-3.652c0.604-1.496,0.958-2.963,1.06-4.394c0.05-0.71,0.012-1.356-0.115-1.937
		s-0.339-1.097-0.636-1.55c-0.298-0.45-0.67-0.803-1.116-1.057c-0.446-0.254-0.964-0.402-1.553-0.444
		c-1.178-0.083-2.272,0.299-3.28,1.149c-1.01,0.85-1.821,1.989-2.434,3.42C367.528,190.255,367.165,191.753,367.054,193.318"/>
	<path fill="#4786D1" d="M291.707,36.943l3.019-1.586c0.684-0.359,1.483,0.222,1.353,0.982l-0.577,3.362
		c-0.052,0.302,0.048,0.61,0.268,0.825l2.442,2.38c0.554,0.54,0.248,1.479-0.516,1.591l-3.375,0.49
		c-0.304,0.044-0.567,0.234-0.702,0.51l-1.51,3.059c-0.342,0.693-1.33,0.693-1.672,0l-1.509-3.059
		c-0.136-0.275-0.399-0.466-0.702-0.51l-3.375-0.49c-0.765-0.112-1.07-1.051-0.517-1.591l2.442-2.38
		c0.22-0.215,0.32-0.523,0.268-0.825l-0.576-3.362c-0.131-0.761,0.669-1.342,1.352-0.982l3.019,1.586
		C291.111,37.087,291.436,37.087,291.707,36.943"/>
	<path fill="#4786D1" d="M215.779,315.965c0,2.037-1.651,3.688-3.689,3.688c-2.037,0-3.689-1.65-3.689-3.688
		s1.652-3.689,3.689-3.689C214.128,312.275,215.779,313.928,215.779,315.965"/>
	<path fill="#4786D1" d="M154.55,22.965c0,2.037-1.651,3.688-3.689,3.688c-2.037,0-3.689-1.65-3.689-3.688
		c0-2.038,1.652-3.689,3.689-3.689C152.899,19.275,154.55,20.927,154.55,22.965"/>
	<path d="M150.078,99.834h1.497v0.387c0,0.982,0.537,1.309,1.098,1.309c0.562,0,1.065-0.34,1.065-1.238v-4.524h-2.14V94.47h3.647
		v5.844c0,1.813-1.309,2.597-2.595,2.597c-1.274,0-2.572-0.807-2.572-2.597V99.834z"/>
	<path d="M159.839,96.667c1.824,0,3.285,1.297,3.285,3.121c0,1.835-1.461,3.122-3.273,3.122c-1.824,0-3.285-1.287-3.285-3.122
		C156.566,97.964,158.027,96.667,159.839,96.667 M159.851,101.646c0.958,0,1.765-0.748,1.765-1.858c0-1.099-0.807-1.858-1.765-1.858
		c-0.97,0-1.777,0.76-1.777,1.858C158.074,100.898,158.881,101.646,159.851,101.646"/>
	<path d="M164.314,94.469h1.485v2.875c0,0.294-0.024,0.504-0.024,0.504h0.024c0.292-0.573,1.016-1.182,2.057-1.182
		c1.321,0,2.07,0.69,2.07,2.269v3.835h-1.474v-3.531c0-0.724-0.186-1.216-0.946-1.216c-0.784,0-1.392,0.515-1.614,1.24
		c-0.07,0.232-0.093,0.489-0.093,0.771v2.736h-1.485V94.469z"/>
	<path d="M171.479,96.807h1.426v0.689c0,0.223-0.023,0.409-0.023,0.409h0.023c0.257-0.502,0.912-1.239,2.116-1.239
		c1.321,0,2.069,0.69,2.069,2.269v3.835h-1.473v-3.531c0-0.725-0.186-1.216-0.946-1.216c-0.796,0-1.38,0.504-1.602,1.216
		c-0.082,0.246-0.105,0.514-0.105,0.796v2.735h-1.485V96.807z"/>
	<path fill="#5B97EF" d="M182.818,95.602c2.384,0,3.215,1.204,3.215,2.549v2.924h0.853v1.063h-3.239
		c-1.578,0-2.513-1.052-2.513-2.174c0-1.11,0.912-2.14,2.513-2.14h0.994c-0.023-0.607-0.76-1.029-1.777-1.029
		c-1.695,0-2.981,1.508-2.981,3.169c0,1.707,1.216,3.132,3.168,3.132v1.158c-2.782,0-4.629-1.895-4.629-4.29
		C178.422,97.531,180.339,95.602,182.818,95.602 M183.741,101.074h0.9v-2.293h-0.877c-0.701,0-1.157,0.527-1.157,1.146
		C182.607,100.559,183.063,101.074,183.741,101.074"/>
	<path fill="#5B97EF" d="M190.648,103.961c0.912,0,1.684-0.385,1.684-1.449v-0.351c0-0.14,0.023-0.315,0.023-0.315h-0.023
		c-0.351,0.526-0.865,0.807-1.66,0.807c-1.707,0-2.677-1.379-2.677-3.016c0-1.638,0.923-2.97,2.642-2.97
		c1.297,0,1.765,0.759,1.765,0.759h0.035c0,0-0.011-0.069-0.011-0.164v-0.455h1.39v5.601c0,2.046-1.59,2.815-3.144,2.815
		c-0.749,0-1.543-0.209-2.117-0.514l0.445-1.133C189,103.576,189.748,103.961,190.648,103.961 M192.367,99.646
		c0-1.354-0.667-1.717-1.473-1.717c-0.901,0-1.403,0.654-1.403,1.659c0,1.04,0.538,1.813,1.497,1.813
		C191.7,101.401,192.367,100.992,192.367,99.646"/>
	<path fill="#5B97EF" d="M198.479,99.027h0.199v-0.082c0-0.783-0.491-1.052-1.146-1.052c-0.854,0-1.637,0.573-1.637,0.573
		l-0.561-1.064c0,0,0.924-0.736,2.339-0.736c1.566,0,2.478,0.865,2.478,2.373v3.73h-1.369v-0.492c0-0.232,0.024-0.421,0.024-0.421
		h-0.024c0.013,0-0.455,1.054-1.812,1.054c-1.063,0-2.022-0.668-2.022-1.858C194.948,99.156,197.509,99.027,198.479,99.027
		 M197.345,101.752c0.783,0,1.344-0.842,1.344-1.565v-0.141h-0.257c-0.759,0-1.987,0.104-1.987,0.935
		C196.445,101.379,196.737,101.752,197.345,101.752"/>
	<path fill="#5B97EF" d="M201.915,98.082h-0.771V96.9h0.806v-1.719h1.45V96.9h1.356v1.182h-1.356v2.313
		c0,0.983,0.772,1.123,1.181,1.123c0.163,0,0.269-0.024,0.269-0.024v1.299c0,0-0.176,0.033-0.456,0.033
		c-0.831,0-2.479-0.243-2.479-2.243V98.082z"/>
	<path fill="#5B97EF" d="M208.893,96.667c1.824,0,3.285,1.297,3.285,3.121c0,1.835-1.461,3.122-3.273,3.122
		c-1.823,0-3.285-1.287-3.285-3.122C205.62,97.964,207.082,96.667,208.893,96.667 M208.905,101.646c0.959,0,1.766-0.748,1.766-1.858
		c0-1.099-0.807-1.858-1.766-1.858c-0.97,0-1.777,0.76-1.777,1.858C207.128,100.898,207.935,101.646,208.905,101.646"/>
	<path fill="#5B97EF" d="M213.369,96.807h1.426v1.029c0,0.223-0.023,0.42-0.023,0.42h0.023c0.27-0.853,0.982-1.53,1.894-1.53
		c0.14,0,0.269,0.022,0.269,0.022v1.463c0,0-0.151-0.024-0.351-0.024c-0.631,0-1.344,0.362-1.625,1.251
		c-0.093,0.293-0.128,0.62-0.128,0.97v2.362h-1.485V96.807z"/>
	<path fill="#5B97EF" d="M218.138,100.992c0,0,0.655,0.654,1.625,0.654c0.421,0,0.783-0.187,0.783-0.537
		c0-0.889-2.899-0.771-2.899-2.688c0-1.11,0.994-1.754,2.28-1.754c1.344,0,1.999,0.678,1.999,0.678l-0.549,1.099
		c0,0-0.55-0.515-1.462-0.515c-0.385,0-0.759,0.165-0.759,0.538c0,0.842,2.899,0.736,2.899,2.654c0,0.994-0.866,1.789-2.28,1.789
		c-1.485,0-2.315-0.877-2.315-0.877L218.138,100.992z"/>
	<path fill="#5B97EF" d="M222.591,96.807h1.566l1.041,3.917c0.082,0.314,0.117,0.632,0.117,0.632h0.024c0,0,0.058-0.317,0.14-0.632
		l1.098-3.905h1.322l1.099,3.905c0.081,0.314,0.128,0.632,0.128,0.632h0.024c0,0,0.046-0.317,0.128-0.632l1.041-3.917h1.543
		l-1.812,5.963h-1.648l-1.006-3.402c-0.094-0.316-0.152-0.643-0.152-0.643h-0.024c0,0-0.046,0.326-0.14,0.643l-1.005,3.402h-1.66
		L222.591,96.807z"/>
	<path fill="#5B97EF" d="M235.448,96.666c1.719,0,2.642,1.252,2.642,2.83c0,0.174-0.035,0.573-0.035,0.573h-4.115
		c0.093,1.04,0.901,1.578,1.789,1.578c0.958,0,1.719-0.656,1.719-0.656l0.572,1.064c0,0-0.912,0.854-2.397,0.854
		c-1.975,0-3.203-1.426-3.203-3.122C232.42,97.952,233.671,96.666,235.448,96.666 M236.594,99.051
		c-0.023-0.807-0.526-1.238-1.181-1.238c-0.76,0-1.286,0.468-1.426,1.238H236.594z"/>
	<path fill="#5B97EF" d="M239.317,94.47h1.485v2.56c0,0.293-0.024,0.502-0.024,0.502h0.024c0,0,0.525-0.864,1.788-0.864
		c1.613,0,2.642,1.274,2.642,3.121c0,1.894-1.157,3.122-2.736,3.122c-1.239,0-1.777-0.889-1.777-0.889h-0.023
		c0,0,0.023,0.174,0.023,0.408v0.34h-1.402V94.47z M242.239,101.658c0.818,0,1.497-0.666,1.497-1.848
		c0-1.133-0.608-1.869-1.485-1.869c-0.772,0-1.497,0.561-1.497,1.881C240.754,100.746,241.245,101.658,242.239,101.658"/>
	<rect x="246.399" y="101.283" fill="#5B97EF" width="1.485" height="1.485"/>
	<path fill="#5B97EF" d="M252.267,96.666c1.555,0,2.292,0.89,2.292,0.89l-0.655,1.017c0,0-0.62-0.643-1.555-0.643
		c-1.099,0-1.812,0.83-1.812,1.846c0,1.006,0.725,1.871,1.858,1.871c1.006,0,1.754-0.76,1.754-0.76l0.573,1.051
		c0,0-0.853,0.973-2.455,0.973c-1.976,0-3.238-1.392-3.238-3.123C249.029,98.094,250.291,96.666,252.267,96.666"/>
	<path fill="#5B97EF" d="M258.661,96.667c1.824,0,3.285,1.297,3.285,3.121c0,1.835-1.461,3.122-3.273,3.122
		c-1.824,0-3.285-1.287-3.285-3.122C255.388,97.964,256.849,96.667,258.661,96.667 M258.673,101.646
		c0.958,0,1.765-0.748,1.765-1.858c0-1.099-0.807-1.858-1.765-1.858c-0.971,0-1.777,0.76-1.777,1.858
		C256.896,100.898,257.702,101.646,258.673,101.646"/>
	<path fill="#5B97EF" d="M263.137,96.807h1.426v0.689c0,0.223-0.023,0.409-0.023,0.409h0.023c0.292-0.583,1.005-1.239,1.941-1.239
		c0.912,0,1.496,0.422,1.742,1.228h0.023c0.327-0.644,1.099-1.228,2.035-1.228c1.238,0,1.952,0.702,1.952,2.269v3.835h-1.485v-3.555
		c0-0.678-0.129-1.192-0.819-1.192c-0.759,0-1.262,0.608-1.437,1.356c-0.059,0.234-0.07,0.49-0.07,0.772v2.618h-1.485v-3.555
		c0-0.643-0.105-1.192-0.807-1.192c-0.771,0-1.274,0.608-1.461,1.368c-0.059,0.223-0.07,0.49-0.07,0.761v2.618h-1.485V96.807z"/>
</g>
<g>
</g>
<g>
</g>
<g>
</g>
<g>
</g>
<g>
</g>
<g>
</g>
<g>
</g>
<g>
</g>
<g>
</g>
<g>
</g>
<g>
</g>
<g>
</g>
<g>
</g>
<g>
</g>
<g>
</g>
</svg>
