<?xml version="1.0" encoding="utf-8"?>
<!-- Generator: Adobe Illustrator 16.0.0, SVG Export Plug-In . SVG Version: 6.00 Build 0)  -->
<!DOCTYPE svg PUBLIC "-//W3C//DTD SVG 1.1//EN" "http://www.w3.org/Graphics/SVG/1.1/DTD/svg11.dtd">
<svg version="1.1" id="Layer_1" xmlns="http://www.w3.org/2000/svg" xmlns:xlink="http://www.w3.org/1999/xlink" x="0px" y="0px"
	 width="127.242px" height="125px" viewBox="0 0 127.242 125" enable-background="new 0 0 127.242 125" xml:space="preserve">
<g>
	<defs>
		<rect id="SVGID_1_" x="-388.047" y="-1338.189" width="1312.329" height="2507.303"/>
	</defs>
	<clipPath id="SVGID_2_">
		<use xlink:href="#SVGID_1_"  overflow="visible"/>
	</clipPath>
	<rect x="105.179" y="73.515" clip-path="url(#SVGID_2_)" fill="#12E3FF" width="11.494" height="11.493"/>
	<path clip-path="url(#SVGID_2_)" fill="#12E3FF" d="M118.588,54.359h-3.831v-1.915c0-1.058-0.857-1.916-1.916-1.916
		c-1.057,0-1.915,0.858-1.915,1.916v1.915H91.771v-1.915c0-1.058-0.857-1.916-1.916-1.916c-1.058,0-1.914,0.858-1.914,1.916v1.915
		H68.784v-1.915c0-1.058-0.857-1.916-1.915-1.916s-1.916,0.858-1.916,1.916v1.915h-3.831c-3.17,0.01-5.737,2.577-5.746,5.747v59.382
		c0.006,2.113,1.717,3.824,3.831,3.831h61.297c2.112-0.007,3.825-1.718,3.831-3.831V60.106
		C124.326,56.937,121.758,54.369,118.588,54.359 M118.588,115.657H61.122c-1.059,0-1.915-0.859-1.915-1.916
		c0-1.058,0.856-1.915,1.915-1.915h57.466c1.058,0,1.916,0.857,1.916,1.915C120.504,114.798,119.646,115.657,118.588,115.657
		 M118.588,106.079H61.122c-1.059,0-1.915-0.858-1.915-1.915c0-1.059,0.856-1.916,1.915-1.916h57.466
		c1.058,0,1.916,0.857,1.916,1.916C120.504,105.221,119.646,106.079,118.588,106.079 M118.588,96.5H61.122
		c-1.059,0-1.915-0.856-1.915-1.915c0-1.057,0.856-1.916,1.915-1.916h57.466c1.058,0,1.916,0.859,1.916,1.916
		C120.504,95.644,119.646,96.5,118.588,96.5 M120.504,86.923c0,1.059-0.856,1.915-1.914,1.915h-0.002h-15.324
		c-1.057,0.001-1.915-0.854-1.915-1.912v-0.003V71.6c0-1.059,0.856-1.915,1.913-1.916h0.002h15.324c1.058,0,1.915,0.855,1.916,1.914
		V71.6V86.923z M120.504,65.853H59.207v-5.746c0.003-1.058,0.858-1.912,1.915-1.916h3.831v1.916c0,1.058,0.858,1.915,1.916,1.915
		s1.915-0.857,1.915-1.915V58.19H87.94v1.916c0,1.058,0.856,1.915,1.914,1.915c1.059,0,1.916-0.857,1.916-1.915V58.19h19.155v1.916
		c0,1.058,0.858,1.915,1.915,1.915c1.059,0,1.916-0.857,1.916-1.915V58.19h3.831c1.058,0.004,1.913,0.858,1.916,1.916V65.853z"/>
</g>
<g>
	<defs>
		<path id="SVGID_3_" d="M9.403,94.585V37.119h88.113v57.466c0,1.059-0.857,1.915-1.916,1.915H11.318
			C10.261,96.5,9.403,95.644,9.403,94.585 M72.615,27.541h11.493c1.058,0.001,1.914-0.854,1.914-1.913v-0.002v-7.662h9.578
			c1.059,0,1.916,0.857,1.916,1.916v13.409H9.403V19.88c0-1.059,0.857-1.916,1.915-1.916h9.577v7.662
			c0,1.058,0.856,1.915,1.914,1.915h0.002h11.494c1.057,0.001,1.914-0.854,1.914-1.913v-0.002v-7.662h34.479v7.662
			c0,1.058,0.856,1.915,1.914,1.915H72.615z M24.728,8.387h7.662V23.71h-7.662V8.387z M74.53,8.387h7.663V23.71H74.53V8.387z
			 M84.108,4.556H72.615c-1.058,0-1.915,0.855-1.916,1.913v0.003v7.661H36.22V6.472c0-1.059-0.855-1.915-1.912-1.916h-0.002H22.812
			c-1.058,0-1.914,0.855-1.916,1.913v0.003v7.661h-9.577c-3.173,0.004-5.743,2.574-5.746,5.747v74.705
			c0.003,3.173,2.573,5.744,5.746,5.747h84.282c3.174-0.003,5.744-2.574,5.748-5.747V19.88c-0.004-3.173-2.574-5.743-5.748-5.747
			h-9.578V6.472c0.002-1.059-0.854-1.915-1.911-1.916H84.108z"/>
	</defs>
	<clipPath id="SVGID_4_">
		<use xlink:href="#SVGID_3_"  overflow="visible"/>
	</clipPath>
	
		<linearGradient id="SVGID_5_" gradientUnits="userSpaceOnUse" x1="-51.3413" y1="1145.3945" x2="-50.3408" y2="1145.3945" gradientTransform="matrix(110.8571 100 100 -110.8571 -108848.2422 132113.5313)">
		<stop  offset="0" style="stop-color:#3B42ED"/>
		<stop  offset="1" style="stop-color:#0000AF"/>
	</linearGradient>
	<polygon clip-path="url(#SVGID_4_)" fill="url(#SVGID_5_)" points="48.542,-43.079 148.983,47.525 58.378,147.967 -42.063,57.362 	
		"/>
</g>
<g>
	<defs>
		<path id="SVGID_6_" d="M18.981,46.697h19.154v19.155H18.981V46.697z M40.052,42.866H17.065c-1.059,0-1.916,0.856-1.916,1.914
			v0.002v22.986c-0.002,1.057,0.855,1.915,1.914,1.915h0.002h22.986c1.057,0.001,1.914-0.855,1.916-1.914v-0.001V44.782
			c0-1.058-0.856-1.915-1.914-1.916H40.052z"/>
	</defs>
	<clipPath id="SVGID_7_">
		<use xlink:href="#SVGID_6_"  overflow="visible"/>
	</clipPath>
	
		<linearGradient id="SVGID_8_" gradientUnits="userSpaceOnUse" x1="-51.3403" y1="1145.3711" x2="-50.3423" y2="1145.3711" gradientTransform="matrix(110.8571 100 100 -110.8571 -108858.9922 132125.375)">
		<stop  offset="0" style="stop-color:#3B42ED"/>
		<stop  offset="1" style="stop-color:#0000AF"/>
	</linearGradient>
	<polygon clip-path="url(#SVGID_7_)" fill="url(#SVGID_8_)" points="27.181,29.527 55.306,54.898 29.936,83.023 1.81,57.652 	"/>
</g>
<g>
	<defs>
		<path id="SVGID_9_" d="M70.638,79.324c-0.035-5.29,4.226-9.605,9.516-9.641c2.854-0.02,5.566,1.236,7.4,3.424l-7.276,7.275
			l-2.476-2.477c-0.754-0.742-1.966-0.735-2.709,0.018c-0.738,0.745-0.738,1.945,0,2.691l3.83,3.831
			c0.747,0.748,1.961,0.748,2.709,0l7.812-7.812c0.261,0.853,0.399,1.736,0.411,2.627c-0.006,5.287-4.289,9.57-9.577,9.577
			c-0.022,0-0.043,0-0.065,0C74.952,88.839,70.672,84.592,70.638,79.324 M66.869,79.262c0,7.405,6.003,13.407,13.408,13.407
			s13.409-6.002,13.409-13.407c-0.01-7.401-6.006-13.399-13.409-13.409C72.872,65.853,66.869,71.856,66.869,79.262"/>
	</defs>
	<clipPath id="SVGID_10_">
		<use xlink:href="#SVGID_9_"  overflow="visible"/>
	</clipPath>
	
		<linearGradient id="SVGID_11_" gradientUnits="userSpaceOnUse" x1="-51.3398" y1="1145.3721" x2="-50.3418" y2="1145.3721" gradientTransform="matrix(110.8571 100 100 -110.8571 -108847.2422 132112.3438)">
		<stop  offset="0" style="stop-color:#3B42ED"/>
		<stop  offset="1" style="stop-color:#0000AF"/>
	</linearGradient>
	<polygon clip-path="url(#SVGID_10_)" fill="url(#SVGID_11_)" points="78.9,52.515 107.023,77.884 81.655,106.007 53.531,80.638 	
		"/>
</g>
<g>
	<defs>
		<path id="SVGID_12_" d="M63.038,46.697c-1.059,0-1.916,0.858-1.916,1.916c0,1.057,0.857,1.914,1.916,1.914h28.732
			c1.058,0,1.916-0.857,1.916-1.914c0-1.058-0.858-1.916-1.916-1.916H63.038z"/>
	</defs>
	<clipPath id="SVGID_13_">
		<use xlink:href="#SVGID_12_"  overflow="visible"/>
	</clipPath>
	
		<linearGradient id="SVGID_14_" gradientUnits="userSpaceOnUse" x1="-51.3413" y1="1145.3711" x2="-50.3413" y2="1145.3711" gradientTransform="matrix(110.8571 100 100 -110.8571 -108833.2422 132096.875)">
		<stop  offset="0" style="stop-color:#3B42ED"/>
		<stop  offset="1" style="stop-color:#0000AF"/>
	</linearGradient>
	<polygon clip-path="url(#SVGID_13_)" fill="url(#SVGID_14_)" points="75.731,30.502 95.591,48.416 79.076,66.723 59.218,48.809 	
		"/>
</g>
<g>
	<defs>
		<path id="SVGID_15_" d="M47.713,46.697c-1.058,0-1.915,0.858-1.915,1.916c0,1.057,0.857,1.914,1.915,1.914h7.663
			c1.057,0,1.915-0.857,1.915-1.914c0-1.058-0.858-1.916-1.915-1.916H47.713z"/>
	</defs>
	<clipPath id="SVGID_16_">
		<use xlink:href="#SVGID_15_"  overflow="visible"/>
	</clipPath>
	
		<linearGradient id="SVGID_17_" gradientUnits="userSpaceOnUse" x1="-51.3413" y1="1145.3711" x2="-50.3413" y2="1145.3711" gradientTransform="matrix(110.8571 100 100 -110.8571 -108844.8672 132109.7188)">
		<stop  offset="0" style="stop-color:#3B42ED"/>
		<stop  offset="1" style="stop-color:#0000AF"/>
	</linearGradient>
	<polygon clip-path="url(#SVGID_16_)" fill="url(#SVGID_17_)" points="50.954,40.981 59.196,48.416 52.135,56.243 43.894,48.809 	
		"/>
</g>
<g>
	<defs>
		<path id="SVGID_18_" d="M47.713,58.19c-1.058,0-1.915,0.858-1.915,1.916s0.857,1.915,1.915,1.915h44.058
			c1.058,0,1.916-0.857,1.916-1.915s-0.858-1.916-1.916-1.916H47.713z"/>
	</defs>
	<clipPath id="SVGID_19_">
		<use xlink:href="#SVGID_18_"  overflow="visible"/>
	</clipPath>
	
		<linearGradient id="SVGID_20_" gradientUnits="userSpaceOnUse" x1="-51.3408" y1="1145.3711" x2="-50.3408" y2="1145.3711" gradientTransform="matrix(110.8571 100 100 -110.8571 -108842.3672 132107)">
		<stop  offset="0" style="stop-color:#3B42ED"/>
		<stop  offset="1" style="stop-color:#0000AF"/>
	</linearGradient>
	<polygon clip-path="url(#SVGID_19_)" fill="url(#SVGID_20_)" points="67.282,34.373 95.591,59.909 72.201,85.839 43.893,60.303 	
		"/>
</g>
<g>
	<defs>
		<path id="SVGID_21_" d="M17.065,75.431c-1.059,0-1.916,0.856-1.916,1.916c0,1.058,0.857,1.915,1.916,1.915h44.057
			c1.059,0,1.916-0.857,1.916-1.915c0-1.06-0.857-1.916-1.916-1.916H17.065z"/>
	</defs>
	<clipPath id="SVGID_22_">
		<use xlink:href="#SVGID_21_"  overflow="visible"/>
	</clipPath>
	
		<linearGradient id="SVGID_23_" gradientUnits="userSpaceOnUse" x1="-51.3398" y1="1145.3711" x2="-50.3418" y2="1145.3711" gradientTransform="matrix(110.8571 100 100 -110.8571 -108864.7422 132131.75)">
		<stop  offset="0" style="stop-color:#3B42ED"/>
		<stop  offset="1" style="stop-color:#0000AF"/>
	</linearGradient>
	<polygon clip-path="url(#SVGID_22_)" fill="url(#SVGID_23_)" points="36.634,51.612 64.943,77.149 41.553,103.079 13.243,77.543 	
		"/>
</g>
<g>
	<defs>
		<path id="SVGID_24_" d="M17.065,86.924c-1.059,0-1.916,0.857-1.916,1.915c0,1.059,0.857,1.916,1.916,1.916h44.057
			c1.059,0,1.916-0.857,1.916-1.916c0-1.058-0.857-1.915-1.916-1.915H17.065z"/>
	</defs>
	<clipPath id="SVGID_25_">
		<use xlink:href="#SVGID_24_"  overflow="visible"/>
	</clipPath>
	
		<linearGradient id="SVGID_26_" gradientUnits="userSpaceOnUse" x1="-51.3408" y1="1145.3711" x2="-50.3408" y2="1145.3711" gradientTransform="matrix(110.8571 100 100 -110.8571 -108870.3672 132138.0938)">
		<stop  offset="0" style="stop-color:#3B42ED"/>
		<stop  offset="1" style="stop-color:#0000AF"/>
	</linearGradient>
	<polygon clip-path="url(#SVGID_25_)" fill="url(#SVGID_26_)" points="36.634,63.105 64.944,88.643 41.553,114.573 13.243,89.036 	
		"/>
</g>
<g>
	<defs>
		<rect id="SVGID_27_" x="496" y="-1208.003" width="1312.329" height="2507.303"/>
	</defs>
	<clipPath id="SVGID_28_">
		<use xlink:href="#SVGID_27_"  overflow="visible"/>
	</clipPath>
	<polygon clip-path="url(#SVGID_28_)" fill="#12E3FF" points="985.633,361.528 948.428,361.528 967.023,375.796 	"/>
	<path clip-path="url(#SVGID_28_)" fill="#12E3FF" d="M1002.598,321.253h-72.876c-3.176,0.004-5.75,2.577-5.753,5.754v15.343h84.383
		v-15.343C1008.348,323.83,1005.775,321.257,1002.598,321.253 M996.845,333.72h-7.671c-1.059,0-1.918-0.858-1.918-1.918
		s0.859-1.918,1.918-1.918h7.671c1.06,0,1.918,0.858,1.918,1.918S997.904,333.72,996.845,333.72"/>
	<path clip-path="url(#SVGID_28_)" fill="#12E3FF" d="M945.373,391.386h41.574c1.059-0.001,1.916-0.859,1.918-1.918v-25.584
		l-20.675,15.851c-0.688,0.528-1.646,0.528-2.334,0l-22.233-17.06c-0.319,0.723-0.103-0.593-0.168,26.793
		C943.457,390.526,944.314,391.385,945.373,391.386"/>
	<path clip-path="url(#SVGID_28_)" fill="#12E3FF" d="M923.969,397.966c0.004,3.175,2.578,5.75,5.754,5.753h72.875
		c3.177-0.003,5.75-2.578,5.754-5.753v-51.781h-84.383V397.966z M939.62,363.445c0.03-3.165,2.588-5.724,5.753-5.753h41.574
		c3.176,0.003,5.75,2.576,5.753,5.753v26.021c-0.003,3.176-2.577,5.75-5.753,5.754h-41.574c-3.176-0.004-5.75-2.578-5.753-5.754
		V363.445z"/>
</g>
<g>
	<defs>
		<path id="SVGID_29_" d="M953.934,323.483l9.933-8.737c0.056,0.157,0.089,0.322,0.1,0.488v10.302
			c-0.002,1.058-0.86,1.917-1.919,1.918h-18.758c-1.059-0.001-1.917-0.86-1.918-1.918v-10.302c0.011-0.166,0.044-0.331,0.1-0.488
			l9.932,8.737c0.361,0.319,0.814,0.479,1.267,0.479S953.573,323.803,953.934,323.483 M945.652,313.317h14.031l-7.016,6.173
			L945.652,313.317z M943.289,309.481c-3.176,0.004-5.75,2.577-5.754,5.753v10.302c0.004,3.177,2.578,5.75,5.754,5.754h18.758
			c3.178-0.004,5.75-2.577,5.754-5.754v-10.302c-0.004-3.176-2.576-5.749-5.754-5.753H943.289z"/>
	</defs>
	<clipPath id="SVGID_30_">
		<use xlink:href="#SVGID_29_"  overflow="visible"/>
	</clipPath>
	
		<linearGradient id="SVGID_31_" gradientUnits="userSpaceOnUse" x1="-46.4927" y1="1148.9609" x2="-45.4907" y2="1148.9609" gradientTransform="matrix(102.2857 108 108 -102.2857 -118430.4922 122809.9141)">
		<stop  offset="0" style="stop-color:#3B42ED"/>
		<stop  offset="1" style="stop-color:#0000AF"/>
	</linearGradient>
	<polygon clip-path="url(#SVGID_30_)" fill="url(#SVGID_31_)" points="953.49,294.371 978.689,320.978 951.846,346.4 
		926.646,319.794 	"/>
</g>
<g>
	<defs>
		<path id="SVGID_32_" d="M893.284,374.952v-9.59h57.534v9.59c-0.002,1.059-0.859,1.917-1.918,1.918h-53.699
			C894.143,376.869,893.285,376.011,893.284,374.952 M933.557,333.983v-7.564c0.002-0.714-0.396-1.368-1.027-1.699l-8.268-4.335
			l8.268-4.332c0.632-0.331,1.029-0.986,1.027-1.699v-7.566c0.002-1.06,0.86-1.916,1.918-1.918h34.521
			c1.059,0.002,1.917,0.858,1.918,1.918v27.196c-0.001,1.061-0.859,1.917-1.918,1.918h-34.521
			C934.417,335.9,933.559,335.044,933.557,333.983 M893.284,290.568c0.001-1.058,0.858-1.917,1.917-1.918H948.9
			c1.059,0.001,1.916,0.86,1.918,1.918v10.466h-15.344c-3.176,0.003-5.75,2.576-5.752,5.753v6.405l-7.601,3.984
			c-1.772,0.932-2.452,3.126-1.519,4.897c0.34,0.649,0.871,1.18,1.521,1.521l7.599,3.984v6.404c0.002,3.178,2.576,5.75,5.752,5.754
			h15.344v21.791h-57.534V290.568z M895.201,284.815c-3.176,0.003-5.749,2.577-5.753,5.753v84.384
			c0.004,3.176,2.577,5.749,5.753,5.754H948.9c3.176-0.005,5.75-2.578,5.754-5.754v-35.215h15.342
			c3.176-0.004,5.75-2.576,5.753-5.754v-27.196c-0.003-3.177-2.577-5.75-5.753-5.753h-15.342v-10.466
			c-0.004-3.176-2.578-5.75-5.754-5.753H895.201z"/>
	</defs>
	<clipPath id="SVGID_33_">
		<use xlink:href="#SVGID_32_"  overflow="visible"/>
	</clipPath>
	
		<linearGradient id="SVGID_34_" gradientUnits="userSpaceOnUse" x1="-46.4917" y1="1148.998" x2="-45.4911" y2="1148.998" gradientTransform="matrix(102.2857 108 108 -102.2857 -118451.2422 122829.6172)">
		<stop  offset="0" style="stop-color:#3B42ED"/>
		<stop  offset="1" style="stop-color:#0000AF"/>
	</linearGradient>
	<polygon clip-path="url(#SVGID_33_)" fill="url(#SVGID_34_)" points="934.941,241.729 1023.623,335.364 930.255,423.793 
		841.574,330.157 	"/>
</g>
<g>
	<defs>
		<path id="SVGID_35_" d="M902.873,298.24h7.671v7.672h-7.671V298.24z M912.462,294.405h-11.507
			c-1.059-0.002-1.917,0.857-1.917,1.916v0.002v11.507c-0.001,1.059,0.858,1.917,1.916,1.917h0.001h11.507
			c1.06,0.001,1.917-0.857,1.918-1.916v-0.001v-11.507C914.38,295.264,913.521,294.405,912.462,294.405L912.462,294.405z"/>
	</defs>
	<clipPath id="SVGID_36_">
		<use xlink:href="#SVGID_35_"  overflow="visible"/>
	</clipPath>
	
		<linearGradient id="SVGID_37_" gradientUnits="userSpaceOnUse" x1="-46.4907" y1="1148.9609" x2="-45.4941" y2="1148.9609" gradientTransform="matrix(102.2857 108 108 -102.2857 -118445.6172 122824.2109)">
		<stop  offset="0" style="stop-color:#3B42ED"/>
		<stop  offset="1" style="stop-color:#0000AF"/>
	</linearGradient>
	<polygon clip-path="url(#SVGID_36_)" fill="url(#SVGID_37_)" points="907.125,286.744 922.041,302.492 906.292,317.408 
		891.377,301.659 	"/>
</g>
<g>
	<defs>
		<path id="SVGID_38_" d="M902.873,321.254h7.671v7.672h-7.671V321.254z M912.462,317.419h-11.507
			c-1.059-0.001-1.917,0.857-1.917,1.916v0.001v11.506c-0.001,1.06,0.858,1.918,1.916,1.918h0.001h11.507
			c1.06,0,1.917-0.856,1.918-1.917v-0.001v-11.506C914.38,318.276,913.521,317.419,912.462,317.419L912.462,317.419z"/>
	</defs>
	<clipPath id="SVGID_39_">
		<use xlink:href="#SVGID_38_"  overflow="visible"/>
	</clipPath>
	
		<linearGradient id="SVGID_40_" gradientUnits="userSpaceOnUse" x1="-46.4902" y1="1148.959" x2="-45.4936" y2="1148.959" gradientTransform="matrix(102.2857 108 108 -102.2857 -118456.9922 122835.0859)">
		<stop  offset="0" style="stop-color:#3B42ED"/>
		<stop  offset="1" style="stop-color:#0000AF"/>
	</linearGradient>
	<polygon clip-path="url(#SVGID_39_)" fill="url(#SVGID_40_)" points="907.125,309.758 922.039,325.506 906.292,340.42 
		891.377,324.672 	"/>
</g>
<g>
	<defs>
		<path id="SVGID_41_" d="M902.873,344.268h7.671v7.671h-7.671V344.268z M912.462,340.431h-11.507c-1.059,0-1.917,0.859-1.917,1.917
			v0.002v11.506c-0.001,1.061,0.858,1.918,1.916,1.918h0.001h11.507c1.06,0,1.917-0.856,1.918-1.917v-0.001V342.35
			C914.38,341.29,913.521,340.433,912.462,340.431L912.462,340.431z"/>
	</defs>
	<clipPath id="SVGID_42_">
		<use xlink:href="#SVGID_41_"  overflow="visible"/>
	</clipPath>
	
		<linearGradient id="SVGID_43_" gradientUnits="userSpaceOnUse" x1="-46.4927" y1="1148.9609" x2="-45.4893" y2="1148.9609" gradientTransform="matrix(102.2857 108 108 -102.2857 -118468.4922 122845.9766)">
		<stop  offset="0" style="stop-color:#3B42ED"/>
		<stop  offset="1" style="stop-color:#0000AF"/>
	</linearGradient>
	<polygon clip-path="url(#SVGID_42_)" fill="url(#SVGID_43_)" points="907.125,332.771 922.04,348.519 906.292,363.434 
		891.377,347.686 	"/>
</g>
<g>
</g>
<g>
</g>
<g>
</g>
<g>
</g>
<g>
</g>
<g>
</g>
<g>
</g>
<g>
</g>
<g>
</g>
<g>
</g>
<g>
</g>
<g>
</g>
<g>
</g>
<g>
</g>
<g>
</g>
</svg>
