<?xml version="1.0" encoding="utf-8"?>
<!-- Generator: Adobe Illustrator 16.0.0, SVG Export Plug-In . SVG Version: 6.00 Build 0)  -->
<!DOCTYPE svg PUBLIC "-//W3C//DTD SVG 1.1//EN" "http://www.w3.org/Graphics/SVG/1.1/DTD/svg11.dtd">
<svg version="1.1" id="Layer_1" xmlns="http://www.w3.org/2000/svg" xmlns:xlink="http://www.w3.org/1999/xlink" x="0px" y="0px"
	 width="127.242px" height="125px" viewBox="0 0 127.242 125" enable-background="new 0 0 127.242 125" xml:space="preserve">
<g>
	<defs>
		<rect id="SVGID_1_" x="-382.73" y="-1190.486" width="1312.329" height="2507.303"/>
	</defs>
	<clipPath id="SVGID_2_">
		<use xlink:href="#SVGID_1_"  overflow="visible"/>
	</clipPath>
	<path clip-path="url(#SVGID_2_)" fill="#12E3FF" d="M119.187,51.721H45.653c-3.202,0.011-5.797,2.604-5.805,5.807v4.818
		l34.502,24.535c4.238,3.021,9.926,3.021,14.164,0l36.477-25.948v-3.405C124.981,54.325,122.388,51.731,119.187,51.721"/>
	<path clip-path="url(#SVGID_2_)" fill="#12E3FF" d="M72.106,90.036l-32.258-22.97v48.513c0.008,3.202,2.603,5.796,5.805,5.806
		h73.533c3.201-0.01,5.795-2.604,5.805-5.806V65.674L90.76,90.036C85.176,94.009,77.688,94.009,72.106,90.036"/>
</g>
<g>
	<defs>
		<path id="SVGID_3_" d="M8.887,51.722c0-24.58,19.927-44.507,44.507-44.507c24.581,0,44.507,19.927,44.507,44.507
			C97.872,76.29,77.962,96.2,53.394,96.229C28.813,96.229,8.887,76.303,8.887,51.722 M5.017,51.722
			c0,26.718,21.659,48.377,48.377,48.377s48.377-21.659,48.377-48.377C101.741,25.017,80.099,3.375,53.394,3.346
			C26.676,3.346,5.017,25.004,5.017,51.722"/>
	</defs>
	<clipPath id="SVGID_4_">
		<use xlink:href="#SVGID_3_"  overflow="visible"/>
	</clipPath>
	
		<linearGradient id="SVGID_5_" gradientUnits="userSpaceOnUse" x1="-50.6021" y1="1144.3984" x2="-49.6021" y2="1144.3984" gradientTransform="matrix(96.612 96.612 96.612 -96.612 -105666.5078 115456.9375)">
		<stop  offset="0" style="stop-color:#3B42ED"/>
		<stop  offset="1" style="stop-color:#0000AF"/>
	</linearGradient>
	<polygon clip-path="url(#SVGID_4_)" fill="url(#SVGID_5_)" points="53.394,-45.031 150.147,51.722 53.394,148.476 -43.36,51.722 	
		"/>
</g>
<g>
	<defs>
		<path id="SVGID_6_" d="M31.917,63.83c0.691-3.918,2.373-7.594,4.883-10.681c4.742-5.536,11.166-9.369,18.289-10.917
			c0.842-0.23,1.424-0.993,1.424-1.865v-9.865l29.339,18.402L56.513,67.264V56.411c-0.02-0.967-0.736-1.778-1.695-1.919
			c-4.347-0.338-8.706,0.506-12.613,2.445c-3.256,1.639-6.091,4.008-8.281,6.923c-0.885,1.167-1.641,2.426-2.256,3.753
			C31.63,66.348,31.714,65.081,31.917,63.83 M30.86,25.179C16.2,37.629,14.407,59.607,26.856,74.27
			c12.45,14.661,34.43,16.454,49.09,4.004c3.342-2.837,6.116-6.279,8.182-10.146c0.506-0.94,0.151-2.114-0.789-2.621
			c-0.942-0.504-2.115-0.152-2.62,0.789c-0.003,0.004-0.003,0.005-0.005,0.007c-8.025,15.069-26.748,20.777-41.815,12.753
			c-2.001-1.066-3.878-2.349-5.599-3.824c0.533-3.222,1.781-6.284,3.65-8.962c1.844-2.47,4.233-4.478,6.983-5.869
			c2.717-1.326,5.687-2.053,8.709-2.134v9.486c0.131,2.072,1.916,3.646,3.989,3.515c0.654-0.04,1.285-0.252,1.834-0.613
			l30.041-18.845c1.604-0.953,2.131-3.024,1.179-4.628c-0.289-0.484-0.694-0.89-1.179-1.177L58.464,27.157
			c-1.73-1.143-4.062-0.667-5.207,1.064c-0.361,0.549-0.573,1.184-0.614,1.84v8.823c-7.365,1.885-13.959,6.022-18.856,11.838
			c-2.906,3.57-4.854,7.82-5.662,12.353c-0.334,2.035-0.414,4.104-0.237,6.157c-9.677-14.089-6.101-33.357,7.989-43.035
			c13.088-8.988,30.854-6.615,41.125,5.492c0.692,0.814,1.912,0.913,2.728,0.221c0.815-0.691,0.914-1.912,0.222-2.727
			c-6.888-8.112-16.695-12.285-26.563-12.285C45.419,16.897,37.411,19.617,30.86,25.179"/>
	</defs>
	<clipPath id="SVGID_7_">
		<use xlink:href="#SVGID_6_"  overflow="visible"/>
	</clipPath>
	
		<linearGradient id="SVGID_8_" gradientUnits="userSpaceOnUse" x1="-50.6025" y1="1144.3828" x2="-49.6019" y2="1144.3828" gradientTransform="matrix(96.612 96.612 96.612 -96.612 -105666.5078 115456.9219)">
		<stop  offset="0" style="stop-color:#3B42ED"/>
		<stop  offset="1" style="stop-color:#0000AF"/>
	</linearGradient>
	<polygon clip-path="url(#SVGID_7_)" fill="url(#SVGID_8_)" points="52.522,-21.218 127.55,53.811 52.522,128.838 -22.505,53.811 	
		"/>
</g>
<g>
	<defs>
		<rect id="SVGID_9_" x="458.831" y="-1271.08" width="1312.329" height="2507.303"/>
	</defs>
	<clipPath id="SVGID_10_">
		<use xlink:href="#SVGID_9_"  overflow="visible"/>
	</clipPath>
	<rect x="952.057" y="140.624" clip-path="url(#SVGID_10_)" fill="#12E3FF" width="11.494" height="11.493"/>
	<path clip-path="url(#SVGID_10_)" fill="#12E3FF" d="M965.466,121.469h-3.831v-1.915c0-1.058-0.857-1.916-1.916-1.916
		c-1.057,0-1.915,0.858-1.915,1.916v1.915h-19.155v-1.915c0-1.058-0.857-1.916-1.916-1.916c-1.058,0-1.914,0.858-1.914,1.916v1.915
		h-19.156v-1.915c0-1.058-0.857-1.916-1.915-1.916s-1.916,0.858-1.916,1.916v1.915H908c-3.17,0.01-5.737,2.577-5.746,5.747v59.382
		c0.006,2.113,1.717,3.824,3.831,3.831h61.297c2.112-0.007,3.825-1.718,3.831-3.831v-59.382
		C971.204,124.046,968.636,121.479,965.466,121.469 M965.466,182.767H908c-1.059,0-1.915-0.859-1.915-1.916
		c0-1.058,0.856-1.915,1.915-1.915h57.466c1.058,0,1.916,0.857,1.916,1.915C967.382,181.907,966.523,182.767,965.466,182.767
		 M965.466,173.188H908c-1.059,0-1.915-0.858-1.915-1.915c0-1.059,0.856-1.916,1.915-1.916h57.466c1.058,0,1.916,0.857,1.916,1.916
		C967.382,172.33,966.523,173.188,965.466,173.188 M965.466,163.609H908c-1.059,0-1.915-0.856-1.915-1.915
		c0-1.057,0.856-1.916,1.915-1.916h57.466c1.058,0,1.916,0.859,1.916,1.916C967.382,162.753,966.523,163.609,965.466,163.609
		 M967.382,154.032c0,1.059-0.856,1.915-1.914,1.915h-0.002h-15.324c-1.057,0.001-1.915-0.854-1.915-1.912v-0.003v-15.323
		c0-1.059,0.856-1.915,1.913-1.916h0.002h15.324c1.058,0,1.915,0.855,1.916,1.914v0.002V154.032z M967.382,132.962h-61.297v-5.746
		c0.003-1.058,0.858-1.912,1.915-1.916h3.831v1.916c0,1.058,0.858,1.915,1.916,1.915s1.915-0.857,1.915-1.915V125.3h19.156v1.916
		c0,1.058,0.856,1.915,1.914,1.915c1.059,0,1.916-0.857,1.916-1.915V125.3h19.155v1.916c0,1.058,0.858,1.915,1.915,1.915
		c1.059,0,1.916-0.857,1.916-1.915V125.3h3.831c1.058,0.004,1.913,0.858,1.916,1.916V132.962z"/>
</g>
<g>
	<defs>
		<path id="SVGID_11_" d="M856.281,161.694v-57.466h88.113v57.466c0,1.059-0.857,1.915-1.916,1.915h-84.282
			C857.139,163.609,856.281,162.753,856.281,161.694 M919.493,94.65h11.493c1.058,0.001,1.914-0.854,1.914-1.913v-0.002v-7.662
			h9.578c1.059,0,1.916,0.857,1.916,1.916v13.409h-88.113V86.989c0-1.059,0.857-1.916,1.915-1.916h9.577v7.662
			c0,1.058,0.856,1.915,1.914,1.915h0.002h11.494c1.057,0.001,1.914-0.854,1.914-1.913v-0.002v-7.662h34.479v7.662
			c0,1.058,0.856,1.915,1.914,1.915H919.493z M871.605,75.496h7.662v15.323h-7.662V75.496z M921.408,75.496h7.663v15.323h-7.663
			V75.496z M930.986,71.665h-11.493c-1.058,0-1.915,0.855-1.916,1.913v0.003v7.661h-34.479v-7.661c0-1.059-0.855-1.915-1.912-1.916
			h-0.002h-11.494c-1.058,0-1.914,0.855-1.916,1.913v0.003v7.661h-9.577c-3.173,0.004-5.743,2.574-5.746,5.747v74.705
			c0.003,3.173,2.573,5.744,5.746,5.747h84.282c3.174-0.003,5.744-2.574,5.748-5.747V86.989c-0.004-3.173-2.574-5.743-5.748-5.747
			H932.9v-7.661c0.002-1.059-0.854-1.915-1.911-1.916H930.986z"/>
	</defs>
	<clipPath id="SVGID_12_">
		<use xlink:href="#SVGID_11_"  overflow="visible"/>
	</clipPath>
	
		<linearGradient id="SVGID_13_" gradientUnits="userSpaceOnUse" x1="-46.8281" y1="1148.8604" x2="-45.8276" y2="1148.8604" gradientTransform="matrix(110.8571 100 100 -110.8571 -108848.2422 132113.5313)">
		<stop  offset="0" style="stop-color:#3B42ED"/>
		<stop  offset="1" style="stop-color:#0000AF"/>
	</linearGradient>
	<polygon clip-path="url(#SVGID_12_)" fill="url(#SVGID_13_)" points="895.42,24.03 995.861,114.635 905.256,215.076 
		804.814,124.472 	"/>
</g>
<g>
	<defs>
		<path id="SVGID_14_" d="M865.859,113.807h19.154v19.155h-19.154V113.807z M886.93,109.976h-22.986
			c-1.059,0-1.916,0.856-1.916,1.914v0.002v22.986c-0.002,1.057,0.855,1.915,1.914,1.915h0.002h22.986
			c1.057,0.001,1.914-0.855,1.916-1.914v-0.001v-22.986c0-1.058-0.856-1.915-1.914-1.916H886.93z"/>
	</defs>
	<clipPath id="SVGID_15_">
		<use xlink:href="#SVGID_14_"  overflow="visible"/>
	</clipPath>
	
		<linearGradient id="SVGID_16_" gradientUnits="userSpaceOnUse" x1="-46.8281" y1="1148.8369" x2="-45.8281" y2="1148.8369" gradientTransform="matrix(110.8571 100 100 -110.8571 -108858.9922 132125.375)">
		<stop  offset="0" style="stop-color:#3B42ED"/>
		<stop  offset="1" style="stop-color:#0000AF"/>
	</linearGradient>
	<polygon clip-path="url(#SVGID_15_)" fill="url(#SVGID_16_)" points="874.059,96.637 902.184,122.008 876.813,150.133 
		848.688,124.762 	"/>
</g>
<g>
	<defs>
		<path id="SVGID_17_" d="M917.516,146.434c-0.035-5.29,4.226-9.605,9.516-9.641c2.854-0.02,5.566,1.236,7.4,3.424l-7.276,7.275
			l-2.476-2.477c-0.754-0.742-1.966-0.735-2.709,0.018c-0.738,0.745-0.738,1.945,0,2.691l3.83,3.831
			c0.747,0.748,1.961,0.748,2.709,0l7.812-7.812c0.261,0.853,0.399,1.736,0.411,2.627c-0.006,5.287-4.289,9.57-9.577,9.577
			c-0.022,0-0.043,0-0.065,0C921.83,155.948,917.55,151.701,917.516,146.434 M913.747,146.371c0,7.405,6.003,13.407,13.408,13.407
			s13.409-6.002,13.409-13.407c-0.01-7.401-6.006-13.399-13.409-13.409C919.75,132.962,913.747,138.966,913.747,146.371"/>
	</defs>
	<clipPath id="SVGID_18_">
		<use xlink:href="#SVGID_17_"  overflow="visible"/>
	</clipPath>
	
		<linearGradient id="SVGID_19_" gradientUnits="userSpaceOnUse" x1="-46.8267" y1="1148.8379" x2="-45.8286" y2="1148.8379" gradientTransform="matrix(110.8571 100 100 -110.8571 -108847.2422 132112.3438)">
		<stop  offset="0" style="stop-color:#3B42ED"/>
		<stop  offset="1" style="stop-color:#0000AF"/>
	</linearGradient>
	<polygon clip-path="url(#SVGID_18_)" fill="url(#SVGID_19_)" points="925.778,119.624 953.901,144.993 928.533,173.116 
		900.409,147.747 	"/>
</g>
<g>
	<defs>
		<path id="SVGID_20_" d="M909.916,113.807c-1.059,0-1.916,0.858-1.916,1.916c0,1.057,0.857,1.914,1.916,1.914h28.732
			c1.058,0,1.916-0.857,1.916-1.914c0-1.058-0.858-1.916-1.916-1.916H909.916z"/>
	</defs>
	<clipPath id="SVGID_21_">
		<use xlink:href="#SVGID_20_"  overflow="visible"/>
	</clipPath>
	
		<linearGradient id="SVGID_22_" gradientUnits="userSpaceOnUse" x1="-46.8281" y1="1148.8379" x2="-45.8281" y2="1148.8379" gradientTransform="matrix(110.8571 100 100 -110.8571 -108833.2422 132096.875)">
		<stop  offset="0" style="stop-color:#3B42ED"/>
		<stop  offset="1" style="stop-color:#0000AF"/>
	</linearGradient>
	<polygon clip-path="url(#SVGID_21_)" fill="url(#SVGID_22_)" points="922.609,97.611 942.469,115.525 925.954,133.832 
		906.096,115.918 	"/>
</g>
<g>
	<defs>
		<path id="SVGID_23_" d="M894.591,113.807c-1.058,0-1.915,0.858-1.915,1.916c0,1.057,0.857,1.914,1.915,1.914h7.663
			c1.057,0,1.915-0.857,1.915-1.914c0-1.058-0.858-1.916-1.915-1.916H894.591z"/>
	</defs>
	<clipPath id="SVGID_24_">
		<use xlink:href="#SVGID_23_"  overflow="visible"/>
	</clipPath>
	
		<linearGradient id="SVGID_25_" gradientUnits="userSpaceOnUse" x1="-46.8281" y1="1148.8369" x2="-45.8281" y2="1148.8369" gradientTransform="matrix(110.8571 100 100 -110.8571 -108844.8672 132109.7188)">
		<stop  offset="0" style="stop-color:#3B42ED"/>
		<stop  offset="1" style="stop-color:#0000AF"/>
	</linearGradient>
	<polygon clip-path="url(#SVGID_24_)" fill="url(#SVGID_25_)" points="897.832,108.091 906.074,115.525 899.013,123.353 
		890.771,115.918 	"/>
</g>
<g>
	<defs>
		<path id="SVGID_26_" d="M894.591,125.3c-1.058,0-1.915,0.858-1.915,1.916s0.857,1.915,1.915,1.915h44.058
			c1.058,0,1.916-0.857,1.916-1.915s-0.858-1.916-1.916-1.916H894.591z"/>
	</defs>
	<clipPath id="SVGID_27_">
		<use xlink:href="#SVGID_26_"  overflow="visible"/>
	</clipPath>
	
		<linearGradient id="SVGID_28_" gradientUnits="userSpaceOnUse" x1="-46.8267" y1="1148.8369" x2="-45.8286" y2="1148.8369" gradientTransform="matrix(110.8571 100 100 -110.8571 -108842.3672 132107)">
		<stop  offset="0" style="stop-color:#3B42ED"/>
		<stop  offset="1" style="stop-color:#0000AF"/>
	</linearGradient>
	<polygon clip-path="url(#SVGID_27_)" fill="url(#SVGID_28_)" points="914.16,101.482 942.469,127.019 919.079,152.948 
		890.771,127.412 	"/>
</g>
<g>
	<defs>
		<path id="SVGID_29_" d="M863.943,142.54c-1.059,0-1.916,0.856-1.916,1.916c0,1.058,0.857,1.915,1.916,1.915H908
			c1.059,0,1.916-0.857,1.916-1.915c0-1.06-0.857-1.916-1.916-1.916H863.943z"/>
	</defs>
	<clipPath id="SVGID_30_">
		<use xlink:href="#SVGID_29_"  overflow="visible"/>
	</clipPath>
	
		<linearGradient id="SVGID_31_" gradientUnits="userSpaceOnUse" x1="-46.8267" y1="1148.8379" x2="-45.8286" y2="1148.8379" gradientTransform="matrix(110.8571 100 100 -110.8571 -108864.7422 132131.75)">
		<stop  offset="0" style="stop-color:#3B42ED"/>
		<stop  offset="1" style="stop-color:#0000AF"/>
	</linearGradient>
	<polygon clip-path="url(#SVGID_30_)" fill="url(#SVGID_31_)" points="883.512,118.722 911.821,144.259 888.431,170.188 
		860.121,144.652 	"/>
</g>
<g>
	<defs>
		<path id="SVGID_32_" d="M863.943,154.033c-1.059,0-1.916,0.857-1.916,1.915c0,1.059,0.857,1.916,1.916,1.916H908
			c1.059,0,1.916-0.857,1.916-1.916c0-1.058-0.857-1.915-1.916-1.915H863.943z"/>
	</defs>
	<clipPath id="SVGID_33_">
		<use xlink:href="#SVGID_32_"  overflow="visible"/>
	</clipPath>
	
		<linearGradient id="SVGID_34_" gradientUnits="userSpaceOnUse" x1="-46.8281" y1="1148.8369" x2="-45.8281" y2="1148.8369" gradientTransform="matrix(110.8571 100 100 -110.8571 -108870.3672 132138.0938)">
		<stop  offset="0" style="stop-color:#3B42ED"/>
		<stop  offset="1" style="stop-color:#0000AF"/>
	</linearGradient>
	<polygon clip-path="url(#SVGID_33_)" fill="url(#SVGID_34_)" points="883.512,130.215 911.822,155.752 888.431,181.683 
		860.121,156.146 	"/>
</g>
<g>
	<defs>
		<rect id="SVGID_35_" x="496" y="-1208.003" width="1312.329" height="2507.303"/>
	</defs>
	<clipPath id="SVGID_36_">
		<use xlink:href="#SVGID_35_"  overflow="visible"/>
	</clipPath>
	<polygon clip-path="url(#SVGID_36_)" fill="#12E3FF" points="985.633,361.528 948.428,361.528 967.023,375.796 	"/>
	<path clip-path="url(#SVGID_36_)" fill="#12E3FF" d="M1002.598,321.253h-72.876c-3.176,0.004-5.75,2.577-5.753,5.754v15.343h84.383
		v-15.343C1008.348,323.83,1005.775,321.257,1002.598,321.253 M996.845,333.72h-7.671c-1.059,0-1.918-0.858-1.918-1.918
		s0.859-1.918,1.918-1.918h7.671c1.06,0,1.918,0.858,1.918,1.918S997.904,333.72,996.845,333.72"/>
	<path clip-path="url(#SVGID_36_)" fill="#12E3FF" d="M945.373,391.386h41.574c1.059-0.001,1.916-0.859,1.918-1.918v-25.584
		l-20.675,15.851c-0.688,0.528-1.646,0.528-2.334,0l-22.233-17.06c-0.319,0.723-0.103-0.593-0.168,26.793
		C943.457,390.526,944.314,391.385,945.373,391.386"/>
	<path clip-path="url(#SVGID_36_)" fill="#12E3FF" d="M923.969,397.966c0.004,3.175,2.578,5.75,5.754,5.753h72.875
		c3.177-0.003,5.75-2.578,5.754-5.753v-51.781h-84.383V397.966z M939.62,363.445c0.03-3.165,2.588-5.724,5.753-5.753h41.574
		c3.176,0.003,5.75,2.576,5.753,5.753v26.021c-0.003,3.176-2.577,5.75-5.753,5.754h-41.574c-3.176-0.004-5.75-2.578-5.753-5.754
		V363.445z"/>
</g>
<g>
	<defs>
		<path id="SVGID_37_" d="M953.934,323.483l9.933-8.737c0.056,0.157,0.089,0.322,0.1,0.488v10.302
			c-0.002,1.058-0.86,1.917-1.919,1.918h-18.758c-1.059-0.001-1.917-0.86-1.918-1.918v-10.302c0.011-0.166,0.044-0.331,0.1-0.488
			l9.932,8.737c0.361,0.319,0.814,0.479,1.267,0.479S953.573,323.803,953.934,323.483 M945.652,313.317h14.031l-7.016,6.173
			L945.652,313.317z M943.289,309.481c-3.176,0.004-5.75,2.577-5.754,5.753v10.302c0.004,3.177,2.578,5.75,5.754,5.754h18.758
			c3.178-0.004,5.75-2.577,5.754-5.754v-10.302c-0.004-3.176-2.576-5.749-5.754-5.753H943.289z"/>
	</defs>
	<clipPath id="SVGID_38_">
		<use xlink:href="#SVGID_37_"  overflow="visible"/>
	</clipPath>
	
		<linearGradient id="SVGID_39_" gradientUnits="userSpaceOnUse" x1="-46.4927" y1="1148.9609" x2="-45.4907" y2="1148.9609" gradientTransform="matrix(102.2857 108 108 -102.2857 -118430.4922 122809.9141)">
		<stop  offset="0" style="stop-color:#3B42ED"/>
		<stop  offset="1" style="stop-color:#0000AF"/>
	</linearGradient>
	<polygon clip-path="url(#SVGID_38_)" fill="url(#SVGID_39_)" points="953.49,294.371 978.689,320.978 951.846,346.4 
		926.646,319.794 	"/>
</g>
<g>
	<defs>
		<path id="SVGID_40_" d="M893.284,374.952v-9.59h57.534v9.59c-0.002,1.059-0.859,1.917-1.918,1.918h-53.699
			C894.143,376.869,893.285,376.011,893.284,374.952 M933.557,333.983v-7.564c0.002-0.714-0.396-1.368-1.027-1.699l-8.268-4.335
			l8.268-4.332c0.632-0.331,1.029-0.986,1.027-1.699v-7.566c0.002-1.06,0.86-1.916,1.918-1.918h34.521
			c1.059,0.002,1.917,0.858,1.918,1.918v27.196c-0.001,1.061-0.859,1.917-1.918,1.918h-34.521
			C934.417,335.9,933.559,335.044,933.557,333.983 M893.284,290.568c0.001-1.058,0.858-1.917,1.917-1.918H948.9
			c1.059,0.001,1.916,0.86,1.918,1.918v10.466h-15.344c-3.176,0.003-5.75,2.576-5.752,5.753v6.405l-7.601,3.984
			c-1.772,0.932-2.452,3.126-1.519,4.897c0.34,0.649,0.871,1.18,1.521,1.521l7.599,3.984v6.404c0.002,3.178,2.576,5.75,5.752,5.754
			h15.344v21.791h-57.534V290.568z M895.201,284.815c-3.176,0.003-5.749,2.577-5.753,5.753v84.384
			c0.004,3.176,2.577,5.749,5.753,5.754H948.9c3.176-0.005,5.75-2.578,5.754-5.754v-35.215h15.342
			c3.176-0.004,5.75-2.576,5.753-5.754v-27.196c-0.003-3.177-2.577-5.75-5.753-5.753h-15.342v-10.466
			c-0.004-3.176-2.578-5.75-5.754-5.753H895.201z"/>
	</defs>
	<clipPath id="SVGID_41_">
		<use xlink:href="#SVGID_40_"  overflow="visible"/>
	</clipPath>
	
		<linearGradient id="SVGID_42_" gradientUnits="userSpaceOnUse" x1="-46.4917" y1="1148.998" x2="-45.4911" y2="1148.998" gradientTransform="matrix(102.2857 108 108 -102.2857 -118451.2422 122829.6172)">
		<stop  offset="0" style="stop-color:#3B42ED"/>
		<stop  offset="1" style="stop-color:#0000AF"/>
	</linearGradient>
	<polygon clip-path="url(#SVGID_41_)" fill="url(#SVGID_42_)" points="934.941,241.729 1023.623,335.364 930.255,423.793 
		841.574,330.157 	"/>
</g>
<g>
	<defs>
		<path id="SVGID_43_" d="M902.873,298.24h7.671v7.672h-7.671V298.24z M912.462,294.405h-11.507
			c-1.059-0.002-1.917,0.857-1.917,1.916v0.002v11.507c-0.001,1.059,0.858,1.917,1.916,1.917h0.001h11.507
			c1.06,0.001,1.917-0.857,1.918-1.916v-0.001v-11.507C914.38,295.264,913.521,294.405,912.462,294.405L912.462,294.405z"/>
	</defs>
	<clipPath id="SVGID_44_">
		<use xlink:href="#SVGID_43_"  overflow="visible"/>
	</clipPath>
	
		<linearGradient id="SVGID_45_" gradientUnits="userSpaceOnUse" x1="-46.4907" y1="1148.9609" x2="-45.4941" y2="1148.9609" gradientTransform="matrix(102.2857 108 108 -102.2857 -118445.6172 122824.2109)">
		<stop  offset="0" style="stop-color:#3B42ED"/>
		<stop  offset="1" style="stop-color:#0000AF"/>
	</linearGradient>
	<polygon clip-path="url(#SVGID_44_)" fill="url(#SVGID_45_)" points="907.125,286.744 922.041,302.492 906.292,317.408 
		891.377,301.659 	"/>
</g>
<g>
	<defs>
		<path id="SVGID_46_" d="M902.873,321.254h7.671v7.672h-7.671V321.254z M912.462,317.419h-11.507
			c-1.059-0.001-1.917,0.857-1.917,1.916v0.001v11.506c-0.001,1.06,0.858,1.918,1.916,1.918h0.001h11.507
			c1.06,0,1.917-0.856,1.918-1.917v-0.001v-11.506C914.38,318.276,913.521,317.419,912.462,317.419L912.462,317.419z"/>
	</defs>
	<clipPath id="SVGID_47_">
		<use xlink:href="#SVGID_46_"  overflow="visible"/>
	</clipPath>
	
		<linearGradient id="SVGID_48_" gradientUnits="userSpaceOnUse" x1="-46.4902" y1="1148.959" x2="-45.4936" y2="1148.959" gradientTransform="matrix(102.2857 108 108 -102.2857 -118456.9922 122835.0859)">
		<stop  offset="0" style="stop-color:#3B42ED"/>
		<stop  offset="1" style="stop-color:#0000AF"/>
	</linearGradient>
	<polygon clip-path="url(#SVGID_47_)" fill="url(#SVGID_48_)" points="907.125,309.758 922.039,325.506 906.292,340.42 
		891.377,324.672 	"/>
</g>
<g>
	<defs>
		<path id="SVGID_49_" d="M902.873,344.268h7.671v7.671h-7.671V344.268z M912.462,340.431h-11.507c-1.059,0-1.917,0.859-1.917,1.917
			v0.002v11.506c-0.001,1.061,0.858,1.918,1.916,1.918h0.001h11.507c1.06,0,1.917-0.856,1.918-1.917v-0.001V342.35
			C914.38,341.29,913.521,340.433,912.462,340.431L912.462,340.431z"/>
	</defs>
	<clipPath id="SVGID_50_">
		<use xlink:href="#SVGID_49_"  overflow="visible"/>
	</clipPath>
	
		<linearGradient id="SVGID_51_" gradientUnits="userSpaceOnUse" x1="-46.4927" y1="1148.9609" x2="-45.4893" y2="1148.9609" gradientTransform="matrix(102.2857 108 108 -102.2857 -118468.4922 122845.9766)">
		<stop  offset="0" style="stop-color:#3B42ED"/>
		<stop  offset="1" style="stop-color:#0000AF"/>
	</linearGradient>
	<polygon clip-path="url(#SVGID_50_)" fill="url(#SVGID_51_)" points="907.125,332.771 922.04,348.519 906.292,363.434 
		891.377,347.686 	"/>
</g>
<g>
</g>
<g>
</g>
<g>
</g>
<g>
</g>
<g>
</g>
<g>
</g>
<g>
</g>
<g>
</g>
<g>
</g>
<g>
</g>
<g>
</g>
<g>
</g>
<g>
</g>
<g>
</g>
<g>
</g>
</svg>
