<?xml version="1.0" encoding="utf-8"?>
<!-- Generator: Adobe Illustrator 16.0.0, SVG Export Plug-In . SVG Version: 6.00 Build 0)  -->
<!DOCTYPE svg PUBLIC "-//W3C//DTD SVG 1.1//EN" "http://www.w3.org/Graphics/SVG/1.1/DTD/svg11.dtd">
<svg version="1.1" id="Layer_1" xmlns="http://www.w3.org/2000/svg" xmlns:xlink="http://www.w3.org/1999/xlink" x="0px" y="0px"
	 width="177.333px" height="173.333px" viewBox="0 0 177.333 173.333" enable-background="new 0 0 177.333 173.333"
	 xml:space="preserve">
<g>
	<rect x="138.571" y="-1427.318" fill="none" width="1312.328" height="2728.446"/>
	<path fill="#FFAF10" d="M89.36,4.041c44.545,0,80.656,36.11,80.656,80.655s-36.111,80.656-80.656,80.656
		c-44.544,0-80.655-36.111-80.655-80.656S44.816,4.041,89.36,4.041"/>
	<path fill="#EEF6FF" d="M121.822,112.928c0-0.727,0.591-1.316,1.317-1.316h37.871V40.983H54.314v3.3
		c0,0.469-0.382,0.851-0.85,0.851H17.709v76.623c5.907,11.399,14.453,21.208,24.831,28.619h79.282V112.928z"/>
	<path fill="#D9EAFC" d="M17.708,45.134v76.623c1.91,3.686,4.099,7.2,6.533,10.525V45.134H17.708z"/>
	<path fill="#293D7C" d="M157.55,23.139H54.314v18.174h106.697V26.6C161.011,24.697,159.455,23.139,157.55,23.139"/>
	<path fill="#AEC1ED" d="M152.704,34.134h-8.307c-1.363,0-2.469-1.104-2.469-2.469c0-1.364,1.105-2.468,2.469-2.468h8.307
		c1.365,0,2.47,1.104,2.47,2.468C155.173,33.03,154.069,34.134,152.704,34.134"/>
	<path fill="#FFFFFF" d="M148.95,67.678c0,0.853-0.696,1.549-1.547,1.549H31.318c-0.85,0-1.547-0.696-1.547-1.549V52.199
		c0-0.851,0.697-1.546,1.547-1.546h116.083c0.853,0,1.549,0.695,1.549,1.546V67.678z"/>
	<path fill="#EEF6FF" d="M36.303,67.678V52.199c0-0.851,0.697-1.546,1.548-1.546h-6.533c-0.85,0-1.547,0.695-1.547,1.546v15.479
		c0,0.853,0.697,1.549,1.547,1.549h6.533C37,69.227,36.303,68.53,36.303,67.678"/>
	<path fill="#FF9518" d="M147.402,50.652h-21.099v18.573h21.099c0.851,0,1.547-0.696,1.547-1.548V52.199
		C148.949,51.349,148.252,50.652,147.402,50.652"/>
	<path fill="#52BBEF" d="M173.637,163.706c0,0.905-0.741,1.646-1.646,1.646h-48.852c-0.905,0-1.646-0.741-1.646-1.646v-50.777
		c0-0.906,0.741-1.647,1.646-1.647h48.852c0.905,0,1.646,0.741,1.646,1.647V163.706z"/>
	<path fill="#1E99D6" d="M128.025,163.706v-50.777c0-0.906,0.741-1.647,1.646-1.647h-6.531c-0.906,0-1.646,0.741-1.646,1.647v50.777
		c0,0.905,0.74,1.646,1.646,1.646h6.531C128.766,165.353,128.025,164.611,128.025,163.706"/>
	<path fill="#1E99D6" d="M160.877,127.074h-26.625c-1.363,0-2.469-1.104-2.469-2.469c0-1.364,1.105-2.468,2.469-2.468h26.625
		c1.363,0,2.469,1.104,2.469,2.468S162.241,127.074,160.877,127.074"/>
	<path fill="#1E99D6" d="M160.877,135.731h-26.625c-1.363,0-2.469-1.104-2.469-2.469c0-1.364,1.105-2.468,2.469-2.468h26.625
		c1.363,0,2.469,1.104,2.469,2.468C163.346,134.628,162.241,135.731,160.877,135.731"/>
	<path fill="#1E99D6" d="M160.877,144.39h-26.625c-1.363,0-2.469-1.104-2.469-2.469s1.105-2.469,2.469-2.469h26.625
		c1.363,0,2.469,1.104,2.469,2.469S162.241,144.39,160.877,144.39"/>
	<path fill="#1E99D6" d="M147.618,153.047h-13.365c-1.363,0-2.469-1.104-2.469-2.47c0-1.363,1.105-2.468,2.469-2.468h13.365
		c1.365,0,2.47,1.104,2.47,2.468C150.087,151.942,148.983,153.047,147.618,153.047"/>
	<path fill="#52BBEF" d="M53.912,92.304c0,0.905-0.741,1.646-1.646,1.646H38.033c-0.906,0-1.646-0.741-1.646-1.646V78.071
		c0-0.906,0.74-1.646,1.646-1.646h14.233c0.905,0,1.646,0.74,1.646,1.646V92.304z"/>
	<path fill="#52BBEF" d="M112.229,83.71H61.692c-1.364,0-2.469-1.104-2.469-2.47c0-1.363,1.105-2.468,2.469-2.468h50.537
		c1.363,0,2.469,1.104,2.469,2.468C114.698,82.605,113.592,83.71,112.229,83.71"/>
	<path fill="#52BBEF" d="M96.094,91.604H61.693c-1.364,0-2.47-1.104-2.47-2.469c0-1.363,1.106-2.468,2.47-2.468h34.401
		c1.365,0,2.47,1.104,2.47,2.468C98.564,90.5,97.459,91.604,96.094,91.604"/>
	<path fill="#02AF8E" d="M53.912,114.526c0,0.905-0.741,1.646-1.646,1.646H38.033c-0.906,0-1.646-0.741-1.646-1.646v-14.232
		c0-0.906,0.74-1.647,1.646-1.647h14.233c0.905,0,1.646,0.741,1.646,1.647V114.526z"/>
	<path fill="#02AF8E" d="M112.229,105.932H61.692c-1.364,0-2.469-1.104-2.469-2.469s1.105-2.469,2.469-2.469h50.537
		c1.363,0,2.469,1.104,2.469,2.469S113.592,105.932,112.229,105.932"/>
	<path fill="#02AF8E" d="M96.094,113.826H61.693c-1.364,0-2.47-1.104-2.47-2.469s1.106-2.469,2.47-2.469h34.401
		c1.365,0,2.47,1.104,2.47,2.469S97.459,113.826,96.094,113.826"/>
	<path fill="#FF9518" d="M53.912,136.748c0,0.905-0.741,1.646-1.646,1.646H38.033c-0.906,0-1.646-0.741-1.646-1.646v-14.232
		c0-0.906,0.74-1.646,1.646-1.646h14.233c0.905,0,1.646,0.74,1.646,1.646V136.748z"/>
	<path fill="#1E99D6" d="M42.919,92.304V78.071c0-0.906,0.741-1.646,1.646-1.646h-6.533c-0.905,0-1.646,0.74-1.646,1.646v14.232
		c0,0.905,0.741,1.646,1.646,1.646h6.533C43.661,93.95,42.919,93.209,42.919,92.304"/>
	<path fill="#0F9390" d="M42.919,114.526v-14.232c0-0.906,0.741-1.647,1.646-1.647h-6.533c-0.905,0-1.646,0.741-1.646,1.647v14.232
		c0,0.905,0.741,1.646,1.646,1.646h6.533C43.661,116.173,42.919,115.432,42.919,114.526"/>
	<path fill="#EF8318" d="M42.919,136.748v-14.232c0-0.906,0.741-1.646,1.646-1.646h-6.533c-0.905,0-1.646,0.74-1.646,1.646v14.232
		c0,0.905,0.741,1.646,1.646,1.646h6.533C43.661,138.395,42.919,137.653,42.919,136.748"/>
	<path fill="#FF9518" d="M112.229,128.153H61.692c-1.364,0-2.469-1.104-2.469-2.469c0-1.364,1.105-2.468,2.469-2.468h50.537
		c1.363,0,2.469,1.104,2.469,2.468S113.592,128.153,112.229,128.153"/>
	<path fill="#FF9518" d="M96.094,136.048H61.693c-1.364,0-2.47-1.104-2.47-2.469c0-1.363,1.106-2.468,2.47-2.468h34.401
		c1.365,0,2.47,1.104,2.47,2.468C98.564,134.944,97.459,136.048,96.094,136.048"/>
	<path fill="#91E0E8" d="M133.18,78.376c4.723,0,8.549,3.827,8.549,8.55c0,4.722-3.826,8.55-8.549,8.55
		c-4.722,0-8.549-3.828-8.549-8.55C124.631,82.203,128.458,78.376,133.18,78.376"/>
	<path fill="#5DC1D8" d="M133.667,92.97c-3.338-3.339-3.338-8.752,0-12.091c0.822-0.821,1.77-1.438,2.779-1.857
		c-3.097-1.278-6.793-0.659-9.312,1.857c-3.339,3.339-3.339,8.752,0,12.091c2.519,2.518,6.215,3.136,9.312,1.856
		C135.436,94.409,134.489,93.791,133.667,92.97"/>
	<path fill="#1A2B63" d="M148.995,99.247l-6.477-6.478c2.661-4.253,2.148-9.94-1.547-13.638c-2.08-2.08-4.848-3.226-7.791-3.226
		s-5.711,1.146-7.792,3.227c-4.296,4.296-4.296,11.286,0,15.582c2.081,2.081,4.849,3.229,7.792,3.229
		c2.102,0,4.111-0.588,5.848-1.68l6.476,6.476c0.481,0.481,1.112,0.723,1.746,0.723c0.631,0,1.263-0.241,1.745-0.722
		C149.959,101.775,149.959,100.212,148.995,99.247 M128.88,91.224c-2.371-2.371-2.371-6.229,0-8.599
		c1.147-1.148,2.677-1.781,4.3-1.781c1.624,0,3.151,0.633,4.299,1.78c2.371,2.371,2.371,6.229,0,8.6
		c-1.147,1.148-2.675,1.78-4.299,1.78C131.555,93.004,130.028,92.372,128.88,91.224"/>
	<path fill="#91E0E8" d="M5.083,44.283c0,0.648,0.531,1.181,1.18,1.181h47.2c0.648,0,1.18-0.532,1.18-1.181V12.659
		c0-0.647-0.532-1.18-1.18-1.18h-47.2c-0.649,0-1.18,0.532-1.18,1.18V44.283z"/>
	<path fill="#5DC1D8" d="M11.616,44.283V12.659c0-0.647,0.531-1.18,1.18-1.18H6.263c-0.648,0-1.179,0.532-1.179,1.18v31.624
		c0,0.649,0.531,1.181,1.179,1.181h6.533C12.147,45.464,11.616,44.932,11.616,44.283"/>
	<rect x="15.846" y="33.501" fill="#293D7C" width="2.355" height="2.354"/>
	<path fill="#293D7C" d="M26.137,21.863c0.609,0.623,0.915,1.489,0.915,2.597v1.324l-2.145,0.104V24.69
		c0-1.135-0.42-1.703-1.262-1.703c-0.406,0-0.718,0.127-0.935,0.379c-0.218,0.252-0.326,0.624-0.326,1.114v8.031
		c0,0.492,0.108,0.863,0.326,1.115c0.217,0.253,0.529,0.379,0.935,0.379c0.842,0,1.262-0.569,1.262-1.704v-1.64l2.145,0.104v1.767
		c0,1.107-0.306,1.974-0.915,2.598c-0.61,0.623-1.461,0.935-2.555,0.935c-1.079,0-1.92-0.308-2.523-0.926
		c-0.603-0.616-0.903-1.485-0.903-2.606V24.46c0-1.121,0.3-1.99,0.903-2.607s1.444-0.926,2.523-0.926
		C24.676,20.927,25.527,21.239,26.137,21.863"/>
	<path fill="#293D7C" d="M34.989,21.926c0.637,0.666,0.956,1.574,0.956,2.723v7.695c0,1.149-0.319,2.058-0.956,2.723
		c-0.638,0.666-1.518,0.999-2.639,0.999c-1.122,0-2.001-0.333-2.639-0.999c-0.638-0.665-0.956-1.573-0.956-2.723v-7.695
		c0-1.148,0.318-2.057,0.956-2.723c0.638-0.664,1.517-0.998,2.639-0.998C33.471,20.928,34.351,21.262,34.989,21.926 M31.33,23.419
		c-0.231,0.287-0.347,0.704-0.347,1.251v7.652c0,0.547,0.116,0.965,0.347,1.251c0.231,0.288,0.571,0.432,1.02,0.432
		c0.448,0,0.789-0.144,1.02-0.432c0.231-0.286,0.347-0.704,0.347-1.251V24.67c0-0.547-0.116-0.964-0.347-1.251
		s-0.572-0.432-1.02-0.432C31.901,22.987,31.561,23.132,31.33,23.419"/>
	<polygon fill="#293D7C" points="47.551,35.854 45.322,35.854 45.322,25.637 45.28,25.637 43.43,33.753 42.106,33.753 
		40.256,25.637 40.214,25.637 40.214,35.854 38.111,35.854 38.111,21.138 41.033,21.138 42.779,29.043 42.821,29.043 44.545,21.138 
		47.551,21.138 	"/>
</g>
<g>
</g>
<g>
</g>
<g>
</g>
<g>
</g>
<g>
</g>
<g>
</g>
<g>
</g>
<g>
</g>
<g>
</g>
<g>
</g>
<g>
</g>
<g>
</g>
<g>
</g>
<g>
</g>
<g>
</g>
</svg>
