<?xml version="1.0" encoding="utf-8"?>
<!-- Generator: Adobe Illustrator 16.0.0, SVG Export Plug-In . SVG Version: 6.00 Build 0)  -->
<!DOCTYPE svg PUBLIC "-//W3C//DTD SVG 1.1//EN" "http://www.w3.org/Graphics/SVG/1.1/DTD/svg11.dtd">
<svg version="1.1" id="Layer_1" xmlns="http://www.w3.org/2000/svg" xmlns:xlink="http://www.w3.org/1999/xlink" x="0px" y="0px"
	 width="121.333px" height="120.667px" viewBox="0 0 121.333 120.667" enable-background="new 0 0 121.333 120.667"
	 xml:space="preserve">
<g>
	<defs>
		<rect id="SVGID_1_" x="-358.942" y="-842.335" width="1312.33" height="2728.446"/>
	</defs>
	<clipPath id="SVGID_2_">
		<use xlink:href="#SVGID_1_"  overflow="visible"/>
	</clipPath>
	<path clip-path="url(#SVGID_2_)" fill="#12E3FF" d="M69.622,64.316l-2.561,14.938c-0.162,0.955,0.479,1.86,1.434,2.022
		c0.379,0.063,0.77,0.002,1.107-0.177l13.416-7.052l13.414,7.052c0.857,0.449,1.918,0.118,2.367-0.739
		c0.178-0.34,0.24-0.729,0.176-1.106l-2.563-14.938l10.854-10.578c0.691-0.678,0.703-1.787,0.025-2.479
		c-0.268-0.274-0.617-0.453-0.998-0.508L91.295,48.57L84.59,34.98c-0.514-0.867-1.633-1.156-2.5-0.643
		c-0.266,0.156-0.488,0.377-0.645,0.643l-6.707,13.59l-14.998,2.181c-0.957,0.14-1.619,1.03-1.479,1.989
		c0.055,0.379,0.234,0.729,0.508,0.998L69.622,64.316z"/>
	<path clip-path="url(#SVGID_2_)" fill="#12E3FF" d="M116.301,111.084h-2.119l-4.059-16.987c-0.561-2.37-2.676-4.041-5.111-4.035
		H91.778v-7.45l-8.76-4.604l-8.76,4.604v7.449H61.022c-2.434-0.006-4.551,1.665-5.109,4.035l-4.059,16.987h-2.121
		c-0.967,0-1.752,0.785-1.752,1.752c0,0.968,0.785,1.752,1.752,1.752h66.568c0.969,0,1.752-0.784,1.752-1.752
		C118.053,111.869,117.27,111.084,116.301,111.084 M102.288,104.076H63.747c-0.967,0-1.75-0.783-1.75-1.752
		c0-0.968,0.783-1.752,1.75-1.752h38.541c0.967,0,1.752,0.784,1.752,1.752C104.04,103.293,103.254,104.076,102.288,104.076"/>
</g>
<g>
	<defs>
		<path id="SVGID_3_" d="M39.222,23.492h5.256c0.465,0,0.91-0.185,1.239-0.512l2.265-2.268l2.266,2.268
			c0.328,0.327,0.773,0.512,1.238,0.512H67.25c0,7.741-6.273,14.016-14.014,14.016C45.497,37.508,39.222,31.233,39.222,23.492
			 M53.237,9.479C59.62,9.49,65.19,13.81,66.79,19.988h-14.58l-2.989-2.99c-0.685-0.684-1.793-0.684-2.478,0l0,0l-2.99,2.99h-4.069
			C41.284,13.81,46.854,9.49,53.237,9.479 M35.719,23.492c0.011,9.671,7.848,17.508,17.518,17.52c9.674,0,17.518-7.844,17.518-17.52
			c0-9.674-7.844-17.517-17.518-17.517C43.562,5.976,35.719,13.818,35.719,23.492"/>
	</defs>
	<clipPath id="SVGID_4_">
		<use xlink:href="#SVGID_3_"  overflow="visible"/>
	</clipPath>
	
		<linearGradient id="SVGID_5_" gradientUnits="userSpaceOnUse" x1="-598.7725" y1="1255.8955" x2="-597.7725" y2="1255.8955" gradientTransform="matrix(96.5714 93.1429 93.1429 -96.5714 -59128.5391 177051.1094)">
		<stop  offset="0" style="stop-color:#3B42ED"/>
		<stop  offset="1" style="stop-color:#0000AF"/>
	</linearGradient>
	<polygon clip-path="url(#SVGID_4_)" fill="url(#SVGID_5_)" points="52.604,-11.531 88.26,22.86 53.87,58.518 18.212,24.127 	"/>
</g>
<g>
	<defs>
		<path id="SVGID_6_" d="M33.086,54.012c-0.038-0.566-0.35-1.078-0.834-1.375c-9.579-5.856-16.288-15.436-18.521-26.439
			c-0.525-2.857,1.365-5.596,4.222-6.121c2.815-0.517,5.526,1.313,6.1,4.116c3.291,16.117,19.025,26.515,35.142,23.224
			c11.695-2.389,20.836-11.529,23.225-23.224c0.582-2.844,3.359-4.679,6.205-4.095c2.805,0.574,4.635,3.285,4.117,6.1
			C90.51,37.201,83.799,46.78,74.221,52.637c-0.484,0.297-0.795,0.809-0.834,1.375l-2.514,36.05H35.601L33.086,54.012z
			 M17.147,16.663c-4.694,0.96-7.747,5.515-6.852,10.222c2.363,11.651,9.346,21.848,19.358,28.261l2.566,36.79
			c0.063,0.919,0.827,1.631,1.747,1.631h38.54c0.922,0,1.684-0.712,1.748-1.631l2.566-36.79
			c10.01-6.413,16.994-16.609,19.357-28.261c0.904-4.754-2.217-9.34-6.971-10.243c-4.707-0.896-9.262,2.157-10.221,6.851
			C76.083,37.715,62.2,46.889,47.978,43.982c-10.319-2.107-18.383-10.171-20.491-20.49c-0.848-4.148-4.499-7.008-8.575-7.008
			C18.331,16.484,17.74,16.543,17.147,16.663"/>
	</defs>
	<clipPath id="SVGID_7_">
		<use xlink:href="#SVGID_6_"  overflow="visible"/>
	</clipPath>
	
		<linearGradient id="SVGID_8_" gradientUnits="userSpaceOnUse" x1="-598.7725" y1="1255.8516" x2="-597.7725" y2="1255.8516" gradientTransform="matrix(96.5714 93.1429 93.1429 -96.5714 -59140.0391 177062.9844)">
		<stop  offset="0" style="stop-color:#3B42ED"/>
		<stop  offset="1" style="stop-color:#0000AF"/>
	</linearGradient>
	<polygon clip-path="url(#SVGID_7_)" fill="url(#SVGID_8_)" points="51.657,-28.066 135.967,53.25 54.825,137.379 -29.484,56.062 	
		"/>
</g>
<g>
	<defs>
		<path id="SVGID_9_" d="M88.786,60.795l-5.256,5.256c-0.676,0.688-0.668,1.798,0.023,2.476c0.682,0.67,1.773,0.67,2.455,0
			l2.266-2.265v25.552c0,0.968,0.783,1.753,1.752,1.753c0.967,0,1.75-0.785,1.75-1.753V66.262l2.266,2.265
			c0.689,0.68,1.799,0.673,2.477-0.015c0.674-0.683,0.674-1.78,0-2.461l-5.254-5.256c-0.342-0.341-0.791-0.511-1.24-0.511
			C89.577,60.284,89.127,60.454,88.786,60.795"/>
	</defs>
	<clipPath id="SVGID_10_">
		<use xlink:href="#SVGID_9_"  overflow="visible"/>
	</clipPath>
	
		<linearGradient id="SVGID_11_" gradientUnits="userSpaceOnUse" x1="-598.7725" y1="1255.8955" x2="-597.7725" y2="1255.8955" gradientTransform="matrix(96.5714 93.1429 93.1429 -96.5714 -59137.5391 177060.4219)">
		<stop  offset="0" style="stop-color:#3B42ED"/>
		<stop  offset="1" style="stop-color:#0000AF"/>
	</linearGradient>
	<polygon clip-path="url(#SVGID_10_)" fill="url(#SVGID_11_)" points="89.764,53.119 113.823,76.324 90.282,100.731 66.223,77.527 	
		"/>
</g>
<g>
	<defs>
		<path id="SVGID_12_" d="M15.209,60.795l-5.255,5.256c-0.677,0.688-0.668,1.798,0.023,2.476c0.68,0.669,1.772,0.669,2.454,0
			l2.265-2.265v25.552c0,0.968,0.784,1.753,1.752,1.753c0.967,0,1.751-0.785,1.751-1.753V66.262l2.266,2.265
			c0.679,0.688,1.789,0.696,2.477,0.017c0.688-0.68,0.696-1.789,0.016-2.478c-0.006-0.005-0.011-0.011-0.017-0.015l-5.254-5.256
			c-0.343-0.341-0.791-0.511-1.239-0.511C16,60.284,15.553,60.454,15.209,60.795"/>
	</defs>
	<clipPath id="SVGID_13_">
		<use xlink:href="#SVGID_12_"  overflow="visible"/>
	</clipPath>
	
		<linearGradient id="SVGID_14_" gradientUnits="userSpaceOnUse" x1="-598.7725" y1="1255.8955" x2="-597.7725" y2="1255.8955" gradientTransform="matrix(96.5714 93.1429 93.1429 -96.5714 -59173.0391 177097.1875)">
		<stop  offset="0" style="stop-color:#3B42ED"/>
		<stop  offset="1" style="stop-color:#0000AF"/>
	</linearGradient>
	<polygon clip-path="url(#SVGID_13_)" fill="url(#SVGID_14_)" points="16.199,53.108 40.269,76.324 16.718,100.742 -7.353,77.527 	
		"/>
</g>
<g>
	<defs>
		<rect id="SVGID_15_" x="-1235.318" y="-981.401" width="1312.328" height="2728.446"/>
	</defs>
	<clipPath id="SVGID_16_">
		<use xlink:href="#SVGID_15_"  overflow="visible"/>
	</clipPath>
	<path clip-path="url(#SVGID_16_)" fill="#001137" d="M-1070.689-953.374l-2.692,2.842c-0.798-0.598-1.545-1.047-2.244-1.297
		c-0.697-0.249-1.445-0.399-2.342-0.399c-1.645,0-2.992,0.649-3.989,1.945c-0.997,1.296-1.495,3.29-1.495,5.932
		c0,2.892,0.399,4.935,1.146,6.132c0.748,1.197,1.945,1.795,3.54,1.795c1.147,0,2.143-0.249,3.041-0.748v-5.135h-2.942l-0.498-3.789
		h8.624v11.118c-1.146,0.748-2.442,1.346-3.838,1.745s-2.792,0.598-4.237,0.598c-3.44,0-5.983-0.997-7.728-2.991
		c-1.744-1.995-2.592-4.937-2.592-8.824c0-2.443,0.449-4.587,1.396-6.382c0.947-1.794,2.244-3.14,3.839-4.038
		c1.645-0.897,3.489-1.395,5.483-1.395C-1075.275-956.166-1072.783-955.218-1070.689-953.374"/>
	<path clip-path="url(#SVGID_16_)" fill="#001137" d="M-1053.141-936.673c0.2,0.299,0.499,0.548,0.898,0.698l-1.047,3.34
		c-1.047-0.1-1.945-0.299-2.593-0.698c-0.647-0.399-1.196-0.997-1.545-1.795c-1.146,1.745-2.842,2.592-5.184,2.592
		c-1.695,0-3.091-0.498-4.088-1.495s-1.546-2.294-1.546-3.889c0-1.895,0.698-3.34,2.094-4.337c1.396-0.997,3.39-1.495,5.982-1.495
		h1.745v-0.748c0-0.997-0.199-1.695-0.648-2.094c-0.449-0.399-1.197-0.548-2.293-0.548c-0.549,0-1.246,0.101-2.044,0.249
		c-0.798,0.149-1.645,0.399-2.443,0.648l-1.147-3.39c1.097-0.399,2.194-0.748,3.341-0.947c1.146-0.2,2.193-0.349,3.14-0.349
		c2.443,0,4.287,0.498,5.434,1.545c1.147,0.997,1.745,2.543,1.745,4.587v6.68C-1053.39-937.471-1053.29-936.973-1053.141-936.673
		 M-1058.425-937.87v-3.041h-1.246c-1.147,0-2.044,0.2-2.593,0.599c-0.598,0.398-0.847,1.046-0.847,1.895
		c0,0.698,0.199,1.246,0.548,1.595c0.349,0.399,0.848,0.549,1.496,0.549C-1059.97-936.224-1059.073-936.773-1058.425-937.87"/>
	<path clip-path="url(#SVGID_16_)" fill="#001137" d="M-1038.484-933.932c-0.648,0.449-1.346,0.748-2.193,0.997
		c-0.848,0.25-1.646,0.349-2.493,0.349c-3.789,0-5.633-2.094-5.633-6.23v-7.978h-2.443v-3.539h2.443v-3.739l5.134-0.598v4.337h3.938
		l-0.548,3.589h-3.39v7.877c0,0.797,0.15,1.395,0.399,1.745c0.249,0.35,0.648,0.498,1.246,0.498c0.599,0,1.197-0.199,1.845-0.548
		L-1038.484-933.932z"/>
	<path clip-path="url(#SVGID_16_)" fill="#001137" d="M-1023.728-948.488c1.496,1.595,2.243,3.888,2.243,6.78
		c0,1.845-0.349,3.44-1.047,4.835c-0.698,1.396-1.645,2.443-2.941,3.191c-1.296,0.748-2.742,1.147-4.487,1.147
		c-2.642,0-4.686-0.798-6.182-2.394c-1.495-1.596-2.243-3.889-2.243-6.78c0-1.845,0.349-3.44,1.047-4.836
		c0.698-1.396,1.645-2.442,2.941-3.19c1.247-0.748,2.742-1.147,4.487-1.147C-1027.268-950.882-1025.174-950.083-1023.728-948.488
		 M-1032.253-945.797c-0.499,0.897-0.797,2.243-0.797,4.088c0,1.894,0.249,3.24,0.747,4.138c0.499,0.847,1.296,1.296,2.343,1.296
		s1.795-0.449,2.343-1.296c0.499-0.898,0.798-2.244,0.798-4.088c0-1.896-0.249-3.241-0.748-4.139
		c-0.499-0.848-1.296-1.296-2.343-1.296C-1030.957-947.143-1031.705-946.693-1032.253-945.797"/>
	<path clip-path="url(#SVGID_16_)" fill="#001137" d="M-1007.327-950.582l-0.798,4.985c-0.648-0.15-1.146-0.249-1.545-0.249
		c-0.997,0-1.795,0.349-2.343,1.047c-0.548,0.697-0.947,1.744-1.247,3.14v8.525h-5.134v-17.199h4.486l0.399,3.34
		c0.399-1.196,0.997-2.144,1.745-2.792s1.695-1.047,2.692-1.047C-1008.423-950.832-1007.875-950.732-1007.327-950.582"/>
	<path clip-path="url(#SVGID_16_)" fill="#001137" d="M-996.26-950.333c1.097,0.349,2.044,0.897,2.842,1.545l-1.895,2.892
		c-1.396-0.896-2.841-1.346-4.237-1.346c-0.648,0-1.196,0.099-1.545,0.349c-0.35,0.249-0.549,0.548-0.549,0.947
		c0,0.349,0.1,0.598,0.249,0.798c0.15,0.199,0.499,0.398,0.997,0.648c0.499,0.199,1.247,0.499,2.294,0.797
		c1.794,0.499,3.14,1.197,3.988,2.044c0.897,0.848,1.296,1.994,1.296,3.44c0,1.147-0.349,2.194-0.997,3.041
		c-0.648,0.847-1.595,1.496-2.742,1.945c-1.146,0.448-2.443,0.697-3.888,0.697c-1.446,0-2.792-0.249-4.039-0.697
		c-1.246-0.449-2.293-1.098-3.14-1.895l2.492-2.792c1.446,1.146,2.992,1.695,4.587,1.695c0.798,0,1.396-0.15,1.845-0.399
		c0.448-0.299,0.648-0.697,0.648-1.196c0-0.399-0.1-0.748-0.25-0.997c-0.149-0.249-0.498-0.449-0.997-0.647
		c-0.499-0.2-1.296-0.449-2.393-0.748c-1.695-0.498-2.991-1.196-3.838-2.094c-0.848-0.897-1.247-1.994-1.247-3.29
		c0-0.997,0.299-1.894,0.848-2.692c0.548-0.797,1.396-1.396,2.442-1.895c1.047-0.448,2.294-0.697,3.74-0.697
		C-998.502-950.881-997.307-950.732-996.26-950.333"/>
	<polygon clip-path="url(#SVGID_16_)" fill="#0065F8" points="-964.953,-955.617 -968.742,-933.134 -975.67,-933.134 
		-978.462,-950.283 -981.404,-933.134 -988.134,-933.134 -991.823,-955.617 -986.489,-955.617 -984.245,-937.172 -981.155,-955.617 
		-975.571,-955.617 -972.629,-937.172 -969.988,-955.617 	"/>
	<path clip-path="url(#SVGID_16_)" fill="#0065F8" d="M-948.002-940.213h-10.669c0.15,1.445,0.598,2.442,1.246,3.041
		s1.546,0.897,2.692,0.897c0.698,0,1.346-0.1,1.994-0.349c0.649-0.25,1.346-0.648,2.094-1.147l2.094,2.842
		c-1.994,1.595-4.238,2.393-6.73,2.393c-2.792,0-4.935-0.798-6.431-2.443s-2.244-3.838-2.244-6.63c0-1.745,0.3-3.34,0.948-4.736
		c0.648-1.396,1.545-2.493,2.742-3.29c1.196-0.798,2.642-1.197,4.337-1.197c2.492,0,4.437,0.798,5.833,2.343
		c1.395,1.546,2.094,3.739,2.094,6.48C-947.903-941.359-947.953-940.711-948.002-940.213 M-952.938-943.504
		c-0.05-2.642-0.997-3.938-2.792-3.938c-0.897,0-1.595,0.349-2.044,0.997c-0.498,0.647-0.797,1.745-0.897,3.19h5.733V-943.504z"/>
	<path clip-path="url(#SVGID_16_)" fill="#0065F8" d="M-930.505-948.488c1.097,1.595,1.645,3.888,1.645,6.779
		c0,1.794-0.299,3.34-0.847,4.736c-0.549,1.396-1.346,2.443-2.393,3.241c-1.047,0.797-2.243,1.146-3.639,1.146
		c-0.947,0-1.795-0.2-2.543-0.598c-0.747-0.399-1.445-0.947-1.944-1.646l-0.249,1.646h-4.537v-24.029l5.135-0.548v9.173
		c0.498-0.699,1.197-1.297,1.994-1.696c0.798-0.399,1.695-0.598,2.642-0.598C-933.197-950.882-931.652-950.084-930.505-948.488
		 M-934.194-941.709c0-2.044-0.249-3.49-0.698-4.236c-0.498-0.798-1.146-1.147-2.094-1.147c-1.146,0-2.143,0.648-2.941,1.994v7.179
		c0.349,0.498,0.698,0.947,1.197,1.196c0.448,0.299,0.947,0.449,1.495,0.449C-935.191-936.274-934.194-938.069-934.194-941.709"/>
	<path clip-path="url(#SVGID_16_)" fill="#0065F8" d="M-1120.541-937.571c-0.1-0.05-0.15-0.05-0.25-0.1
		c-1.894-0.797-3.439-1.944-4.536-3.39c-1.147-1.495-1.695-3.24-1.695-5.334c0-2.093,0.548-3.839,1.645-5.334
		c1.097-1.446,2.592-2.592,4.487-3.39c1.894-0.798,4.038-1.197,6.481-1.197c2.193,0,4.287,0.449,6.281,1.297
		c1.994,0.847,3.589,1.994,4.786,3.44l5.284-5.883c-1.844-1.994-4.287-3.589-7.328-4.786c-2.991-1.196-5.883-1.795-8.574-1.795
		c-4.139,0-7.828,0.748-10.968,2.294c-3.191,1.545-5.683,3.639-7.478,6.331c-1.097,1.645-1.894,3.44-2.293,5.334
		C-1132.904-946.694-1128.567-940.163-1120.541-937.571"/>
	<path clip-path="url(#SVGID_16_)" fill="#0065F8" d="M-1103.342-947.94h-10.369v7.18h9.023c-0.498,0.747-1.147,1.445-2.044,2.044
		c-3.29,2.642-10.568,6.381-22.932,1.894c-1.096-0.349-2.143-0.748-3.19-1.296c0.149,0.299,0.348,0.548,0.498,0.847
		c1.795,2.643,4.287,4.736,7.428,6.282c1.097,0.498,2.193,0.947,3.39,1.296c0.997,0.249,3.49,0.847,6.531,0.997h0.947h0.199
		c0.449,0,0.848,0,1.296-0.05h0.349c0.249,0,0.449-0.05,0.648-0.05c2.842-0.299,5.833-1.146,8.226-3.141v4.786h1.994h5.135v-20.788
		H-1103.342z"/>
	<rect x="-1235.318" y="-910.292" clip-path="url(#SVGID_16_)" fill="#01102B" width="1312.328" height="52.771"/>
</g>
<g>
	<defs>
		<rect id="SVGID_17_" x="-1235.318" y="-981.401" width="1312.328" height="2728.446"/>
	</defs>
	<clipPath id="SVGID_18_">
		<use xlink:href="#SVGID_17_"  overflow="visible"/>
	</clipPath>
	<path clip-path="url(#SVGID_18_)" fill="none" stroke="#FFFFFF" stroke-miterlimit="10" d="M-109.136-868.141h-69.639
		c-0.455,0-0.827-0.373-0.827-0.828v-27.902c0-0.456,0.372-0.828,0.827-0.828h69.639c0.455,0,0.827,0.372,0.827,0.828v27.902
		C-108.309-868.514-108.681-868.141-109.136-868.141z"/>
	<path clip-path="url(#SVGID_18_)" fill="#0065F8" d="M-26.857-868.141h-69.64c-0.455,0-0.827-0.373-0.827-0.828v-27.902
		c0-0.456,0.372-0.828,0.827-0.828h69.64c0.455,0,0.826,0.372,0.826,0.828v27.902C-26.031-868.514-26.402-868.141-26.857-868.141"/>
</g>
<g>
	<defs>
		<rect id="SVGID_19_" x="-1235.318" y="-981.401" width="1312.328" height="2728.446"/>
	</defs>
	<clipPath id="SVGID_20_">
		<use xlink:href="#SVGID_19_"  overflow="visible"/>
	</clipPath>
	<path clip-path="url(#SVGID_20_)" fill="#FFFFFF" d="M-211.227-884.049l-6.971-6.985c0,0-0.274-0.13-0.495,0.033
		c-0.22,0.163-0.833,0.816-0.833,0.816s-0.253,0.225,0,0.512c0.255,0.287,3.212,3.257,3.212,3.257h-4.809l-0.332,0.331v2.2
		l3.786,7.588c0,0,0.118,0.203,0.258,0.203h8.708c0,0,0.158,0.005,0.327-0.304c0.169-0.31,3.774-7.515,3.774-7.515v-2.121
		l-0.326-0.354h-5.906l-0.355,0.326L-211.227-884.049z"/>
</g>
<rect x="-1235.318" y="-981.401" fill="none" width="1312.328" height="2728.446"/>
<rect x="-1235.318" y="-981.401" fill="none" width="1312.328" height="2728.446"/>
<g>
	<defs>
		<rect id="SVGID_21_" x="-1235.318" y="-981.401" width="1312.328" height="2728.446"/>
	</defs>
	<clipPath id="SVGID_22_">
		<use xlink:href="#SVGID_21_"  overflow="visible"/>
	</clipPath>
	<polygon clip-path="url(#SVGID_22_)" fill="none" stroke="#DE3723" stroke-width="0.55" stroke-miterlimit="10" points="
		-818.664,-629.539 -818.664,-629.539 -744.514,-629.539 	"/>
</g>
<g>
	<defs>
		<rect id="SVGID_23_" x="-1235.318" y="-981.401" width="1312.328" height="2728.446"/>
	</defs>
	<clipPath id="SVGID_24_">
		<use xlink:href="#SVGID_23_"  overflow="visible"/>
	</clipPath>
	<path clip-path="url(#SVGID_24_)" fill="#FFFFFF" d="M-783.725,821.75h-274c-7.778,0-14.143-6.363-14.143-14.143V441.401
		c0-7.779,6.365-14.144,14.143-14.144h274c7.779,0,14.143,6.364,14.143,14.144v366.206
		C-769.582,815.387-775.946,821.75-783.725,821.75"/>
</g>
<g>
	<defs>
		<rect id="SVGID_25_" x="-1235.318" y="-981.401" width="1312.328" height="2728.446"/>
	</defs>
	<clipPath id="SVGID_26_">
		<use xlink:href="#SVGID_25_"  overflow="visible"/>
	</clipPath>
	<path clip-path="url(#SVGID_26_)" fill="#FFAF10" d="M-920.725,460.459c44.545,0,80.656,36.11,80.656,80.655
		s-36.111,80.656-80.656,80.656c-44.544,0-80.655-36.111-80.655-80.656S-965.269,460.459-920.725,460.459"/>
	<path clip-path="url(#SVGID_26_)" fill="#EEF6FF" d="M-888.263,569.346c0-0.727,0.591-1.316,1.317-1.316h37.872v-70.628h-106.697
		v3.3c0,0.469-0.382,0.851-0.85,0.851h-35.755v76.623c5.907,11.399,14.453,21.208,24.831,28.619h79.282V569.346z"/>
	<path clip-path="url(#SVGID_26_)" fill="#D9EAFC" d="M-992.376,501.552v76.623c1.91,3.686,4.099,7.2,6.533,10.525v-87.148H-992.376
		z"/>
	<path clip-path="url(#SVGID_26_)" fill="#293D7C" d="M-852.534,479.557H-955.77v18.174h106.697v-14.713
		C-849.073,481.115-850.63,479.557-852.534,479.557"/>
	<path clip-path="url(#SVGID_26_)" fill="#AEC1ED" d="M-857.38,490.552h-8.307c-1.364,0-2.469-1.104-2.469-2.469
		c0-1.364,1.105-2.468,2.469-2.468h8.307c1.364,0,2.469,1.104,2.469,2.468C-854.911,489.448-856.016,490.552-857.38,490.552"/>
	<path clip-path="url(#SVGID_26_)" fill="#FFFFFF" d="M-861.135,524.096c0,0.853-0.696,1.549-1.547,1.549h-116.084
		c-0.85,0-1.547-0.696-1.547-1.549v-15.479c0-0.851,0.697-1.546,1.547-1.546h116.083c0.852,0,1.548,0.695,1.548,1.546V524.096z"/>
	<path clip-path="url(#SVGID_26_)" fill="#EEF6FF" d="M-973.781,524.096v-15.479c0-0.851,0.697-1.546,1.548-1.546h-6.533
		c-0.85,0-1.547,0.695-1.547,1.546v15.479c0,0.853,0.697,1.549,1.547,1.549h6.533C-973.084,525.645-973.781,524.948-973.781,524.096
		"/>
	<path clip-path="url(#SVGID_26_)" fill="#FF9518" d="M-862.683,507.07h-21.098v18.573h21.098c0.851,0,1.547-0.696,1.547-1.548
		v-15.479C-861.136,507.767-861.832,507.07-862.683,507.07"/>
	<path clip-path="url(#SVGID_26_)" fill="#52BBEF" d="M-836.448,620.124c0,0.905-0.741,1.646-1.646,1.646h-48.852
		c-0.905,0-1.646-0.741-1.646-1.646v-50.777c0-0.906,0.741-1.647,1.646-1.647h48.852c0.905,0,1.646,0.741,1.646,1.647V620.124z"/>
	<path clip-path="url(#SVGID_26_)" fill="#1E99D6" d="M-882.06,620.124v-50.777c0-0.906,0.741-1.647,1.646-1.647h-6.532
		c-0.906,0-1.646,0.741-1.646,1.647v50.777c0,0.905,0.74,1.646,1.646,1.646h6.532C-881.318,621.771-882.06,621.029-882.06,620.124"
		/>
	<path clip-path="url(#SVGID_26_)" fill="#1E99D6" d="M-849.208,583.492h-26.625c-1.363,0-2.468-1.104-2.468-2.469
		c0-1.364,1.105-2.468,2.468-2.468h26.625c1.364,0,2.469,1.104,2.469,2.468S-847.843,583.492-849.208,583.492"/>
	<path clip-path="url(#SVGID_26_)" fill="#1E99D6" d="M-849.208,592.149h-26.625c-1.363,0-2.468-1.104-2.468-2.469
		c0-1.364,1.105-2.468,2.468-2.468h26.625c1.364,0,2.469,1.104,2.469,2.468C-846.738,591.046-847.843,592.149-849.208,592.149"/>
	<path clip-path="url(#SVGID_26_)" fill="#1E99D6" d="M-849.208,600.808h-26.625c-1.363,0-2.468-1.104-2.468-2.469
		s1.105-2.469,2.468-2.469h26.625c1.364,0,2.469,1.104,2.469,2.469S-847.843,600.808-849.208,600.808"/>
	<path clip-path="url(#SVGID_26_)" fill="#1E99D6" d="M-862.466,609.465h-13.366c-1.363,0-2.468-1.104-2.468-2.47
		c0-1.363,1.105-2.468,2.468-2.468h13.366c1.364,0,2.469,1.104,2.469,2.468C-859.997,608.36-861.102,609.465-862.466,609.465"/>
	<path clip-path="url(#SVGID_26_)" fill="#52BBEF" d="M-956.172,548.722c0,0.905-0.741,1.646-1.646,1.646h-14.233
		c-0.906,0-1.646-0.741-1.646-1.646v-14.232c0-0.906,0.74-1.646,1.646-1.646h14.233c0.905,0,1.646,0.74,1.646,1.646V548.722z"/>
	<path clip-path="url(#SVGID_26_)" fill="#52BBEF" d="M-897.856,540.128h-50.536c-1.364,0-2.469-1.104-2.469-2.47
		c0-1.363,1.105-2.468,2.469-2.468h50.536c1.364,0,2.469,1.104,2.469,2.468C-895.387,539.023-896.492,540.128-897.856,540.128"/>
	<path clip-path="url(#SVGID_26_)" fill="#52BBEF" d="M-913.99,548.021h-34.402c-1.364,0-2.47-1.104-2.47-2.469
		c0-1.363,1.106-2.468,2.47-2.468h34.402c1.364,0,2.469,1.104,2.469,2.468C-911.521,546.918-912.625,548.021-913.99,548.021"/>
	<path clip-path="url(#SVGID_26_)" fill="#02AF8E" d="M-956.172,570.944c0,0.905-0.741,1.646-1.646,1.646h-14.233
		c-0.906,0-1.646-0.741-1.646-1.646v-14.232c0-0.906,0.74-1.647,1.646-1.647h14.233c0.905,0,1.646,0.741,1.646,1.647V570.944z"/>
	<path clip-path="url(#SVGID_26_)" fill="#02AF8E" d="M-897.856,562.35h-50.536c-1.364,0-2.469-1.104-2.469-2.469
		s1.105-2.469,2.469-2.469h50.536c1.364,0,2.469,1.104,2.469,2.469S-896.492,562.35-897.856,562.35"/>
	<path clip-path="url(#SVGID_26_)" fill="#02AF8E" d="M-913.99,570.244h-34.402c-1.364,0-2.47-1.104-2.47-2.469
		s1.106-2.469,2.47-2.469h34.402c1.364,0,2.469,1.104,2.469,2.469S-912.625,570.244-913.99,570.244"/>
	<path clip-path="url(#SVGID_26_)" fill="#FF9518" d="M-956.172,593.166c0,0.905-0.741,1.646-1.646,1.646h-14.233
		c-0.906,0-1.646-0.741-1.646-1.646v-14.232c0-0.906,0.74-1.646,1.646-1.646h14.233c0.905,0,1.646,0.74,1.646,1.646V593.166z"/>
	<path clip-path="url(#SVGID_26_)" fill="#1E99D6" d="M-967.165,548.722v-14.232c0-0.906,0.741-1.646,1.646-1.646h-6.533
		c-0.905,0-1.646,0.74-1.646,1.646v14.232c0,0.905,0.741,1.646,1.646,1.646h6.533C-966.424,550.368-967.165,549.627-967.165,548.722
		"/>
	<path clip-path="url(#SVGID_26_)" fill="#0F9390" d="M-967.165,570.944v-14.232c0-0.906,0.741-1.647,1.646-1.647h-6.533
		c-0.905,0-1.646,0.741-1.646,1.647v14.232c0,0.905,0.741,1.646,1.646,1.646h6.533C-966.424,572.591-967.165,571.85-967.165,570.944
		"/>
	<path clip-path="url(#SVGID_26_)" fill="#EF8318" d="M-967.165,593.166v-14.232c0-0.906,0.741-1.646,1.646-1.646h-6.533
		c-0.905,0-1.646,0.74-1.646,1.646v14.232c0,0.905,0.741,1.646,1.646,1.646h6.533C-966.424,594.813-967.165,594.071-967.165,593.166
		"/>
	<path clip-path="url(#SVGID_26_)" fill="#FF9518" d="M-897.856,584.571h-50.536c-1.364,0-2.469-1.104-2.469-2.469
		c0-1.364,1.105-2.468,2.469-2.468h50.536c1.364,0,2.469,1.104,2.469,2.468S-896.492,584.571-897.856,584.571"/>
	<path clip-path="url(#SVGID_26_)" fill="#FF9518" d="M-913.99,592.466h-34.402c-1.364,0-2.47-1.104-2.47-2.469
		c0-1.363,1.106-2.468,2.47-2.468h34.402c1.364,0,2.469,1.104,2.469,2.468C-911.521,591.362-912.625,592.466-913.99,592.466"/>
	<path clip-path="url(#SVGID_26_)" fill="#91E0E8" d="M-876.904,534.794c4.722,0,8.549,3.827,8.549,8.55
		c0,4.722-3.827,8.55-8.549,8.55s-8.549-3.828-8.549-8.55C-885.453,538.621-881.626,534.794-876.904,534.794"/>
	<path clip-path="url(#SVGID_26_)" fill="#5DC1D8" d="M-876.417,549.388c-3.338-3.339-3.338-8.752,0-12.091
		c0.821-0.821,1.769-1.438,2.779-1.857c-3.097-1.278-6.794-0.659-9.312,1.857c-3.338,3.339-3.338,8.752,0,12.091
		c2.518,2.518,6.215,3.136,9.312,1.856C-874.648,550.827-875.596,550.209-876.417,549.388"/>
	<path clip-path="url(#SVGID_26_)" fill="#1A2B63" d="M-861.09,555.665l-6.477-6.478c2.662-4.253,2.149-9.94-1.546-13.638
		c-2.081-2.08-4.848-3.226-7.791-3.226c-2.944,0-5.711,1.146-7.792,3.227c-4.296,4.296-4.296,11.286,0,15.582
		c2.081,2.081,4.848,3.229,7.792,3.229c2.101,0,4.111-0.588,5.847-1.68l6.476,6.476c0.482,0.481,1.113,0.723,1.746,0.723
		c0.631,0,1.263-0.241,1.745-0.722C-860.125,558.193-860.125,556.63-861.09,555.665 M-881.204,547.642
		c-2.371-2.371-2.371-6.229,0-8.599c1.148-1.148,2.676-1.781,4.3-1.781c1.624,0,3.151,0.633,4.299,1.78
		c2.371,2.371,2.371,6.229,0,8.6c-1.148,1.148-2.675,1.78-4.299,1.78C-878.529,549.422-880.056,548.79-881.204,547.642"/>
	<path clip-path="url(#SVGID_26_)" fill="#91E0E8" d="M-1005.001,500.701c0,0.648,0.531,1.181,1.18,1.181h47.2
		c0.648,0,1.18-0.532,1.18-1.181v-31.624c0-0.647-0.532-1.18-1.18-1.18h-47.2c-0.649,0-1.18,0.532-1.18,1.18V500.701z"/>
	<path clip-path="url(#SVGID_26_)" fill="#5DC1D8" d="M-998.469,500.701v-31.624c0-0.647,0.531-1.18,1.18-1.18h-6.533
		c-0.648,0-1.179,0.532-1.179,1.18v31.624c0,0.649,0.531,1.181,1.179,1.181h6.533C-997.938,501.882-998.469,501.35-998.469,500.701"
		/>
	<rect x="-994.239" y="489.919" clip-path="url(#SVGID_26_)" fill="#293D7C" width="2.355" height="2.354"/>
	<path clip-path="url(#SVGID_26_)" fill="#293D7C" d="M-983.947,478.281c0.609,0.623,0.915,1.489,0.915,2.597v1.324l-2.145,0.104
		v-1.198c0-1.135-0.42-1.703-1.262-1.703c-0.406,0-0.718,0.127-0.935,0.379c-0.218,0.252-0.326,0.624-0.326,1.114v8.031
		c0,0.492,0.108,0.863,0.326,1.115c0.217,0.253,0.529,0.379,0.935,0.379c0.842,0,1.262-0.569,1.262-1.704v-1.64l2.145,0.104v1.767
		c0,1.107-0.306,1.974-0.915,2.598c-0.61,0.623-1.461,0.935-2.555,0.935c-1.079,0-1.92-0.308-2.523-0.926
		c-0.603-0.616-0.903-1.485-0.903-2.606v-8.073c0-1.121,0.3-1.99,0.903-2.607s1.444-0.926,2.523-0.926
		C-985.408,477.345-984.557,477.657-983.947,478.281"/>
	<path clip-path="url(#SVGID_26_)" fill="#293D7C" d="M-975.095,478.344c0.637,0.666,0.956,1.574,0.956,2.723v7.695
		c0,1.149-0.319,2.058-0.956,2.723c-0.638,0.666-1.518,0.999-2.639,0.999c-1.122,0-2.001-0.333-2.639-0.999
		c-0.638-0.665-0.956-1.573-0.956-2.723v-7.695c0-1.148,0.318-2.057,0.956-2.723c0.638-0.664,1.517-0.998,2.639-0.998
		C-976.613,477.346-975.733,477.68-975.095,478.344 M-978.754,479.837c-0.231,0.287-0.347,0.704-0.347,1.251v7.652
		c0,0.547,0.116,0.965,0.347,1.251c0.231,0.288,0.571,0.432,1.02,0.432c0.448,0,0.789-0.144,1.02-0.432
		c0.231-0.286,0.347-0.704,0.347-1.251v-7.652c0-0.547-0.116-0.964-0.347-1.251s-0.572-0.432-1.02-0.432
		C-978.184,479.405-978.523,479.55-978.754,479.837"/>
	<polygon clip-path="url(#SVGID_26_)" fill="#293D7C" points="-962.534,492.272 -964.763,492.272 -964.763,482.055 
		-964.805,482.055 -966.655,490.171 -967.979,490.171 -969.829,482.055 -969.871,482.055 -969.871,492.272 -971.974,492.272 
		-971.974,477.556 -969.052,477.556 -967.306,485.461 -967.264,485.461 -965.54,477.556 -962.534,477.556 	"/>
	<path clip-path="url(#SVGID_26_)" fill="#FFFFFF" d="M-442.153,821.75h-274c-7.779,0-14.143-6.363-14.143-14.143V441.401
		c0-7.779,6.364-14.144,14.143-14.144h274c7.777,0,14.143,6.364,14.143,14.144v366.206
		C-428.01,815.387-434.375,821.75-442.153,821.75"/>
</g>
<g>
	<defs>
		<rect id="SVGID_27_" x="-1235.318" y="-981.401" width="1312.328" height="2728.446"/>
	</defs>
	<clipPath id="SVGID_28_">
		<use xlink:href="#SVGID_27_"  overflow="visible"/>
	</clipPath>
	<path clip-path="url(#SVGID_28_)" fill="#F24976" d="M-575.484,458.324c45.135,0,81.723,36.59,81.723,81.724
		s-36.588,81.722-81.723,81.722c-45.134,0-81.724-36.588-81.724-81.722S-620.618,458.324-575.484,458.324"/>
	<path clip-path="url(#SVGID_28_)" fill="#D9EAFC" d="M-617.038,516.436c-0.032,0.102-0.013,0.211,0.049,0.297
		c0.063,0.086,0.163,0.137,0.269,0.137h0.707c0.736,0,1.334,0.598,1.334,1.335v14.472c0,0.736-0.598,1.334-1.334,1.334h-5.008
		c-0.184,0-0.333,0.149-0.333,0.333v2.116c0,1.656-1.347,3.002-3.002,3.002h-7.236c-1.655,0-3.002-1.346-3.002-3.002v-2.116
		c0-0.184-0.15-0.333-0.334-0.333h-3.766v57.837c14.988,18.269,37.737,29.923,63.21,29.923c25.473,0,48.222-11.655,63.21-29.924
		v-82.328h-102.594L-617.038,516.436z"/>
	<path clip-path="url(#SVGID_28_)" fill="#C3DDF4" d="M-634.594,536.459v-2.115c0-0.186-0.149-0.334-0.333-0.334h-3.767v57.838
		c2.062,2.512,4.276,4.896,6.619,7.145v-59.574C-633.501,539.188-634.594,537.949-634.594,536.459"/>
	<path clip-path="url(#SVGID_28_)" fill="#52BBEF" d="M-521.998,516.669h-95.019c0.01,0.021,0.014,0.044,0.027,0.063
		c0.063,0.085,0.163,0.136,0.269,0.136h0.707c0.736,0,1.334,0.599,1.334,1.334v14.474c0,0.735-0.598,1.334-1.334,1.334h-5.008
		c-0.185,0-0.333,0.148-0.333,0.334v2.115c0,1.655-1.347,3.002-3.002,3.002h-5.615v3.026c0,0.551,0.451,1.001,1.001,1.001H-522
		c0.552,0,1.002-0.45,1.002-1.001v-24.818C-520.997,517.119-521.448,516.669-521.998,516.669"/>
	<path clip-path="url(#SVGID_28_)" fill="#293D7C" d="M-515.335,493.285h-87.875c-1.549,6.127-5.338,11.521-10.772,15.083
		c-0.388,0.254-0.683,0.616-0.853,1.047l-0.137,0.437h102.699v-13.504C-512.274,494.663-513.651,493.285-515.335,493.285"/>
	<path clip-path="url(#SVGID_28_)" fill="#FE3745" d="M-538.082,504.216c-0.661,0-1.306-0.268-1.771-0.729
		c-0.464-0.469-0.73-1.112-0.73-1.772c0-0.657,0.268-1.301,0.73-1.769c0.466-0.466,1.11-0.733,1.771-0.733
		c0.656,0,1.304,0.268,1.768,0.733c0.466,0.467,0.734,1.111,0.734,1.769c0,0.66-0.269,1.304-0.734,1.772
		C-536.778,503.948-537.425,504.216-538.082,504.216"/>
	<path clip-path="url(#SVGID_28_)" fill="#FFAF10" d="M-529.877,504.216c-0.657,0-1.306-0.268-1.77-0.733
		c-0.466-0.465-0.733-1.108-0.733-1.769c0-0.657,0.268-1.301,0.733-1.769c0.468-0.466,1.112-0.733,1.77-0.733
		c0.659,0,1.304,0.268,1.771,0.733c0.463,0.467,0.731,1.111,0.731,1.769s-0.269,1.304-0.731,1.769
		C-528.574,503.948-529.218,504.216-529.877,504.216"/>
	<path clip-path="url(#SVGID_28_)" fill="#02AF8E" d="M-521.671,504.216c-0.66,0-1.305-0.268-1.768-0.729
		c-0.467-0.469-0.734-1.112-0.734-1.772c0-0.657,0.268-1.301,0.734-1.769c0.463-0.466,1.107-0.733,1.768-0.733
		c0.657,0,1.305,0.268,1.769,0.733c0.466,0.467,0.733,1.111,0.733,1.769c0,0.66-0.268,1.304-0.733,1.772
		C-520.37,503.948-521.014,504.216-521.671,504.216"/>
	<path clip-path="url(#SVGID_28_)" fill="#FFD00D" d="M-627.974,461.11c-14.27,0-25.88,11.609-25.88,25.88
		c0,8.757,4.376,16.852,11.706,21.656c0.327,0.216,0.581,0.527,0.725,0.891l2.299,7.332h22.3l2.299-7.332
		c0.144-0.363,0.398-0.675,0.725-0.891c7.33-4.805,11.706-12.899,11.706-21.656C-602.094,472.72-613.704,461.11-627.974,461.11"/>
	<path clip-path="url(#SVGID_28_)" fill="#FFAF10" d="M-630.476,499.669v17.199h5.003v-17.199c4.957-1.139,8.666-5.583,8.666-10.881
		c0-6.157-5.01-11.167-11.167-11.167c-6.158,0-11.167,5.01-11.167,11.167C-639.141,494.086-635.432,498.53-630.476,499.669
		 M-627.974,482.625c3.398,0,6.163,2.766,6.163,6.164c0,2.508-1.507,4.666-3.662,5.627v-4.803c0-1.382-1.119-2.502-2.501-2.502
		s-2.502,1.12-2.502,2.502v4.803c-2.154-0.961-3.662-3.12-3.662-5.627C-634.138,485.391-631.373,482.625-627.974,482.625"/>
	<path clip-path="url(#SVGID_28_)" fill="#FFAF10" d="M-639.125,516.868h7.247l-2.926-9.332c-0.146-0.363-0.398-0.676-0.726-0.891
		c-7.33-4.804-11.706-12.901-11.706-21.657c0-10.453,6.234-19.473,15.176-23.553c-12.336,1.965-21.795,12.675-21.795,25.555
		c0,8.756,4.376,16.853,11.706,21.656c0.328,0.215,0.581,0.527,0.726,0.891L-639.125,516.868z"/>
	<path clip-path="url(#SVGID_28_)" fill="#1A2B63" d="M-634.926,534.009c0,0.013-0.001,0.023-0.001,0.035v2.415
		c0,1.835,1.501,3.336,3.335,3.336h7.236c1.834,0,3.335-1.501,3.335-3.336v-2.415c0-0.012-0.002-0.021-0.002-0.035H-634.926z"/>
	<path clip-path="url(#SVGID_28_)" fill="#445EA0" d="M-614.345,532.675c0,0.917-0.751,1.668-1.668,1.668h-23.922
		c-0.917,0-1.668-0.751-1.668-1.668v-14.473c0-0.917,0.751-1.668,1.668-1.668h23.922c0.917,0,1.668,0.751,1.668,1.668V532.675z"/>
	<path clip-path="url(#SVGID_28_)" fill="#293D7C" d="M-619.311,524.665h-17.327c-1.381,0-2.502-1.12-2.502-2.502
		s1.121-2.502,2.502-2.502h17.327c1.382,0,2.501,1.12,2.501,2.502S-617.929,524.665-619.311,524.665"/>
	<path clip-path="url(#SVGID_28_)" fill="#293D7C" d="M-619.311,531.523h-17.327c-1.381,0-2.502-1.12-2.502-2.502
		s1.121-2.501,2.502-2.501h17.327c1.382,0,2.501,1.119,2.501,2.501S-617.929,531.523-619.311,531.523"/>
	<path clip-path="url(#SVGID_28_)" fill="#FFAF10" d="M-627.974,458.637c-1.382,0-2.502-1.12-2.502-2.502v-2.646
		c0-1.382,1.12-2.502,2.502-2.502s2.501,1.12,2.501,2.502v2.646C-625.473,457.517-626.593,458.637-627.974,458.637"/>
	<path clip-path="url(#SVGID_28_)" fill="#FFAF10" d="M-605.904,467.901c-0.64,0-1.281-0.243-1.77-0.731
		c-0.977-0.979-0.977-2.563,0-3.539l1.873-1.872c0.977-0.976,2.561-0.976,3.538,0c0.977,0.977,0.977,2.561,0,3.539l-1.872,1.872
		C-604.624,467.658-605.264,467.901-605.904,467.901"/>
	<path clip-path="url(#SVGID_28_)" fill="#FFAF10" d="M-594.201,490.058h-2.648c-1.382,0-2.501-1.118-2.501-2.501
		c0-1.382,1.119-2.502,2.501-2.502h2.648c1.382,0,2.502,1.12,2.502,2.502C-591.699,488.938-592.819,490.058-594.201,490.058"/>
	<path clip-path="url(#SVGID_28_)" fill="#FFAF10" d="M-604.241,514c-0.64,0-1.281-0.244-1.77-0.731l-1.871-1.872
		c-0.977-0.978-0.977-2.562,0-3.539c0.977-0.977,2.561-0.977,3.538,0l1.872,1.872c0.977,0.978,0.977,2.562,0,3.539
		C-602.96,513.756-603.601,514-604.241,514"/>
	<path clip-path="url(#SVGID_28_)" fill="#FFAF10" d="M-652.213,513.792c-0.641,0-1.28-0.243-1.769-0.732
		c-0.977-0.978-0.977-2.562,0-3.538l1.873-1.872c0.977-0.978,2.561-0.976,3.537,0c0.977,0.977,0.977,2.562,0,3.539l-1.872,1.872
		C-650.932,513.549-651.573,513.792-652.213,513.792"/>
	<path clip-path="url(#SVGID_28_)" fill="#FFAF10" d="M-659.396,489.763h-2.648c-1.382,0-2.502-1.12-2.502-2.502
		s1.12-2.502,2.502-2.502h2.648c1.382,0,2.502,1.12,2.502,2.502S-658.014,489.763-659.396,489.763"/>
	<path clip-path="url(#SVGID_28_)" fill="#FFAF10" d="M-650.132,467.692c-0.64,0-1.28-0.245-1.769-0.732l-1.873-1.872
		c-0.977-0.979-0.977-2.562,0-3.539c0.978-0.977,2.561-0.977,3.538,0l1.873,1.873c0.977,0.977,0.977,2.561,0,3.538
		C-648.851,467.447-649.492,467.692-650.132,467.692"/>
	<path clip-path="url(#SVGID_28_)" fill="#FFAF10" d="M-639.953,460.961c-0.981,0-1.913-0.581-2.312-1.545l-1.013-2.445
		c-0.529-1.276,0.076-2.739,1.353-3.27c1.276-0.528,2.741,0.077,3.269,1.355l1.014,2.444c0.528,1.276-0.078,2.74-1.354,3.27
		C-639.309,460.899-639.634,460.961-639.953,460.961"/>
	<path clip-path="url(#SVGID_28_)" fill="#FFAF10" d="M-616.019,461.074c-0.319,0-0.644-0.062-0.956-0.19
		c-1.277-0.529-1.883-1.993-1.354-3.27l1.013-2.444c0.529-1.278,1.993-1.885,3.269-1.355c1.276,0.53,1.882,1.992,1.353,3.27
		l-1.012,2.445C-614.106,460.492-615.037,461.074-616.019,461.074"/>
	<path clip-path="url(#SVGID_28_)" fill="#FFAF10" d="M-599.173,478.079c-0.981,0-1.913-0.581-2.313-1.545
		c-0.528-1.275,0.078-2.739,1.355-3.268l2.447-1.015c1.275-0.528,2.74,0.078,3.268,1.354c0.529,1.277-0.078,2.741-1.355,3.269
		l-2.446,1.015C-598.529,478.018-598.854,478.079-599.173,478.079"/>
	<path clip-path="url(#SVGID_28_)" fill="#FFAF10" d="M-596.841,503.028c-0.319,0-0.643-0.062-0.956-0.189l-2.446-1.015
		c-1.277-0.527-1.883-1.991-1.355-3.269c0.529-1.276,1.992-1.882,3.269-1.354l2.446,1.014c1.277,0.529,1.883,1.993,1.355,3.268
		C-594.927,502.446-595.859,503.028-596.841,503.028"/>
	<path clip-path="url(#SVGID_28_)" fill="#FFAF10" d="M-659.518,502.756c-0.981,0-1.913-0.582-2.312-1.546
		c-0.529-1.274,0.077-2.739,1.354-3.268l2.446-1.013c1.276-0.529,2.74,0.076,3.269,1.353c0.529,1.277-0.077,2.741-1.354,3.269
		l-2.446,1.015C-658.874,502.694-659.199,502.756-659.518,502.756"/>
	<path clip-path="url(#SVGID_28_)" fill="#FFAF10" d="M-656.96,477.807c-0.319,0-0.643-0.062-0.956-0.19l-2.446-1.014
		c-1.277-0.527-1.884-1.99-1.355-3.269c0.528-1.276,1.993-1.882,3.268-1.354l2.447,1.013c1.276,0.528,1.882,1.992,1.354,3.268
		C-655.046,477.225-655.978,477.807-656.96,477.807"/>
	<polygon clip-path="url(#SVGID_28_)" fill="#293D7C" points="-575.601,521.418 -575.601,520.363 -580.136,520.363 
		-580.136,521.418 -578.396,521.418 -578.396,539.167 -580.136,539.167 -580.136,540.223 -575.601,540.223 -575.601,539.167 
		-577.34,539.167 -577.34,521.418 	"/>
	<path clip-path="url(#SVGID_28_)" fill="#293D7C" d="M-607.603,535.93l5.308-11.987c0.37-0.827,1.044-1.327,1.958-1.327h0.196
		c0.914,0,1.566,0.5,1.936,1.327l5.308,11.987c0.109,0.238,0.174,0.457,0.174,0.674c0,0.892-0.696,1.609-1.588,1.609
		c-0.783,0-1.305-0.457-1.61-1.152l-1.022-2.394h-6.7l-1.066,2.502c-0.283,0.652-0.849,1.044-1.545,1.044
		c-0.87,0-1.545-0.695-1.545-1.566C-607.799,536.407-607.712,536.168-607.603,535.93 M-598.183,531.708l-2.11-5.024l-2.111,5.024
		H-598.183z"/>
	<path clip-path="url(#SVGID_28_)" fill="#293D7C" d="M-591.136,534.733v-0.044c0-2.545,1.937-3.721,4.699-3.721
		c1.175,0,2.024,0.195,2.85,0.479v-0.197c0-1.37-0.849-2.132-2.502-2.132c-0.913,0-1.653,0.131-2.284,0.328
		c-0.195,0.063-0.326,0.087-0.479,0.087c-0.76,0-1.37-0.588-1.37-1.349c0-0.589,0.369-1.089,0.892-1.284
		c1.044-0.393,2.176-0.61,3.72-0.61c1.805,0,3.111,0.479,3.937,1.306c0.87,0.87,1.262,2.153,1.262,3.721v5.308
		c0,0.892-0.718,1.588-1.61,1.588c-0.957,0-1.587-0.675-1.587-1.371v-0.021c-0.805,0.891-1.915,1.479-3.525,1.479
		C-589.33,538.3-591.136,537.038-591.136,534.733 M-583.544,533.971v-0.588c-0.565-0.261-1.305-0.434-2.109-0.434
		c-1.414,0-2.285,0.564-2.285,1.608v0.044c0,0.892,0.74,1.414,1.806,1.414C-584.588,536.016-583.544,535.167-583.544,533.971"/>
	<path clip-path="url(#SVGID_28_)" fill="#52BBEF" d="M-603.547,566.327c0,0.708-0.58,1.288-1.288,1.288h-11.131
		c-0.708,0-1.288-0.58-1.288-1.288v-11.132c0-0.708,0.58-1.287,1.288-1.287h11.131c0.708,0,1.288,0.579,1.288,1.287V566.327z"/>
	<path clip-path="url(#SVGID_28_)" fill="#52BBEF" d="M-557.938,559.605h-39.524c-1.067,0-1.931-0.863-1.931-1.931
		c0-1.066,0.864-1.93,1.931-1.93h39.524c1.065,0,1.932,0.863,1.932,1.93C-556.006,558.742-556.873,559.605-557.938,559.605"/>
	<path clip-path="url(#SVGID_28_)" fill="#52BBEF" d="M-570.556,565.78h-26.906c-1.067,0-1.931-0.863-1.931-1.932
		c0-1.066,0.864-1.93,1.931-1.93h26.906c1.065,0,1.931,0.863,1.931,1.93C-568.625,564.917-569.491,565.78-570.556,565.78"/>
	<path clip-path="url(#SVGID_28_)" fill="#02AF8E" d="M-603.547,583.708c0,0.708-0.58,1.287-1.288,1.287h-11.131
		c-0.708,0-1.288-0.579-1.288-1.287v-11.133c0-0.708,0.58-1.287,1.288-1.287h11.131c0.708,0,1.288,0.579,1.288,1.287V583.708z"/>
	<path clip-path="url(#SVGID_28_)" fill="#02AF8E" d="M-557.938,576.985h-39.524c-1.067,0-1.931-0.863-1.931-1.931
		c0-1.066,0.864-1.93,1.931-1.93h39.524c1.065,0,1.932,0.863,1.932,1.93C-556.006,576.122-556.873,576.985-557.938,576.985"/>
	<path clip-path="url(#SVGID_28_)" fill="#02AF8E" d="M-570.556,583.16h-26.906c-1.067,0-1.931-0.863-1.931-1.932
		c0-1.066,0.864-1.93,1.931-1.93h26.906c1.065,0,1.931,0.863,1.931,1.93C-568.625,582.297-569.491,583.16-570.556,583.16"/>
	<path clip-path="url(#SVGID_28_)" fill="#FF9518" d="M-603.547,601.088c0,0.708-0.58,1.287-1.288,1.287h-11.131
		c-0.708,0-1.288-0.579-1.288-1.287v-11.132c0-0.708,0.58-1.288,1.288-1.288h11.131c0.708,0,1.288,0.58,1.288,1.288V601.088z"/>
	<path clip-path="url(#SVGID_28_)" fill="#1E99D6" d="M-612.145,566.327v-11.132c0-0.708,0.579-1.287,1.287-1.287h-5.109
		c-0.708,0-1.287,0.579-1.287,1.287v11.132c0,0.708,0.579,1.288,1.287,1.288h5.109
		C-611.566,567.615-612.145,567.035-612.145,566.327"/>
	<path clip-path="url(#SVGID_28_)" fill="#0F9390" d="M-612.145,583.708v-11.133c0-0.708,0.579-1.287,1.287-1.287h-5.109
		c-0.708,0-1.287,0.579-1.287,1.287v11.133c0,0.708,0.579,1.287,1.287,1.287h5.109
		C-611.566,584.995-612.145,584.416-612.145,583.708"/>
	<path clip-path="url(#SVGID_28_)" fill="#EF8318" d="M-612.145,601.088v-11.132c0-0.708,0.579-1.288,1.287-1.288h-5.109
		c-0.708,0-1.287,0.58-1.287,1.288v11.132c0,0.708,0.579,1.287,1.287,1.287h5.109C-611.566,602.375-612.145,601.796-612.145,601.088
		"/>
	<path clip-path="url(#SVGID_28_)" fill="#FF9518" d="M-557.938,594.365h-39.524c-1.067,0-1.931-0.863-1.931-1.931
		c0-1.066,0.864-1.93,1.931-1.93h39.524c1.065,0,1.932,0.863,1.932,1.93C-556.006,593.502-556.873,594.365-557.938,594.365"/>
	<path clip-path="url(#SVGID_28_)" fill="#FF9518" d="M-570.556,600.54h-26.906c-1.067,0-1.931-0.863-1.931-1.932
		c0-1.066,0.864-1.93,1.931-1.93h26.906c1.065,0,1.931,0.863,1.931,1.93C-568.625,599.677-569.491,600.54-570.556,600.54"/>
	<path clip-path="url(#SVGID_28_)" fill="#91E0E8" d="M-541.551,555.435c3.691,0,6.687,2.993,6.687,6.688
		c0,3.691-2.995,6.686-6.687,6.686c-3.693,0-6.688-2.994-6.688-6.686C-548.239,558.428-545.245,555.435-541.551,555.435"/>
	<path clip-path="url(#SVGID_28_)" fill="#5DC1D8" d="M-541.171,566.848c-2.61-2.609-2.61-6.845,0-9.456
		c0.643-0.642,1.384-1.126,2.174-1.452c-2.423-1-5.314-0.517-7.282,1.452c-2.612,2.611-2.612,6.847,0,9.456
		c1.968,1.97,4.859,2.452,7.282,1.452C-539.788,567.974-540.529,567.491-541.171,566.848"/>
	<path clip-path="url(#SVGID_28_)" fill="#1A2B63" d="M-529.184,571.758l-5.065-5.066c2.082-3.326,1.681-7.773-1.209-10.665
		c-1.629-1.628-3.793-2.523-6.095-2.523c-2.301,0-4.466,0.896-6.093,2.523c-3.36,3.36-3.36,8.827,0.001,12.188
		c1.626,1.627,3.791,2.523,6.092,2.523c1.646,0,3.216-0.459,4.575-1.313l5.063,5.063c0.378,0.379,0.871,0.566,1.365,0.566
		s0.988-0.188,1.365-0.564C-528.43,573.735-528.43,572.513-529.184,571.758 M-544.915,565.482c-1.854-1.854-1.854-4.871,0-6.725
		c0.897-0.898,2.093-1.393,3.361-1.393c1.271,0,2.465,0.494,3.364,1.392c1.853,1.854,1.853,4.872,0,6.726
		c-0.899,0.898-2.093,1.394-3.364,1.394C-542.822,566.876-544.017,566.381-544.915,565.482"/>
	<path clip-path="url(#SVGID_28_)" fill="#FFFFFF" d="M-100.583,821.75h-274c-7.778,0-14.144-6.363-14.144-14.143V441.401
		c0-7.779,6.365-14.144,14.144-14.144h274c7.778,0,14.144,6.364,14.144,14.144v366.206
		C-86.439,815.387-92.804,821.75-100.583,821.75"/>
</g>
<g>
	<defs>
		<rect id="SVGID_29_" x="-1235.318" y="-981.401" width="1312.328" height="2728.446"/>
	</defs>
	<clipPath id="SVGID_30_">
		<use xlink:href="#SVGID_29_"  overflow="visible"/>
	</clipPath>
	<path clip-path="url(#SVGID_30_)" fill="#FF4155" d="M-165.783,580.444c6.59-11.821,10.35-25.438,10.35-39.935
		c0-45.37-36.78-82.148-82.15-82.148c-45.368,0-82.147,36.778-82.147,82.148c0,14.497,3.759,28.113,10.349,39.935H-165.783z"/>
	<path clip-path="url(#SVGID_30_)" fill="#FFAA7B" d="M-212.736,556.608c0.001-0.001,0.002-0.003,0.002-0.003
		c-0.197-0.056-0.399-0.105-0.601-0.159c-0.065-0.018-0.131-0.036-0.198-0.055l-0.001,0.002c-0.675-0.178-1.353-0.349-2.04-0.508
		c-3.403-3.404-4.267-9.857-4.423-14.372c-1.775,2.069-3.64,3.8-5.422,5.183c-3.47,2.695-7.754,4.159-12.165,4.159
		s-8.693-1.464-12.165-4.159c-1.78-1.383-3.645-3.113-5.422-5.183c-0.156,4.515-1.018,10.968-4.422,14.372
		c-0.697,0.161-1.384,0.335-2.069,0.515l-0.001-0.001c-0.063,0.018-0.127,0.034-0.188,0.052c-0.203,0.054-0.407,0.104-0.609,0.16
		c0,0,0.002,0.002,0.004,0.004c-3.136,0.858-6.164,1.909-9.123,3.149v8.002c5.516,7.538,12.895,12.238,17.117,14.013
		c1.899,0.797,3.921,1.201,6.014,1.201h5.931l1.45,0.503h6.971l1.45-0.503h5.93c2.091,0,4.115-0.404,6.013-1.201
		c4.199-1.766,11.52-6.422,17.024-13.886v-8.167C-206.618,558.501-209.624,557.461-212.736,556.608"/>
	<path clip-path="url(#SVGID_30_)" fill="#FC9460" d="M-249.748,546.697c-1.781-1.384-3.646-3.113-5.423-5.184
		c-0.155,4.515-1.018,10.969-4.423,14.372c-0.695,0.162-1.384,0.335-2.067,0.516c0,0,0-0.001-0.001-0.001
		c-0.064,0.018-0.126,0.034-0.19,0.052c-0.202,0.055-0.406,0.104-0.608,0.16c0,0,0.004,0.002,0.005,0.003
		c-1.225,0.336-2.428,0.709-3.62,1.104c3.322,7.935,10.3,21.601,17.68,17.815c10.243-5.253,10.813-24.678,10.813-24.678
		C-241.994,550.856-246.277,549.392-249.748,546.697"/>
	<path clip-path="url(#SVGID_30_)" fill="#FFC839" d="M-208.115,572.728c-4.565,4.22-9.449,6.728-12.59,8.048
		c-1.897,0.797-3.921,1.2-6.014,1.2h-5.929l-1.45,0.503h-6.971l-1.45-0.503h-5.929c-2.094,0-4.116-0.403-6.016-1.2
		c-0.675-0.284-1.433-0.627-2.25-1.026v24.955c0,0-6.394,6.315-1.684,15.29c6.646,1.735,13.622,2.665,20.813,2.665
		c19.952,0,38.241-7.116,52.474-18.944V602.5C-185.11,590.009-200.082,578.178-208.115,572.728"/>
	<path clip-path="url(#SVGID_30_)" fill="#FFB332" d="M-256.041,604.703V580.07c-3.063-1.433-7.136-3.767-10.986-7.322
		c-8.019,5.437-22.996,17.263-22.996,29.747v1.247c9.295,7.717,20.318,13.424,32.404,16.453
		C-262.533,611.115-256.041,604.703-256.041,604.703"/>
	<path clip-path="url(#SVGID_30_)" fill="#FFDD40" d="M-165.783,580.444c-0.072-0.139-0.144-0.278-0.216-0.416
		c-2.682-5.046-7.187-8.88-12.563-10.82l-22.743-8.214c0.418,0.845,0.704,2.095-0.107,3.471c-2.119,3.602-4.721,6.527-7.393,8.884
		c7.511,5.006,22.727,16.669,22.727,29.002v2.152C-177.864,597.884-170.953,589.718-165.783,580.444"/>
	<path clip-path="url(#SVGID_30_)" fill="#FFC839" d="M-273.755,564.465c-0.811-1.377-0.524-2.627-0.105-3.471l-22.744,8.213
		c-5.375,1.942-9.88,5.776-12.563,10.822c-0.072,0.137-0.144,0.277-0.215,0.415c5.17,9.273,12.08,17.439,20.295,24.059v-2.15
		c0-12.333,15.215-23.996,22.727-29.003C-269.034,570.992-271.635,568.067-273.755,564.465"/>
	<path clip-path="url(#SVGID_30_)" fill="#FEE77F" d="M-198.975,549.306c-2.485-5.798-10.546-9.187-21.155-12.738l-0.729,5.81
		c0,0,6.696,26.424-13.238,40.102h9.695c2.717,0,5.403-0.569,7.876-1.691c3.11-1.41,7.474-3.701,11.36-6.877
		C-197.9,567.972-195.28,557.931-198.975,549.306"/>
	<path clip-path="url(#SVGID_30_)" fill="#FEE77F" d="M-253.547,565.416c-3.693-0.949-13.161-2.188-15.684,9.104
		c3.685,2.862,7.685,4.95,10.59,6.267c2.475,1.121,5.16,1.691,7.876,1.691h9.696C-247.932,577.771-251.638,571.549-253.547,565.416"
		/>
	<path clip-path="url(#SVGID_30_)" fill="#FFDD40" d="M-254.306,542.377l-0.729-5.811c-10.61,3.553-18.669,6.94-21.154,12.74
		c-3.696,8.625-1.075,18.666,6.191,24.603c0.434,0.356,0.876,0.698,1.321,1.031c2.518-13.481,15.498-8.409,15.498-8.409v-0.003
		C-257.37,554.471-254.306,542.377-254.306,542.377"/>
	<path clip-path="url(#SVGID_30_)" fill="#DEEEFF" d="M-256.041,604.703c-1.573,0-2.86-1.287-2.86-2.859v-23.499
		c0-1.574,1.287-2.861,2.86-2.861c1.572,0,2.86,1.287,2.86,2.861v23.499C-253.18,603.416-254.468,604.703-256.041,604.703"/>
	<path clip-path="url(#SVGID_30_)" fill="#DEEEFF" d="M-219.217,604.703c-1.573,0-2.86-1.287-2.86-2.859v-23.499
		c0-1.574,1.287-2.861,2.86-2.861c1.572,0,2.859,1.287,2.859,2.861v23.499C-216.358,603.416-217.645,604.703-219.217,604.703"/>
	<path clip-path="url(#SVGID_30_)" fill="#FF7186" d="M-185.41,477.054c-5.959,4.072-10.469,10.309-8.897,19.683
		c4.113,24.562-14.837,37.092,14.78,50.261c10.529,4.682,17.162,10.16,21.292,14.842c1.826-6.802,2.802-13.951,2.802-21.329
		C-155.433,514.951-167.106,492.12-185.41,477.054"/>
	<path clip-path="url(#SVGID_30_)" fill="#FF7186" d="M-289.755,477.054c5.958,4.072,10.469,10.309,8.897,19.683
		c-4.114,24.562,14.836,37.092-14.781,50.261c-10.528,4.682-17.162,10.16-21.292,14.842c-1.825-6.802-2.801-13.951-2.801-21.329
		C-319.732,514.951-308.06,492.12-289.755,477.054"/>
	<path clip-path="url(#SVGID_30_)" fill="#945230" d="M-205.583,503.99c2.181-8.894,3.962-22.219-0.754-33.307
		c-9.117-21.439-33.933-20.118-40.509-19.363c-0.689,0.079-1.037,0.867-0.644,1.441c3.941,5.753-11.501,0.54-19.896,18.146
		c-5.318,11.158-3.981,24.297-2.038,33.082H-205.583z"/>
	<path clip-path="url(#SVGID_30_)" fill="#753616" d="M-237.943,474.608c0,0-2.473-5.685,3.787-10.379
		c6.252-4.687-3.066-13.109-3.092-13.133c-4.191-0.265-7.675,0.003-9.598,0.224c-0.691,0.08-1.037,0.867-0.646,1.44
		c3.943,5.754-11.501,0.54-19.894,18.147c-5.32,11.158-3.983,24.297-2.038,33.082h14.592l4.635-1.841L-237.943,474.608z"/>
	<path clip-path="url(#SVGID_30_)" fill="#FFAA7B" d="M-204.302,502.863c-1.375-1.261-4.451-0.622-5.637,0.15
		c0.26,1.617,0.275,3.271,0.051,4.904l-1.397,10.183c0,0.821-0.027,1.626-0.075,2.417c3.411,1.029,5.439-2.032,5.726-4.133
		c0.122-0.904,0.322-1.795,0.602-2.665C-204.126,510.888-200.856,506.022-204.302,502.863"/>
	<path clip-path="url(#SVGID_30_)" fill="#FC9460" d="M-270.863,502.863c1.376-1.261,4.45-0.622,5.637,0.15
		c-0.26,1.617-0.275,3.271-0.05,4.904l1.396,10.183c0,0.821,0.027,1.626,0.075,2.417c-3.411,1.029-5.439-2.032-5.725-4.133
		c-0.122-0.904-0.323-1.795-0.603-2.665C-271.039,510.888-274.309,506.022-270.863,502.863"/>
	<path clip-path="url(#SVGID_30_)" fill="#FFC7AB" d="M-211.656,497.431c-1.55-2.431-1.036-4.416-1.012-6.739
		c0,0,1.308-10.702-11.873-14.502c-3.815-1.102-9.199-1.759-14.718-1.548c-3.839,2.707-6.368,6.68-6.368,12.309
		c0,2.586,0.559,4.607-1.029,7.229c-1.711,2.829-2.708,6.908-2.143,11.247l1.425,10.927c0,15.711,7.962,26.389,14.736,31.928
		c0.963,0.787,1.992,1.468,3.063,2.055c1.475-0.648,2.87-1.476,4.155-2.474c6.65-5.164,14.466-15.118,14.466-29.762l1.399-10.184
		C-209.002,503.905-209.959,500.094-211.656,497.431"/>
	<path clip-path="url(#SVGID_30_)" fill="#FFAA7B" d="M-232.568,547.64c-6.649-5.437-14.468-15.92-14.468-31.342l-1.397-10.726
		c-0.556-4.26,0.423-8.266,2.103-11.041c1.559-2.576,1.011-4.561,1.011-7.1c0-6.061,2.98-10.17,7.377-12.822
		c-11.715,0.162-24.557,4.133-24.557,16.082c0,2.41,0.548,4.296-1.01,6.739c-1.681,2.638-2.659,6.439-2.104,10.484l1.398,10.186
		c0,14.644,7.817,24.599,14.466,29.762c3.472,2.694,7.754,4.159,12.165,4.159c3.036,0,6.009-0.693,8.7-2.004
		C-230.183,549.372-231.421,548.578-232.568,547.64"/>
	<path clip-path="url(#SVGID_30_)" fill="#945230" d="M-218.757,529.896c-0.777-4.637-4.122-9.277-8.59-10.292l-6.825-2.005
		c-1.188-0.349-2.374,0.26-2.854,1.293c-0.086,0.19-0.35,0.19-0.438,0c-0.479-1.033-1.666-1.642-2.854-1.293l-6.826,2.005
		c-0.17,0.039-0.337,0.084-0.503,0.133h0.065c-0.725,1.701-1.975,5.927,1.585,9.154c1.147-0.587,2.378-1.036,3.668-1.32l1.219-0.27
		c1.777-0.392,3.152-2.127,3.656-3.975c0.057-0.213,0.358-0.213,0.417,0c0.504,1.848,1.878,3.583,3.655,3.975l1.22,0.27
		c3.505,0.773,6.575,2.734,8.747,5.476c-0.449,1.999-1.86,5.037-6.229,6.581c-2.932,1.036-6.132-0.809-6.507-3.86
		c-0.004-0.04-0.009-0.079-0.013-0.119c-0.063-0.568-0.538-1.007-1.118-1.007c-0.581,0-1.057,0.438-1.119,1.007
		c-0.004,0.04-0.009,0.079-0.014,0.119c-0.201,1.642-1.224,2.927-2.576,3.609c-0.376,1.492-0.876,4.708,0.681,7.83
		c1.125,2.257,3.104,4.005,5.887,5.216c1.409-0.284,2.792-0.754,4.102-1.421c6.833-3.479,15.916-9.521,18.821-25.066
		c0.238-1.277,0.359-2.578,0.359-3.879C-212.246,524.786-214.544,528.068-218.757,529.896"/>
	<path clip-path="url(#SVGID_30_)" fill="#753616" d="M-244.894,550.997c3.526,1.798,7.56,2.204,11.318,1.23
		c-9.186-3.561-7.288-11.581-6.788-13.227c-1.26,0.892-2.946,1.194-4.557,0.626c-4.034-1.426-5.77-4.125-6.515-6.104
		c1.53-2.093,3.569-3.771,5.927-4.871c-3.874-3.349-2.035-7.888-1.438-9.104l-0.195,0.058c-4.556,1.033-7.945,5.84-8.636,10.565
		c-4.659-1.757-7.085-5.241-8.248-8.112v0.001c0,1.298,0.121,2.596,0.36,3.873C-260.765,541.475-251.726,547.517-244.894,550.997"/>
</g>
<rect x="-1235.318" y="-981.405" fill="none" width="1312.33" height="2728.45"/>
<g>
</g>
<g>
</g>
<g>
</g>
<g>
</g>
<g>
</g>
<g>
</g>
<g>
</g>
<g>
</g>
<g>
</g>
<g>
</g>
<g>
</g>
<g>
</g>
<g>
</g>
<g>
</g>
<g>
</g>
</svg>
