<?xml version="1.0" encoding="utf-8"?>
<!-- Generator: Adobe Illustrator 16.0.0, SVG Export Plug-In . SVG Version: 6.00 Build 0)  -->
<!DOCTYPE svg PUBLIC "-//W3C//DTD SVG 1.1//EN" "http://www.w3.org/Graphics/SVG/1.1/DTD/svg11.dtd">
<svg version="1.1" id="Layer_1" xmlns="http://www.w3.org/2000/svg" xmlns:xlink="http://www.w3.org/1999/xlink" x="0px" y="0px"
	 width="121.333px" height="120.667px" viewBox="0 0 121.333 120.667" enable-background="new 0 0 121.333 120.667"
	 xml:space="preserve">
<g>
	<defs>
		<rect id="SVGID_1_" x="-359.23" y="-701.675" width="1312.329" height="2728.446"/>
	</defs>
	<clipPath id="SVGID_2_">
		<use xlink:href="#SVGID_1_"  overflow="visible"/>
	</clipPath>
	<path clip-path="url(#SVGID_2_)" fill="#12E3FF" d="M40.434,114.888c0,1.016,0.825,1.84,1.842,1.84h73.648
		c1.018,0,1.842-0.824,1.842-1.84V63.333H40.434V114.888z M58.846,81.745c0-1.018,0.824-1.842,1.84-1.842h0.002h9.205v-1.842
		c0-5.084,4.123-9.205,9.207-9.205s9.207,4.121,9.207,9.205v1.842h9.205c1.017,0,1.84,0.822,1.842,1.84v0.002v27.617
		c0,1.018-0.823,1.842-1.84,1.844h-0.002H60.688c-1.016,0-1.842-0.824-1.842-1.842v-0.002V81.745z"/>
	<path clip-path="url(#SVGID_2_)" fill="#12E3FF" d="M84.624,78.062c0-3.051-2.473-5.521-5.523-5.521s-5.523,2.471-5.523,5.521
		v1.842h11.047V78.062z"/>
	<path clip-path="url(#SVGID_2_)" fill="#12E3FF" d="M95.671,83.585H62.53v23.938h33.142V83.585z M80.942,97.976v4.023
		c0,1.016-0.824,1.84-1.842,1.84c-1.017,0-1.842-0.824-1.842-1.84v-4.023c-2.876-1.016-4.382-4.172-3.365-7.049
		c1.016-2.875,4.174-4.383,7.049-3.365s4.383,4.174,3.367,7.049C83.752,96.183,82.514,97.421,80.942,97.976"/>
	<path clip-path="url(#SVGID_2_)" fill="#12E3FF" d="M40.434,43.079v16.57h77.333v-16.57c0-1.018-0.824-1.842-1.842-1.842H42.276
		C41.259,41.237,40.434,42.062,40.434,43.079 M112.243,52.284H99.354c-1.018,0-1.842-0.823-1.842-1.84
		c0-1.018,0.824-1.842,1.842-1.842h12.889c1.018,0,1.841,0.824,1.841,1.842C114.083,51.461,113.26,52.284,112.243,52.284"/>
	<path clip-path="url(#SVGID_2_)" fill="#12E3FF" d="M79.1,90.95c1.018,0,1.841,0.824,1.841,1.842s-0.823,1.842-1.841,1.842
		s-1.841-0.824-1.841-1.842S78.083,90.95,79.1,90.95"/>
</g>
<g>
	<defs>
		<path id="SVGID_3_" d="M35.413,64.999L32.951,45.47c9.714-4.51,14.32-6.632,14.502-6.744c1.613-1.076,3.713-1.076,5.325,0
			c0.199,0.123,4.57,2.022,15.361,6.76l-2.994,20.029c-1.326,8.864-7.563,15.301-14.83,15.301
			C42.957,80.815,36.549,74.015,35.413,64.999 M43.995,19.444c0.057-0.082,0.106-0.168,0.149-0.258
			c4.542-9.654,16.05-13.799,25.705-9.256c9.652,4.541,13.797,16.047,9.256,25.703c-0.748,1.59-1.711,3.07-2.858,4.401
			c-0.664,0.771-0.577,1.935,0.192,2.599c0.334,0.286,0.761,0.444,1.201,0.445h6.063c4.577,0,8.286,3.709,8.286,8.285
			s-3.709,8.285-8.286,8.285H69.746l2.244-15.012c0.122-0.822-0.322-1.623-1.083-1.957L54.628,35.54
			c-2.762-1.748-6.286-1.744-9.044,0.012L30.18,42.696c-0.726,0.336-1.152,1.105-1.052,1.9l1.898,15.053H15.579
			c-4.577,0-8.287-3.709-8.287-8.285s3.71-8.285,8.287-8.285h3.714c1.018-0.002,1.842-0.83,1.839-1.848
			c0-0.362-0.108-0.717-0.309-1.019c-4.521-6.76-2.707-15.903,4.052-20.426c5.023-3.36,11.587-3.31,16.558,0.125
			c0.32,0.222,0.685,0.327,1.046,0.327C43.063,20.239,43.638,19.962,43.995,19.444 M41.994,15.431
			c-0.077,0.125-0.152,0.25-0.225,0.377c-8.963-4.806-20.123-1.434-24.927,7.528c-2.665,4.972-2.904,10.892-0.649,16.06h-0.614
			c-6.611,0-11.969,5.359-11.969,11.969s5.358,11.969,11.969,11.969h15.912l0.268,2.126c1.393,11.032,9.197,19.039,18.557,19.039
			c9.106,0,16.876-7.755,18.472-18.442l0.408-2.723h14.507c6.61,0,11.969-5.359,11.969-11.969s-5.358-11.969-11.969-11.969h-2.45
			c6.617-10.84,3.193-24.994-7.648-31.611c-3.739-2.283-7.875-3.371-11.959-3.371C53.893,4.413,46.328,8.331,41.994,15.431"/>
	</defs>
	<clipPath id="SVGID_4_">
		<use xlink:href="#SVGID_3_"  overflow="visible"/>
	</clipPath>
	
		<linearGradient id="SVGID_5_" gradientUnits="userSpaceOnUse" x1="-596.8936" y1="1254.6533" x2="-595.8936" y2="1254.6533" gradientTransform="matrix(78.6384 78.6384 78.6384 -78.6384 -51711.5898 145611.1094)">
		<stop  offset="0" style="stop-color:#3B42ED"/>
		<stop  offset="1" style="stop-color:#0000AF"/>
	</linearGradient>
	<polygon clip-path="url(#SVGID_4_)" fill="url(#SVGID_5_)" points="49.641,-41.618 135.713,44.456 49.641,130.528 -36.433,44.456 	
		"/>
</g>
<g>
	<defs>
		<path id="SVGID_6_" d="M54.299,13.612c-0.898,0.477-1.238,1.593-0.761,2.49s1.593,1.238,2.489,0.76
			c5.818-3.1,13.047-0.897,16.146,4.918c0.927,1.74,1.409,3.679,1.403,5.648c0,1.016,0.824,1.842,1.842,1.842
			c1.016,0,1.84-0.826,1.84-1.842c0.02-8.625-6.957-15.632-15.582-15.65c-0.011,0-0.021,0-0.033,0
			C59.083,11.778,56.559,12.407,54.299,13.612"/>
	</defs>
	<clipPath id="SVGID_7_">
		<use xlink:href="#SVGID_6_"  overflow="visible"/>
	</clipPath>
	
		<linearGradient id="SVGID_8_" gradientUnits="userSpaceOnUse" x1="-596.8936" y1="1254.6494" x2="-595.8936" y2="1254.6494" gradientTransform="matrix(78.6384 78.6384 78.6384 -78.6384 -51691.7148 145591.1875)">
		<stop  offset="0" style="stop-color:#3B42ED"/>
		<stop  offset="1" style="stop-color:#0000AF"/>
	</linearGradient>
	<polygon clip-path="url(#SVGID_7_)" fill="url(#SVGID_8_)" points="65.169,-0.33 86.024,20.524 65.169,41.378 44.315,20.524 	"/>
</g>
<g>
	<defs>
		<path id="SVGID_9_" d="M44.118,55.968h12.888v7.365H44.118V55.968z M47.798,51.364c0-1.525,1.237-2.762,2.763-2.762
			c1.525,0,2.762,1.236,2.762,2.762v0.921h-5.525V51.364z M44.118,51.364v0.921h-1.842c-1.016-0.001-1.84,0.823-1.841,1.839v0.002
			v11.047c-0.001,1.018,0.822,1.842,1.839,1.842h0.002h16.571c1.016,0.002,1.842-0.822,1.842-1.838v-0.004V54.126
			c0-1.016-0.822-1.84-1.84-1.841h-0.002h-1.841v-0.921c0-3.559-2.886-6.444-6.444-6.444C47.001,44.92,44.118,47.806,44.118,51.364"
			/>
	</defs>
	<clipPath id="SVGID_10_">
		<use xlink:href="#SVGID_9_"  overflow="visible"/>
	</clipPath>
	
		<linearGradient id="SVGID_11_" gradientUnits="userSpaceOnUse" x1="-596.894" y1="1254.6855" x2="-595.8922" y2="1254.6855" gradientTransform="matrix(78.6384 78.6384 78.6384 -78.6384 -51719.4648 145618.9063)">
		<stop  offset="0" style="stop-color:#3B42ED"/>
		<stop  offset="1" style="stop-color:#0000AF"/>
	</linearGradient>
	<polygon clip-path="url(#SVGID_10_)" fill="url(#SVGID_11_)" points="50.561,34.792 71.737,55.968 50.561,77.144 29.385,55.968 	
		"/>
</g>
<g>
	<defs>
		<rect id="SVGID_12_" x="-1197.585" y="-797.662" width="1312.33" height="2728.446"/>
	</defs>
	<clipPath id="SVGID_13_">
		<use xlink:href="#SVGID_12_"  overflow="visible"/>
	</clipPath>
	<path clip-path="url(#SVGID_13_)" fill="#001137" d="M-1032.956-769.634l-2.692,2.842c-0.798-0.598-1.545-1.047-2.244-1.297
		c-0.697-0.249-1.445-0.399-2.342-0.399c-1.645,0-2.992,0.649-3.989,1.945c-0.997,1.296-1.495,3.29-1.495,5.932
		c0,2.892,0.399,4.935,1.146,6.132c0.748,1.197,1.945,1.795,3.54,1.795c1.147,0,2.143-0.249,3.041-0.748v-5.135h-2.942l-0.498-3.789
		h8.624v11.118c-1.146,0.748-2.442,1.346-3.838,1.745s-2.792,0.598-4.237,0.598c-3.44,0-5.983-0.997-7.728-2.991
		c-1.744-1.995-2.592-4.937-2.592-8.824c0-2.443,0.449-4.587,1.396-6.382c0.947-1.794,2.244-3.14,3.839-4.038
		c1.645-0.897,3.489-1.395,5.483-1.395C-1037.542-772.426-1035.05-771.479-1032.956-769.634"/>
	<path clip-path="url(#SVGID_13_)" fill="#001137" d="M-1015.408-752.934c0.2,0.299,0.499,0.548,0.898,0.698l-1.047,3.34
		c-1.047-0.1-1.945-0.299-2.593-0.698c-0.647-0.399-1.196-0.997-1.545-1.795c-1.146,1.745-2.842,2.592-5.184,2.592
		c-1.695,0-3.091-0.498-4.088-1.495s-1.546-2.294-1.546-3.889c0-1.895,0.698-3.34,2.094-4.337c1.396-0.997,3.39-1.495,5.982-1.495
		h1.745v-0.748c0-0.997-0.199-1.695-0.648-2.094c-0.449-0.399-1.197-0.548-2.293-0.548c-0.549,0-1.246,0.101-2.044,0.249
		c-0.798,0.149-1.645,0.399-2.443,0.648l-1.147-3.39c1.097-0.399,2.194-0.748,3.341-0.947c1.146-0.2,2.193-0.349,3.14-0.349
		c2.443,0,4.287,0.498,5.434,1.545c1.147,0.997,1.745,2.543,1.745,4.587v6.68C-1015.657-753.731-1015.557-753.233-1015.408-752.934
		 M-1020.692-754.13v-3.041h-1.246c-1.147,0-2.044,0.2-2.593,0.599c-0.598,0.398-0.847,1.046-0.847,1.895
		c0,0.698,0.199,1.246,0.548,1.595c0.349,0.399,0.848,0.549,1.496,0.549C-1022.237-752.484-1021.34-753.034-1020.692-754.13"/>
	<path clip-path="url(#SVGID_13_)" fill="#001137" d="M-1000.751-750.192c-0.648,0.449-1.346,0.748-2.193,0.997
		c-0.848,0.25-1.646,0.349-2.493,0.349c-3.789,0-5.633-2.094-5.633-6.23v-7.978h-2.443v-3.539h2.443v-3.739l5.134-0.598v4.337h3.938
		l-0.548,3.589h-3.39v7.877c0,0.797,0.15,1.395,0.399,1.745c0.249,0.35,0.648,0.498,1.246,0.498c0.599,0,1.197-0.199,1.845-0.548
		L-1000.751-750.192z"/>
	<path clip-path="url(#SVGID_13_)" fill="#001137" d="M-985.995-764.749c1.496,1.595,2.243,3.888,2.243,6.78
		c0,1.845-0.349,3.44-1.047,4.835c-0.698,1.396-1.645,2.443-2.941,3.191c-1.296,0.748-2.742,1.147-4.487,1.147
		c-2.642,0-4.686-0.798-6.182-2.394c-1.495-1.596-2.243-3.889-2.243-6.78c0-1.845,0.349-3.44,1.047-4.836
		c0.698-1.396,1.645-2.442,2.941-3.19c1.247-0.748,2.742-1.147,4.487-1.147C-989.535-767.142-987.441-766.344-985.995-764.749
		 M-994.52-762.057c-0.499,0.897-0.797,2.243-0.797,4.088c0,1.894,0.249,3.24,0.747,4.138c0.499,0.847,1.296,1.296,2.343,1.296
		s1.795-0.449,2.343-1.296c0.499-0.898,0.798-2.244,0.798-4.088c0-1.896-0.249-3.241-0.748-4.139
		c-0.499-0.848-1.296-1.296-2.343-1.296C-993.224-763.403-993.972-762.954-994.52-762.057"/>
	<path clip-path="url(#SVGID_13_)" fill="#001137" d="M-969.594-766.842l-0.798,4.985c-0.648-0.15-1.146-0.249-1.545-0.249
		c-0.997,0-1.795,0.349-2.343,1.047c-0.548,0.697-0.947,1.744-1.247,3.14v8.525h-5.134v-17.199h4.486l0.399,3.34
		c0.399-1.196,0.997-2.144,1.745-2.792s1.695-1.047,2.692-1.047C-970.69-767.092-970.142-766.993-969.594-766.842"/>
	<path clip-path="url(#SVGID_13_)" fill="#001137" d="M-958.527-766.593c1.097,0.349,2.044,0.897,2.842,1.545l-1.895,2.892
		c-1.396-0.896-2.841-1.346-4.237-1.346c-0.648,0-1.196,0.099-1.545,0.349c-0.35,0.249-0.549,0.548-0.549,0.947
		c0,0.349,0.1,0.598,0.249,0.798c0.15,0.199,0.499,0.398,0.997,0.648c0.499,0.199,1.247,0.499,2.294,0.797
		c1.794,0.499,3.14,1.197,3.988,2.044c0.897,0.848,1.296,1.994,1.296,3.44c0,1.147-0.349,2.194-0.997,3.041
		c-0.648,0.847-1.595,1.496-2.742,1.945c-1.146,0.448-2.443,0.697-3.888,0.697c-1.446,0-2.792-0.249-4.039-0.697
		c-1.246-0.449-2.293-1.098-3.14-1.895l2.492-2.792c1.446,1.146,2.992,1.695,4.587,1.695c0.798,0,1.396-0.15,1.845-0.399
		c0.448-0.299,0.648-0.697,0.648-1.196c0-0.399-0.1-0.748-0.25-0.997c-0.149-0.249-0.498-0.449-0.997-0.647
		c-0.499-0.2-1.296-0.449-2.393-0.748c-1.695-0.498-2.991-1.196-3.838-2.094c-0.848-0.897-1.247-1.994-1.247-3.29
		c0-0.997,0.299-1.894,0.848-2.692c0.548-0.797,1.396-1.396,2.442-1.895c1.047-0.448,2.294-0.697,3.74-0.697
		C-960.77-767.141-959.574-766.993-958.527-766.593"/>
	<polygon clip-path="url(#SVGID_13_)" fill="#0065F8" points="-927.22,-771.877 -931.009,-749.395 -937.938,-749.395 
		-940.729,-766.543 -943.671,-749.395 -950.401,-749.395 -954.09,-771.877 -948.756,-771.877 -946.512,-753.433 -943.422,-771.877 
		-937.838,-771.877 -934.896,-753.433 -932.255,-771.877 	"/>
	<path clip-path="url(#SVGID_13_)" fill="#0065F8" d="M-910.269-756.473h-10.669c0.15,1.445,0.598,2.442,1.246,3.041
		s1.546,0.897,2.692,0.897c0.698,0,1.346-0.1,1.994-0.349c0.649-0.25,1.346-0.648,2.094-1.147l2.094,2.842
		c-1.994,1.595-4.238,2.393-6.73,2.393c-2.792,0-4.935-0.798-6.431-2.443s-2.244-3.838-2.244-6.63c0-1.745,0.3-3.34,0.948-4.736
		c0.648-1.396,1.545-2.493,2.742-3.29c1.196-0.798,2.642-1.197,4.337-1.197c2.492,0,4.437,0.798,5.833,2.343
		c1.395,1.546,2.094,3.739,2.094,6.48C-910.17-757.62-910.22-756.972-910.269-756.473 M-915.205-759.764
		c-0.05-2.642-0.997-3.938-2.792-3.938c-0.897,0-1.595,0.349-2.044,0.997c-0.498,0.647-0.797,1.745-0.897,3.19h5.733V-759.764z"/>
	<path clip-path="url(#SVGID_13_)" fill="#0065F8" d="M-892.772-764.749c1.097,1.595,1.645,3.888,1.645,6.779
		c0,1.794-0.299,3.34-0.847,4.736c-0.549,1.396-1.346,2.443-2.393,3.241c-1.047,0.797-2.243,1.146-3.639,1.146
		c-0.947,0-1.795-0.2-2.543-0.598c-0.747-0.399-1.445-0.947-1.944-1.646l-0.249,1.646h-4.537v-24.029l5.135-0.548v9.173
		c0.498-0.699,1.197-1.297,1.994-1.696c0.798-0.399,1.695-0.598,2.642-0.598C-895.464-767.142-893.919-766.344-892.772-764.749
		 M-896.461-757.969c0-2.044-0.249-3.49-0.698-4.236c-0.498-0.798-1.146-1.147-2.094-1.147c-1.146,0-2.143,0.648-2.941,1.994v7.179
		c0.349,0.498,0.698,0.947,1.197,1.196c0.448,0.299,0.947,0.449,1.495,0.449C-897.458-752.535-896.461-754.33-896.461-757.969"/>
	<path clip-path="url(#SVGID_13_)" fill="#0065F8" d="M-1082.808-753.832c-0.1-0.05-0.15-0.05-0.25-0.1
		c-1.894-0.797-3.439-1.944-4.536-3.39c-1.147-1.495-1.695-3.24-1.695-5.334c0-2.093,0.548-3.839,1.645-5.334
		c1.097-1.446,2.592-2.592,4.487-3.39c1.894-0.798,4.038-1.197,6.481-1.197c2.193,0,4.287,0.449,6.281,1.297
		c1.994,0.847,3.589,1.994,4.786,3.44l5.284-5.883c-1.844-1.994-4.287-3.589-7.328-4.786c-2.991-1.196-5.883-1.795-8.574-1.795
		c-4.139,0-7.828,0.748-10.968,2.294c-3.191,1.545-5.683,3.639-7.478,6.331c-1.097,1.645-1.894,3.44-2.293,5.334
		C-1095.171-762.954-1090.834-756.423-1082.808-753.832"/>
	<path clip-path="url(#SVGID_13_)" fill="#0065F8" d="M-1065.609-764.201h-10.369v7.18h9.023c-0.498,0.747-1.147,1.445-2.044,2.044
		c-3.29,2.642-10.568,6.381-22.932,1.894c-1.096-0.349-2.143-0.748-3.19-1.296c0.149,0.299,0.348,0.548,0.498,0.847
		c1.795,2.643,4.287,4.736,7.428,6.282c1.097,0.498,2.193,0.947,3.39,1.296c0.997,0.249,3.49,0.847,6.531,0.997h0.947h0.199
		c0.449,0,0.848,0,1.296-0.05h0.349c0.249,0,0.449-0.05,0.648-0.05c2.842-0.299,5.833-1.146,8.226-3.141v4.786h1.994h5.135v-20.788
		H-1065.609z"/>
	<rect x="-1197.585" y="-726.552" clip-path="url(#SVGID_13_)" fill="#01102B" width="1312.33" height="52.771"/>
</g>
<g>
	<defs>
		<rect id="SVGID_14_" x="-1197.585" y="-797.662" width="1312.33" height="2728.446"/>
	</defs>
	<clipPath id="SVGID_15_">
		<use xlink:href="#SVGID_14_"  overflow="visible"/>
	</clipPath>
	<path clip-path="url(#SVGID_15_)" fill="none" stroke="#FFFFFF" stroke-miterlimit="10" d="M-71.403-684.401h-69.639
		c-0.455,0-0.827-0.373-0.827-0.828v-27.902c0-0.456,0.372-0.828,0.827-0.828h69.639c0.455,0,0.827,0.372,0.827,0.828v27.902
		C-70.576-684.774-70.948-684.401-71.403-684.401z"/>
	<path clip-path="url(#SVGID_15_)" fill="#0065F8" d="M10.876-684.401h-69.64c-0.455,0-0.827-0.373-0.827-0.828v-27.902
		c0-0.456,0.372-0.828,0.827-0.828h69.64c0.455,0,0.826,0.372,0.826,0.828v27.902C11.702-684.774,11.331-684.401,10.876-684.401"/>
</g>
<g>
	<defs>
		<rect id="SVGID_16_" x="-1197.585" y="-797.662" width="1312.33" height="2728.446"/>
	</defs>
	<clipPath id="SVGID_17_">
		<use xlink:href="#SVGID_16_"  overflow="visible"/>
	</clipPath>
	<path clip-path="url(#SVGID_17_)" fill="#FFFFFF" d="M-173.494-700.309l-6.971-6.985c0,0-0.274-0.13-0.495,0.033
		c-0.22,0.163-0.833,0.816-0.833,0.816s-0.253,0.225,0,0.512c0.255,0.287,3.212,3.257,3.212,3.257h-4.809l-0.332,0.331v2.2
		l3.786,7.588c0,0,0.118,0.203,0.258,0.203h8.708c0,0,0.158,0.005,0.327-0.304c0.169-0.31,3.774-7.515,3.774-7.515v-2.121
		l-0.326-0.354h-5.906l-0.355,0.326L-173.494-700.309z"/>
</g>
<rect x="-1197.585" y="-797.662" fill="none" width="1312.33" height="2728.446"/>
<rect x="-1197.585" y="-797.662" fill="none" width="1312.33" height="2728.446"/>
<g>
	<defs>
		<rect id="SVGID_18_" x="-1197.585" y="-797.662" width="1312.33" height="2728.446"/>
	</defs>
	<clipPath id="SVGID_19_">
		<use xlink:href="#SVGID_18_"  overflow="visible"/>
	</clipPath>
	<polygon clip-path="url(#SVGID_19_)" fill="none" stroke="#DE3723" stroke-width="0.55" stroke-miterlimit="10" points="
		-780.931,-445.799 -780.931,-445.799 -706.781,-445.799 	"/>
</g>
<g>
	<defs>
		<rect id="SVGID_20_" x="-1197.585" y="-797.662" width="1312.33" height="2728.446"/>
	</defs>
	<clipPath id="SVGID_21_">
		<use xlink:href="#SVGID_20_"  overflow="visible"/>
	</clipPath>
	<path clip-path="url(#SVGID_21_)" fill="#FFFFFF" d="M-745.992,1005.489h-274c-7.778,0-14.143-6.363-14.143-14.143V625.142
		c0-7.779,6.365-14.145,14.143-14.145h274c7.779,0,14.143,6.365,14.143,14.145v366.205
		C-731.849,999.126-738.213,1005.489-745.992,1005.489"/>
</g>
<g>
	<defs>
		<rect id="SVGID_22_" x="-1197.585" y="-797.662" width="1312.33" height="2728.446"/>
	</defs>
	<clipPath id="SVGID_23_">
		<use xlink:href="#SVGID_22_"  overflow="visible"/>
	</clipPath>
	<path clip-path="url(#SVGID_23_)" fill="#FFAF10" d="M-882.992,644.198c44.545,0,80.656,36.111,80.656,80.656
		s-36.111,80.656-80.656,80.656c-44.544,0-80.655-36.111-80.655-80.656S-927.536,644.198-882.992,644.198"/>
	<path clip-path="url(#SVGID_23_)" fill="#EEF6FF" d="M-850.53,753.085c0-0.727,0.591-1.316,1.317-1.316h37.872v-70.627h-106.697
		v3.299c0,0.469-0.382,0.852-0.85,0.852h-35.755v76.623c5.907,11.398,14.453,21.207,24.831,28.619h79.282V753.085z"/>
	<path clip-path="url(#SVGID_23_)" fill="#D9EAFC" d="M-954.643,685.292v76.623c1.91,3.686,4.099,7.199,6.533,10.525v-87.148
		H-954.643z"/>
	<path clip-path="url(#SVGID_23_)" fill="#293D7C" d="M-814.801,663.296h-103.236v18.174h106.697v-14.713
		C-811.34,664.854-812.897,663.296-814.801,663.296"/>
	<path clip-path="url(#SVGID_23_)" fill="#AEC1ED" d="M-819.647,674.292h-8.307c-1.364,0-2.469-1.104-2.469-2.469
		s1.105-2.469,2.469-2.469h8.307c1.364,0,2.469,1.104,2.469,2.469S-818.283,674.292-819.647,674.292"/>
	<path clip-path="url(#SVGID_23_)" fill="#FFFFFF" d="M-823.402,707.835c0,0.854-0.696,1.549-1.547,1.549h-116.084
		c-0.85,0-1.547-0.695-1.547-1.549v-15.479c0-0.85,0.697-1.545,1.547-1.545h116.083c0.852,0,1.548,0.695,1.548,1.545V707.835z"/>
	<path clip-path="url(#SVGID_23_)" fill="#EEF6FF" d="M-936.048,707.835v-15.479c0-0.85,0.697-1.545,1.548-1.545h-6.533
		c-0.85,0-1.547,0.695-1.547,1.545v15.479c0,0.854,0.697,1.549,1.547,1.549h6.533C-935.351,709.384-936.048,708.688-936.048,707.835
		"/>
	<path clip-path="url(#SVGID_23_)" fill="#FF9518" d="M-824.95,690.81h-21.098v18.574h21.098c0.851,0,1.547-0.697,1.547-1.549
		v-15.479C-823.403,691.507-824.099,690.81-824.95,690.81"/>
	<path clip-path="url(#SVGID_23_)" fill="#52BBEF" d="M-798.715,803.864c0,0.904-0.741,1.646-1.646,1.646h-48.852
		c-0.905,0-1.646-0.742-1.646-1.646v-50.777c0-0.906,0.741-1.648,1.646-1.648h48.852c0.905,0,1.646,0.742,1.646,1.648V803.864z"/>
	<path clip-path="url(#SVGID_23_)" fill="#1E99D6" d="M-844.327,803.864v-50.777c0-0.906,0.741-1.648,1.646-1.648h-6.532
		c-0.906,0-1.646,0.742-1.646,1.648v50.777c0,0.904,0.74,1.646,1.646,1.646h6.532C-843.585,805.511-844.327,804.769-844.327,803.864
		"/>
	<path clip-path="url(#SVGID_23_)" fill="#1E99D6" d="M-811.475,767.231H-838.1c-1.363,0-2.468-1.104-2.468-2.469
		c0-1.363,1.105-2.467,2.468-2.467h26.625c1.364,0,2.469,1.104,2.469,2.467C-809.005,766.128-810.11,767.231-811.475,767.231"/>
	<path clip-path="url(#SVGID_23_)" fill="#1E99D6" d="M-811.475,775.89H-838.1c-1.363,0-2.468-1.104-2.468-2.469
		s1.105-2.469,2.468-2.469h26.625c1.364,0,2.469,1.104,2.469,2.469S-810.11,775.89-811.475,775.89"/>
	<path clip-path="url(#SVGID_23_)" fill="#1E99D6" d="M-811.475,784.548H-838.1c-1.363,0-2.468-1.105-2.468-2.469
		c0-1.365,1.105-2.469,2.468-2.469h26.625c1.364,0,2.469,1.104,2.469,2.469C-809.005,783.442-810.11,784.548-811.475,784.548"/>
	<path clip-path="url(#SVGID_23_)" fill="#1E99D6" d="M-824.733,793.204H-838.1c-1.363,0-2.468-1.104-2.468-2.469
		c0-1.363,1.105-2.469,2.468-2.469h13.366c1.364,0,2.469,1.105,2.469,2.469C-822.264,792.101-823.369,793.204-824.733,793.204"/>
	<path clip-path="url(#SVGID_23_)" fill="#52BBEF" d="M-918.439,732.462c0,0.904-0.741,1.646-1.646,1.646h-14.233
		c-0.906,0-1.646-0.742-1.646-1.646v-14.232c0-0.906,0.74-1.646,1.646-1.646h14.233c0.905,0,1.646,0.74,1.646,1.646V732.462z"/>
	<path clip-path="url(#SVGID_23_)" fill="#52BBEF" d="M-860.123,723.868h-50.536c-1.364,0-2.469-1.105-2.469-2.471
		c0-1.363,1.105-2.467,2.469-2.467h50.536c1.364,0,2.469,1.104,2.469,2.467C-857.654,722.763-858.759,723.868-860.123,723.868"/>
	<path clip-path="url(#SVGID_23_)" fill="#52BBEF" d="M-876.257,731.761h-34.402c-1.364,0-2.47-1.104-2.47-2.469
		c0-1.363,1.106-2.467,2.47-2.467h34.402c1.364,0,2.469,1.104,2.469,2.467C-873.788,730.657-874.893,731.761-876.257,731.761"/>
	<path clip-path="url(#SVGID_23_)" fill="#02AF8E" d="M-918.439,754.685c0,0.904-0.741,1.646-1.646,1.646h-14.233
		c-0.906,0-1.646-0.742-1.646-1.646v-14.232c0-0.906,0.74-1.648,1.646-1.648h14.233c0.905,0,1.646,0.742,1.646,1.648V754.685z"/>
	<path clip-path="url(#SVGID_23_)" fill="#02AF8E" d="M-860.123,746.089h-50.536c-1.364,0-2.469-1.104-2.469-2.469
		c0-1.363,1.105-2.469,2.469-2.469h50.536c1.364,0,2.469,1.105,2.469,2.469C-857.654,744.985-858.759,746.089-860.123,746.089"/>
	<path clip-path="url(#SVGID_23_)" fill="#02AF8E" d="M-876.257,753.983h-34.402c-1.364,0-2.47-1.104-2.47-2.469
		c0-1.363,1.106-2.469,2.47-2.469h34.402c1.364,0,2.469,1.105,2.469,2.469C-873.788,752.88-874.893,753.983-876.257,753.983"/>
	<path clip-path="url(#SVGID_23_)" fill="#FF9518" d="M-918.439,776.905c0,0.906-0.741,1.646-1.646,1.646h-14.233
		c-0.906,0-1.646-0.74-1.646-1.646v-14.232c0-0.906,0.74-1.646,1.646-1.646h14.233c0.905,0,1.646,0.74,1.646,1.646V776.905z"/>
	<path clip-path="url(#SVGID_23_)" fill="#1E99D6" d="M-929.432,732.462v-14.232c0-0.906,0.741-1.646,1.646-1.646h-6.533
		c-0.905,0-1.646,0.74-1.646,1.646v14.232c0,0.904,0.741,1.646,1.646,1.646h6.533C-928.691,734.108-929.432,733.366-929.432,732.462
		"/>
	<path clip-path="url(#SVGID_23_)" fill="#0F9390" d="M-929.432,754.685v-14.232c0-0.906,0.741-1.648,1.646-1.648h-6.533
		c-0.905,0-1.646,0.742-1.646,1.648v14.232c0,0.904,0.741,1.646,1.646,1.646h6.533
		C-928.691,756.331-929.432,755.589-929.432,754.685"/>
	<path clip-path="url(#SVGID_23_)" fill="#EF8318" d="M-929.432,776.905v-14.232c0-0.906,0.741-1.646,1.646-1.646h-6.533
		c-0.905,0-1.646,0.74-1.646,1.646v14.232c0,0.906,0.741,1.646,1.646,1.646h6.533C-928.691,778.552-929.432,777.812-929.432,776.905
		"/>
	<path clip-path="url(#SVGID_23_)" fill="#FF9518" d="M-860.123,768.312h-50.536c-1.364,0-2.469-1.104-2.469-2.469
		s1.105-2.469,2.469-2.469h50.536c1.364,0,2.469,1.104,2.469,2.469C-857.654,767.206-858.759,768.312-860.123,768.312"/>
	<path clip-path="url(#SVGID_23_)" fill="#FF9518" d="M-876.257,776.206h-34.402c-1.364,0-2.47-1.104-2.47-2.469
		c0-1.363,1.106-2.469,2.47-2.469h34.402c1.364,0,2.469,1.105,2.469,2.469C-873.788,775.103-874.893,776.206-876.257,776.206"/>
	<path clip-path="url(#SVGID_23_)" fill="#91E0E8" d="M-839.171,718.534c4.722,0,8.549,3.826,8.549,8.549s-3.827,8.551-8.549,8.551
		s-8.549-3.828-8.549-8.551S-843.893,718.534-839.171,718.534"/>
	<path clip-path="url(#SVGID_23_)" fill="#5DC1D8" d="M-838.685,733.128c-3.338-3.34-3.338-8.752,0-12.092
		c0.821-0.82,1.769-1.438,2.779-1.857c-3.097-1.277-6.794-0.658-9.312,1.857c-3.338,3.34-3.338,8.752,0,12.092
		c2.518,2.518,6.215,3.135,9.312,1.855C-836.916,734.567-837.863,733.948-838.685,733.128"/>
	<path clip-path="url(#SVGID_23_)" fill="#1A2B63" d="M-823.357,739.405l-6.477-6.479c2.662-4.252,2.149-9.939-1.546-13.637
		c-2.081-2.08-4.848-3.227-7.791-3.227c-2.944,0-5.711,1.146-7.792,3.227c-4.296,4.297-4.296,11.287,0,15.582
		c2.081,2.082,4.848,3.229,7.792,3.229c2.101,0,4.111-0.588,5.847-1.68l6.476,6.477c0.482,0.48,1.113,0.723,1.746,0.723
		c0.631,0,1.263-0.242,1.745-0.723C-822.392,741.933-822.392,740.37-823.357,739.405 M-843.471,731.382
		c-2.371-2.371-2.371-6.229,0-8.6c1.148-1.148,2.676-1.781,4.3-1.781c1.624,0,3.151,0.633,4.299,1.781
		c2.371,2.371,2.371,6.229,0,8.6c-1.148,1.148-2.675,1.779-4.299,1.779C-840.796,733.161-842.323,732.53-843.471,731.382"/>
	<path clip-path="url(#SVGID_23_)" fill="#91E0E8" d="M-967.268,684.44c0,0.648,0.531,1.182,1.18,1.182h47.2
		c0.648,0,1.18-0.533,1.18-1.182v-31.623c0-0.648-0.532-1.18-1.18-1.18h-47.2c-0.649,0-1.18,0.531-1.18,1.18V684.44z"/>
	<path clip-path="url(#SVGID_23_)" fill="#5DC1D8" d="M-960.736,684.44v-31.623c0-0.648,0.531-1.18,1.18-1.18h-6.533
		c-0.648,0-1.179,0.531-1.179,1.18v31.623c0,0.65,0.531,1.182,1.179,1.182h6.533C-960.205,685.622-960.736,685.089-960.736,684.44"
		/>
	<rect x="-956.506" y="673.659" clip-path="url(#SVGID_23_)" fill="#293D7C" width="2.355" height="2.354"/>
	<path clip-path="url(#SVGID_23_)" fill="#293D7C" d="M-946.214,662.021c0.609,0.623,0.915,1.49,0.915,2.598v1.324l-2.145,0.104
		v-1.197c0-1.135-0.42-1.703-1.262-1.703c-0.406,0-0.718,0.127-0.935,0.379c-0.218,0.252-0.326,0.623-0.326,1.113v8.031
		c0,0.492,0.108,0.863,0.326,1.115c0.217,0.254,0.529,0.379,0.935,0.379c0.842,0,1.262-0.568,1.262-1.703v-1.641l2.145,0.105v1.766
		c0,1.107-0.306,1.975-0.915,2.598c-0.61,0.623-1.461,0.936-2.555,0.936c-1.079,0-1.92-0.309-2.523-0.926s-0.903-1.486-0.903-2.607
		v-8.072c0-1.121,0.3-1.99,0.903-2.607s1.444-0.926,2.523-0.926C-947.675,661.085-946.824,661.397-946.214,662.021"/>
	<path clip-path="url(#SVGID_23_)" fill="#293D7C" d="M-937.362,662.083c0.637,0.666,0.956,1.574,0.956,2.723v7.695
		c0,1.15-0.319,2.059-0.956,2.723c-0.638,0.666-1.518,1-2.639,1c-1.122,0-2.001-0.334-2.639-1c-0.638-0.664-0.956-1.572-0.956-2.723
		v-7.695c0-1.148,0.318-2.057,0.956-2.723c0.638-0.664,1.517-0.998,2.639-0.998C-938.88,661.085-938,661.419-937.362,662.083
		 M-941.021,663.577c-0.231,0.287-0.347,0.703-0.347,1.25v7.652c0,0.547,0.116,0.965,0.347,1.252s0.571,0.432,1.02,0.432
		c0.448,0,0.789-0.145,1.02-0.432s0.347-0.705,0.347-1.252v-7.652c0-0.547-0.116-0.963-0.347-1.25s-0.572-0.432-1.02-0.432
		C-940.451,663.146-940.791,663.29-941.021,663.577"/>
	<polygon clip-path="url(#SVGID_23_)" fill="#293D7C" points="-924.801,676.013 -927.03,676.013 -927.03,665.794 -927.072,665.794 
		-928.922,673.911 -930.246,673.911 -932.096,665.794 -932.138,665.794 -932.138,676.013 -934.241,676.013 -934.241,661.296 
		-931.319,661.296 -929.573,669.2 -929.531,669.2 -927.807,661.296 -924.801,661.296 	"/>
	<path clip-path="url(#SVGID_23_)" fill="#FFFFFF" d="M-404.42,1005.489h-274c-7.779,0-14.143-6.363-14.143-14.143V625.142
		c0-7.779,6.364-14.145,14.143-14.145h274c7.777,0,14.143,6.365,14.143,14.145v366.205
		C-390.277,999.126-396.643,1005.489-404.42,1005.489"/>
</g>
<g>
	<defs>
		<rect id="SVGID_24_" x="-1197.585" y="-797.662" width="1312.33" height="2728.446"/>
	</defs>
	<clipPath id="SVGID_25_">
		<use xlink:href="#SVGID_24_"  overflow="visible"/>
	</clipPath>
	<path clip-path="url(#SVGID_25_)" fill="#F24976" d="M-537.751,642.063c45.135,0,81.723,36.59,81.723,81.725
		c0,45.133-36.588,81.721-81.723,81.721c-45.134,0-81.724-36.588-81.724-81.721C-619.475,678.653-582.885,642.063-537.751,642.063"
		/>
	<path clip-path="url(#SVGID_25_)" fill="#D9EAFC" d="M-579.305,700.175c-0.032,0.102-0.013,0.211,0.049,0.297
		c0.063,0.086,0.163,0.137,0.269,0.137h0.707c0.736,0,1.334,0.598,1.334,1.336v14.471c0,0.736-0.598,1.334-1.334,1.334h-5.008
		c-0.184,0-0.333,0.15-0.333,0.334v2.115c0,1.656-1.347,3.002-3.002,3.002h-7.236c-1.655,0-3.002-1.346-3.002-3.002v-2.115
		c0-0.184-0.15-0.334-0.334-0.334h-3.766v57.838c14.988,18.268,37.737,29.922,63.21,29.922c25.473,0,48.222-11.654,63.21-29.924
		v-82.328h-102.594L-579.305,700.175z"/>
	<path clip-path="url(#SVGID_25_)" fill="#C3DDF4" d="M-596.861,720.198v-2.115c0-0.186-0.149-0.334-0.333-0.334h-3.767v57.838
		c2.062,2.512,4.276,4.896,6.619,7.145v-59.574C-595.769,722.927-596.861,721.688-596.861,720.198"/>
	<path clip-path="url(#SVGID_25_)" fill="#52BBEF" d="M-484.265,700.409h-95.019c0.01,0.021,0.014,0.043,0.027,0.063
		c0.063,0.086,0.163,0.137,0.269,0.137h0.707c0.736,0,1.334,0.598,1.334,1.334v14.473c0,0.736-0.598,1.334-1.334,1.334h-5.008
		c-0.185,0-0.333,0.148-0.333,0.334v2.115c0,1.656-1.347,3.002-3.002,3.002h-5.615v3.027c0,0.551,0.451,1,1.001,1h106.971
		c0.552,0,1.002-0.449,1.002-1v-24.818C-483.264,700.858-483.715,700.409-484.265,700.409"/>
	<path clip-path="url(#SVGID_25_)" fill="#293D7C" d="M-477.603,677.024h-87.875c-1.549,6.127-5.338,11.521-10.772,15.084
		c-0.388,0.254-0.683,0.615-0.853,1.047l-0.137,0.436h102.699v-13.504C-474.541,678.403-475.918,677.024-477.603,677.024"/>
	<path clip-path="url(#SVGID_25_)" fill="#FE3745" d="M-500.349,687.956c-0.661,0-1.306-0.268-1.771-0.73
		c-0.464-0.469-0.73-1.111-0.73-1.771c0-0.658,0.268-1.301,0.73-1.77c0.466-0.465,1.11-0.732,1.771-0.732
		c0.656,0,1.304,0.268,1.768,0.732c0.466,0.467,0.734,1.111,0.734,1.77c0,0.66-0.269,1.303-0.734,1.771
		C-499.045,687.688-499.692,687.956-500.349,687.956"/>
	<path clip-path="url(#SVGID_25_)" fill="#FFAF10" d="M-492.145,687.956c-0.657,0-1.306-0.268-1.77-0.734
		c-0.466-0.465-0.733-1.107-0.733-1.768c0-0.658,0.268-1.301,0.733-1.77c0.468-0.465,1.112-0.732,1.77-0.732
		c0.659,0,1.304,0.268,1.771,0.732c0.463,0.467,0.731,1.111,0.731,1.77c0,0.656-0.269,1.303-0.731,1.768
		C-490.841,687.688-491.485,687.956-492.145,687.956"/>
	<path clip-path="url(#SVGID_25_)" fill="#02AF8E" d="M-483.938,687.956c-0.66,0-1.305-0.268-1.768-0.73
		c-0.467-0.469-0.734-1.111-0.734-1.771c0-0.658,0.268-1.301,0.734-1.77c0.463-0.465,1.107-0.732,1.768-0.732
		c0.657,0,1.305,0.268,1.769,0.732c0.466,0.467,0.733,1.111,0.733,1.77c0,0.66-0.268,1.303-0.733,1.771
		C-482.637,687.688-483.281,687.956-483.938,687.956"/>
	<path clip-path="url(#SVGID_25_)" fill="#FFD00D" d="M-590.241,644.851c-14.27,0-25.88,11.609-25.88,25.879
		c0,8.758,4.376,16.852,11.706,21.656c0.327,0.217,0.581,0.527,0.725,0.891l2.299,7.332h22.3l2.299-7.332
		c0.144-0.363,0.398-0.674,0.725-0.891c7.33-4.805,11.706-12.898,11.706-21.656C-564.361,656.46-575.971,644.851-590.241,644.851"/>
	<path clip-path="url(#SVGID_25_)" fill="#FFAF10" d="M-592.743,683.409v17.199h5.003v-17.199c4.957-1.139,8.666-5.584,8.666-10.881
		c0-6.158-5.01-11.168-11.167-11.168c-6.158,0-11.167,5.01-11.167,11.168C-601.408,677.825-597.699,682.271-592.743,683.409
		 M-590.241,666.364c3.398,0,6.163,2.766,6.163,6.164c0,2.508-1.507,4.666-3.662,5.627v-4.803c0-1.381-1.119-2.502-2.501-2.502
		s-2.502,1.121-2.502,2.502v4.803c-2.154-0.961-3.662-3.119-3.662-5.627C-596.405,669.13-593.64,666.364-590.241,666.364"/>
	<path clip-path="url(#SVGID_25_)" fill="#FFAF10" d="M-601.392,700.608h7.247l-2.926-9.332c-0.146-0.363-0.398-0.676-0.726-0.891
		c-7.33-4.805-11.706-12.902-11.706-21.658c0-10.453,6.234-19.473,15.176-23.553c-12.336,1.965-21.795,12.676-21.795,25.555
		c0,8.756,4.376,16.854,11.706,21.656c0.328,0.215,0.581,0.527,0.726,0.891L-601.392,700.608z"/>
	<path clip-path="url(#SVGID_25_)" fill="#1A2B63" d="M-597.193,717.749c0,0.012-0.001,0.023-0.001,0.035v2.414
		c0,1.836,1.501,3.336,3.335,3.336h7.236c1.834,0,3.335-1.5,3.335-3.336v-2.414c0-0.012-0.002-0.021-0.002-0.035H-597.193z"/>
	<path clip-path="url(#SVGID_25_)" fill="#445EA0" d="M-576.612,716.415c0,0.916-0.751,1.668-1.668,1.668h-23.922
		c-0.917,0-1.668-0.752-1.668-1.668v-14.473c0-0.918,0.751-1.668,1.668-1.668h23.922c0.917,0,1.668,0.75,1.668,1.668V716.415z"/>
	<path clip-path="url(#SVGID_25_)" fill="#293D7C" d="M-581.578,708.405h-17.327c-1.381,0-2.502-1.121-2.502-2.502
		c0-1.383,1.121-2.502,2.502-2.502h17.327c1.382,0,2.501,1.119,2.501,2.502C-579.077,707.284-580.196,708.405-581.578,708.405"/>
	<path clip-path="url(#SVGID_25_)" fill="#293D7C" d="M-581.578,715.263h-17.327c-1.381,0-2.502-1.119-2.502-2.502
		c0-1.381,1.121-2.5,2.502-2.5h17.327c1.382,0,2.501,1.119,2.501,2.5C-579.077,714.144-580.196,715.263-581.578,715.263"/>
	<path clip-path="url(#SVGID_25_)" fill="#FFAF10" d="M-590.241,642.376c-1.382,0-2.502-1.119-2.502-2.502v-2.646
		c0-1.381,1.12-2.502,2.502-2.502s2.501,1.121,2.501,2.502v2.646C-587.74,641.257-588.86,642.376-590.241,642.376"/>
	<path clip-path="url(#SVGID_25_)" fill="#FFAF10" d="M-568.171,651.642c-0.64,0-1.281-0.244-1.77-0.732
		c-0.977-0.979-0.977-2.563,0-3.539l1.873-1.871c0.977-0.977,2.561-0.977,3.538,0s0.977,2.561,0,3.539l-1.872,1.871
		C-566.891,651.397-567.531,651.642-568.171,651.642"/>
	<path clip-path="url(#SVGID_25_)" fill="#FFAF10" d="M-556.468,673.798h-2.648c-1.382,0-2.501-1.119-2.501-2.502
		c0-1.381,1.119-2.502,2.501-2.502h2.648c1.382,0,2.502,1.121,2.502,2.502S-555.086,673.798-556.468,673.798"/>
	<path clip-path="url(#SVGID_25_)" fill="#FFAF10" d="M-566.508,697.739c-0.64,0-1.281-0.244-1.77-0.73l-1.871-1.873
		c-0.977-0.977-0.977-2.561,0-3.539c0.977-0.977,2.561-0.977,3.538,0l1.872,1.873c0.977,0.977,0.977,2.561,0,3.539
		C-565.228,697.495-565.868,697.739-566.508,697.739"/>
	<path clip-path="url(#SVGID_25_)" fill="#FFAF10" d="M-614.48,697.532c-0.641,0-1.28-0.244-1.769-0.732
		c-0.977-0.979-0.977-2.563,0-3.539l1.873-1.871c0.977-0.979,2.561-0.977,3.537,0c0.977,0.977,0.977,2.561,0,3.539l-1.872,1.871
		C-613.199,697.288-613.84,697.532-614.48,697.532"/>
	<path clip-path="url(#SVGID_25_)" fill="#FFAF10" d="M-621.663,673.503h-2.648c-1.382,0-2.502-1.121-2.502-2.502
		c0-1.383,1.12-2.502,2.502-2.502h2.648c1.382,0,2.502,1.119,2.502,2.502C-619.161,672.382-620.281,673.503-621.663,673.503"/>
	<path clip-path="url(#SVGID_25_)" fill="#FFAF10" d="M-612.399,651.433c-0.64,0-1.28-0.246-1.769-0.732l-1.873-1.873
		c-0.977-0.979-0.977-2.561,0-3.539c0.978-0.977,2.561-0.977,3.538,0l1.873,1.873c0.977,0.977,0.977,2.561,0,3.539
		C-611.118,651.187-611.759,651.433-612.399,651.433"/>
	<path clip-path="url(#SVGID_25_)" fill="#FFAF10" d="M-602.22,644.7c-0.981,0-1.913-0.58-2.312-1.545l-1.013-2.445
		c-0.529-1.275,0.076-2.738,1.353-3.27c1.276-0.527,2.741,0.078,3.269,1.355l1.014,2.445c0.528,1.275-0.078,2.74-1.354,3.27
		C-601.576,644.64-601.901,644.7-602.22,644.7"/>
	<path clip-path="url(#SVGID_25_)" fill="#FFAF10" d="M-578.286,644.813c-0.319,0-0.644-0.061-0.956-0.189
		c-1.277-0.529-1.883-1.994-1.354-3.27l1.013-2.445c0.529-1.277,1.993-1.885,3.269-1.355c1.276,0.531,1.882,1.992,1.353,3.27
		l-1.012,2.445C-576.373,644.231-577.304,644.813-578.286,644.813"/>
	<path clip-path="url(#SVGID_25_)" fill="#FFAF10" d="M-561.44,661.819c-0.981,0-1.913-0.582-2.313-1.545
		c-0.528-1.275,0.078-2.74,1.355-3.268l2.447-1.016c1.275-0.527,2.74,0.078,3.268,1.355c0.529,1.277-0.078,2.74-1.355,3.268
		l-2.446,1.016C-560.796,661.757-561.121,661.819-561.44,661.819"/>
	<path clip-path="url(#SVGID_25_)" fill="#FFAF10" d="M-559.108,686.769c-0.319,0-0.643-0.063-0.956-0.189l-2.446-1.016
		c-1.277-0.527-1.883-1.99-1.355-3.268c0.529-1.277,1.992-1.883,3.269-1.355l2.446,1.014c1.277,0.529,1.883,1.994,1.355,3.268
		C-557.194,686.187-558.126,686.769-559.108,686.769"/>
	<path clip-path="url(#SVGID_25_)" fill="#FFAF10" d="M-621.785,686.495c-0.981,0-1.913-0.582-2.312-1.545
		c-0.529-1.275,0.077-2.74,1.354-3.268l2.446-1.014c1.276-0.529,2.74,0.076,3.269,1.354c0.529,1.277-0.077,2.74-1.354,3.268
		l-2.446,1.016C-621.141,686.435-621.466,686.495-621.785,686.495"/>
	<path clip-path="url(#SVGID_25_)" fill="#FFAF10" d="M-619.227,661.546c-0.319,0-0.643-0.061-0.956-0.189l-2.446-1.014
		c-1.277-0.527-1.884-1.99-1.355-3.27c0.528-1.275,1.993-1.881,3.268-1.354l2.447,1.014c1.276,0.527,1.882,1.992,1.354,3.268
		C-617.313,660.964-618.245,661.546-619.227,661.546"/>
	<polygon clip-path="url(#SVGID_25_)" fill="#293D7C" points="-537.868,705.157 -537.868,704.103 -542.403,704.103 
		-542.403,705.157 -540.663,705.157 -540.663,722.907 -542.403,722.907 -542.403,723.962 -537.868,723.962 -537.868,722.907 
		-539.607,722.907 -539.607,705.157 	"/>
	<path clip-path="url(#SVGID_25_)" fill="#293D7C" d="M-569.87,719.669l5.308-11.986c0.37-0.828,1.044-1.328,1.958-1.328h0.196
		c0.914,0,1.566,0.5,1.936,1.328l5.308,11.986c0.109,0.238,0.174,0.457,0.174,0.674c0,0.893-0.696,1.609-1.588,1.609
		c-0.783,0-1.305-0.457-1.61-1.152l-1.022-2.393h-6.7l-1.066,2.502c-0.283,0.652-0.849,1.043-1.545,1.043
		c-0.87,0-1.545-0.695-1.545-1.566C-570.066,720.147-569.979,719.907-569.87,719.669 M-560.45,715.448l-2.11-5.025l-2.111,5.025
		H-560.45z"/>
	<path clip-path="url(#SVGID_25_)" fill="#293D7C" d="M-553.403,718.474v-0.045c0-2.545,1.937-3.721,4.699-3.721
		c1.175,0,2.024,0.195,2.85,0.48v-0.197c0-1.371-0.849-2.133-2.502-2.133c-0.913,0-1.653,0.131-2.284,0.328
		c-0.195,0.064-0.326,0.088-0.479,0.088c-0.76,0-1.37-0.588-1.37-1.35c0-0.588,0.369-1.088,0.892-1.283
		c1.044-0.393,2.176-0.611,3.72-0.611c1.805,0,3.111,0.479,3.937,1.307c0.87,0.869,1.262,2.152,1.262,3.721v5.307
		c0,0.893-0.718,1.588-1.61,1.588c-0.957,0-1.587-0.674-1.587-1.371v-0.02c-0.805,0.891-1.915,1.479-3.525,1.479
		C-551.597,722.04-553.403,720.778-553.403,718.474 M-545.811,717.71v-0.588c-0.565-0.26-1.305-0.434-2.109-0.434
		c-1.414,0-2.285,0.564-2.285,1.609v0.043c0,0.893,0.74,1.414,1.806,1.414C-546.855,719.755-545.811,718.907-545.811,717.71"/>
	<path clip-path="url(#SVGID_25_)" fill="#52BBEF" d="M-565.814,750.067c0,0.707-0.58,1.287-1.288,1.287h-11.131
		c-0.708,0-1.288-0.58-1.288-1.287v-11.133c0-0.707,0.58-1.287,1.288-1.287h11.131c0.708,0,1.288,0.58,1.288,1.287V750.067z"/>
	<path clip-path="url(#SVGID_25_)" fill="#52BBEF" d="M-520.205,743.345h-39.524c-1.067,0-1.931-0.863-1.931-1.93
		s0.864-1.93,1.931-1.93h39.524c1.065,0,1.932,0.863,1.932,1.93S-519.14,743.345-520.205,743.345"/>
	<path clip-path="url(#SVGID_25_)" fill="#52BBEF" d="M-532.823,749.521h-26.906c-1.067,0-1.931-0.863-1.931-1.932
		c0-1.066,0.864-1.93,1.931-1.93h26.906c1.065,0,1.931,0.863,1.931,1.93C-530.893,748.657-531.758,749.521-532.823,749.521"/>
	<path clip-path="url(#SVGID_25_)" fill="#02AF8E" d="M-565.814,767.448c0,0.707-0.58,1.287-1.288,1.287h-11.131
		c-0.708,0-1.288-0.58-1.288-1.287v-11.133c0-0.709,0.58-1.287,1.288-1.287h11.131c0.708,0,1.288,0.578,1.288,1.287V767.448z"/>
	<path clip-path="url(#SVGID_25_)" fill="#02AF8E" d="M-520.205,760.726h-39.524c-1.067,0-1.931-0.863-1.931-1.932
		c0-1.066,0.864-1.93,1.931-1.93h39.524c1.065,0,1.932,0.863,1.932,1.93C-518.273,759.862-519.14,760.726-520.205,760.726"/>
	<path clip-path="url(#SVGID_25_)" fill="#02AF8E" d="M-532.823,766.899h-26.906c-1.067,0-1.931-0.863-1.931-1.932
		c0-1.066,0.864-1.93,1.931-1.93h26.906c1.065,0,1.931,0.863,1.931,1.93C-530.893,766.036-531.758,766.899-532.823,766.899"/>
	<path clip-path="url(#SVGID_25_)" fill="#FF9518" d="M-565.814,784.827c0,0.709-0.58,1.287-1.288,1.287h-11.131
		c-0.708,0-1.288-0.578-1.288-1.287v-11.131c0-0.709,0.58-1.289,1.288-1.289h11.131c0.708,0,1.288,0.58,1.288,1.289V784.827z"/>
	<path clip-path="url(#SVGID_25_)" fill="#1E99D6" d="M-574.412,750.067v-11.133c0-0.707,0.579-1.287,1.287-1.287h-5.109
		c-0.708,0-1.287,0.58-1.287,1.287v11.133c0,0.707,0.579,1.287,1.287,1.287h5.109C-573.833,751.354-574.412,750.774-574.412,750.067
		"/>
	<path clip-path="url(#SVGID_25_)" fill="#0F9390" d="M-574.412,767.448v-11.133c0-0.709,0.579-1.287,1.287-1.287h-5.109
		c-0.708,0-1.287,0.578-1.287,1.287v11.133c0,0.707,0.579,1.287,1.287,1.287h5.109
		C-573.833,768.735-574.412,768.155-574.412,767.448"/>
	<path clip-path="url(#SVGID_25_)" fill="#EF8318" d="M-574.412,784.827v-11.131c0-0.709,0.579-1.289,1.287-1.289h-5.109
		c-0.708,0-1.287,0.58-1.287,1.289v11.131c0,0.709,0.579,1.287,1.287,1.287h5.109C-573.833,786.114-574.412,785.536-574.412,784.827
		"/>
	<path clip-path="url(#SVGID_25_)" fill="#FF9518" d="M-520.205,778.104h-39.524c-1.067,0-1.931-0.863-1.931-1.93
		s0.864-1.93,1.931-1.93h39.524c1.065,0,1.932,0.863,1.932,1.93S-519.14,778.104-520.205,778.104"/>
	<path clip-path="url(#SVGID_25_)" fill="#FF9518" d="M-532.823,784.28h-26.906c-1.067,0-1.931-0.863-1.931-1.932
		c0-1.066,0.864-1.93,1.931-1.93h26.906c1.065,0,1.931,0.863,1.931,1.93C-530.893,783.417-531.758,784.28-532.823,784.28"/>
	<path clip-path="url(#SVGID_25_)" fill="#91E0E8" d="M-503.818,739.175c3.691,0,6.687,2.992,6.687,6.688
		c0,3.691-2.995,6.686-6.687,6.686c-3.693,0-6.688-2.994-6.688-6.686C-510.506,742.167-507.512,739.175-503.818,739.175"/>
	<path clip-path="url(#SVGID_25_)" fill="#5DC1D8" d="M-503.438,750.587c-2.61-2.609-2.61-6.844,0-9.455
		c0.643-0.643,1.384-1.127,2.174-1.453c-2.423-1-5.314-0.516-7.282,1.453c-2.612,2.611-2.612,6.846,0,9.455
		c1.968,1.971,4.859,2.453,7.282,1.453C-502.055,751.714-502.796,751.231-503.438,750.587"/>
	<path clip-path="url(#SVGID_25_)" fill="#1A2B63" d="M-491.451,755.497l-5.065-5.066c2.082-3.326,1.681-7.773-1.209-10.664
		c-1.629-1.629-3.793-2.523-6.095-2.523c-2.301,0-4.466,0.895-6.093,2.523c-3.36,3.359-3.36,8.826,0.001,12.188
		c1.626,1.627,3.791,2.523,6.092,2.523c1.646,0,3.216-0.459,4.575-1.313l5.063,5.063c0.378,0.379,0.871,0.566,1.365,0.566
		s0.988-0.188,1.365-0.564C-490.697,757.476-490.697,756.253-491.451,755.497 M-507.182,749.222c-1.854-1.854-1.854-4.871,0-6.725
		c0.897-0.898,2.093-1.393,3.361-1.393c1.271,0,2.465,0.494,3.364,1.393c1.853,1.854,1.853,4.871,0,6.725
		c-0.899,0.898-2.093,1.395-3.364,1.395C-505.089,750.616-506.284,750.12-507.182,749.222"/>
	<path clip-path="url(#SVGID_25_)" fill="#FFFFFF" d="M-62.85,1005.489h-274c-7.778,0-14.144-6.363-14.144-14.143V625.142
		c0-7.779,6.365-14.145,14.144-14.145h274c7.778,0,14.144,6.365,14.144,14.145v366.205
		C-48.706,999.126-55.071,1005.489-62.85,1005.489"/>
</g>
<g>
	<defs>
		<rect id="SVGID_26_" x="-1197.585" y="-797.662" width="1312.33" height="2728.446"/>
	</defs>
	<clipPath id="SVGID_27_">
		<use xlink:href="#SVGID_26_"  overflow="visible"/>
	</clipPath>
	<path clip-path="url(#SVGID_27_)" fill="#FF4155" d="M-128.05,764.185c6.59-11.822,10.35-25.438,10.35-39.936
		c0-45.369-36.78-82.148-82.15-82.148c-45.368,0-82.147,36.779-82.147,82.148c0,14.498,3.759,28.113,10.349,39.936H-128.05z"/>
	<path clip-path="url(#SVGID_27_)" fill="#FFAA7B" d="M-175.003,740.349c0.001-0.002,0.002-0.004,0.002-0.004
		c-0.197-0.055-0.399-0.105-0.601-0.158c-0.065-0.018-0.131-0.037-0.198-0.055l-0.001,0.002c-0.675-0.178-1.353-0.35-2.04-0.508
		c-3.403-3.404-4.267-9.857-4.423-14.373c-1.775,2.07-3.64,3.801-5.422,5.184c-3.47,2.695-7.754,4.158-12.165,4.158
		s-8.693-1.463-12.165-4.158c-1.78-1.383-3.645-3.113-5.422-5.184c-0.156,4.516-1.018,10.969-4.422,14.373
		c-0.697,0.16-1.384,0.334-2.069,0.514h-0.001c-0.063,0.018-0.127,0.033-0.188,0.051c-0.203,0.055-0.407,0.105-0.609,0.16
		c0,0,0.002,0.002,0.004,0.004c-3.136,0.859-6.164,1.91-9.123,3.15v8.002c5.516,7.537,12.895,12.238,17.117,14.012
		c1.899,0.797,3.921,1.201,6.014,1.201h5.931l1.45,0.504h6.971l1.45-0.504h5.93c2.091,0,4.115-0.404,6.013-1.201
		c4.199-1.766,11.52-6.422,17.024-13.885v-8.168C-168.885,742.241-171.891,741.2-175.003,740.349"/>
	<path clip-path="url(#SVGID_27_)" fill="#FC9460" d="M-212.015,730.437c-1.781-1.383-3.646-3.113-5.423-5.184
		c-0.155,4.516-1.018,10.969-4.423,14.373c-0.695,0.162-1.384,0.334-2.067,0.516c0,0,0-0.002-0.001-0.002
		c-0.064,0.018-0.126,0.035-0.19,0.053c-0.202,0.055-0.406,0.104-0.608,0.16c0,0,0.004,0.002,0.005,0.002
		c-1.225,0.336-2.428,0.709-3.62,1.104c3.322,7.936,10.3,21.602,17.68,17.816c10.243-5.254,10.813-24.678,10.813-24.678
		C-204.261,734.597-208.544,733.132-212.015,730.437"/>
	<path clip-path="url(#SVGID_27_)" fill="#FFC839" d="M-170.382,756.468c-4.565,4.219-9.449,6.727-12.59,8.047
		c-1.897,0.797-3.921,1.201-6.014,1.201h-5.929l-1.45,0.502h-6.971l-1.45-0.502h-5.929c-2.094,0-4.116-0.404-6.016-1.201
		c-0.675-0.283-1.433-0.627-2.25-1.025v24.955c0,0-6.394,6.314-1.684,15.289c6.646,1.736,13.622,2.666,20.813,2.666
		c19.952,0,38.241-7.117,52.474-18.945v-1.215C-147.377,773.749-162.349,761.917-170.382,756.468"/>
	<path clip-path="url(#SVGID_27_)" fill="#FFB332" d="M-218.308,788.442V763.81c-3.063-1.432-7.136-3.766-10.986-7.322
		c-8.019,5.438-22.996,17.264-22.996,29.748v1.246c9.295,7.717,20.318,13.424,32.404,16.453
		C-224.8,794.854-218.308,788.442-218.308,788.442"/>
	<path clip-path="url(#SVGID_27_)" fill="#FFDD40" d="M-128.05,764.185c-0.072-0.139-0.144-0.279-0.216-0.416
		c-2.682-5.047-7.187-8.881-12.563-10.82l-22.743-8.215c0.418,0.846,0.704,2.096-0.107,3.471c-2.119,3.602-4.721,6.527-7.393,8.885
		c7.511,5.006,22.727,16.668,22.727,29.002v2.152C-140.131,781.624-133.22,773.458-128.05,764.185"/>
	<path clip-path="url(#SVGID_27_)" fill="#FFC839" d="M-236.022,748.204c-0.811-1.377-0.524-2.627-0.105-3.471l-22.744,8.213
		c-5.375,1.943-9.88,5.777-12.563,10.822c-0.072,0.137-0.144,0.277-0.215,0.416c5.17,9.273,12.08,17.439,20.295,24.059v-2.15
		c0-12.334,15.215-23.996,22.727-29.004C-231.301,754.731-233.902,751.808-236.022,748.204"/>
	<path clip-path="url(#SVGID_27_)" fill="#FEE77F" d="M-161.242,733.046c-2.485-5.799-10.546-9.188-21.155-12.738l-0.729,5.809
		c0,0,6.696,26.424-13.238,40.102h9.695c2.717,0,5.403-0.568,7.876-1.691c3.11-1.41,7.474-3.701,11.36-6.877
		C-160.167,751.712-157.547,741.671-161.242,733.046"/>
	<path clip-path="url(#SVGID_27_)" fill="#FEE77F" d="M-215.814,749.155c-3.693-0.949-13.161-2.188-15.684,9.105
		c3.685,2.861,7.685,4.949,10.59,6.266c2.475,1.121,5.16,1.691,7.876,1.691h9.696C-210.199,761.511-213.905,755.288-215.814,749.155
		"/>
	<path clip-path="url(#SVGID_27_)" fill="#FFDD40" d="M-216.573,726.116l-0.729-5.811c-10.61,3.553-18.669,6.941-21.154,12.74
		c-3.696,8.625-1.075,18.666,6.191,24.604c0.434,0.355,0.876,0.697,1.321,1.031c2.518-13.482,15.498-8.41,15.498-8.41v-0.002
		C-219.637,738.21-216.573,726.116-216.573,726.116"/>
	<path clip-path="url(#SVGID_27_)" fill="#DEEEFF" d="M-218.308,788.442c-1.573,0-2.86-1.287-2.86-2.859v-23.498
		c0-1.574,1.287-2.861,2.86-2.861c1.572,0,2.86,1.287,2.86,2.861v23.498C-215.447,787.155-216.735,788.442-218.308,788.442"/>
	<path clip-path="url(#SVGID_27_)" fill="#DEEEFF" d="M-181.484,788.442c-1.573,0-2.86-1.287-2.86-2.859v-23.498
		c0-1.574,1.287-2.861,2.86-2.861c1.572,0,2.859,1.287,2.859,2.861v23.498C-178.625,787.155-179.912,788.442-181.484,788.442"/>
	<path clip-path="url(#SVGID_27_)" fill="#FF7186" d="M-147.677,660.794c-5.959,4.072-10.469,10.309-8.897,19.682
		c4.113,24.563-14.837,37.092,14.78,50.262c10.529,4.682,17.162,10.16,21.292,14.842c1.826-6.803,2.802-13.951,2.802-21.33
		C-117.7,698.69-129.373,675.86-147.677,660.794"/>
	<path clip-path="url(#SVGID_27_)" fill="#FF7186" d="M-252.022,660.794c5.958,4.072,10.469,10.309,8.897,19.682
		c-4.114,24.563,14.836,37.092-14.781,50.262c-10.528,4.682-17.162,10.16-21.292,14.842c-1.825-6.803-2.801-13.951-2.801-21.33
		C-281.999,698.69-270.327,675.86-252.022,660.794"/>
	<path clip-path="url(#SVGID_27_)" fill="#945230" d="M-167.851,687.729c2.181-8.893,3.962-22.219-0.754-33.307
		c-9.117-21.439-33.933-20.117-40.509-19.363c-0.689,0.08-1.037,0.867-0.644,1.441c3.941,5.754-11.501,0.541-19.896,18.146
		c-5.318,11.158-3.981,24.297-2.038,33.082H-167.851z"/>
	<path clip-path="url(#SVGID_27_)" fill="#753616" d="M-200.21,658.349c0,0-2.473-5.686,3.787-10.379
		c6.252-4.688-3.066-13.109-3.092-13.133c-4.191-0.266-7.675,0.002-9.598,0.223c-0.691,0.08-1.037,0.867-0.646,1.441
		c3.943,5.754-11.501,0.539-19.894,18.146c-5.32,11.158-3.983,24.297-2.038,33.082h14.592l4.635-1.84L-200.21,658.349z"/>
	<path clip-path="url(#SVGID_27_)" fill="#FFAA7B" d="M-166.569,686.603c-1.375-1.26-4.451-0.621-5.637,0.15
		c0.26,1.617,0.275,3.271,0.051,4.904l-1.397,10.184c0,0.82-0.027,1.625-0.075,2.416c3.411,1.029,5.439-2.031,5.726-4.133
		c0.122-0.904,0.322-1.795,0.602-2.664C-166.394,694.628-163.123,689.763-166.569,686.603"/>
	<path clip-path="url(#SVGID_27_)" fill="#FC9460" d="M-233.13,686.603c1.376-1.26,4.45-0.621,5.637,0.15
		c-0.26,1.617-0.275,3.271-0.05,4.904l1.396,10.184c0,0.82,0.027,1.625,0.075,2.416c-3.411,1.029-5.439-2.031-5.725-4.133
		c-0.122-0.904-0.323-1.795-0.603-2.664C-233.306,694.628-236.576,689.763-233.13,686.603"/>
	<path clip-path="url(#SVGID_27_)" fill="#FFC7AB" d="M-173.923,681.171c-1.55-2.432-1.036-4.416-1.012-6.74
		c0,0,1.308-10.701-11.873-14.502c-3.815-1.102-9.199-1.758-14.718-1.547c-3.839,2.707-6.368,6.68-6.368,12.309
		c0,2.586,0.559,4.607-1.029,7.229c-1.711,2.83-2.708,6.908-2.143,11.248l1.425,10.926c0,15.711,7.962,26.389,14.736,31.928
		c0.963,0.787,1.992,1.469,3.063,2.055c1.475-0.648,2.87-1.475,4.155-2.473c6.65-5.164,14.466-15.119,14.466-29.762l1.399-10.184
		C-171.27,687.646-172.227,683.833-173.923,681.171"/>
	<path clip-path="url(#SVGID_27_)" fill="#FFAA7B" d="M-194.835,731.38c-6.649-5.438-14.468-15.92-14.468-31.342l-1.397-10.727
		c-0.556-4.26,0.423-8.266,2.103-11.041c1.559-2.576,1.011-4.561,1.011-7.1c0-6.061,2.98-10.17,7.377-12.822
		c-11.715,0.162-24.557,4.133-24.557,16.082c0,2.41,0.548,4.297-1.01,6.74c-1.681,2.637-2.659,6.439-2.104,10.484l1.398,10.186
		c0,14.643,7.817,24.598,14.466,29.762c3.472,2.693,7.754,4.158,12.165,4.158c3.036,0,6.009-0.693,8.7-2.004
		C-192.45,733.112-193.688,732.317-194.835,731.38"/>
	<path clip-path="url(#SVGID_27_)" fill="#945230" d="M-181.024,713.636c-0.777-4.637-4.122-9.277-8.59-10.293l-6.825-2.004
		c-1.188-0.35-2.374,0.26-2.854,1.293c-0.086,0.189-0.35,0.189-0.438,0c-0.479-1.033-1.666-1.643-2.854-1.293l-6.826,2.004
		c-0.17,0.039-0.337,0.084-0.503,0.133h0.065c-0.725,1.701-1.975,5.928,1.585,9.154c1.147-0.586,2.378-1.035,3.668-1.32l1.219-0.27
		c1.777-0.391,3.152-2.127,3.656-3.975c0.057-0.213,0.358-0.213,0.417,0c0.504,1.848,1.878,3.584,3.655,3.975l1.22,0.27
		c3.505,0.773,6.575,2.734,8.747,5.477c-0.449,1.998-1.86,5.037-6.229,6.58c-2.932,1.037-6.132-0.809-6.507-3.859
		c-0.004-0.041-0.009-0.08-0.013-0.119c-0.063-0.568-0.538-1.008-1.118-1.008c-0.581,0-1.057,0.439-1.119,1.008
		c-0.004,0.039-0.009,0.078-0.014,0.119c-0.201,1.641-1.224,2.926-2.576,3.609c-0.376,1.492-0.876,4.707,0.681,7.83
		c1.125,2.256,3.104,4.004,5.887,5.215c1.409-0.283,2.792-0.754,4.102-1.42c6.833-3.479,15.916-9.521,18.821-25.066
		c0.238-1.277,0.359-2.578,0.359-3.879C-174.513,708.526-176.812,711.808-181.024,713.636"/>
	<path clip-path="url(#SVGID_27_)" fill="#753616" d="M-207.161,734.737c3.526,1.797,7.56,2.203,11.318,1.23
		c-9.186-3.561-7.288-11.582-6.788-13.227c-1.26,0.891-2.946,1.193-4.557,0.625c-4.034-1.426-5.77-4.125-6.515-6.104
		c1.53-2.094,3.569-3.771,5.927-4.871c-3.874-3.35-2.035-7.889-1.438-9.105l-0.195,0.059c-4.556,1.033-7.945,5.84-8.636,10.564
		c-4.659-1.756-7.085-5.24-8.248-8.111l0,0c0,1.299,0.121,2.596,0.36,3.873C-223.032,725.214-213.993,731.257-207.161,734.737"/>
</g>
<rect x="-1197.585" y="-797.666" fill="none" width="1312.33" height="2728.45"/>
<g>
</g>
<g>
</g>
<g>
</g>
<g>
</g>
<g>
</g>
<g>
</g>
<g>
</g>
<g>
</g>
<g>
</g>
<g>
</g>
<g>
</g>
<g>
</g>
<g>
</g>
<g>
</g>
<g>
</g>
</svg>
