<?xml version="1.0" encoding="utf-8"?>
<!-- Generator: Adobe Illustrator 16.0.0, SVG Export Plug-In . SVG Version: 6.00 Build 0)  -->
<!DOCTYPE svg PUBLIC "-//W3C//DTD SVG 1.1//EN" "http://www.w3.org/Graphics/SVG/1.1/DTD/svg11.dtd">
<svg version="1.1" id="Layer_1" xmlns="http://www.w3.org/2000/svg" xmlns:xlink="http://www.w3.org/1999/xlink" x="0px" y="0px"
	 width="158.333px" height="158px" viewBox="0 0 158.333 158" enable-background="new 0 0 158.333 158" xml:space="preserve">
<path d="M909.838,2642.396c0,13.736-11.136,24.871-24.871,24.871c-13.737,0-24.873-11.135-24.873-24.871
	s11.136-24.873,24.873-24.873C898.702,2617.523,909.838,2628.66,909.838,2642.396"/>
<line fill="none" stroke="#12E3FF" stroke-width="3" stroke-linecap="round" stroke-linejoin="round" stroke-miterlimit="10" x1="223.032" y1="2009.408" x2="271.468" y2="2009.408"/>
<line fill="none" stroke="#12E3FF" stroke-width="3" stroke-linecap="round" stroke-linejoin="round" stroke-miterlimit="10" x1="280.668" y1="2009.408" x2="288.046" y2="2009.408"/>
<line fill="none" stroke="#12E3FF" stroke-width="3" stroke-linecap="round" stroke-linejoin="round" stroke-miterlimit="10" x1="635.032" y1="2009.408" x2="683.468" y2="2009.408"/>
<line fill="none" stroke="#12E3FF" stroke-width="3" stroke-linecap="round" stroke-linejoin="round" stroke-miterlimit="10" x1="692.669" y1="2009.408" x2="700.047" y2="2009.408"/>
<line fill="none" stroke="#12E3FF" stroke-width="3" stroke-linecap="round" stroke-linejoin="round" stroke-miterlimit="10" x1="1021.032" y1="2009.408" x2="1069.468" y2="2009.408"/>
<line fill="none" stroke="#12E3FF" stroke-width="3" stroke-linecap="round" stroke-linejoin="round" stroke-miterlimit="10" x1="1078.669" y1="2009.408" x2="1086.046" y2="2009.408"/>
<path fill="#B5E237" d="M78.808,1c42.447,0,76.856,34.41,76.856,76.857s-34.409,76.855-76.856,76.855
	c-42.446,0-76.856-34.408-76.856-76.855S36.361,1,78.808,1"/>
<path fill="#95D600" d="M155.664,77.857c0,17.777-6.037,34.146-16.17,47.166c-8.168,10.494-18.998,17.313-31.476,22.443
	c-9.006,3.703-18.87,7.246-29.211,7.246c-42.444,0-76.856-34.41-76.856-76.855c0-13.877,3.678-26.891,10.111-38.129
	c13.246,23.139,38.176,38.729,66.745,38.729s53.503-15.59,66.746-38.729C151.986,50.967,155.664,63.98,155.664,77.857"/>
<path fill="#8FC9F7" d="M93.281,146.164c0,3.711-2.363,6.266-5.662,7.447c-0.9,0.324-1.874,0.502-2.885,0.502l-6.083,0.6
	c-2.924-0.006-5.815-0.174-8.651-0.498c-4.018-0.459-7.941-1.227-11.746-2.279c-7.444-2.064-14.437-5.217-20.793-9.281
	c-7.369-4.711-13.886-10.648-19.257-17.521c3.237-7.607,10.782-12.943,19.572-12.943c10.015,0,18.413,6.928,20.664,16.252
	c2.31-1.576,5.101-2.498,8.106-2.498c7.347,0,13.404,5.504,14.278,12.617c1.171-0.605,2.501-0.947,3.909-0.947
	C89.453,137.613,93.281,141.441,93.281,146.164"/>
<path fill="#20273A" d="M132.82,110.752v21.781c-0.336,0.33-0.672,0.66-1.015,0.984c-1.336,1.273-2.717,2.498-4.143,3.67v-26.436
	c0-2.711-2.203-4.914-4.915-4.914h-8.82v-5.158h8.82C128.302,100.68,132.82,105.197,132.82,110.752"/>
<path fill="#20273A" d="M140.978,90.123v32.93c-0.51,0.701-1.033,1.393-1.567,2.078c-1.144,1.465-2.338,2.885-3.588,4.262v-39.27
	c0-2.711-2.205-4.914-4.914-4.914h-16.062v-5.158h16.062C136.459,80.051,140.978,84.57,140.978,90.123"/>
<path fill="#545D7A" d="M119.839,64.035v78.381c0,0.148-0.003,0.295-0.009,0.441c-1.42,0.9-46.993,11.682-49.831,11.357
	c-4.017-0.459-7.94-1.227-11.744-2.281c-7.446-2.063-14.438-5.215-20.794-9.279c-0.003-0.078-0.003-0.16-0.003-0.238V64.035
	c0-6.791,5.507-12.297,12.298-12.297h57.786C114.333,51.738,119.839,57.244,119.839,64.035"/>
<path fill="#474F6F" d="M119.839,64.035v78.381c0,0.148-0.003,0.295-0.009,0.441c-1.42,0.9-46.993,11.682-49.831,11.357
	c-4.017-0.459-7.94-1.227-11.744-2.281V51.738h49.287C114.333,51.738,119.839,57.244,119.839,64.035"/>
<path fill="#323B5A" d="M119.839,64.035v78.381c0,0.148-0.003,0.295-0.009,0.441c-1.42,0.9-2.87-0.047-4.35,0.758
	c-5.113,2.783-10.574,4.998-16.306,6.568c-6.487,1.779-13.315,4.529-20.366,4.529H78.65V51.738h28.892
	C114.333,51.738,119.839,57.244,119.839,64.035"/>
<rect x="37.459" y="113.523" fill="#474F6F" width="82.381" height="20.596"/>
<rect x="58.255" y="113.523" fill="#323B5A" width="61.584" height="20.596"/>
<rect x="37.459" y="72.332" fill="#474F6F" width="82.381" height="20.596"/>
<rect x="58.255" y="72.332" fill="#323B5A" width="61.584" height="20.596"/>
<rect x="78.65" y="72.332" fill="#20273A" width="41.188" height="20.596"/>
<rect x="78.65" y="113.523" fill="#20273A" width="41.188" height="20.596"/>
<path fill="#DD1265" d="M89.932,99.906c1.85,0,3.352,1.5,3.352,3.352s-1.502,3.352-3.352,3.352c-1.852,0-3.352-1.5-3.352-3.352
	S88.08,99.906,89.932,99.906"/>
<path fill="#BA0D5C" d="M93.283,103.258c0,1.85-1.5,3.352-3.353,3.352v-6.703C91.783,99.906,93.283,101.408,93.283,103.258"/>
<path fill="#FFD112" d="M99.246,99.906c1.851,0,3.351,1.5,3.351,3.352s-1.5,3.352-3.351,3.352c-1.852,0-3.352-1.5-3.352-3.352
	S97.395,99.906,99.246,99.906"/>
<path fill="#FF9F00" d="M102.597,103.258c0,1.85-1.5,3.352-3.353,3.352v-6.703C101.097,99.906,102.597,101.408,102.597,103.258"/>
<path fill="#95D600" d="M108.814,99.906c1.852,0,3.352,1.5,3.352,3.352s-1.5,3.352-3.352,3.352c-1.85,0-3.35-1.5-3.35-3.352
	S106.965,99.906,108.814,99.906"/>
<path fill="#85AF12" d="M112.166,103.258c0,1.85-1.5,3.352-3.353,3.352v-6.703C110.666,99.906,112.166,101.408,112.166,103.258"/>
<rect x="49.366" y="100.973" fill="#FFFFFF" width="17.778" height="4.572"/>
<rect x="58.255" y="100.973" fill="#D0F6FF" width="8.89" height="4.572"/>
<path fill="#DD1265" d="M89.932,120.471c1.85,0,3.352,1.5,3.352,3.352c0,1.85-1.502,3.352-3.352,3.352
	c-1.852,0-3.352-1.502-3.352-3.352C86.58,121.971,88.08,120.471,89.932,120.471"/>
<path fill="#BA0D5C" d="M93.283,123.822c0,1.85-1.5,3.352-3.353,3.352v-6.703C91.783,120.471,93.283,121.973,93.283,123.822"/>
<path fill="#FFD112" d="M99.246,120.471c1.851,0,3.351,1.5,3.351,3.352c0,1.85-1.5,3.352-3.351,3.352
	c-1.852,0-3.352-1.502-3.352-3.352C95.895,121.971,97.395,120.471,99.246,120.471"/>
<path fill="#FF9F00" d="M102.597,123.822c0,1.85-1.5,3.352-3.353,3.352v-6.703C101.097,120.471,102.597,121.973,102.597,123.822"/>
<path fill="#95D600" d="M108.814,120.471c1.852,0,3.352,1.5,3.352,3.352c0,1.85-1.5,3.352-3.352,3.352
	c-1.85,0-3.35-1.502-3.35-3.352C105.465,121.971,106.965,120.471,108.814,120.471"/>
<path fill="#85AF12" d="M112.166,123.822c0,1.85-1.5,3.352-3.353,3.352v-6.703C110.666,120.471,112.166,121.973,112.166,123.822"/>
<rect x="49.366" y="121.535" fill="#FFFFFF" width="17.778" height="4.572"/>
<rect x="58.255" y="121.535" fill="#D0F6FF" width="8.89" height="4.572"/>
<path fill="#DD1265" d="M89.932,141.033c1.85,0,3.352,1.5,3.352,3.352s-1.502,3.352-3.352,3.352c-1.852,0-3.352-1.5-3.352-3.352
	S88.08,141.033,89.932,141.033"/>
<path fill="#BA0D5C" d="M93.283,144.385c0,1.85-1.5,3.352-3.353,3.352v-6.703C91.783,141.033,93.283,142.535,93.283,144.385"/>
<path fill="#FFD112" d="M99.246,141.033c1.851,0,3.351,1.5,3.351,3.352s-1.5,3.352-3.351,3.352c-1.852,0-3.352-1.5-3.352-3.352
	S97.395,141.033,99.246,141.033"/>
<path fill="#FF9F00" d="M102.597,144.385c0,1.85-1.5,3.352-3.353,3.352v-6.703C101.097,141.033,102.597,142.535,102.597,144.385"/>
<path fill="#95D600" d="M108.814,141.033c1.852,0,3.352,1.5,3.352,3.352s-1.5,3.352-3.352,3.352c-1.85,0-3.35-1.5-3.35-3.352
	S106.965,141.033,108.814,141.033"/>
<path fill="#85AF12" d="M112.166,144.385c0,1.85-1.5,3.352-3.353,3.352v-6.703C110.666,141.033,112.166,142.535,112.166,144.385"/>
<rect x="49.366" y="142.1" fill="#FFFFFF" width="17.778" height="4.57"/>
<rect x="58.255" y="142.1" fill="#D0F6FF" width="8.89" height="4.57"/>
<path fill="#DD1265" d="M89.932,79.277c1.85,0,3.352,1.502,3.352,3.352c0,1.852-1.502,3.354-3.352,3.354
	c-1.852,0-3.352-1.502-3.352-3.354C86.58,80.779,88.08,79.277,89.932,79.277"/>
<path fill="#BA0D5C" d="M93.283,82.629c0,1.852-1.5,3.354-3.353,3.354v-6.705C91.783,79.277,93.283,80.779,93.283,82.629"/>
<path fill="#FFD112" d="M99.246,79.277c1.851,0,3.351,1.502,3.351,3.352c0,1.852-1.5,3.354-3.351,3.354
	c-1.852,0-3.352-1.502-3.352-3.354C95.895,80.779,97.395,79.277,99.246,79.277"/>
<path fill="#FF9F00" d="M102.597,82.629c0,1.852-1.5,3.354-3.353,3.354v-6.705C101.097,79.277,102.597,80.779,102.597,82.629"/>
<path fill="#95D600" d="M108.814,79.277c1.852,0,3.352,1.502,3.352,3.352c0,1.852-1.5,3.354-3.352,3.354
	c-1.85,0-3.35-1.502-3.35-3.354C105.465,80.779,106.965,79.277,108.814,79.277"/>
<path fill="#85AF12" d="M112.166,82.629c0,1.852-1.5,3.354-3.353,3.354v-6.705C110.666,79.277,112.166,80.779,112.166,82.629"/>
<rect x="49.366" y="80.344" fill="#FFFFFF" width="17.778" height="4.572"/>
<rect x="58.255" y="80.344" fill="#D0F6FF" width="8.89" height="4.572"/>
<path fill="#DD1265" d="M89.932,58.65c1.85,0,3.352,1.5,3.352,3.352c0,1.85-1.502,3.352-3.352,3.352
	c-1.852,0-3.352-1.502-3.352-3.352C86.58,60.15,88.08,58.65,89.932,58.65"/>
<path fill="#BA0D5C" d="M93.283,62.002c0,1.85-1.5,3.352-3.353,3.352V58.65C91.783,58.65,93.283,60.152,93.283,62.002"/>
<path fill="#FFD112" d="M99.246,58.65c1.851,0,3.351,1.5,3.351,3.352c0,1.85-1.5,3.352-3.351,3.352
	c-1.852,0-3.352-1.502-3.352-3.352C95.895,60.15,97.395,58.65,99.246,58.65"/>
<path fill="#FF9F00" d="M102.597,62.002c0,1.85-1.5,3.352-3.353,3.352V58.65C101.097,58.65,102.597,60.152,102.597,62.002"/>
<path fill="#95D600" d="M108.814,58.65c1.852,0,3.352,1.5,3.352,3.352c0,1.85-1.5,3.352-3.352,3.352c-1.85,0-3.35-1.502-3.35-3.352
	C105.465,60.15,106.965,58.65,108.814,58.65"/>
<path fill="#85AF12" d="M112.166,62.002c0,1.85-1.5,3.352-3.353,3.352V58.65C110.666,58.65,112.166,60.152,112.166,62.002"/>
<rect x="49.366" y="59.715" fill="#FFFFFF" width="17.778" height="4.572"/>
<rect x="58.255" y="59.715" fill="#D0F6FF" width="8.89" height="4.572"/>
<path fill="#FFFFFF" d="M139.41,125.131c-2.326,2.977-4.869,5.781-7.604,8.387c-4.876,4.645-10.363,8.656-16.326,11.898
	c-5.113,2.783-10.574,4.998-16.306,6.568c-6.488,1.781-13.315,2.729-20.367,2.729h-5.926c-1.013,0-1.981-0.176-2.884-0.498
	c-3.301-1.182-5.664-4.34-5.664-8.051c0-4.723,3.828-8.551,8.548-8.551c1.407,0,2.737,0.342,3.907,0.945
	c0.875-7.111,6.934-12.615,14.279-12.615c3.006,0,5.799,0.922,8.106,2.498c2.252-9.324,10.649-16.252,20.664-16.252
	C128.627,112.189,136.172,117.525,139.41,125.131"/>
<path fill="#D0F6FF" d="M139.41,125.131c-10.039,12.848-24.074,22.426-40.235,26.854v-23.543
	c2.252-9.324,10.649-16.252,20.664-16.252C128.627,112.189,136.172,117.525,139.41,125.131"/>
<path fill="#D0F6FF" d="M128.299,124.992c-2.261-2.258-5.263-3.504-8.459-3.504c-2.738,0-5.314,0.898-7.449,2.6
	c-2.077,1.658-3.561,3.98-4.18,6.535c-0.717,2.973-2.849,5.398-5.701,6.494c-1.078,0.418-2.209,0.621-3.336,0.621
	c-0.924,0-1.842-0.137-2.726-0.408c-0.885-0.27-1.735-0.678-2.519-1.213c-0.588-0.402-1.562-0.879-2.86-0.879
	c-2.567,0-4.737,1.916-5.05,4.453c-0.274,2.225-1.336,4.248-2.954,5.725h32.415c5.962-3.242,11.449-7.254,16.326-11.898v-0.066
	C131.807,130.258,130.561,127.252,128.299,124.992"/>
<path fill="#8FC9F7" d="M131.807,133.451v0.066c-4.877,4.645-10.364,8.656-16.326,11.898H99.176v-7.678
	c1.125,0,2.256-0.203,3.334-0.621c2.853-1.096,4.984-3.521,5.701-6.494c0.619-2.555,2.103-4.877,4.18-6.535
	c2.135-1.701,4.711-2.6,7.449-2.6c3.196,0,6.198,1.246,8.459,3.504C130.561,127.252,131.807,130.258,131.807,133.451"/>
<path fill="#DAF1F4" d="M1035.021,1770.129c-30.325,0-49.007,17.105-49.059,17.135c0,0-0.775,0.969-0.922,1.613
	c-1.179,5.238-2.282,12.258-2.282,17.379c0,43.521,36.702,78.795,80.224,78.795c16.76,0,35.404-8.033,47.885-17.689
	c0.279-0.217,1.164-1.668,1.164-1.668c0.055-0.336,1.793-7.256,1.793-16.762C1113.823,1805.41,1078.542,1770.129,1035.021,1770.129
	L1035.021,1770.129z"/>
<path fill="#B1E4F9" d="M1062.976,1882.826c-43.523,0-78.804-35.281-78.804-78.803c0-5.752,0.62-11.357,1.791-16.76
	c-6.78,5.402-12.651,11.898-17.345,19.223l-7.758,69.156c5.564,15.451,15.822,28.662,29.051,37.912l95.611-4.131
	c13.158-10.988,22.715-26.221,26.508-43.73C1098.569,1876.416,1081.522,1882.826,1062.976,1882.826"/>
<rect x="978.365" y="1825.596" fill="#6EC17D" width="129.649" height="63.807"/>
<rect x="978.365" y="1825.596" fill="#6EC17D" width="40.489" height="63.807"/>
<path fill="#9BD069" d="M1105.808,1884.242H980.575v-53.486h125.232V1884.242z M1106.962,1822.738H979.419
	c-3.789,0-6.86,3.072-6.86,6.861v55.799c0,3.789,3.071,6.861,6.86,6.861h127.543c3.789,0,6.861-3.072,6.861-6.861V1829.6
	C1113.823,1825.809,1110.751,1822.738,1106.962,1822.738"/>
<path fill="#8BC852" d="M1027.181,1884.242h-46.605v-53.486h21.406v-8.018h-22.563c-3.789,0-6.859,3.072-6.859,6.861v55.799
	c0,3.789,3.07,6.861,6.859,6.861h47.763V1884.242z"/>
<path fill="#9BD069" d="M980.367,1830.268v11.869c6.556,0,11.869-5.314,11.869-11.869H980.367z"/>
<path fill="#8BC852" d="M980.367,1884.596v-11.869c6.556,0,11.869,5.313,11.869,11.869H980.367z"/>
<path fill="#9BD069" d="M1106.185,1830.334v11.871c-6.557,0-11.869-5.314-11.869-11.871H1106.185z"/>
<path fill="#9BD069" d="M1106.185,1884.664v-11.871c-6.557,0-11.869,5.314-11.869,11.871H1106.185z"/>
<path fill="#6EC17D" d="M1043.19,1843.84c9.682,0,17.529,7.848,17.529,17.529s-7.848,17.531-17.529,17.531
	s-17.529-7.85-17.529-17.531S1033.509,1843.84,1043.19,1843.84"/>
<path fill="#B7E445" d="M1043.19,1839.969c9.682,0,17.529,7.848,17.529,17.529c0,9.684-7.848,17.531-17.529,17.531
	s-17.529-7.848-17.529-17.531C1025.661,1847.816,1033.509,1839.969,1043.19,1839.969"/>
<rect x="993.108" y="1852.387" fill="#B7E445" width="25.748" height="10.227"/>
<rect x="1068.567" y="1852.387" fill="#B7E445" width="25.748" height="10.227"/>
<rect x="1001.455" y="1809.346" fill="#9BD069" width="90.22" height="63.807"/>
<path fill="#6EC17D" d="M1002.516,1873.15h-40.49v-43.572c0-11.174,9.058-20.232,20.231-20.232h20.259v26.789l-3.904,5.113
	l3.904,5.113V1873.15z"/>
<path fill="#B7E445" d="M1090.622,1806.488H985.641l-0.482,4.197l0.482,3.818h103.825v53.488h-78.625l-0.574,3.439l0.574,4.578
	h79.781c3.789,0,6.859-3.072,6.859-6.861v-55.801C1097.481,1809.559,1094.411,1806.488,1090.622,1806.488"/>
<path fill="#9BD069" d="M963.079,1876.01h47.762v-8.018h-46.607v-53.488h21.407v-8.018h-17.021
	c-7.85,12.252-12.401,26.816-12.401,42.445c0,9.377,1.641,18.369,4.646,26.709C961.558,1875.879,962.304,1876.01,963.079,1876.01"/>
<path fill="#9BD069" d="M964.025,1825.885c6.557,0,11.87-5.313,11.87-11.869h-11.534c-0.114,0.23-0.224,0.463-0.336,0.693V1825.885z
	"/>
<path fill="#9BD069" d="M964.025,1868.344v-11.869c6.557,0,11.87,5.314,11.87,11.869H964.025z"/>
<path fill="#B7E445" d="M1089.843,1814.084v11.869c-6.557,0-11.869-5.314-11.869-11.869H1089.843z"/>
<path fill="#B7E445" d="M1089.843,1868.412v-11.869c-6.557,0-11.869,5.314-11.869,11.869H1089.843z"/>
<path fill="#6EC17D" d="M1026.851,1827.588c9.682,0,17.529,7.85,17.529,17.531s-7.848,17.529-17.529,17.529
	c-9.684,0-17.53-7.848-17.53-17.529S1017.167,1827.588,1026.851,1827.588"/>
<path fill="#B7E445" d="M1026.851,1823.717c9.682,0,17.529,7.85,17.529,17.531s-7.848,17.531-17.529,17.531
	c-9.684,0-17.53-7.85-17.53-17.531S1017.167,1823.717,1026.851,1823.717"/>
<rect x="976.768" y="1836.135" fill="#B7E445" width="25.748" height="10.229"/>
<rect x="1052.226" y="1836.135" fill="#B7E445" width="25.748" height="10.229"/>
<path fill="#FFD23C" d="M1097.177,1820.324l-3.34-6.293c-0.529-0.711-1.1-1.391-1.707-2.035l-11.031-6.584
	c-1.908-0.504-3.91-0.771-5.975-0.771c-12.889,0-23.336,10.447-23.336,23.334c0,2.066,0.27,4.068,0.771,5.975l6.584,11.031
	c0.645,0.607,1.326,1.178,2.037,1.709l6.291,3.338c2.396,0.832,4.973,1.283,7.652,1.283c12.889,0,23.334-10.447,23.334-23.336
	C1098.46,1825.295,1098.007,1822.721,1097.177,1820.324"/>
<path fill="#FFC305" d="M1091.485,1826.016l-2.57-7.059c-0.49-0.748-1.039-1.451-1.641-2.107l-12.15-5.35
	c-9.1,0-16.477,7.375-16.477,16.475l5.352,12.152c0.656,0.6,1.359,1.148,2.105,1.639l7.061,2.57
	c0.641,0.074,1.297,0.115,1.959,0.115c9.098,0,16.475-7.377,16.475-16.477C1091.599,1827.313,1091.56,1826.658,1091.485,1826.016"/>
<path fill="#FFE65A" d="M1081.097,1805.414l-28.533,28.535c1.131,4.283,3.451,8.082,6.586,11.029l32.975-32.979
	C1089.179,1808.867,1085.382,1806.545,1081.097,1805.414"/>
<path fill="#FFD23C" d="M1075.124,1811.5c-0.039,0-0.076,0.002-0.115,0.002l-16.357,16.357c0,0.039-0.004,0.076-0.004,0.115
	c0,4.811,2.064,9.139,5.352,12.15l23.275-23.275C1084.263,1813.563,1079.935,1811.5,1075.124,1811.5"/>
<path fill="#FFE65A" d="M1061.181,1846.688c1.896,1.416,4.016,2.543,6.295,3.334l29.693-29.695
	c-0.789-2.279-1.918-4.398-3.332-6.295L1061.181,1846.688z"/>
<path fill="#FFD23C" d="M1073.165,1844.33l18.314-18.314c-0.307-2.582-1.209-4.982-2.57-7.057l-22.803,22.803
	C1068.183,1843.121,1070.581,1844.025,1073.165,1844.33"/>
<path fill="#FFFFFF" d="M1074.534,1835.6c-2.736-0.092-4.973-1.506-4.973-2.967c0-0.775,0.684-1.918,1.551-1.918
	c0.957,0,1.734,1.348,3.422,1.645v-3.697c-2.098-0.799-4.563-1.779-4.563-4.701c0-2.896,2.145-4.289,4.563-4.631v-0.639
	c0-0.32,0.365-0.617,0.867-0.617c0.436,0,0.869,0.297,0.869,0.617v0.57c1.414,0.045,4.084,0.41,4.084,1.984
	c0,0.617-0.412,1.871-1.416,1.871c-0.752,0-1.186-0.73-2.668-0.844v3.332c2.076,0.775,4.494,1.848,4.494,4.928
	c0,2.83-1.826,4.541-4.494,4.975v0.662c0,0.32-0.434,0.615-0.869,0.615c-0.502,0-0.867-0.295-0.867-0.615V1835.6z
	 M1074.765,1825.059v-2.717c-1.029,0.205-1.461,0.73-1.461,1.277C1073.304,1824.281,1073.896,1824.693,1074.765,1825.059
	 M1076.042,1829.279v3.057c0.775-0.182,1.391-0.615,1.391-1.438C1077.433,1830.146,1076.862,1829.666,1076.042,1829.279"/>
<path fill="#FFD23C" d="M1066.093,1801.746l-3.34-6.291c-0.529-0.711-1.1-1.391-1.707-2.037l-11.031-6.584
	c-1.908-0.504-3.91-0.771-5.975-0.771c-12.887,0-23.336,10.447-23.336,23.336c0,2.064,0.27,4.066,0.771,5.973l6.584,11.033
	c0.645,0.605,1.326,1.176,2.037,1.707l6.291,3.34c2.396,0.83,4.973,1.283,7.652,1.283c12.889,0,23.334-10.449,23.334-23.336
	C1067.376,1806.719,1066.923,1804.143,1066.093,1801.746"/>
<path fill="#FFC305" d="M1060.401,1807.439l-2.57-7.061c-0.49-0.746-1.039-1.451-1.641-2.107l-12.15-5.35
	c-9.1,0-16.477,7.377-16.477,16.477l5.352,12.15c0.656,0.602,1.359,1.15,2.105,1.639l7.061,2.57
	c0.641,0.076,1.297,0.115,1.959,0.115c9.1,0,16.475-7.377,16.475-16.475C1060.515,1808.734,1060.476,1808.082,1060.401,1807.439"/>
<path fill="#FFE65A" d="M1050.015,1786.838l-28.535,28.533c1.131,4.285,3.451,8.084,6.586,11.029l32.977-32.979
	C1058.095,1790.289,1054.298,1787.969,1050.015,1786.838"/>
<path fill="#FFD23C" d="M1044.04,1792.922c-0.039,0-0.076,0.004-0.115,0.004l-16.357,16.357c0,0.039-0.004,0.076-0.004,0.115
	c0,4.811,2.064,9.139,5.352,12.15l23.275-23.275C1053.179,1794.986,1048.851,1792.922,1044.04,1792.922"/>
<path fill="#FFE65A" d="M1030.097,1828.111c1.896,1.414,4.016,2.543,6.295,3.334l29.693-29.697
	c-0.789-2.277-1.918-4.398-3.332-6.293L1030.097,1828.111z"/>
<path fill="#FFD23C" d="M1042.081,1825.754l18.314-18.314c-0.307-2.584-1.209-4.984-2.57-7.059l-22.803,22.805
	C1037.099,1824.545,1039.499,1825.447,1042.081,1825.754"/>
<path fill="#FFFFFF" d="M1043.45,1817.021c-2.736-0.092-4.973-1.506-4.973-2.967c0-0.775,0.684-1.916,1.551-1.916
	c0.957,0,1.734,1.346,3.422,1.643v-3.695c-2.098-0.799-4.563-1.781-4.563-4.701c0-2.898,2.145-4.289,4.563-4.633v-0.639
	c0-0.318,0.365-0.615,0.867-0.615c0.436,0,0.869,0.297,0.869,0.615v0.572c1.414,0.045,4.084,0.41,4.084,1.984
	c0,0.615-0.412,1.871-1.416,1.871c-0.752,0-1.186-0.73-2.668-0.844v3.33c2.076,0.777,4.494,1.85,4.494,4.93
	c0,2.83-1.826,4.541-4.494,4.973v0.664c0,0.318-0.434,0.615-0.869,0.615c-0.502,0-0.867-0.297-0.867-0.615V1817.021z
	 M1043.681,1806.48v-2.715c-1.029,0.205-1.461,0.729-1.461,1.277C1042.22,1805.705,1042.812,1806.115,1043.681,1806.48
	 M1044.958,1810.701v3.059c0.775-0.184,1.391-0.617,1.391-1.438C1046.351,1811.568,1045.778,1811.09,1044.958,1810.701"/>
<path fill="#FFE65A" d="M1072.62,1781.803c1.189,3.373,3.844,6.025,7.217,7.217c-3.373,1.191-6.027,3.846-7.217,7.217
	c-1.193-3.371-3.846-6.025-7.219-7.217C1068.772,1787.828,1071.427,1785.176,1072.62,1781.803"/>
<path fill="#FFE65A" d="M1091.417,1789.02c0.846,2.396,2.729,4.279,5.125,5.127c-2.396,0.848-4.279,2.73-5.125,5.127
	c-0.848-2.396-2.732-4.279-5.129-5.127C1088.685,1793.299,1090.569,1791.416,1091.417,1789.02"/>
<path fill="#FFE65A" d="M1087.312,1770.746c0.762,2.158,2.459,3.854,4.615,4.617c-2.156,0.762-3.854,2.459-4.615,4.615
	c-0.764-2.156-2.461-3.854-4.615-4.615C1084.851,1774.6,1086.548,1772.904,1087.312,1770.746"/>
<polygon fill="#FFD23C" points="1046.761,1894.592 1014.366,1897.021 1017.622,1884.553 1046.761,1884.553 "/>
<rect x="998.927" y="1894.592" fill="#FFC305" width="47.834" height="4.859"/>
<rect x="998.927" y="1884.553" fill="#FFC305" width="18.695" height="14.898"/>
<polygon fill="#FFD23C" points="1007.02,1913.498 1008.612,1923.195 1037.749,1923.195 1039.204,1913.09 "/>
<path fill="#FFC305" d="M1038.366,1922.82h-30.789c8.547,3.176,17.791,4.914,27.441,4.914c0.914,0,1.824-0.02,2.73-0.051
	L1038.366,1922.82z"/>
<path fill="#FFC305" d="M989.915,1913.551c5.723,4.002,12.001,7.264,18.696,9.645v-10.359h-18.696V1913.551z"/>
<path fill="#FFE65A" d="M1055.839,1913.254l-4.611,11.184l11.209-1.617c6.021-2.236,11.707-5.189,16.943-8.76L1055.839,1913.254z"/>
<path fill="#F9C535" d="M1062.437,1922.82h-23.566v4.818C1047.101,1927.24,1055.024,1925.574,1062.437,1922.82"/>
<path fill="#F9C535" d="M1056.403,1924.787v-11.951h-18.697v14.85C1044.153,1927.469,1050.417,1926.473,1056.403,1924.787"/>
<polygon fill="#FFD23C" points="1037.728,1909.203 1006.705,1911.633 1008.59,1899.164 1037.728,1899.164 "/>
<rect x="1006.705" y="1909.203" fill="#FFC305" width="31.022" height="4.859"/>
<path fill="#FFC305" d="M989.894,1913.537c0.252,0.176,0.505,0.352,0.759,0.525h17.938v-14.898h-18.696V1913.537z"/>
<polygon fill="#FFE65A" points="1056.382,1899.164 1055.915,1910.572 1076.585,1910.65 1085.519,1909.203 1085.519,1899.164 "/>
<path fill="#F9C535" d="M1085.519,1909.203h-47.836v4.859h41.699c2.121-1.447,4.168-2.998,6.137-4.643V1909.203z"/>
<rect x="1037.685" y="1899.164" fill="#F9C535" width="18.697" height="14.898"/>
<path fill="#00B7F0" d="M666.978,1770.129c-32.901,0.004-61.043,20.379-72.502,49.197c-0.037,0.088-0.071,0.178-0.106,0.268
	c-5.854,14.883-0.486,31.84,12.78,40.775l44.709,35.221c19.292,15.195,45.744,17.986,67.549,6.689
	c4.548-2.355,8.309-5.031,10.586-8.145c9.479-12.961,15.055-28.957,15-46.26C744.854,1805.037,709.815,1770.123,666.978,1770.129"/>
<path fill="#0091C8" d="M684.705,1894.611c0.647-1.566,2.443-2.311,4.01-1.66c1.565,0.648,2.309,2.443,1.66,4.01
	c-0.649,1.566-2.444,2.309-4.011,1.66C684.799,1897.973,684.056,1896.176,684.705,1894.611"/>
<path fill="#0091C8" d="M688.246,1864.313c0.547,0.547,12.802,12.838,13.357,13.262c4.824,3.789,12.178,1.506,13.822-4.645
	l7.641-28.596c6.401-6.902,12.329-14.996,17.121-23.211c-6.077-16.463-17.55-30.311-32.273-39.404
	c-6.193,3.273-12.396,7.244-18.129,11.586c-5.396,4.088-8.734,7.252-9.084,7.551l-29.474,7.877
	c-6.529,1.746-8.669,9.891-3.926,14.635l6.472,6.473l6.369,6.369c-0.009,2.002,0.203,3.879,0.633,5.756l-9.437,9.436
	c-6.223-0.367-12.568,1.822-17.323,6.578c-2.224,2.223-5.949,1.469-7.212-1.408c-0.081-0.186-0.165-0.367-0.252-0.549
	c-0.027-0.057-0.055-0.107-0.085-0.158c-1.222-2.486-2.988-4.654-5.151-6.342c-2.119-1.652-2.988-4.494-2.074-7.021
	c0.715-1.979,1.043-4.143,0.891-6.4c-0.978-14.484-20.195-20.232-28.648-7.627c-12.863,52.029,63.369,108.906,104.867,91.994
	c12.006-4.893,23.115-12.988,31.743-23.889c5.789-7.316-4.348-16.525-11.081-10.07c-3.349,3.209-6.984,6.121-10.865,8.699
	c-1.578,1.047-3.565,1.051-5.257,0.199c-1.396-0.701-3.028,0.254-3.175,1.742c-0.187,1.896-1.291,3.582-3.032,4.355
	c-3.14,1.395-6.391,2.586-9.738,3.561c-1.848,0.539-3.827-0.084-5.052-1.57c-0.006-0.008-0.013-0.018-0.021-0.025
	c-2.922-3.531-7.106-6.039-11.765-6.885c-3.135-0.57-4.38-4.385-2.126-6.639c4.755-4.754,6.945-11.1,6.577-17.324l9.139-9.139
	C683.785,1864.037,685.97,1864.324,688.246,1864.313"/>
<path fill="#0091C8" d="M632.294,1846.92c2.188,0,3.959-1.773,3.959-3.961s-1.771-3.961-3.959-3.961s-3.961,1.773-3.961,3.961
	S630.106,1846.92,632.294,1846.92"/>
<path fill="#0091C8" d="M630.313,1830.176c1.094,0,1.98-0.887,1.98-1.979c0-1.096-0.887-1.982-1.98-1.982s-1.98,0.887-1.98,1.982
	C628.333,1829.289,629.22,1830.176,630.313,1830.176"/>
<path fill="#FFFFFF" d="M678.974,1905.348c-2.817,0.529-5.669-0.686-7.385-2.984c-3.02-4.041-7.469-6.764-12.37-7.654
	c-3.137-0.57-4.38-4.383-2.126-6.639c8.827-8.826,8.827-23.139,0-31.967c-8.828-8.828-23.14-8.828-31.968,0
	c-2.223,2.223-5.948,1.471-7.212-1.408c-1.234-2.813-3.16-5.252-5.563-7.105c-2.125-1.641-2.908-4.447-1.998-6.973
	c0.715-1.977,1.041-4.137,0.889-6.393c-0.52-7.715-6.729-13.969-14.439-14.537c-0.838-0.063-1.662-0.057-2.471,0.008
	c-3.452,8.813-5.348,18.404-5.348,28.439c0,43.08,34.924,78.004,78.005,78.004c10.381,0,20.285-2.033,29.344-5.713
	c0.035-0.729,0.019-1.467-0.059-2.213C695.369,1909.486,687.059,1903.834,678.974,1905.348"/>
<path fill="#F5F0F0" d="M617.662,1854.148c-0.965-2.014-4.046-0.639-3.194,1.424c0.246,0.598,0.568,1.098,0.988,1.42
	c2.403,1.854,4.329,4.295,5.563,7.107c1.264,2.879,4.99,3.631,7.213,1.408c8.826-8.828,23.139-8.828,31.968,0
	c1.338,1.34,2.471,2.807,3.405,4.359c-0.493-5.023-2.662-9.914-6.512-13.764c-8.828-8.828-23.14-8.828-31.968,0
	c-2.223,2.223-5.948,1.471-7.212-1.408C617.832,1854.512,617.748,1854.328,617.662,1854.148"/>
<path fill="#F5F0F0" d="M660.199,1897.475c-2.256,2.254-1.012,6.068,2.126,6.639c4.938,0.896,9.42,3.654,12.44,7.75
	c1.68,2.277,4.533,3.41,7.314,2.889c3.506-0.656,7.053,0.035,10.02,1.742c1.789,1.029,3.841-0.809,2.998-2.691
	c-2.693-6.025-9.352-9.695-16.066-8.465c-2.811,0.514-5.675-0.58-7.37-2.879c-1.79-2.426-4.093-4.381-6.697-5.758
	c-1.565-0.828-3.493-0.5-4.744,0.752L660.199,1897.475z"/>
<path fill="#F5F0F0" d="M595.786,1819.646c-0.166-0.002-0.331,0-0.495,0.004c-0.098,0.002-0.196,0.002-0.294,0.006
	c-0.223,0.01-0.445,0.021-0.666,0.039c-1.447,3.697-2.618,7.531-3.493,11.479c2.632-1.535,5.748-2.328,9.069-2.084
	c1.352,0.1,2.658,0.375,3.895,0.803c3.07,1.059,5.535-2.736,3.371-5.139c-0.094-0.102-0.19-0.201-0.287-0.301
	c-0.063-0.066-0.127-0.135-0.191-0.199c-0.094-0.096-0.191-0.186-0.287-0.277c-0.075-0.072-0.148-0.145-0.227-0.215
	c-0.092-0.084-0.187-0.166-0.28-0.248c-0.085-0.074-0.169-0.148-0.257-0.221c-0.09-0.076-0.182-0.15-0.274-0.223
	c-0.094-0.076-0.187-0.152-0.284-0.225c-0.088-0.066-0.178-0.133-0.268-0.199c-0.104-0.074-0.207-0.15-0.313-0.223
	c-0.086-0.061-0.174-0.119-0.262-0.176c-0.111-0.076-0.225-0.148-0.338-0.221c-0.085-0.053-0.17-0.105-0.256-0.156
	c-0.121-0.072-0.242-0.143-0.364-0.213c-0.083-0.047-0.166-0.094-0.25-0.139c-0.128-0.068-0.258-0.137-0.388-0.203
	c-0.081-0.041-0.163-0.082-0.246-0.121c-0.135-0.066-0.271-0.129-0.408-0.189c-0.081-0.037-0.161-0.074-0.243-0.107
	c-0.141-0.061-0.284-0.119-0.427-0.176c-0.08-0.031-0.16-0.063-0.24-0.094c-0.146-0.055-0.295-0.105-0.443-0.156
	c-0.08-0.027-0.16-0.057-0.24-0.082c-0.15-0.049-0.303-0.094-0.455-0.137c-0.081-0.023-0.161-0.049-0.242-0.07
	c-0.154-0.041-0.311-0.078-0.467-0.117c-0.081-0.018-0.161-0.039-0.243-0.059c-0.16-0.035-0.321-0.064-0.481-0.094
	c-0.08-0.016-0.16-0.033-0.24-0.047c-0.172-0.029-0.344-0.053-0.518-0.076c-0.07-0.01-0.142-0.023-0.214-0.031
	c-0.245-0.029-0.491-0.055-0.737-0.072c-0.254-0.02-0.507-0.029-0.758-0.037C595.958,1819.648,595.872,1819.648,595.786,1819.646"/>
<path fill="#8757F3" d="M715.562,1837.281l-12.94-12.939l-18.196,31.811l7.476,18.83c4.763,4.762,12.895,2.58,14.635-3.928
	L715.562,1837.281z"/>
<path fill="#6A2BC2" d="M692.638,1875.645c2.963,2.379,6.531-1.967,3.725-4.527c-0.103-0.094-0.204-0.191-0.305-0.293
	c-2.113-2.111-1.612-5.643,0.985-7.117c0.065-0.037,0.128-0.072,0.193-0.109c8.585-4.912,14.797-13.113,17.35-22.668l0.976-3.648
	l-12.941-12.941l-26.522,26.523l-4.157,4.158l13.488,13.488l6.472,6.471C692.139,1875.221,692.385,1875.439,692.638,1875.645"/>
<path fill="#8757F3" d="M676.112,1797.832l12.939,12.941l-34.032,13.568l-16.608-2.85c-4.762-4.762-2.581-12.895,3.927-14.635
	L676.112,1797.832z"/>
<path fill="#6A2BC2" d="M637.749,1820.756c-2.379-2.963,1.967-6.531,4.527-3.725c0.094,0.104,0.192,0.205,0.291,0.305
	c2.114,2.113,5.645,1.613,7.119-0.986c0.036-0.064,0.073-0.129,0.109-0.191c4.912-8.586,13.112-14.797,22.669-17.352l3.646-0.975
	l12.941,12.941l-26.524,26.523l-4.157,4.156l-13.486-13.488l-6.472-6.473C638.174,1821.256,637.952,1821.01,637.749,1820.756"/>
<path fill="#FEC502" d="M711.288,1845.463c-21.871,21.873-39.542,20.264-51.434,8.373c-11.89-11.891-9.787-22.943,12.085-44.814
	s55.23-46.281,67.12-34.391C750.951,1786.523,733.16,1823.592,711.288,1845.463"/>
<path fill="#FFA50A" d="M712.491,1807.867c-0.964-1.594-2.095-2.979-3.35-4.158c-3.323-3.121-0.209-8.658,4.138-7.281
	c2.698,0.854,5.202,2.35,7.272,4.418l0.336,0.338c6.725,6.725,18.252,3.613,20.607-5.6c1.803-7.057,2.184-14.086-0.86-18.965
	c-7.181-11.477-28.521-3.525-40.543,2.666c-0.242,0.123-0.483,0.248-0.725,0.375l-0.001,0.002
	c-11.088,5.811-22.342,13.945-31.139,22.742c-21.871,21.871-20.263,39.541-8.373,51.432c1.958,1.959,4.074,3.635,6.34,4.977
	c-4.254-7.182-5.11-15.867-0.691-25.834c3.063-6.908,12.259-8.551,17.436-3.045c0.132,0.141,0.267,0.279,0.403,0.416
	c8.185,8.186,22.119,7.119,28.807-3.197C715.922,1821.334,716.077,1813.803,712.491,1807.867"/>
<path fill="#8757F3" d="M736.638,1809.021c6.66-14.541,8.765-28.049,2.422-34.391s-15.606,0.004-30.148,6.666L736.638,1809.021z"/>
<path fill="#6A2BC2" d="M731.734,1798.406l-4.188-4.189c-3.62-3.619-2.101-9.795,2.786-11.314c2.299-0.715,4.527-1.275,6.658-1.662
	c3.065-0.557,4.307-4.344,2.116-6.561c-0.016-0.016-0.03-0.033-0.047-0.049c-6.343-6.342-19.848-4.238-34.39,2.424l27.064,27.064
	C733.312,1802.541,733.312,1799.982,731.734,1798.406"/>
<path fill="#FFFFFF" d="M699.458,1795.688c10.241,0,18.546,8.303,18.546,18.547c0,10.242-8.305,18.545-18.546,18.545
	c-10.242,0-18.547-8.303-18.547-18.545C680.911,1803.99,689.216,1795.688,699.458,1795.688"/>
<path fill="#F5F0F0" d="M631.865,1896.289l-7.623,0.979c-1.47,0.189-2.722-1.063-2.534-2.533l0.979-7.623
	c0.978-7.615,4.452-14.691,9.882-20.119c5.361-5.361,14.054-5.361,19.416,0c5.361,5.361,5.361,14.055,0,19.416
	C646.556,1891.836,639.48,1895.313,631.865,1896.289"/>
<path fill="#FEC502" d="M632.912,1889.463l-10.53,1.352c0,0,8.033-22.416,13.463-27.844c0,0,8.479-7.953,13.619-5.383
	c1.287,0.645,2.494,1.504,3.568,2.576c5.361,5.361,5.361,14.055,0,19.416C647.603,1885.01,640.527,1888.484,632.912,1889.463"/>
<path fill="#00B7F0" d="M708.73,1823.506c-5.121,5.121-13.425,5.121-18.546,0c-5.12-5.121-2.839-10.473,2.282-15.594
	c4.482-4.482,9.116-7.992,14.206-4.631c0.729,0.48,1.417,1.039,2.058,1.68C713.851,1810.082,713.851,1818.385,708.73,1823.506"/>
<rect x="644.326" y="1844.947" transform="matrix(-0.7071 -0.7071 0.7071 -0.7071 -192.881 3623.3833)" fill="#6A2BC2" width="19.321" height="13.383"/>
<path fill="#8757F3" d="M663.643,1870.775l-10.382-10.381c-2.613-2.615-2.613-6.852,0-9.465s6.852-2.613,9.466,0l10.381,10.381
	L663.643,1870.775z"/>
<path fill="#0091C8" d="M699.781,1821.502c1.09-1.092,1.09-2.857,0-3.949l-3.977-3.975c-0.874-0.873-0.92-2.293-0.076-3.195
	c0.024-0.025,0.048-0.051,0.072-0.076c0.883-0.93,2.373-0.912,3.279-0.006l1.203,1.203c1.052,1.051,2.763,1.176,3.88,0.195
	c1.223-1.076,1.269-2.941,0.136-4.076c-0.503-0.502-0.159-1.355,0.552-1.381l0.076-0.002c1.899-0.053,2.529-2.576,0.864-3.486
	c-4.777-2.613-10.947-2.08-15.183,1.801c-5.542,5.078-5.682,13.693-0.424,18.951c0.36,0.361,0.737,0.695,1.126,1.004
	c0.763,0.605,1.839-0.139,1.535-1.064c-0.008-0.027-0.018-0.055-0.027-0.082c-0.587-1.828,1.656-3.219,3.015-1.861
	C696.923,1822.592,698.689,1822.592,699.781,1821.502"/>
<path fill="#FFA50A" d="M633.616,1860.164c-5.43,5.43-8.904,12.506-9.883,20.121l-1.352,10.529c2.118-0.271,3.787-1.932,4.074-4.047
	c0.182-1.338,0.42-2.73,0.884-4.463c0.601-2.248,3.403-3.012,5.048-1.367l1.634,1.635c1.296,1.295,3.395,1.295,4.688,0
	c1.295-1.295,1.295-3.395,0-4.688l-4.469-4.469c-1.133-1.133-1.222-2.939-0.207-4.18l0.022-0.027
	c1.159-1.416,3.287-1.523,4.58-0.229l1.534,1.533c1.295,1.295,3.393,1.295,4.688,0s1.295-3.395,0-4.688
	c-1.162-1.164-0.34-3.17,1.307-3.156c0.054,0.002,0.107,0.002,0.162,0.004c3.507,0.07,4.379-4.852,1.029-5.889
	C642.801,1855.371,637.526,1856.254,633.616,1860.164"/>
<path fill="#FFFFFF" d="M678.604,1890.814c1.693,0,3.067,1.375,3.067,3.068c0,1.695-1.374,3.068-3.067,3.068
	c-1.695,0-3.068-1.373-3.068-3.068C675.535,1892.189,676.908,1890.814,678.604,1890.814"/>
<path fill="#FFFFFF" d="M690.641,1893.299c1.009,0,1.825,0.818,1.825,1.826c0,1.01-0.816,1.826-1.825,1.826
	c-1.01,0-1.826-0.816-1.826-1.826C688.814,1894.117,689.631,1893.299,690.641,1893.299"/>
<path fill="#FFFFFF" d="M623.403,1837.125c2.188,0,3.96,1.771,3.96,3.959s-1.772,3.961-3.96,3.961s-3.96-1.773-3.96-3.961
	S621.216,1837.125,623.403,1837.125"/>
<path fill="#FFFFFF" d="M621.423,1824.342c1.094,0,1.98,0.885,1.98,1.979s-0.887,1.98-1.98,1.98c-1.093,0-1.98-0.887-1.98-1.98
	S620.33,1824.342,621.423,1824.342"/>
<g>
</g>
<g>
</g>
<g>
</g>
<g>
</g>
<g>
</g>
<g>
</g>
<g>
</g>
<g>
</g>
<g>
</g>
<g>
</g>
<g>
</g>
<g>
</g>
<g>
</g>
<g>
</g>
<g>
</g>
</svg>
