<?xml version="1.0" encoding="utf-8"?>
<!-- Generator: Adobe Illustrator 16.0.0, SVG Export Plug-In . SVG Version: 6.00 Build 0)  -->
<!DOCTYPE svg PUBLIC "-//W3C//DTD SVG 1.1//EN" "http://www.w3.org/Graphics/SVG/1.1/DTD/svg11.dtd">
<svg version="1.1" id="Layer_1" xmlns="http://www.w3.org/2000/svg" xmlns:xlink="http://www.w3.org/1999/xlink" x="0px" y="0px"
	 width="158.333px" height="158px" viewBox="0 0 158.333 158" enable-background="new 0 0 158.333 158" xml:space="preserve">
<path d="M909.838,2642.396c0,13.736-11.136,24.871-24.871,24.871c-13.737,0-24.873-11.135-24.873-24.871
	s11.136-24.873,24.873-24.873C898.702,2617.523,909.838,2628.66,909.838,2642.396"/>
<line fill="none" stroke="#12E3FF" stroke-width="3" stroke-linecap="round" stroke-linejoin="round" stroke-miterlimit="10" x1="-366.229" y1="592.107" x2="-317.793" y2="592.107"/>
<line fill="none" stroke="#12E3FF" stroke-width="3" stroke-linecap="round" stroke-linejoin="round" stroke-miterlimit="10" x1="-308.593" y1="592.107" x2="-301.215" y2="592.107"/>
<line fill="none" stroke="#12E3FF" stroke-width="3" stroke-linecap="round" stroke-linejoin="round" stroke-miterlimit="10" x1="45.771" y1="592.107" x2="94.207" y2="592.107"/>
<line fill="none" stroke="#12E3FF" stroke-width="3" stroke-linecap="round" stroke-linejoin="round" stroke-miterlimit="10" x1="103.408" y1="592.107" x2="110.786" y2="592.107"/>
<line fill="none" stroke="#12E3FF" stroke-width="3" stroke-linecap="round" stroke-linejoin="round" stroke-miterlimit="10" x1="431.771" y1="592.107" x2="480.207" y2="592.107"/>
<line fill="none" stroke="#12E3FF" stroke-width="3" stroke-linecap="round" stroke-linejoin="round" stroke-miterlimit="10" x1="489.408" y1="592.107" x2="496.785" y2="592.107"/>
<path fill="#DAF1F4" d="M79.167,0.197c-30.325,0-49.007,17.105-49.059,17.135c0,0-0.775,0.969-0.922,1.613
	c-1.179,5.238-2.282,12.258-2.282,17.379c0,43.521,36.702,78.795,80.224,78.795c16.76,0,35.404-8.033,47.885-17.689
	c0.279-0.217,1.164-1.668,1.164-1.668c0.055-0.336,1.793-7.256,1.793-16.762C157.97,35.479,122.688,0.197,79.167,0.197L79.167,0.197
	z"/>
<path fill="#B1E4F9" d="M107.122,112.895c-43.523,0-78.804-35.281-78.804-78.803c0-5.752,0.62-11.357,1.791-16.76
	c-6.78,5.402-12.651,11.898-17.345,19.223l-7.758,69.156c5.564,15.451,15.822,28.662,29.051,37.912l95.611-4.131
	c13.158-10.988,22.715-26.221,26.508-43.73C142.716,106.484,125.669,112.895,107.122,112.895"/>
<rect x="22.512" y="55.664" fill="#6EC17D" width="129.649" height="63.807"/>
<rect x="22.512" y="55.664" fill="#6EC17D" width="40.489" height="63.807"/>
<path fill="#9BD069" d="M149.954,114.311H24.722V60.824h125.232V114.311z M151.108,52.807H23.565c-3.789,0-6.86,3.072-6.86,6.861
	v55.799c0,3.789,3.071,6.861,6.86,6.861h127.543c3.789,0,6.861-3.072,6.861-6.861V59.668
	C157.97,55.877,154.897,52.807,151.108,52.807"/>
<path fill="#8BC852" d="M71.327,114.311H24.722V60.824h21.406v-8.018H23.564c-3.789,0-6.859,3.072-6.859,6.861v55.799
	c0,3.789,3.07,6.861,6.859,6.861h47.763V114.311z"/>
<path fill="#9BD069" d="M24.514,60.336v11.869c6.556,0,11.869-5.314,11.869-11.869H24.514z"/>
<path fill="#8BC852" d="M24.514,114.664v-11.869c6.556,0,11.869,5.313,11.869,11.869H24.514z"/>
<path fill="#9BD069" d="M150.331,60.402v11.871c-6.557,0-11.869-5.314-11.869-11.871H150.331z"/>
<path fill="#9BD069" d="M150.331,114.732v-11.871c-6.557,0-11.869,5.314-11.869,11.871H150.331z"/>
<path fill="#6EC17D" d="M87.337,73.908c9.682,0,17.529,7.848,17.529,17.529s-7.848,17.531-17.529,17.531s-17.529-7.85-17.529-17.531
	S77.655,73.908,87.337,73.908"/>
<path fill="#B7E445" d="M87.337,70.037c9.682,0,17.529,7.848,17.529,17.529c0,9.684-7.848,17.531-17.529,17.531
	S69.808,97.25,69.808,87.566C69.808,77.885,77.655,70.037,87.337,70.037"/>
<rect x="37.255" y="82.455" fill="#B7E445" width="25.748" height="10.227"/>
<rect x="112.714" y="82.455" fill="#B7E445" width="25.748" height="10.227"/>
<rect x="45.602" y="39.414" fill="#9BD069" width="90.22" height="63.807"/>
<path fill="#6EC17D" d="M46.662,103.219H6.172V59.646c0-11.174,9.058-20.232,20.231-20.232h20.259v26.789l-3.904,5.113l3.904,5.113
	V103.219z"/>
<path fill="#B7E445" d="M134.769,36.557H29.787l-0.482,4.197l0.482,3.818h103.825v53.488H54.987l-0.574,3.439l0.574,4.578h79.781
	c3.789,0,6.859-3.072,6.859-6.861V43.416C141.628,39.627,138.558,36.557,134.769,36.557"/>
<path fill="#9BD069" d="M7.226,106.078h47.762v-8.018H8.38V44.572h21.407v-8.018H12.766C4.916,48.807,0.364,63.371,0.364,79
	c0,9.377,1.641,18.369,4.646,26.709C5.704,105.947,6.45,106.078,7.226,106.078"/>
<path fill="#9BD069" d="M8.172,55.953c6.557,0,11.87-5.313,11.87-11.869H8.508c-0.114,0.23-0.224,0.463-0.336,0.693V55.953z"/>
<path fill="#9BD069" d="M8.172,98.412V86.543c6.557,0,11.87,5.314,11.87,11.869H8.172z"/>
<path fill="#B7E445" d="M133.989,44.152v11.869c-6.557,0-11.869-5.314-11.869-11.869H133.989z"/>
<path fill="#B7E445" d="M133.989,98.48V86.611c-6.557,0-11.869,5.314-11.869,11.869H133.989z"/>
<path fill="#6EC17D" d="M70.997,57.656c9.682,0,17.529,7.85,17.529,17.531s-7.848,17.529-17.529,17.529
	c-9.684,0-17.53-7.848-17.53-17.529S61.313,57.656,70.997,57.656"/>
<path fill="#B7E445" d="M70.997,53.785c9.682,0,17.529,7.85,17.529,17.531s-7.848,17.531-17.529,17.531
	c-9.684,0-17.53-7.85-17.53-17.531S61.313,53.785,70.997,53.785"/>
<rect x="20.914" y="66.203" fill="#B7E445" width="25.748" height="10.229"/>
<rect x="96.372" y="66.203" fill="#B7E445" width="25.748" height="10.229"/>
<path fill="#FFD23C" d="M141.323,50.393l-3.34-6.293c-0.529-0.711-1.1-1.391-1.707-2.035l-11.031-6.584
	c-1.908-0.504-3.91-0.771-5.975-0.771c-12.889,0-23.336,10.447-23.336,23.334c0,2.066,0.27,4.068,0.771,5.975l6.584,11.031
	c0.645,0.607,1.326,1.178,2.037,1.709l6.291,3.338c2.396,0.832,4.973,1.283,7.652,1.283c12.889,0,23.334-10.447,23.334-23.336
	C142.606,55.363,142.153,52.789,141.323,50.393"/>
<path fill="#FFC305" d="M135.632,56.084l-2.57-7.059c-0.49-0.748-1.039-1.451-1.641-2.107l-12.15-5.35
	c-9.1,0-16.477,7.375-16.477,16.475l5.352,12.152c0.656,0.6,1.359,1.148,2.105,1.639l7.061,2.57
	c0.641,0.074,1.297,0.115,1.959,0.115c9.098,0,16.475-7.377,16.475-16.477C135.745,57.381,135.706,56.727,135.632,56.084"/>
<path fill="#FFE65A" d="M125.243,35.482L96.71,64.018c1.131,4.283,3.451,8.082,6.586,11.029l32.975-32.979
	C133.325,38.936,129.528,36.613,125.243,35.482"/>
<path fill="#FFD23C" d="M119.271,41.568c-0.039,0-0.076,0.002-0.115,0.002l-16.357,16.357c0,0.039-0.004,0.076-0.004,0.115
	c0,4.811,2.064,9.139,5.352,12.15l23.275-23.275C128.409,43.631,124.081,41.568,119.271,41.568"/>
<path fill="#FFE65A" d="M105.327,76.756c1.896,1.416,4.016,2.543,6.295,3.334l29.693-29.695c-0.789-2.279-1.918-4.398-3.332-6.295
	L105.327,76.756z"/>
<path fill="#FFD23C" d="M117.312,74.398l18.314-18.314c-0.307-2.582-1.209-4.982-2.57-7.057L110.253,71.83
	C112.329,73.189,114.728,74.094,117.312,74.398"/>
<path fill="#FFFFFF" d="M118.681,65.668c-2.736-0.092-4.973-1.506-4.973-2.967c0-0.775,0.684-1.918,1.551-1.918
	c0.957,0,1.734,1.348,3.422,1.645V58.73c-2.098-0.799-4.563-1.779-4.563-4.701c0-2.896,2.145-4.289,4.563-4.631V48.76
	c0-0.32,0.365-0.617,0.867-0.617c0.436,0,0.869,0.297,0.869,0.617v0.57c1.414,0.045,4.084,0.41,4.084,1.984
	c0,0.617-0.412,1.871-1.416,1.871c-0.752,0-1.186-0.73-2.668-0.844v3.332c2.076,0.775,4.494,1.848,4.494,4.928
	c0,2.83-1.826,4.541-4.494,4.975v0.662c0,0.32-0.434,0.615-0.869,0.615c-0.502,0-0.867-0.295-0.867-0.615V65.668z M118.911,55.127
	V52.41c-1.029,0.205-1.461,0.73-1.461,1.277C117.45,54.35,118.042,54.762,118.911,55.127 M120.188,59.348v3.057
	c0.775-0.182,1.391-0.615,1.391-1.438C121.579,60.215,121.009,59.734,120.188,59.348"/>
<path fill="#FFD23C" d="M110.239,31.814l-3.34-6.291c-0.529-0.711-1.1-1.391-1.707-2.037l-11.031-6.584
	c-1.908-0.504-3.91-0.771-5.975-0.771c-12.887,0-23.336,10.447-23.336,23.336c0,2.064,0.27,4.066,0.771,5.973l6.584,11.033
	c0.645,0.605,1.326,1.176,2.037,1.707l6.291,3.34c2.396,0.83,4.973,1.283,7.652,1.283c12.889,0,23.334-10.449,23.334-23.336
	C111.522,36.787,111.069,34.211,110.239,31.814"/>
<path fill="#FFC305" d="M104.548,37.508l-2.57-7.061c-0.49-0.746-1.039-1.451-1.641-2.107l-12.15-5.35
	c-9.1,0-16.477,7.377-16.477,16.477l5.352,12.15c0.656,0.602,1.359,1.15,2.105,1.639l7.061,2.57
	c0.641,0.076,1.297,0.115,1.959,0.115c9.1,0,16.475-7.377,16.475-16.475C104.661,38.803,104.622,38.15,104.548,37.508"/>
<path fill="#FFE65A" d="M94.161,16.906L65.626,45.439c1.131,4.285,3.451,8.084,6.586,11.029l32.977-32.979
	C102.241,20.357,98.444,18.037,94.161,16.906"/>
<path fill="#FFD23C" d="M88.187,22.99c-0.039,0-0.076,0.004-0.115,0.004L71.714,39.352c0,0.039-0.004,0.076-0.004,0.115
	c0,4.811,2.064,9.139,5.352,12.15l23.275-23.275C97.325,25.055,92.997,22.99,88.187,22.99"/>
<path fill="#FFE65A" d="M74.243,58.18c1.896,1.414,4.016,2.543,6.295,3.334l29.693-29.697c-0.789-2.277-1.918-4.398-3.332-6.293
	L74.243,58.18z"/>
<path fill="#FFD23C" d="M86.228,55.822l18.314-18.314c-0.307-2.584-1.209-4.984-2.57-7.059L79.169,53.254
	C81.245,54.613,83.646,55.516,86.228,55.822"/>
<path fill="#FFFFFF" d="M87.597,47.09c-2.736-0.092-4.973-1.506-4.973-2.967c0-0.775,0.684-1.916,1.551-1.916
	c0.957,0,1.734,1.346,3.422,1.643v-3.695c-2.098-0.799-4.563-1.781-4.563-4.701c0-2.898,2.145-4.289,4.563-4.633v-0.639
	c0-0.318,0.365-0.615,0.867-0.615c0.436,0,0.869,0.297,0.869,0.615v0.572c1.414,0.045,4.084,0.41,4.084,1.984
	c0,0.615-0.412,1.871-1.416,1.871c-0.752,0-1.186-0.73-2.668-0.844v3.33c2.076,0.777,4.494,1.85,4.494,4.93
	c0,2.83-1.826,4.541-4.494,4.973v0.664c0,0.318-0.434,0.615-0.869,0.615c-0.502,0-0.867-0.297-0.867-0.615V47.09z M87.827,36.549
	v-2.715c-1.029,0.205-1.461,0.729-1.461,1.277C86.366,35.773,86.958,36.184,87.827,36.549 M89.104,40.77v3.059
	c0.775-0.184,1.391-0.617,1.391-1.438C90.497,41.637,89.925,41.158,89.104,40.77"/>
<path fill="#FFE65A" d="M116.767,11.871c1.189,3.373,3.844,6.025,7.217,7.217c-3.373,1.191-6.027,3.846-7.217,7.217
	c-1.193-3.371-3.846-6.025-7.219-7.217C112.919,17.896,115.573,15.244,116.767,11.871"/>
<path fill="#FFE65A" d="M135.563,19.088c0.846,2.396,2.729,4.279,5.125,5.127c-2.396,0.848-4.279,2.73-5.125,5.127
	c-0.848-2.396-2.732-4.279-5.129-5.127C132.831,23.367,134.716,21.484,135.563,19.088"/>
<path fill="#FFE65A" d="M131.458,0.814c0.762,2.158,2.459,3.854,4.615,4.617c-2.156,0.762-3.854,2.459-4.615,4.615
	c-0.764-2.156-2.461-3.854-4.615-4.615C128.997,4.668,130.694,2.973,131.458,0.814"/>
<polygon fill="#FFD23C" points="90.907,124.66 58.513,127.09 61.769,114.621 90.907,114.621 "/>
<rect x="43.073" y="124.66" fill="#FFC305" width="47.834" height="4.859"/>
<rect x="43.073" y="114.621" fill="#FFC305" width="18.695" height="14.898"/>
<polygon fill="#FFD23C" points="51.166,143.566 52.759,153.264 81.896,153.264 83.351,143.158 "/>
<path fill="#FFC305" d="M82.513,152.889H51.724c8.547,3.176,17.791,4.914,27.441,4.914c0.914,0,1.824-0.02,2.73-0.051
	L82.513,152.889z"/>
<path fill="#FFC305" d="M34.062,143.619c5.723,4.002,12.001,7.264,18.696,9.645v-10.359H34.062V143.619z"/>
<path fill="#FFE65A" d="M99.985,143.322l-4.611,11.184l11.209-1.617c6.021-2.236,11.707-5.189,16.943-8.76L99.985,143.322z"/>
<path fill="#F9C535" d="M106.583,152.889H83.017v4.818C91.247,157.309,99.171,155.643,106.583,152.889"/>
<path fill="#F9C535" d="M100.55,154.855v-11.951H81.853v14.85C88.3,157.537,94.563,156.541,100.55,154.855"/>
<polygon fill="#FFD23C" points="81.874,139.271 50.852,141.701 52.736,129.232 81.874,129.232 "/>
<rect x="50.852" y="139.271" fill="#FFC305" width="31.022" height="4.859"/>
<path fill="#FFC305" d="M34.04,143.605c0.252,0.176,0.505,0.352,0.759,0.525h17.938v-14.898H34.04V143.605z"/>
<polygon fill="#FFE65A" points="100.528,129.232 100.062,140.641 120.731,140.719 129.665,139.271 129.665,129.232 "/>
<path fill="#F9C535" d="M129.665,139.271H81.829v4.859h41.699c2.121-1.447,4.168-2.998,6.137-4.643V139.271z"/>
<rect x="81.831" y="129.232" fill="#F9C535" width="18.697" height="14.898"/>
<g>
</g>
<g>
</g>
<g>
</g>
<g>
</g>
<g>
</g>
<g>
</g>
<g>
</g>
<g>
</g>
<g>
</g>
<g>
</g>
<g>
</g>
<g>
</g>
<g>
</g>
<g>
</g>
<g>
</g>
</svg>
