<?xml version="1.0" encoding="utf-8"?>
<!-- Generator: Adobe Illustrator 16.0.0, SVG Export Plug-In . SVG Version: 6.00 Build 0)  -->
<!DOCTYPE svg PUBLIC "-//W3C//DTD SVG 1.1//EN" "http://www.w3.org/Graphics/SVG/1.1/DTD/svg11.dtd">
<svg version="1.1" id="Layer_1" xmlns="http://www.w3.org/2000/svg" xmlns:xlink="http://www.w3.org/1999/xlink" x="0px" y="0px"
	 width="158.333px" height="158px" viewBox="0 0 158.333 158" enable-background="new 0 0 158.333 158" xml:space="preserve">
<path d="M909.838,2642.396c0,13.736-11.136,24.871-24.871,24.871c-13.737,0-24.873-11.135-24.873-24.871
	s11.136-24.873,24.873-24.873C898.702,2617.523,909.838,2628.66,909.838,2642.396"/>
<line fill="none" stroke="#12E3FF" stroke-width="3" stroke-linecap="round" stroke-linejoin="round" stroke-miterlimit="10" x1="-366.229" y1="592.107" x2="-317.793" y2="592.107"/>
<line fill="none" stroke="#12E3FF" stroke-width="3" stroke-linecap="round" stroke-linejoin="round" stroke-miterlimit="10" x1="-308.593" y1="592.107" x2="-301.215" y2="592.107"/>
<line fill="none" stroke="#12E3FF" stroke-width="3" stroke-linecap="round" stroke-linejoin="round" stroke-miterlimit="10" x1="45.771" y1="592.107" x2="94.207" y2="592.107"/>
<line fill="none" stroke="#12E3FF" stroke-width="3" stroke-linecap="round" stroke-linejoin="round" stroke-miterlimit="10" x1="103.408" y1="592.107" x2="110.786" y2="592.107"/>
<line fill="none" stroke="#12E3FF" stroke-width="3" stroke-linecap="round" stroke-linejoin="round" stroke-miterlimit="10" x1="431.771" y1="592.107" x2="480.207" y2="592.107"/>
<line fill="none" stroke="#12E3FF" stroke-width="3" stroke-linecap="round" stroke-linejoin="round" stroke-miterlimit="10" x1="489.408" y1="592.107" x2="496.785" y2="592.107"/>
<path fill="#DAF1F4" d="M445.76,205.072c-30.325,0-49.007,17.105-49.059,17.135c0,0-0.775,0.969-0.922,1.613
	c-1.179,5.238-2.282,12.258-2.282,17.379c0,43.521,36.702,78.795,80.224,78.795c16.76,0,35.404-8.033,47.885-17.689
	c0.279-0.217,1.164-1.668,1.164-1.668c0.055-0.336,1.793-7.256,1.793-16.762C524.563,240.354,489.281,205.072,445.76,205.072
	L445.76,205.072z"/>
<path fill="#B1E4F9" d="M473.715,317.77c-43.523,0-78.804-35.281-78.804-78.803c0-5.752,0.62-11.357,1.791-16.76
	c-6.78,5.402-12.651,11.898-17.345,19.223l-7.758,69.156c5.564,15.451,15.822,28.662,29.051,37.912l95.611-4.131
	c13.158-10.988,22.715-26.221,26.508-43.73C509.309,311.359,492.262,317.77,473.715,317.77"/>
<rect x="389.104" y="260.539" fill="#6EC17D" width="129.649" height="63.807"/>
<rect x="389.104" y="260.539" fill="#6EC17D" width="40.489" height="63.807"/>
<path fill="#9BD069" d="M516.547,319.186H391.314v-53.486h125.232V319.186z M517.701,257.682H390.158
	c-3.789,0-6.86,3.072-6.86,6.861v55.799c0,3.789,3.071,6.861,6.86,6.861h127.543c3.789,0,6.861-3.072,6.861-6.861v-55.799
	C524.563,260.752,521.49,257.682,517.701,257.682"/>
<path fill="#8BC852" d="M437.92,319.186h-46.605v-53.486h21.406v-8.018h-22.563c-3.789,0-6.859,3.072-6.859,6.861v55.799
	c0,3.789,3.07,6.861,6.859,6.861h47.763V319.186z"/>
<path fill="#9BD069" d="M391.106,265.211v11.869c6.556,0,11.869-5.314,11.869-11.869H391.106z"/>
<path fill="#8BC852" d="M391.106,319.539V307.67c6.556,0,11.869,5.313,11.869,11.869H391.106z"/>
<path fill="#9BD069" d="M516.924,265.277v11.871c-6.557,0-11.869-5.314-11.869-11.871H516.924z"/>
<path fill="#9BD069" d="M516.924,319.607v-11.871c-6.557,0-11.869,5.314-11.869,11.871H516.924z"/>
<path fill="#6EC17D" d="M453.93,278.783c9.682,0,17.529,7.848,17.529,17.529s-7.848,17.531-17.529,17.531
	s-17.529-7.85-17.529-17.531S444.248,278.783,453.93,278.783"/>
<path fill="#B7E445" d="M453.93,274.912c9.682,0,17.529,7.848,17.529,17.529c0,9.684-7.848,17.531-17.529,17.531
	s-17.529-7.848-17.529-17.531C436.4,282.76,444.248,274.912,453.93,274.912"/>
<rect x="403.848" y="287.33" fill="#B7E445" width="25.748" height="10.227"/>
<rect x="479.307" y="287.33" fill="#B7E445" width="25.748" height="10.227"/>
<rect x="412.194" y="244.289" fill="#9BD069" width="90.22" height="63.807"/>
<path fill="#6EC17D" d="M413.255,308.094h-40.49v-43.572c0-11.174,9.058-20.232,20.231-20.232h20.259v26.789l-3.904,5.113
	l3.904,5.113V308.094z"/>
<path fill="#B7E445" d="M501.361,241.432H396.38l-0.482,4.197l0.482,3.818h103.825v53.488H421.58l-0.574,3.439l0.574,4.578h79.781
	c3.789,0,6.859-3.072,6.859-6.861v-55.801C508.221,244.502,505.15,241.432,501.361,241.432"/>
<path fill="#9BD069" d="M373.818,310.953h47.762v-8.018h-46.607v-53.488h21.407v-8.018h-17.021
	c-7.85,12.252-12.401,26.816-12.401,42.445c0,9.377,1.641,18.369,4.646,26.709C372.297,310.822,373.043,310.953,373.818,310.953"/>
<path fill="#9BD069" d="M374.765,260.828c6.557,0,11.87-5.313,11.87-11.869h-11.534c-0.114,0.23-0.224,0.463-0.336,0.693V260.828z"
	/>
<path fill="#9BD069" d="M374.765,303.287v-11.869c6.557,0,11.87,5.314,11.87,11.869H374.765z"/>
<path fill="#B7E445" d="M500.582,249.027v11.869c-6.557,0-11.869-5.314-11.869-11.869H500.582z"/>
<path fill="#B7E445" d="M500.582,303.355v-11.869c-6.557,0-11.869,5.314-11.869,11.869H500.582z"/>
<path fill="#6EC17D" d="M437.59,262.531c9.682,0,17.529,7.85,17.529,17.531s-7.848,17.529-17.529,17.529
	c-9.684,0-17.53-7.848-17.53-17.529S427.906,262.531,437.59,262.531"/>
<path fill="#B7E445" d="M437.59,258.66c9.682,0,17.529,7.85,17.529,17.531s-7.848,17.531-17.529,17.531
	c-9.684,0-17.53-7.85-17.53-17.531S427.906,258.66,437.59,258.66"/>
<rect x="387.507" y="271.078" fill="#B7E445" width="25.748" height="10.229"/>
<rect x="462.965" y="271.078" fill="#B7E445" width="25.748" height="10.229"/>
<path fill="#FFD23C" d="M507.916,255.268l-3.34-6.293c-0.529-0.711-1.1-1.391-1.707-2.035l-11.031-6.584
	c-1.908-0.504-3.91-0.771-5.975-0.771c-12.889,0-23.336,10.447-23.336,23.334c0,2.066,0.27,4.068,0.771,5.975l6.584,11.031
	c0.645,0.607,1.326,1.178,2.037,1.709l6.291,3.338c2.396,0.832,4.973,1.283,7.652,1.283c12.889,0,23.334-10.447,23.334-23.336
	C509.199,260.238,508.746,257.664,507.916,255.268"/>
<path fill="#FFC305" d="M502.225,260.959l-2.57-7.059c-0.49-0.748-1.039-1.451-1.641-2.107l-12.15-5.35
	c-9.1,0-16.477,7.375-16.477,16.475l5.352,12.152c0.656,0.6,1.359,1.148,2.105,1.639l7.061,2.57
	c0.641,0.074,1.297,0.115,1.959,0.115c9.098,0,16.475-7.377,16.475-16.477C502.338,262.256,502.299,261.602,502.225,260.959"/>
<path fill="#FFE65A" d="M491.836,240.357l-28.533,28.535c1.131,4.283,3.451,8.082,6.586,11.029l32.975-32.979
	C499.918,243.811,496.121,241.488,491.836,240.357"/>
<path fill="#FFD23C" d="M485.863,246.443c-0.039,0-0.076,0.002-0.115,0.002l-16.357,16.357c0,0.039-0.004,0.076-0.004,0.115
	c0,4.811,2.064,9.139,5.352,12.15l23.275-23.275C495.002,248.506,490.674,246.443,485.863,246.443"/>
<path fill="#FFE65A" d="M471.92,281.631c1.896,1.416,4.016,2.543,6.295,3.334l29.693-29.695c-0.789-2.279-1.918-4.398-3.332-6.295
	L471.92,281.631z"/>
<path fill="#FFD23C" d="M483.904,279.273l18.314-18.314c-0.307-2.582-1.209-4.982-2.57-7.057l-22.803,22.803
	C478.922,278.064,481.32,278.969,483.904,279.273"/>
<path fill="#FFFFFF" d="M485.273,270.543c-2.736-0.092-4.973-1.506-4.973-2.967c0-0.775,0.684-1.918,1.551-1.918
	c0.957,0,1.734,1.348,3.422,1.645v-3.697c-2.098-0.799-4.563-1.779-4.563-4.701c0-2.896,2.145-4.289,4.563-4.631v-0.639
	c0-0.32,0.365-0.617,0.867-0.617c0.436,0,0.869,0.297,0.869,0.617v0.57c1.414,0.045,4.084,0.41,4.084,1.984
	c0,0.617-0.412,1.871-1.416,1.871c-0.752,0-1.186-0.73-2.668-0.844v3.332c2.076,0.775,4.494,1.848,4.494,4.928
	c0,2.83-1.826,4.541-4.494,4.975v0.662c0,0.32-0.434,0.615-0.869,0.615c-0.502,0-0.867-0.295-0.867-0.615V270.543z M485.504,260.002
	v-2.717c-1.029,0.205-1.461,0.73-1.461,1.277C484.043,259.225,484.635,259.637,485.504,260.002 M486.781,264.223v3.057
	c0.775-0.182,1.391-0.615,1.391-1.438C488.172,265.09,487.602,264.609,486.781,264.223"/>
<path fill="#FFD23C" d="M476.832,236.689l-3.34-6.291c-0.529-0.711-1.1-1.391-1.707-2.037l-11.031-6.584
	c-1.908-0.504-3.91-0.771-5.975-0.771c-12.887,0-23.336,10.447-23.336,23.336c0,2.064,0.27,4.066,0.771,5.973l6.584,11.033
	c0.645,0.605,1.326,1.176,2.037,1.707l6.291,3.34c2.396,0.83,4.973,1.283,7.652,1.283c12.889,0,23.334-10.449,23.334-23.336
	C478.115,241.662,477.662,239.086,476.832,236.689"/>
<path fill="#FFC305" d="M471.141,242.383l-2.57-7.061c-0.49-0.746-1.039-1.451-1.641-2.107l-12.15-5.35
	c-9.1,0-16.477,7.377-16.477,16.477l5.352,12.15c0.656,0.602,1.359,1.15,2.105,1.639l7.061,2.57
	c0.641,0.076,1.297,0.115,1.959,0.115c9.1,0,16.475-7.377,16.475-16.475C471.254,243.678,471.215,243.025,471.141,242.383"/>
<path fill="#FFE65A" d="M460.754,221.781l-28.535,28.533c1.131,4.285,3.451,8.084,6.586,11.029l32.977-32.979
	C468.834,225.232,465.037,222.912,460.754,221.781"/>
<path fill="#FFD23C" d="M454.779,227.865c-0.039,0-0.076,0.004-0.115,0.004l-16.357,16.357c0,0.039-0.004,0.076-0.004,0.115
	c0,4.811,2.064,9.139,5.352,12.15l23.275-23.275C463.918,229.93,459.59,227.865,454.779,227.865"/>
<path fill="#FFE65A" d="M440.836,263.055c1.896,1.414,4.016,2.543,6.295,3.334l29.693-29.697c-0.789-2.277-1.918-4.398-3.332-6.293
	L440.836,263.055z"/>
<path fill="#FFD23C" d="M452.82,260.697l18.314-18.314c-0.307-2.584-1.209-4.984-2.57-7.059l-22.803,22.805
	C447.838,259.488,450.238,260.391,452.82,260.697"/>
<path fill="#FFFFFF" d="M454.189,251.965c-2.736-0.092-4.973-1.506-4.973-2.967c0-0.775,0.684-1.916,1.551-1.916
	c0.957,0,1.734,1.346,3.422,1.643v-3.695c-2.098-0.799-4.563-1.781-4.563-4.701c0-2.898,2.145-4.289,4.563-4.633v-0.639
	c0-0.318,0.365-0.615,0.867-0.615c0.436,0,0.869,0.297,0.869,0.615v0.572c1.414,0.045,4.084,0.41,4.084,1.984
	c0,0.615-0.412,1.871-1.416,1.871c-0.752,0-1.186-0.73-2.668-0.844v3.33c2.076,0.777,4.494,1.85,4.494,4.93
	c0,2.83-1.826,4.541-4.494,4.973v0.664c0,0.318-0.434,0.615-0.869,0.615c-0.502,0-0.867-0.297-0.867-0.615V251.965z M454.42,241.424
	v-2.715c-1.029,0.205-1.461,0.729-1.461,1.277C452.959,240.648,453.551,241.059,454.42,241.424 M455.697,245.645v3.059
	c0.775-0.184,1.391-0.617,1.391-1.438C457.09,246.512,456.518,246.033,455.697,245.645"/>
<path fill="#FFE65A" d="M483.359,216.746c1.189,3.373,3.844,6.025,7.217,7.217c-3.373,1.191-6.027,3.846-7.217,7.217
	c-1.193-3.371-3.846-6.025-7.219-7.217C479.512,222.771,482.166,220.119,483.359,216.746"/>
<path fill="#FFE65A" d="M502.156,223.963c0.846,2.396,2.729,4.279,5.125,5.127c-2.396,0.848-4.279,2.73-5.125,5.127
	c-0.848-2.396-2.732-4.279-5.129-5.127C499.424,228.242,501.309,226.359,502.156,223.963"/>
<path fill="#FFE65A" d="M498.051,205.689c0.762,2.158,2.459,3.854,4.615,4.617c-2.156,0.762-3.854,2.459-4.615,4.615
	c-0.764-2.156-2.461-3.854-4.615-4.615C495.59,209.543,497.287,207.848,498.051,205.689"/>
<polygon fill="#FFD23C" points="457.5,329.535 425.105,331.965 428.361,319.496 457.5,319.496 "/>
<rect x="409.666" y="329.535" fill="#FFC305" width="47.834" height="4.859"/>
<rect x="409.666" y="319.496" fill="#FFC305" width="18.695" height="14.898"/>
<polygon fill="#FFD23C" points="417.759,348.441 419.352,358.139 448.488,358.139 449.943,348.033 "/>
<path fill="#FFC305" d="M449.105,357.764h-30.789c8.547,3.176,17.791,4.914,27.441,4.914c0.914,0,1.824-0.02,2.73-0.051
	L449.105,357.764z"/>
<path fill="#FFC305" d="M400.654,348.494c5.723,4.002,12.001,7.264,18.696,9.645v-10.359h-18.696V348.494z"/>
<path fill="#FFE65A" d="M466.578,348.197l-4.611,11.184l11.209-1.617c6.021-2.236,11.707-5.189,16.943-8.76L466.578,348.197z"/>
<path fill="#F9C535" d="M473.176,357.764h-23.566v4.818C457.84,362.184,465.764,360.518,473.176,357.764"/>
<path fill="#F9C535" d="M467.143,359.73v-11.951h-18.697v14.85C454.893,362.412,461.156,361.416,467.143,359.73"/>
<polygon fill="#FFD23C" points="448.467,344.146 417.444,346.576 419.329,334.107 448.467,334.107 "/>
<rect x="417.444" y="344.146" fill="#FFC305" width="31.022" height="4.859"/>
<path fill="#FFC305" d="M400.633,348.48c0.252,0.176,0.505,0.352,0.759,0.525h17.938v-14.898h-18.696V348.48z"/>
<polygon fill="#FFE65A" points="467.121,334.107 466.654,345.516 487.324,345.594 496.258,344.146 496.258,334.107 "/>
<path fill="#F9C535" d="M496.258,344.146h-47.836v4.859h41.699c2.121-1.447,4.168-2.998,6.137-4.643V344.146z"/>
<rect x="448.424" y="334.107" fill="#F9C535" width="18.697" height="14.898"/>
<path fill="#00B7F0" d="M79.156,0.995C46.254,0.999,18.113,21.374,6.654,50.192C6.617,50.28,6.583,50.37,6.547,50.46
	C0.693,65.343,6.061,82.3,19.328,91.235l44.709,35.221c19.292,15.195,45.744,17.986,67.549,6.689
	c4.548-2.355,8.309-5.031,10.586-8.145c9.479-12.961,15.055-28.957,15-46.26C157.032,35.903,121.994,0.989,79.156,0.995"/>
<path fill="#0091C8" d="M96.883,125.478c0.647-1.566,2.443-2.311,4.01-1.66c1.565,0.648,2.309,2.443,1.66,4.01
	c-0.649,1.566-2.444,2.309-4.011,1.66C96.977,128.839,96.234,127.042,96.883,125.478"/>
<path fill="#0091C8" d="M100.424,95.179c0.547,0.547,12.802,12.838,13.357,13.262c4.824,3.789,12.178,1.506,13.822-4.645
	l7.641-28.596c6.401-6.902,12.329-14.996,17.121-23.211c-6.077-16.463-17.55-30.311-32.273-39.404
	c-6.193,3.273-12.396,7.244-18.129,11.586c-5.396,4.088-8.734,7.252-9.084,7.551l-29.474,7.877
	c-6.529,1.746-8.669,9.891-3.926,14.635l6.472,6.473l6.369,6.369c-0.009,2.002,0.203,3.879,0.633,5.756l-9.437,9.436
	c-6.223-0.367-12.568,1.822-17.323,6.578c-2.224,2.223-5.949,1.469-7.212-1.408c-0.081-0.186-0.165-0.367-0.252-0.549
	c-0.027-0.057-0.055-0.107-0.085-0.158c-1.222-2.486-2.988-4.654-5.151-6.342c-2.119-1.652-2.988-4.494-2.074-7.021
	c0.715-1.979,1.043-4.143,0.891-6.4c-0.978-14.484-20.195-20.232-28.648-7.627c-12.863,52.029,63.369,108.906,104.867,91.994
	c12.006-4.893,23.115-12.988,31.743-23.889c5.789-7.316-4.348-16.525-11.081-10.07c-3.349,3.209-6.984,6.121-10.865,8.699
	c-1.578,1.047-3.565,1.051-5.257,0.199c-1.396-0.701-3.028,0.254-3.175,1.742c-0.187,1.896-1.291,3.582-3.032,4.355
	c-3.14,1.395-6.391,2.586-9.738,3.561c-1.848,0.539-3.827-0.084-5.052-1.57c-0.006-0.008-0.013-0.018-0.021-0.025
	c-2.922-3.531-7.106-6.039-11.765-6.885c-3.135-0.57-4.38-4.385-2.126-6.639c4.755-4.754,6.945-11.1,6.577-17.324l9.139-9.139
	C95.963,94.903,98.148,95.19,100.424,95.179"/>
<path fill="#0091C8" d="M44.472,77.786c2.188,0,3.959-1.773,3.959-3.961s-1.771-3.961-3.959-3.961s-3.961,1.773-3.961,3.961
	S42.285,77.786,44.472,77.786"/>
<path fill="#0091C8" d="M42.492,61.042c1.094,0,1.98-0.887,1.98-1.979c0-1.096-0.887-1.982-1.98-1.982s-1.98,0.887-1.98,1.982
	C40.511,60.155,41.398,61.042,42.492,61.042"/>
<path fill="#FFFFFF" d="M91.152,136.214c-2.817,0.529-5.669-0.686-7.385-2.984c-3.02-4.041-7.469-6.764-12.37-7.654
	c-3.137-0.57-4.38-4.383-2.126-6.639c8.827-8.826,8.827-23.139,0-31.967c-8.828-8.828-23.14-8.828-31.968,0
	c-2.223,2.223-5.948,1.471-7.212-1.408c-1.234-2.813-3.16-5.252-5.563-7.105c-2.125-1.641-2.908-4.447-1.998-6.973
	c0.715-1.977,1.041-4.137,0.889-6.393C22.9,57.376,16.691,51.122,8.98,50.554c-0.838-0.063-1.662-0.057-2.471,0.008
	c-3.452,8.813-5.348,18.404-5.348,28.439c0,43.08,34.924,78.004,78.005,78.004c10.381,0,20.285-2.033,29.344-5.713
	c0.035-0.729,0.019-1.467-0.059-2.213C107.547,140.353,99.237,134.7,91.152,136.214"/>
<path fill="#F5F0F0" d="M29.84,85.015c-0.965-2.014-4.046-0.639-3.194,1.424c0.246,0.598,0.568,1.098,0.988,1.42
	c2.403,1.854,4.329,4.295,5.563,7.107c1.264,2.879,4.99,3.631,7.213,1.408c8.826-8.828,23.139-8.828,31.968,0
	c1.338,1.34,2.471,2.807,3.405,4.359c-0.493-5.023-2.662-9.914-6.512-13.764c-8.828-8.828-23.14-8.828-31.968,0
	c-2.223,2.223-5.948,1.471-7.212-1.408C30.01,85.378,29.926,85.194,29.84,85.015"/>
<path fill="#F5F0F0" d="M72.377,128.341c-2.256,2.254-1.012,6.068,2.126,6.639c4.938,0.896,9.42,3.654,12.44,7.75
	c1.68,2.277,4.533,3.41,7.314,2.889c3.506-0.656,7.053,0.035,10.02,1.742c1.789,1.029,3.841-0.809,2.998-2.691
	c-2.693-6.025-9.352-9.695-16.066-8.465c-2.811,0.514-5.675-0.58-7.37-2.879c-1.79-2.426-4.093-4.381-6.697-5.758
	c-1.565-0.828-3.493-0.5-4.744,0.752L72.377,128.341z"/>
<path fill="#F5F0F0" d="M7.964,50.513c-0.166-0.002-0.331,0-0.495,0.004c-0.098,0.002-0.196,0.002-0.294,0.006
	c-0.223,0.01-0.445,0.021-0.666,0.039c-1.447,3.697-2.618,7.531-3.493,11.479c2.632-1.535,5.748-2.328,9.069-2.084
	c1.352,0.1,2.658,0.375,3.895,0.803c3.07,1.059,5.535-2.736,3.371-5.139c-0.094-0.102-0.19-0.201-0.287-0.301
	c-0.063-0.066-0.127-0.135-0.191-0.199c-0.094-0.096-0.191-0.186-0.287-0.277c-0.075-0.072-0.148-0.145-0.227-0.215
	c-0.092-0.084-0.187-0.166-0.28-0.248c-0.085-0.074-0.169-0.148-0.257-0.221c-0.09-0.076-0.182-0.15-0.274-0.223
	c-0.094-0.076-0.187-0.152-0.284-0.225c-0.088-0.066-0.178-0.133-0.268-0.199c-0.104-0.074-0.207-0.15-0.313-0.223
	c-0.086-0.061-0.174-0.119-0.262-0.176c-0.111-0.076-0.225-0.148-0.338-0.221c-0.085-0.053-0.17-0.105-0.256-0.156
	c-0.121-0.072-0.242-0.143-0.364-0.213c-0.083-0.047-0.166-0.094-0.25-0.139c-0.128-0.068-0.258-0.137-0.388-0.203
	c-0.081-0.041-0.163-0.082-0.246-0.121c-0.135-0.066-0.271-0.129-0.408-0.189c-0.081-0.037-0.161-0.074-0.243-0.107
	c-0.141-0.061-0.284-0.119-0.427-0.176c-0.08-0.031-0.16-0.063-0.24-0.094c-0.146-0.055-0.295-0.105-0.443-0.156
	c-0.08-0.027-0.16-0.057-0.24-0.082c-0.15-0.049-0.303-0.094-0.455-0.137c-0.081-0.023-0.161-0.049-0.242-0.07
	c-0.154-0.041-0.311-0.078-0.467-0.117c-0.081-0.018-0.161-0.039-0.243-0.059c-0.16-0.035-0.321-0.064-0.481-0.094
	c-0.08-0.016-0.16-0.033-0.24-0.047c-0.172-0.029-0.344-0.053-0.518-0.076c-0.07-0.01-0.142-0.023-0.214-0.031
	c-0.245-0.029-0.491-0.055-0.737-0.072c-0.254-0.02-0.507-0.029-0.758-0.037C8.136,50.515,8.05,50.515,7.964,50.513"/>
<path fill="#8757F3" d="M127.74,68.147l-12.94-12.939L96.603,87.019l7.476,18.83c4.763,4.762,12.895,2.58,14.635-3.928
	L127.74,68.147z"/>
<path fill="#6A2BC2" d="M104.816,106.511c2.963,2.379,6.531-1.967,3.725-4.527c-0.103-0.094-0.204-0.191-0.305-0.293
	c-2.113-2.111-1.612-5.643,0.985-7.117c0.065-0.037,0.128-0.072,0.193-0.109c8.585-4.912,14.797-13.113,17.35-22.668l0.976-3.648
	l-12.941-12.941L88.276,81.729l-4.157,4.158l13.488,13.488l6.472,6.471C104.317,106.087,104.563,106.306,104.816,106.511"/>
<path fill="#8757F3" d="M88.291,28.698L101.23,41.64L67.198,55.208l-16.608-2.85c-4.762-4.762-2.581-12.895,3.927-14.635
	L88.291,28.698z"/>
<path fill="#6A2BC2" d="M49.927,51.622c-2.379-2.963,1.967-6.531,4.527-3.725c0.094,0.104,0.192,0.205,0.291,0.305
	c2.114,2.113,5.645,1.613,7.119-0.986c0.036-0.064,0.073-0.129,0.109-0.191c4.912-8.586,13.112-14.797,22.669-17.352l3.646-0.975
	l12.941,12.941L74.707,68.163l-4.157,4.156L57.063,58.831l-6.472-6.473C50.352,52.122,50.13,51.876,49.927,51.622"/>
<path fill="#FEC502" d="M123.466,76.329c-21.871,21.873-39.542,20.264-51.434,8.373c-11.89-11.891-9.787-22.943,12.085-44.814
	s55.23-46.281,67.12-34.391C163.129,17.39,145.338,54.458,123.466,76.329"/>
<path fill="#FFA50A" d="M124.669,38.733c-0.964-1.594-2.095-2.979-3.35-4.158c-3.323-3.121-0.209-8.658,4.138-7.281
	c2.698,0.854,5.202,2.35,7.272,4.418l0.336,0.338c6.725,6.725,18.252,3.613,20.607-5.6c1.803-7.057,2.184-14.086-0.86-18.965
	c-7.181-11.477-28.521-3.525-40.543,2.666c-0.242,0.123-0.483,0.248-0.725,0.375l-0.001,0.002
	c-11.088,5.811-22.342,13.945-31.139,22.742c-21.871,21.871-20.263,39.541-8.373,51.432c1.958,1.959,4.074,3.635,6.34,4.977
	c-4.254-7.182-5.11-15.867-0.691-25.834c3.063-6.908,12.259-8.551,17.436-3.045c0.132,0.141,0.267,0.279,0.403,0.416
	c8.185,8.186,22.119,7.119,28.807-3.197C128.1,52.2,128.255,44.669,124.669,38.733"/>
<path fill="#8757F3" d="M148.816,39.888c6.66-14.541,8.765-28.049,2.422-34.391s-15.606,0.004-30.148,6.666L148.816,39.888z"/>
<path fill="#6A2BC2" d="M143.913,29.272l-4.188-4.189c-3.62-3.619-2.101-9.795,2.786-11.314c2.299-0.715,4.527-1.275,6.658-1.662
	c3.065-0.557,4.307-4.344,2.116-6.561c-0.016-0.016-0.03-0.033-0.047-0.049c-6.343-6.342-19.848-4.238-34.39,2.424l27.064,27.064
	C145.49,33.407,145.49,30.849,143.913,29.272"/>
<path fill="#FFFFFF" d="M111.636,26.554c10.241,0,18.546,8.303,18.546,18.547c0,10.242-8.305,18.545-18.546,18.545
	c-10.242,0-18.547-8.303-18.547-18.545C93.089,34.856,101.394,26.554,111.636,26.554"/>
<path fill="#F5F0F0" d="M44.043,127.155l-7.623,0.979c-1.47,0.189-2.722-1.063-2.534-2.533l0.979-7.623
	c0.978-7.615,4.452-14.691,9.882-20.119c5.361-5.361,14.054-5.361,19.416,0c5.361,5.361,5.361,14.055,0,19.416
	C58.734,122.702,51.659,126.179,44.043,127.155"/>
<path fill="#FEC502" d="M45.09,120.329l-10.53,1.352c0,0,8.033-22.416,13.463-27.844c0,0,8.479-7.953,13.619-5.383
	c1.287,0.645,2.494,1.504,3.568,2.576c5.361,5.361,5.361,14.055,0,19.416C59.781,115.876,52.706,119.351,45.09,120.329"/>
<path fill="#00B7F0" d="M120.909,54.372c-5.121,5.121-13.425,5.121-18.546,0c-5.12-5.121-2.839-10.473,2.282-15.594
	c4.482-4.482,9.116-7.992,14.206-4.631c0.729,0.48,1.417,1.039,2.058,1.68C126.029,40.948,126.029,49.251,120.909,54.372"/>
<rect x="56.504" y="75.813" transform="matrix(-0.7071 -0.7071 0.7071 -0.7071 54.611 187.6304)" fill="#6A2BC2" width="19.321" height="13.383"/>
<path fill="#8757F3" d="M75.821,101.642L65.439,91.261c-2.613-2.615-2.613-6.852,0-9.465s6.852-2.613,9.466,0l10.381,10.381
	L75.821,101.642z"/>
<path fill="#0091C8" d="M111.959,52.368c1.09-1.092,1.09-2.857,0-3.949l-3.977-3.975c-0.874-0.873-0.92-2.293-0.076-3.195
	c0.024-0.025,0.048-0.051,0.072-0.076c0.883-0.93,2.373-0.912,3.279-0.006l1.203,1.203c1.052,1.051,2.763,1.176,3.88,0.195
	c1.223-1.076,1.269-2.941,0.136-4.076c-0.503-0.502-0.159-1.355,0.552-1.381l0.076-0.002c1.899-0.053,2.529-2.576,0.864-3.486
	c-4.777-2.613-10.947-2.08-15.183,1.801c-5.542,5.078-5.682,13.693-0.424,18.951c0.36,0.361,0.737,0.695,1.126,1.004
	c0.763,0.605,1.839-0.139,1.535-1.064c-0.008-0.027-0.018-0.055-0.027-0.082c-0.587-1.828,1.656-3.219,3.015-1.861
	C109.101,53.458,110.868,53.458,111.959,52.368"/>
<path fill="#FFA50A" d="M45.794,91.03c-5.43,5.43-8.904,12.506-9.883,20.121l-1.352,10.529c2.118-0.271,3.787-1.932,4.074-4.047
	c0.182-1.338,0.42-2.73,0.884-4.463c0.601-2.248,3.403-3.012,5.048-1.367l1.634,1.635c1.296,1.295,3.395,1.295,4.688,0
	c1.295-1.295,1.295-3.395,0-4.688l-4.469-4.469c-1.133-1.133-1.222-2.939-0.207-4.18l0.022-0.027
	c1.159-1.416,3.287-1.523,4.58-0.229l1.534,1.533c1.295,1.295,3.393,1.295,4.688,0s1.295-3.395,0-4.688
	c-1.162-1.164-0.34-3.17,1.307-3.156c0.054,0.002,0.107,0.002,0.162,0.004c3.507,0.07,4.379-4.852,1.029-5.889
	C54.979,86.237,49.705,87.12,45.794,91.03"/>
<path fill="#FFFFFF" d="M90.782,121.681c1.693,0,3.067,1.375,3.067,3.068c0,1.695-1.374,3.068-3.067,3.068
	c-1.695,0-3.068-1.373-3.068-3.068C87.713,123.056,89.086,121.681,90.782,121.681"/>
<path fill="#FFFFFF" d="M102.819,124.165c1.009,0,1.825,0.818,1.825,1.826c0,1.01-0.816,1.826-1.825,1.826
	c-1.01,0-1.826-0.816-1.826-1.826C100.993,124.983,101.809,124.165,102.819,124.165"/>
<path fill="#FFFFFF" d="M35.582,67.991c2.188,0,3.96,1.771,3.96,3.959s-1.772,3.961-3.96,3.961s-3.96-1.773-3.96-3.961
	S33.394,67.991,35.582,67.991"/>
<path fill="#FFFFFF" d="M33.601,55.208c1.094,0,1.98,0.885,1.98,1.979s-0.887,1.98-1.98,1.98c-1.093,0-1.98-0.887-1.98-1.98
	S32.508,55.208,33.601,55.208"/>
<g>
</g>
<g>
</g>
<g>
</g>
<g>
</g>
<g>
</g>
<g>
</g>
<g>
</g>
<g>
</g>
<g>
</g>
<g>
</g>
<g>
</g>
<g>
</g>
<g>
</g>
<g>
</g>
<g>
</g>
</svg>
