<?xml version="1.0" encoding="utf-8"?>
<!-- Generator: Adobe Illustrator 16.0.0, SVG Export Plug-In . SVG Version: 6.00 Build 0)  -->
<!DOCTYPE svg PUBLIC "-//W3C//DTD SVG 1.1//EN" "http://www.w3.org/Graphics/SVG/1.1/DTD/svg11.dtd">
<svg version="1.1" id="Layer_1" xmlns="http://www.w3.org/2000/svg" xmlns:xlink="http://www.w3.org/1999/xlink" x="0px" y="0px"
	 width="138.333px" height="139.667px" viewBox="0 0 138.333 139.667" enable-background="new 0 0 138.333 139.667"
	 xml:space="preserve">
<g>
	<defs>
		<rect id="SVGID_1_" x="-260" y="-1591.333" width="1312.329" height="3726.16"/>
	</defs>
	<clipPath id="SVGID_2_">
		<use xlink:href="#SVGID_1_"  overflow="visible"/>
	</clipPath>
	<polygon clip-path="url(#SVGID_2_)" fill="#12E3FF" points="68.885,98.933 80.302,98.933 74.593,83.231 	"/>
	<path clip-path="url(#SVGID_2_)" fill="#12E3FF" d="M74.594,110.03c4.047-0.005,7.58-2.742,8.598-6.659H65.996
		C67.012,107.288,70.547,110.025,74.594,110.03"/>
	<polygon clip-path="url(#SVGID_2_)" fill="#12E3FF" points="114.545,83.231 108.837,98.933 120.254,98.933 	"/>
	<path clip-path="url(#SVGID_2_)" fill="#12E3FF" d="M94.569,54.541c-23.291,0-42.17,18.881-42.17,42.172
		c0,23.29,18.879,42.171,42.17,42.171s42.173-18.881,42.173-42.171C136.714,73.433,117.85,54.567,94.569,54.541 M114.545,114.469
		c-7.352-0.008-13.309-5.966-13.316-13.317c0-1.225,0.992-2.219,2.217-2.219h0.002h0.664l7.265-19.977H96.79v42.172h11.098
		c1.225,0,2.219,0.992,2.219,2.22c0,1.226-0.994,2.219-2.219,2.219H81.252c-1.227,0-2.22-0.993-2.22-2.219
		c0-1.228,0.993-2.22,2.22-2.22H92.35V78.956H77.762l7.264,19.977h0.666c1.226-0.001,2.219,0.992,2.22,2.218v0.001
		c0,7.355-5.964,13.317-13.318,13.317s-13.317-5.962-13.317-13.317c0-1.225,0.994-2.219,2.219-2.219h0.002h0.664l8.347-22.954
		c0.351-0.854,1.165-1.424,2.086-1.461h39.952c0.921,0.038,1.734,0.608,2.086,1.461l8.348,22.954h0.664
		c1.226-0.001,2.219,0.992,2.219,2.218v0.001C127.856,108.503,121.897,114.461,114.545,114.469"/>
	<path clip-path="url(#SVGID_2_)" fill="#12E3FF" d="M114.545,110.03c4.047-0.005,7.581-2.742,8.598-6.659h-17.195
		C106.965,107.288,110.499,110.025,114.545,110.03"/>
</g>
<g>
	<defs>
		<path id="SVGID_3_" d="M5.788,87.835V7.931c0.002-1.226,0.994-2.219,2.219-2.22h97.66c1.226,0.001,2.219,0.994,2.221,2.22v79.904
			c-0.002,1.225-0.995,2.217-2.221,2.219H50.179c-0.544,0-1.069,0.2-1.476,0.562l-16.281,14.472V92.273
			c0-1.226-0.993-2.218-2.219-2.22l0,0H8.006C6.782,90.052,5.79,89.06,5.788,87.835 M8.006,1.273
			C4.331,1.276,1.353,4.255,1.348,7.931v79.904c0.005,3.676,2.982,6.654,6.658,6.658h19.978v15.537
			c0.001,1.227,0.997,2.219,2.224,2.218c0.541-0.001,1.065-0.2,1.471-0.559l19.345-17.196h54.644
			c3.676-0.004,6.655-2.982,6.66-6.658V7.931c-0.005-3.676-2.984-6.655-6.66-6.658H8.006z"/>
	</defs>
	<clipPath id="SVGID_4_">
		<use xlink:href="#SVGID_3_"  overflow="visible"/>
	</clipPath>
	
		<linearGradient id="SVGID_5_" gradientUnits="userSpaceOnUse" x1="-542.0498" y1="1960.501" x2="-541.0498" y2="1960.501" gradientTransform="matrix(100.5343 100.5343 100.5343 -100.5343 -142600.9531 251593.9219)">
		<stop  offset="0" style="stop-color:#3B42ED"/>
		<stop  offset="1" style="stop-color:#0000AF"/>
	</linearGradient>
	<polygon clip-path="url(#SVGID_4_)" fill="url(#SVGID_5_)" points="56.836,-54.216 167.814,56.761 56.836,167.738 -54.14,56.761 	
		"/>
</g>
<g>
	<defs>
		<path id="SVGID_6_" d="M14.667,47.883c0-9.807,7.949-17.758,17.756-17.758s17.757,7.951,17.757,17.758
			c-0.013,9.802-7.955,17.745-17.757,17.757C22.616,65.64,14.667,57.689,14.667,47.883 M10.226,47.883
			c0,12.259,9.938,22.194,22.196,22.194c12.259,0,22.195-9.936,22.195-22.194c-0.014-12.253-9.943-22.182-22.195-22.195
			C20.165,25.688,10.226,35.624,10.226,47.883"/>
	</defs>
	<clipPath id="SVGID_7_">
		<use xlink:href="#SVGID_6_"  overflow="visible"/>
	</clipPath>
	
		<linearGradient id="SVGID_8_" gradientUnits="userSpaceOnUse" x1="-542.0498" y1="1960.5449" x2="-541.0498" y2="1960.5449" gradientTransform="matrix(100.5343 100.5343 100.5343 -100.5343 -142613.2031 251606.125)">
		<stop  offset="0" style="stop-color:#3B42ED"/>
		<stop  offset="1" style="stop-color:#0000AF"/>
	</linearGradient>
	<polygon clip-path="url(#SVGID_7_)" fill="url(#SVGID_8_)" points="32.422,3.491 76.813,47.882 32.422,92.273 -11.968,47.882 	"/>
</g>
<g>
	<defs>
		<path id="SVGID_9_" d="M63.497,47.883c0-9.807,7.949-17.758,17.756-17.758s17.756,7.951,17.756,17.758
			c-0.01,9.802-7.953,17.745-17.756,17.757C71.446,65.64,63.497,57.689,63.497,47.883 M59.057,47.883
			c0,12.259,9.938,22.194,22.195,22.194s22.195-9.936,22.195-22.194c-0.014-12.253-9.943-22.182-22.195-22.195
			C68.995,25.688,59.057,35.624,59.057,47.883"/>
	</defs>
	<clipPath id="SVGID_10_">
		<use xlink:href="#SVGID_9_"  overflow="visible"/>
	</clipPath>
	
		<linearGradient id="SVGID_11_" gradientUnits="userSpaceOnUse" x1="-542.0508" y1="1960.5439" x2="-541.0497" y2="1960.5439" gradientTransform="matrix(100.5343 100.5343 100.5343 -100.5343 -142588.7031 251581.7188)">
		<stop  offset="0" style="stop-color:#3B42ED"/>
		<stop  offset="1" style="stop-color:#0000AF"/>
	</linearGradient>
	<polygon clip-path="url(#SVGID_10_)" fill="url(#SVGID_11_)" points="81.252,3.492 125.643,47.882 81.252,92.272 36.862,47.882 	
		"/>
</g>
<g>
	<defs>
		<path id="SVGID_12_" d="M37.512,39.654l-5.09,5.09l-5.09-5.09c-0.875-0.856-2.281-0.841-3.138,0.035
			c-0.844,0.862-0.844,2.241,0,3.104l5.089,5.09l-5.089,5.089c-0.862,0.871-0.853,2.277,0.019,3.139
			c0.865,0.854,2.256,0.854,3.119,0l5.09-5.089l5.09,5.089c0.873,0.859,2.279,0.846,3.137-0.028c0.85-0.864,0.85-2.247,0-3.11
			l-5.088-5.089l5.089-5.09c0.867-0.866,0.867-2.271,0.001-3.138c0,0-0.001,0-0.002-0.001h0.001c-0.433-0.433-1.001-0.65-1.569-0.65
			C38.513,39.004,37.946,39.222,37.512,39.654"/>
	</defs>
	<clipPath id="SVGID_13_">
		<use xlink:href="#SVGID_12_"  overflow="visible"/>
	</clipPath>
	
		<linearGradient id="SVGID_14_" gradientUnits="userSpaceOnUse" x1="-542.0488" y1="1960.5449" x2="-541.0515" y2="1960.5449" gradientTransform="matrix(100.5343 100.5343 100.5343 -100.5343 -142613.2031 251606.125)">
		<stop  offset="0" style="stop-color:#3B42ED"/>
		<stop  offset="1" style="stop-color:#0000AF"/>
	</linearGradient>
	<polygon clip-path="url(#SVGID_13_)" fill="url(#SVGID_14_)" points="32.424,29.706 50.603,47.884 32.424,66.063 14.247,47.884 	
		"/>
</g>
<g>
	<defs>
		<path id="SVGID_15_" d="M90.543,39.935L80.97,53.337l-7.027-7.023c-0.874-0.859-2.278-0.848-3.138,0.028
			c-0.848,0.863-0.848,2.247,0,3.11l8.878,8.878c0.866,0.867,2.272,0.867,3.139,0.001c0.087-0.087,0.166-0.181,0.237-0.279
			l11.098-15.539c0.711-0.998,0.477-2.384-0.523-3.095c-0.391-0.276-0.84-0.411-1.284-0.411
			C91.659,39.007,90.977,39.329,90.543,39.935"/>
	</defs>
	<clipPath id="SVGID_16_">
		<use xlink:href="#SVGID_15_"  overflow="visible"/>
	</clipPath>
	
		<linearGradient id="SVGID_17_" gradientUnits="userSpaceOnUse" x1="-542.0488" y1="1960.5225" x2="-541.051" y2="1960.5225" gradientTransform="matrix(100.5343 100.5343 100.5343 -100.5343 -142586.5781 251579.4844)">
		<stop  offset="0" style="stop-color:#3B42ED"/>
		<stop  offset="1" style="stop-color:#0000AF"/>
	</linearGradient>
	<polygon clip-path="url(#SVGID_16_)" fill="url(#SVGID_17_)" points="82.413,26.552 104.961,49.103 82.413,71.652 59.862,49.103 	
		"/>
</g>
<g>
	<defs>
		<path id="SVGID_18_" d="M43.52,16.808c-1.227,0-2.221,0.994-2.221,2.22c0,1.226,0.994,2.22,2.221,2.22h26.635
			c1.225,0,2.219-0.994,2.219-2.22c0-1.226-0.994-2.22-2.219-2.22H43.52z"/>
	</defs>
	<clipPath id="SVGID_19_">
		<use xlink:href="#SVGID_18_"  overflow="visible"/>
	</clipPath>
	
		<linearGradient id="SVGID_20_" gradientUnits="userSpaceOnUse" x1="-542.0498" y1="1960.5449" x2="-541.0498" y2="1960.5449" gradientTransform="matrix(100.5343 100.5343 100.5343 -100.5343 -142586.5781 251579.4844)">
		<stop  offset="0" style="stop-color:#3B42ED"/>
		<stop  offset="1" style="stop-color:#0000AF"/>
	</linearGradient>
	<polygon clip-path="url(#SVGID_19_)" fill="url(#SVGID_20_)" points="56.836,1.271 74.594,19.028 56.836,36.785 39.081,19.028 	"/>
</g>
<g>
	<defs>
		<path id="SVGID_21_" d="M25.764,74.519c-1.227,0-2.221,0.992-2.221,2.218c0,1.227,0.994,2.22,2.221,2.22h13.316
			c1.226,0,2.219-0.993,2.219-2.22c0-1.226-0.993-2.218-2.219-2.218H25.764z"/>
	</defs>
	<clipPath id="SVGID_22_">
		<use xlink:href="#SVGID_21_"  overflow="visible"/>
	</clipPath>
	
		<linearGradient id="SVGID_23_" gradientUnits="userSpaceOnUse" x1="-542.0498" y1="1960.5449" x2="-541.0498" y2="1960.5449" gradientTransform="matrix(100.5343 100.5343 100.5343 -100.5343 -142627.5781 251620.5469)">
		<stop  offset="0" style="stop-color:#3B42ED"/>
		<stop  offset="1" style="stop-color:#0000AF"/>
	</linearGradient>
	<polygon clip-path="url(#SVGID_22_)" fill="url(#SVGID_23_)" points="32.422,65.641 43.519,76.737 32.422,87.834 21.325,76.737 	
		"/>
</g>
<g>
	<defs>
		<path id="SVGID_24_" d="M74.594,74.519c-1.227,0-2.221,0.992-2.221,2.218c0,1.227,0.994,2.22,2.221,2.22h13.318
			c1.225,0,2.219-0.993,2.219-2.22c0-1.226-0.994-2.218-2.219-2.218H74.594z"/>
	</defs>
	<clipPath id="SVGID_25_">
		<use xlink:href="#SVGID_24_"  overflow="visible"/>
	</clipPath>
	
		<linearGradient id="SVGID_26_" gradientUnits="userSpaceOnUse" x1="-542.0503" y1="1960.5449" x2="-541.0503" y2="1960.5449" gradientTransform="matrix(100.5343 100.5343 100.5343 -100.5343 -142603.2031 251596.1406)">
		<stop  offset="0" style="stop-color:#3B42ED"/>
		<stop  offset="1" style="stop-color:#0000AF"/>
	</linearGradient>
	<polygon clip-path="url(#SVGID_25_)" fill="url(#SVGID_26_)" points="81.252,65.64 92.35,76.737 81.252,87.835 70.155,76.737 	"/>
</g>
<g>
</g>
<g>
</g>
<g>
</g>
<g>
</g>
<g>
</g>
<g>
</g>
<g>
</g>
<g>
</g>
<g>
</g>
<g>
</g>
<g>
</g>
<g>
</g>
<g>
</g>
<g>
</g>
<g>
</g>
</svg>
