<?xml version="1.0" encoding="utf-8"?>
<!-- Generator: Adobe Illustrator 16.0.0, SVG Export Plug-In . SVG Version: 6.00 Build 0)  -->
<!DOCTYPE svg PUBLIC "-//W3C//DTD SVG 1.1//EN" "http://www.w3.org/Graphics/SVG/1.1/DTD/svg11.dtd">
<svg version="1.1" id="Layer_1" xmlns="http://www.w3.org/2000/svg" xmlns:xlink="http://www.w3.org/1999/xlink" x="0px" y="0px"
	 width="136px" height="135.667px" viewBox="0 0 136 135.667" enable-background="new 0 0 136 135.667" xml:space="preserve">
<g>
	<defs>
		<rect id="SVGID_1_" x="-260.333" y="-1215" width="1312.329" height="3726.16"/>
	</defs>
	<clipPath id="SVGID_2_">
		<use xlink:href="#SVGID_1_"  overflow="visible"/>
	</clipPath>
	<path clip-path="url(#SVGID_2_)" fill="#12E3FF" d="M127.013,44.209H51.221c-3.486,0.004-6.312,2.829-6.316,6.315v75.792
		c0.004,3.487,2.83,6.313,6.316,6.317h75.792c3.487-0.004,6.313-2.83,6.316-6.317V50.524
		C133.327,47.038,130.5,44.213,127.013,44.209 M82.447,102.221l-8.421,12.633c-0.019,0.028-0.067,0.049-0.098,0.076
		c-0.639,0.913-1.898,1.135-2.811,0.496c-0.193-0.135-0.361-0.303-0.496-0.496c-0.03-0.027-0.079-0.048-0.098-0.076l-8.422-12.633
		c-0.654-0.961-0.404-2.271,0.557-2.925c0.962-0.653,2.271-0.404,2.925,0.557c0.008,0.012,0.015,0.022,0.022,0.033l4.564,6.845
		V63.157c0-1.163,0.942-2.105,2.106-2.105c1.162,0,2.105,0.942,2.105,2.105v43.573l4.564-6.845c0.654-0.962,1.963-1.212,2.925-0.558
		C82.818,99.974,83.075,101.26,82.447,102.221 M115.549,77.541c-0.967,0.645-2.273,0.383-2.919-0.584l-4.565-6.847v43.576
		c0,1.162-0.942,2.105-2.105,2.105s-2.105-0.943-2.105-2.105V70.11l-4.565,6.847c-0.636,0.973-1.941,1.246-2.914,0.61
		s-1.246-1.941-0.61-2.914c0.007-0.01,0.014-0.021,0.021-0.032l8.421-12.632c0.722-0.968,2.091-1.167,3.058-0.446
		c0.169,0.127,0.32,0.276,0.446,0.446l8.421,12.632C116.778,75.589,116.518,76.895,115.549,77.541"/>
</g>
<g>
	<defs>
		<path id="SVGID_3_" d="M49.078,82.455c1.808,0.631,3.231,2.052,3.861,3.86H41.083C42.225,83.042,45.804,81.313,49.078,82.455
			 M49.116,60.496v-3.549c6.835,0.45,13.335,3.119,18.511,7.604l-2.554,2.555c-0.81,0.835-0.791,2.168,0.044,2.978
			c0.817,0.792,2.116,0.792,2.932-0.001l2.569-2.568c4.639,5.218,7.407,11.833,7.866,18.8H57.326
			c-0.515-2.447-1.887-4.629-3.869-6.155l5.878-11.858c0.518-1.042,0.091-2.304-0.951-2.821c-1.041-0.517-2.305-0.091-2.821,0.951
			l-5.874,11.85c-0.872-0.245-1.773-0.376-2.678-0.388c-5,0.007-9.307,3.524-10.314,8.421H15.538
			c0.459-6.967,3.227-13.582,7.866-18.8l2.569,2.568c0.835,0.81,2.168,0.79,2.978-0.045c0.792-0.816,0.792-2.116,0-2.932
			l-2.555-2.555c5.175-4.485,11.676-7.154,18.51-7.604v3.549c0,1.164,0.942,2.106,2.104,2.106
			C48.173,62.602,49.116,61.66,49.116,60.496 M7.008,84.21V23.155h80.004V84.21c-0.001,1.163-0.943,2.104-2.106,2.105h-2.212
			C81.558,66.608,64.66,51.554,44.952,52.69c-18.12,1.046-32.579,15.506-33.625,33.625H9.113C7.953,86.314,7.009,85.373,7.008,84.21
			 M7.008,8.418C7.01,7.256,7.953,6.314,9.113,6.313h75.793c1.162,0.001,2.104,0.942,2.106,2.104v10.526H7.008V8.418z M9.113,2.101
			c-3.486,0.004-6.311,2.83-6.315,6.317V84.21c0.004,3.487,2.829,6.313,6.315,6.316h75.793c3.487-0.004,6.313-2.829,6.316-6.316
			V8.418c-0.003-3.487-2.829-6.313-6.316-6.317H9.113z"/>
	</defs>
	<clipPath id="SVGID_4_">
		<use xlink:href="#SVGID_3_"  overflow="visible"/>
	</clipPath>
	
		<linearGradient id="SVGID_5_" gradientUnits="userSpaceOnUse" x1="-539.9512" y1="1958.5986" x2="-538.9512" y2="1958.5986" gradientTransform="matrix(95.2886 95.2886 95.2886 -95.2886 -135176.9375 238086.3594)">
		<stop  offset="0" style="stop-color:#3B42ED"/>
		<stop  offset="1" style="stop-color:#0000AF"/>
	</linearGradient>
	<polygon clip-path="url(#SVGID_4_)" fill="url(#SVGID_5_)" points="47.011,-42.111 135.435,46.313 47.01,134.738 -41.414,46.313 	
		"/>
</g>
<g>
	<defs>
		<path id="SVGID_6_" d="M26.604,29.736c-0.026,0.024-0.05,0.049-0.073,0.074l-6.258,6.638c-0.79,0.853-0.739,2.186,0.115,2.975
			c0.841,0.781,2.154,0.743,2.949-0.086l2.619-2.78v9.138c0,1.163,0.943,2.104,2.106,2.104s2.105-0.941,2.105-2.104v-9.174
			l2.685,2.825c0.802,0.842,2.135,0.875,2.978,0.072c0.842-0.801,0.875-2.133,0.073-2.976l-6.315-6.639
			c-0.415-0.433-0.97-0.652-1.526-0.652C27.539,29.151,27.014,29.345,26.604,29.736"/>
	</defs>
	<clipPath id="SVGID_7_">
		<use xlink:href="#SVGID_6_"  overflow="visible"/>
	</clipPath>
	
		<linearGradient id="SVGID_8_" gradientUnits="userSpaceOnUse" x1="-539.9512" y1="1958.5977" x2="-538.9512" y2="1958.5977" gradientTransform="matrix(95.2886 95.2886 95.2886 -95.2886 -135182.4375 238091.9063)">
		<stop  offset="0" style="stop-color:#3B42ED"/>
		<stop  offset="1" style="stop-color:#0000AF"/>
	</linearGradient>
	<polygon clip-path="url(#SVGID_7_)" fill="url(#SVGID_8_)" points="28.094,20.54 46.03,38.476 28.094,56.411 10.159,38.476 	"/>
</g>
<g>
	<defs>
		<path id="SVGID_9_" d="M63.854,31.254v9.173l-2.685-2.823c-0.802-0.842-2.135-0.876-2.977-0.074
			c-0.843,0.802-0.876,2.134-0.074,2.977l6.316,6.64c0.801,0.842,2.134,0.875,2.976,0.073c0.028-0.026,0.055-0.053,0.081-0.081
			l6.256-6.639c0.796-0.847,0.754-2.179-0.094-2.975c-0.845-0.794-2.172-0.755-2.97,0.087v0.001l-2.619,2.779v-9.137
			c0-1.163-0.942-2.105-2.105-2.105C64.796,29.148,63.854,30.091,63.854,31.254"/>
	</defs>
	<clipPath id="SVGID_10_">
		<use xlink:href="#SVGID_9_"  overflow="visible"/>
	</clipPath>
	
		<linearGradient id="SVGID_11_" gradientUnits="userSpaceOnUse" x1="-539.9512" y1="1958.5977" x2="-538.9512" y2="1958.5977" gradientTransform="matrix(95.2886 95.2886 95.2886 -95.2886 -135163.5625 238072.9688)">
		<stop  offset="0" style="stop-color:#3B42ED"/>
		<stop  offset="1" style="stop-color:#0000AF"/>
	</linearGradient>
	<polygon clip-path="url(#SVGID_10_)" fill="url(#SVGID_11_)" points="65.929,20.535 83.979,38.585 65.929,56.635 47.879,38.585 	
		"/>
</g>
<g>
</g>
<g>
</g>
<g>
</g>
<g>
</g>
<g>
</g>
<g>
</g>
<g>
</g>
<g>
</g>
<g>
</g>
<g>
</g>
<g>
</g>
<g>
</g>
<g>
</g>
<g>
</g>
<g>
</g>
</svg>
