<?xml version="1.0" encoding="utf-8"?>
<!-- Generator: Adobe Illustrator 16.0.0, SVG Export Plug-In . SVG Version: 6.00 Build 0)  -->
<!DOCTYPE svg PUBLIC "-//W3C//DTD SVG 1.1//EN" "http://www.w3.org/Graphics/SVG/1.1/DTD/svg11.dtd">
<svg version="1.1" id="Layer_1" xmlns="http://www.w3.org/2000/svg" xmlns:xlink="http://www.w3.org/1999/xlink" x="0px" y="0px"
	 width="136px" height="135.667px" viewBox="0 0 136 135.667" enable-background="new 0 0 136 135.667" xml:space="preserve">
<g>
	<defs>
		<rect id="SVGID_1_" x="-256" y="-1397" width="1312.329" height="3726.16"/>
	</defs>
	<clipPath id="SVGID_2_">
		<use xlink:href="#SVGID_1_"  overflow="visible"/>
	</clipPath>
	<path clip-path="url(#SVGID_2_)" fill="#12E3FF" d="M130.859,121.924c-0.554,0.245-1.185,0.245-1.739,0l-8.781-3.899l-8.774,3.899
		c-0.556,0.245-1.187,0.245-1.741-0.001l-8.766-3.898l-8.765,3.898c-0.554,0.247-1.187,0.247-1.741,0l-8.767-3.898l-8.768,3.898
		c-0.554,0.247-1.187,0.247-1.741,0l-2.339-1.04v7.652c0.004,3.549,2.88,6.425,6.427,6.429h51.422
		c3.55-0.004,6.425-2.88,6.429-6.429v-7.656L130.859,121.924z"/>
	<path clip-path="url(#SVGID_2_)" fill="#12E3FF" d="M80.914,109.438c0.554-0.248,1.187-0.248,1.741,0l8.767,3.898l8.765-3.898
		c0.554-0.248,1.187-0.248,1.74,0l8.766,3.898l8.775-3.9c0.555-0.244,1.186-0.244,1.74,0l8.781,3.9l3.224-1.432V77.177
		c-0.002-2.075-1.004-4.022-2.69-5.231l-25.71-18.363c-2.235-1.598-5.238-1.598-7.473-0.001L71.627,71.945l-0.001,0.002
		c-1.686,1.208-2.688,3.154-2.69,5.229v34.731l3.209,1.428L80.914,109.438z M101.075,62.116c4.141,0,7.499,3.357,7.499,7.499
		s-3.358,7.499-7.499,7.499c-4.142,0-7.499-3.357-7.499-7.499C93.581,65.476,96.936,62.121,101.075,62.116 M79.648,85.685H122.5
		c1.184,0,2.143,0.959,2.143,2.142c0,1.184-0.959,2.144-2.143,2.144H79.648c-1.183,0-2.143-0.96-2.143-2.144
		C77.505,86.644,78.465,85.685,79.648,85.685 M79.648,98.54H122.5c1.184,0,2.143,0.959,2.143,2.143c0,1.183-0.959,2.143-2.143,2.143
		H79.648c-1.183,0-2.143-0.96-2.143-2.143C77.505,99.499,78.465,98.54,79.648,98.54"/>
</g>
<g>
	<defs>
		<path id="SVGID_3_" d="M45.203,9.283c5.193-3.831,12.277-3.831,17.469,0c3.254,2.398,7.192,3.689,11.233,3.681
			c6.465,0.007,12.183,4.197,14.133,10.362c1.234,3.867,3.664,7.243,6.941,9.639c5.228,3.838,7.405,10.598,5.398,16.767
			c-1.254,3.872-1.254,8.042,0,11.914c2.007,6.169-0.17,12.927-5.398,16.765c-3.277,2.396-5.707,5.771-6.941,9.639
			c-1.95,6.164-7.668,10.356-14.133,10.361c-4.041-0.006-7.979,1.284-11.233,3.682c-5.192,3.83-12.275,3.83-17.469,0
			c-3.253-2.397-7.19-3.688-11.232-3.682c-6.466-0.005-12.183-4.197-14.134-10.361c-1.233-3.867-3.664-7.242-6.94-9.639
			c-5.229-3.838-7.406-10.596-5.399-16.765c1.254-3.872,1.254-8.042,0-11.914c-2.007-6.169,0.17-12.929,5.399-16.767
			c3.276-2.396,5.707-5.771,6.94-9.639c1.951-6.165,7.668-10.355,14.134-10.362c0.012,0,0.023,0.001,0.035,0.001
			C38.036,12.965,41.959,11.675,45.203,9.283 M42.706,5.817c-2.529,1.865-5.592,2.869-8.735,2.864
			c-8.312,0.007-15.664,5.396-18.173,13.321c-0.959,3.008-2.849,5.633-5.397,7.497C3.679,34.434,0.88,43.124,3.459,51.055
			c0.977,3.012,0.977,6.254,0,9.267c-2.579,7.931,0.22,16.621,6.942,21.556c2.548,1.863,4.438,4.489,5.397,7.497
			c2.509,7.925,9.861,13.314,18.173,13.321c3.143-0.004,6.206,0.999,8.735,2.865c6.678,4.923,15.785,4.923,22.463,0
			c2.53-1.866,5.592-2.869,8.736-2.865c8.312-0.007,15.664-5.396,18.172-13.321c0.96-3.008,2.85-5.634,5.398-7.497
			c6.722-4.935,9.52-13.625,6.941-21.555c-0.976-3.014-0.976-6.256,0-9.268c2.579-7.931-0.219-16.621-6.941-21.556
			c-2.548-1.864-4.438-4.489-5.398-7.497c-2.508-7.925-9.86-13.313-18.172-13.321c-3.144,0.005-6.206-0.999-8.736-2.864
			c-3.339-2.462-7.285-3.694-11.231-3.694C49.991,2.123,46.045,3.355,42.706,5.817"/>
	</defs>
	<clipPath id="SVGID_4_">
		<use xlink:href="#SVGID_3_"  overflow="visible"/>
	</clipPath>
	
		<linearGradient id="SVGID_5_" gradientUnits="userSpaceOnUse" x1="-540.4873" y1="1959.5234" x2="-539.4877" y2="1959.5234" gradientTransform="matrix(85.4814 85.4814 85.4814 -85.4814 -121289.0469 213719.0781)">
		<stop  offset="0" style="stop-color:#3B42ED"/>
		<stop  offset="1" style="stop-color:#0000AF"/>
	</linearGradient>
	<polygon clip-path="url(#SVGID_4_)" fill="url(#SVGID_5_)" points="53.938,-50.935 161.174,56.303 53.938,163.541 -53.3,56.303 	
		"/>
</g>
<g>
	<defs>
		<path id="SVGID_6_" d="M62.717,29.316c-0.002,0.007-0.006,0.015-0.009,0.023L41.925,79.305c-0.455,1.088,0.052,2.338,1.135,2.805
			c1.076,0.455,2.316-0.051,2.772-1.125c0.002-0.006,0.005-0.014,0.007-0.021l20.784-49.965c0.454-1.088-0.052-2.339-1.136-2.804
			c-0.269-0.114-0.548-0.168-0.823-0.168C63.841,28.026,63.059,28.51,62.717,29.316"/>
	</defs>
	<clipPath id="SVGID_7_">
		<use xlink:href="#SVGID_6_"  overflow="visible"/>
	</clipPath>
	
		<linearGradient id="SVGID_8_" gradientUnits="userSpaceOnUse" x1="-540.4878" y1="1959.5264" x2="-539.4878" y2="1959.5264" gradientTransform="matrix(85.4814 85.4814 85.4814 -85.4814 -121288.6719 213718.6406)">
		<stop  offset="0" style="stop-color:#3B42ED"/>
		<stop  offset="1" style="stop-color:#0000AF"/>
	</linearGradient>
	<polygon clip-path="url(#SVGID_7_)" fill="url(#SVGID_8_)" points="54.273,15.223 94.346,55.295 54.273,95.368 14.201,55.295 	"/>
</g>
<g>
	<defs>
		<path id="SVGID_9_" d="M32.844,38.607c0-4.756,3.168-8.625,7.06-8.625c3.893,0,7.059,3.869,7.059,8.625
			c0,4.755-3.166,8.624-7.059,8.624C36.012,47.231,32.844,43.362,32.844,38.607 M28.598,38.607c0,7.117,5.071,12.908,11.306,12.908
			c6.234,0,11.306-5.791,11.306-12.908s-5.072-12.909-11.306-12.909C33.669,25.698,28.598,31.49,28.598,38.607"/>
	</defs>
	<clipPath id="SVGID_10_">
		<use xlink:href="#SVGID_9_"  overflow="visible"/>
	</clipPath>
	
		<linearGradient id="SVGID_11_" gradientUnits="userSpaceOnUse" x1="-540.4878" y1="1959.5273" x2="-539.4878" y2="1959.5273" gradientTransform="matrix(85.4814 85.4814 85.4814 -85.4814 -121287.5469 213717.5625)">
		<stop  offset="0" style="stop-color:#3B42ED"/>
		<stop  offset="1" style="stop-color:#0000AF"/>
	</linearGradient>
	<polygon clip-path="url(#SVGID_10_)" fill="url(#SVGID_11_)" points="39.904,14.393 64.118,38.606 39.904,62.821 15.689,38.606 	
		"/>
</g>
<g>
	<defs>
		<path id="SVGID_12_" d="M60.913,72.768c0-4.754,3.166-8.623,7.059-8.623s7.059,3.869,7.059,8.623c0,4.757-3.166,8.627-7.059,8.627
			S60.913,77.524,60.913,72.768 M56.666,72.768c0,7.119,5.072,12.91,11.306,12.91c6.235,0,11.306-5.791,11.306-12.91
			c0-7.117-5.071-12.907-11.306-12.907C61.738,59.86,56.666,65.65,56.666,72.768"/>
	</defs>
	<clipPath id="SVGID_13_">
		<use xlink:href="#SVGID_12_"  overflow="visible"/>
	</clipPath>
	
		<linearGradient id="SVGID_14_" gradientUnits="userSpaceOnUse" x1="-540.4863" y1="1959.5273" x2="-539.488" y2="1959.5273" gradientTransform="matrix(85.4814 85.4814 85.4814 -85.4814 -121290.6719 213720.5938)">
		<stop  offset="0" style="stop-color:#3B42ED"/>
		<stop  offset="1" style="stop-color:#0000AF"/>
	</linearGradient>
	<polygon clip-path="url(#SVGID_13_)" fill="url(#SVGID_14_)" points="67.972,48.555 92.187,72.77 67.972,96.984 43.757,72.77 	"/>
</g>
<g>
	<defs>
		<path id="SVGID_15_" d="M51.814,17.148c0.009,1.169,0.954,2.115,2.124,2.124C73.95,19.384,90.096,35.674,90.03,55.688
			c-0.01,1.172,0.932,2.131,2.104,2.142c1.173,0.01,2.131-0.931,2.142-2.104v-0.038c0.074-22.368-17.971-40.574-40.338-40.7
			C52.755,14.998,51.803,15.964,51.814,17.148"/>
	</defs>
	<clipPath id="SVGID_16_">
		<use xlink:href="#SVGID_15_"  overflow="visible"/>
	</clipPath>
	
		<linearGradient id="SVGID_17_" gradientUnits="userSpaceOnUse" x1="-540.4878" y1="1959.4805" x2="-539.4878" y2="1959.4805" gradientTransform="matrix(85.4814 85.4814 85.4814 -85.4814 -121265.9219 213695.9531)">
		<stop  offset="0" style="stop-color:#3B42ED"/>
		<stop  offset="1" style="stop-color:#0000AF"/>
	</linearGradient>
	<polygon clip-path="url(#SVGID_16_)" fill="url(#SVGID_17_)" points="73.077,-6.285 115.776,36.414 73.077,79.113 30.377,36.414 	
		"/>
</g>
<g>
	<defs>
		<path id="SVGID_18_" d="M13.6,55.65v0.038c-0.075,22.366,17.971,40.575,40.338,40.7c1.182-0.011,2.134-0.979,2.124-2.159
			c-0.01-1.169-0.955-2.115-2.124-2.125c-20.013-0.112-36.159-16.403-36.093-36.416c0.012-1.173-0.93-2.132-2.104-2.143
			c-0.006,0-0.013,0-0.02,0C14.558,53.546,13.61,54.484,13.6,55.65"/>
	</defs>
	<clipPath id="SVGID_19_">
		<use xlink:href="#SVGID_18_"  overflow="visible"/>
	</clipPath>
	
		<linearGradient id="SVGID_20_" gradientUnits="userSpaceOnUse" x1="-540.4878" y1="1959.5723" x2="-539.4878" y2="1959.5723" gradientTransform="matrix(85.4814 85.4814 85.4814 -85.4814 -121312.1719 213742.1875)">
		<stop  offset="0" style="stop-color:#3B42ED"/>
		<stop  offset="1" style="stop-color:#0000AF"/>
	</linearGradient>
	<polygon clip-path="url(#SVGID_19_)" fill="url(#SVGID_20_)" points="34.798,32.273 77.494,74.968 34.798,117.663 -7.896,74.968 	
		"/>
</g>
<g>
</g>
<g>
</g>
<g>
</g>
<g>
</g>
<g>
</g>
<g>
</g>
<g>
</g>
<g>
</g>
<g>
</g>
<g>
</g>
<g>
</g>
<g>
</g>
<g>
</g>
<g>
</g>
<g>
</g>
</svg>
