<?xml version="1.0" encoding="utf-8"?>
<!-- Generator: Adobe Illustrator 16.0.0, SVG Export Plug-In . SVG Version: 6.00 Build 0)  -->
<!DOCTYPE svg PUBLIC "-//W3C//DTD SVG 1.1//EN" "http://www.w3.org/Graphics/SVG/1.1/DTD/svg11.dtd">
<svg version="1.1" id="Layer_1" xmlns="http://www.w3.org/2000/svg" xmlns:xlink="http://www.w3.org/1999/xlink" x="0px" y="0px"
	 width="396.667px" height="325.334px" viewBox="0 0 396.667 325.334" enable-background="new 0 0 396.667 325.334"
	 xml:space="preserve">
<g>
	<path fill="#0019B0" d="M347.448,123.631h-170.76c-15.833,0-28.669-12.836-28.669-28.67c0-15.833,12.836-28.669,28.669-28.669
		h170.76c15.834,0,28.669,12.836,28.669,28.669C376.117,110.795,363.282,123.631,347.448,123.631"/>
	<path fill="#0019B0" d="M321.027,162.817H174.121c-10.821,0-19.593-8.771-19.593-19.594c0-10.82,8.771-19.593,19.593-19.593
		h146.906c10.82,0,19.594,8.772,19.594,19.593C340.621,154.046,331.848,162.817,321.027,162.817"/>
	<path fill="#0019B0" d="M314.981,273.862H72.222c-30.665,0-55.521-24.857-55.521-55.521c0-30.665,24.856-55.523,55.521-55.523
		h242.76c30.664,0,55.521,24.858,55.521,55.523C370.503,249.005,345.646,273.862,314.981,273.862"/>
	<path fill="#0019B0" d="M373.736,306.522H64.757c-9.019,0-16.33-7.311-16.33-16.33c0-9.019,7.312-16.33,16.33-16.33h308.979
		c9.019,0,16.329,7.312,16.329,16.33C390.065,299.212,382.755,306.522,373.736,306.522"/>
	<path fill="#FF654F" d="M179.941,54.284c-5.035-7.688-6.616-17.551-4.234-26.429c1.027,2.81,2.062,5.635,3.541,8.235
		c1.478,2.601,3.436,4.991,5.978,6.568c2.081,1.292,4.486,2.001,6.538,3.338c3.705,2.416,5.898,6.709,6.56,11.082
		c0.367,2.423,0.307,4.892,0,7.317c-0.155,1.222-0.376,2.434-0.638,3.637c-0.273,1.262-0.267,1.811-1.541,1.324
		c-1.997-0.765-4.12-2.924-5.8-4.244c-1.876-1.478-3.69-3.036-5.38-4.727C183.1,58.52,181.388,56.493,179.941,54.284"/>
	<path fill="#FF654F" d="M221.902,74.244c2.822-2.717,4.522-6.356,6.513-9.731c1.989-3.375,4.522-6.716,8.18-8.12
		c-6.049-1.179-12.496-0.206-17.928,2.705c-4.928,2.639-8.991,6.855-11.472,11.863c-0.878,1.772-2.6,5.227-0.633,6.875
		c1.651,1.386,5.33,0.873,7.25,0.512C216.825,77.782,219.688,76.375,221.902,74.244"/>
	<path fill="#FF654F" d="M227.209,79.601c-2.005,0.769-3.637,2.677-3.686,4.821c-0.053,2.378,1.749,4.432,3.791,5.65
		c4.04,2.412,9.224,2.441,13.616,0.755c4.392-1.689,8.049-4.935,10.924-8.658c-3.979,1.712-9.459,3.965-13.392,0.945
		C235.222,80.624,231.561,77.934,227.209,79.601"/>
	<path fill="#FF654F" d="M191.851,110.703l-3.359-1.432c3.013-7.073,6.13-14.385,7.271-22.025c1.244-8.328-0.2-15.931-4.07-21.405
		l2.98-2.108c4.415,6.248,6.085,14.79,4.701,24.054C198.162,95.888,194.954,103.42,191.851,110.703"/>
	<path fill="#FF654F" d="M187.007,98.117c4.846-10.472,13.02-19.412,23.016-25.174l1.517,2.632
		c-9.458,5.452-17.19,13.91-21.774,23.818L187.007,98.117z"/>
	<path fill="#FF654F" d="M191.841,119.702l-1.442-3.354c9.464-4.071,17.278-11.812,21.437-21.238c0.34-0.77,0.67-1.582,0.989-2.366
		c1.172-2.882,2.384-5.86,4.595-8.305c3.092-3.415,8.848-5.224,12.758-2.191l-2.237,2.886c-2.188-1.697-5.806-0.462-7.813,1.756
		c-1.778,1.966-2.818,4.522-3.921,7.231c-0.329,0.809-0.67,1.645-1.031,2.463C210.648,106.846,202.144,115.271,191.841,119.702"/>
	<path fill="#84A9FF" d="M317.587,135.755l-6.086-10.661l-12.022,4.966l3.199,11.841c-2.149,1.64-4.088,3.558-5.777,5.746
		l-11.832-3.228l-4.996,12.013l10.644,6.104c-0.37,2.738-0.37,5.477-0.021,8.146l-10.651,6.086l4.967,12.021l11.842-3.197
		c1.638,2.147,3.557,4.088,5.746,5.775l-3.228,11.831l12.011,4.997l6.105-10.642c2.739,0.37,5.477,0.37,8.145,0.009l6.086,10.663
		l12.021-4.966l-3.196-11.842c2.147-1.641,4.087-3.559,5.766-5.746l11.841,3.227l4.987-12.011l-10.632-6.106
		c0.369-2.738,0.358-5.476,0.01-8.144l10.662-6.086l-4.966-12.022l-11.843,3.198c-1.639-2.148-3.557-4.087-5.746-5.765l3.229-11.843
		l-12.012-4.997l-6.106,10.644C322.993,135.395,320.255,135.395,317.587,135.755 M337.373,166.663c0,8.704-7.056,15.76-15.77,15.76
		c-8.704,0-15.759-7.056-15.759-15.76c0-8.714,7.055-15.769,15.759-15.769C330.317,150.895,337.373,157.949,337.373,166.663"/>
	<path fill="#84A9FF" d="M264.837,91.558l-6.807-6.754l-8.011,6.249l4.881,8.244c-1.275,1.684-2.333,3.533-3.148,5.533l-9.579,0.042
		l-1.251,10.084l9.285,2.372c0.294,2.138,0.867,4.198,1.688,6.133l-6.746,6.807l6.249,8.011l8.245-4.881
		c1.682,1.273,3.53,2.332,5.53,3.146l0.042,9.58l10.084,1.251l2.373-9.286c2.138-0.294,4.199-0.865,6.131-1.694l6.81,6.755
		l8.01-6.25l-4.88-8.244c1.274-1.683,2.333-3.531,3.138-5.53l9.587-0.043L307.711,113l-9.278-2.375
		c-0.294-2.138-0.873-4.197-1.692-6.131l6.754-6.81l-6.25-8.01l-8.245,4.881c-1.682-1.274-3.531-2.334-5.529-3.14l-0.045-9.586
		l-10.084-1.252l-2.372,9.285C268.832,90.158,266.771,90.729,264.837,91.558 M286.187,110.687
		c1.817,6.551-2.019,13.336-8.576,15.155c-6.551,1.819-13.335-2.017-15.154-8.569c-1.82-6.558,2.018-13.342,8.568-15.159
		C277.582,100.292,284.366,104.128,286.187,110.687"/>
	<path fill="#FF654F" d="M31.914,54.476c-7.604-5.164-12.852-13.663-14.063-22.773c2.029,2.199,4.07,4.409,6.434,6.242
		c2.364,1.833,5.091,3.288,8.043,3.769c2.418,0.393,4.91,0.123,7.318,0.57c4.35,0.808,8.023,3.928,10.313,7.712
		c1.269,2.097,2.164,4.398,2.811,6.757c0.327,1.187,0.588,2.391,0.81,3.602c0.23,1.27,0.447,1.775-0.914,1.814
		c-2.14,0.062-4.93-1.116-6.985-1.691c-2.3-0.643-4.575-1.384-6.783-2.296C36.458,57.174,34.1,55.959,31.914,54.476"/>
	<path fill="#FF654F" d="M70.209,43.51c-1.08-4.582-3.802-8.57-6.071-12.694c-2.272-4.124-4.172-8.79-3.384-13.431
		c-4.925,5.532-7.867,12.792-8.188,20.191c-0.289,6.711,1.582,13.494,5.239,19.127c1.295,1.993,3.811,5.888,6.72,4.865
		c2.444-0.858,4.166-4.977,4.97-7.184C70.756,50.927,71.056,47.102,70.209,43.51"/>
	<path fill="#FF654F" d="M77.351,52.064c-1.024,1.885-1.025,4.396,0.33,6.059c1.505,1.842,4.208,2.232,6.554,1.832
		c4.638-0.79,8.598-4.136,10.841-8.272c2.242-4.136,2.913-8.979,2.68-13.679c-1.913,3.888-4.616,9.16-9.566,9.42
		C84.106,47.637,79.575,47.969,77.351,52.064"/>
	<path fill="#FF654F" d="M35.976,82.193c-1.823,0.311-3.502-0.145-4.596-2.169c-1.14-2.111-1.186-4.503-1.468-6.823
		c-0.256-2.099-0.86-4.327-2.513-5.646c-1.969-1.569-4.912-1.344-7.119-0.134c-2.206,1.209-3.843,3.22-5.42,5.181
		c-1.487-4.395,0.587-9.499,4.275-12.311c3.689-2.813,8.655-3.556,13.239-2.847c4.476,0.695,8.837,2.779,11.704,6.286
		c4.018,4.915,4.82,11.228-0.914,14.933C41.264,79.892,38.483,81.768,35.976,82.193"/>
	<path fill="#FF654F" d="M45.142,116.085c-2.833-4.53-4.066-9.95-3.475-15.263c0.226-2.003,0.7-3.939,1.16-5.813
		c0.513-2.098,0.999-4.076,1.142-6.088c0.235-3.32-0.852-7.246-3.812-8.531l1.454-3.35c4.597,1.997,6.326,7.535,6,12.139
		c-0.165,2.321-0.711,4.547-1.239,6.699c-0.452,1.842-0.878,3.581-1.076,5.35c-0.502,4.497,0.542,9.086,2.941,12.921L45.142,116.085
		z"/>
	<path fill="#FF654F" d="M64.581,101.991l-3.649-0.03c0.064-7.689,0.132-15.639-1.748-23.129c-2.05-8.168-6.306-14.631-11.983-18.2
		l1.943-3.091c6.477,4.071,11.3,11.317,13.581,20.401C64.72,85.888,64.648,94.073,64.581,101.991"/>
	<path fill="#FF654F" d="M73.515,94.208c-7.858-11.423-12.095-25.35-11.928-39.214l3.651,0.044
		c-0.159,13.117,3.849,26.294,11.284,37.102L73.515,94.208z"/>
	<path fill="#FF654F" d="M76.517,105.527l-3.275-1.611c4.55-9.244,5.462-20.205,2.499-30.074c-0.243-0.807-0.519-1.637-0.786-2.441
		c-0.98-2.951-1.995-6.004-1.902-9.298c0.132-4.604,3.331-9.719,8.274-9.954l0.173,3.647c-2.764,0.131-4.712,3.42-4.796,6.41
		c-0.076,2.649,0.794,5.27,1.716,8.044c0.276,0.828,0.562,1.686,0.818,2.543C82.461,83.533,81.469,95.466,76.517,105.527"/>
	<path fill="#155BCD" d="M254.248,180.708c0,69.485-56.329,125.814-125.815,125.814S2.616,250.193,2.616,180.708
		S58.946,54.893,128.433,54.893S254.248,111.223,254.248,180.708"/>
	<path fill="#84A9FF" d="M173.948,230.919c0.008-0.598-0.121-1.236,0.042-1.819c0.28-1.009,1.258-1.944,1.315-2.986
		c0.01-0.175,0.055-0.567,0.005-0.745c-0.06-0.216-0.128-0.252-0.259-0.436c-0.413-0.583-0.979-1.122-1.427-1.689
		c-0.863-1.091-1.692-2.228-2.083-3.582c-0.262-0.904-0.174-1.391,0.457-1.984c0.655-0.614-0.415-1.655,0.037-2.457
		c0.597-1.057,1.795-1.631,2.354-2.75c0.478-0.953,0.537-1.848,0.522-2.904c-0.018-1.158-0.003-2.309,0.122-3.459
		c0.149-1.381,0.641-1.852,1.751-2.665c0.57-0.418,0.634-0.481,0.614-1.123c-0.021-0.724-0.045-1.4,0.146-2.116
		c0.238-0.898,0.645-1.859,1.318-2.479c0.8-0.736,0.985-2.135,1.185-3.174c0.116-0.608,0.188-1.002,0.604-1.428
		c0.381-0.39,0.576-0.803,0.765-1.322c0.798-2.221,1.163-4.498,1.704-6.774c0.205-0.86,0.52-1.64,0.845-2.47
		c0.159-0.409,0.599-2.004,1.109-2.235c0.236-0.106,0.501,0.017,0.771-0.108c0.816-0.375,1.235-1.803,2.154-1.998
		c0.365-0.076,0.676,0.202,0.996,0.3c0.538,0.161,0.712,0.045,1.179-0.313c0.838-0.642,1.664-1.45,2.314-2.279
		c0.64-0.816,1.521-1.33,2.276-2.057c0.599-0.573,1.188-1.157,1.787-1.727c0.189-0.181,1.23-1.286,1.723-1.534
		c0.456-0.229,0.42,0.032,0.775,0.245c1.253,0.754,2.121-2.002,2.902-2.553c0.1-0.068,0.285-0.053,0.392-0.123
		c0.345-0.23,0.558-0.918,0.702-1.273c0.258-0.639,0.299-1.625,0.993-0.854c0.444,0.494,0.628,1.22,0.853,1.834
		c0.115,0.312,0.357,1.576,0.645,1.784c0.243,0.179,0.485,0.093,0.807,0.136c1.21,0.162,1.863,1.211,3.003,1.49
		c1.168,0.287,2.401-0.519,3.321-1.142c0.469-0.319,1.004-0.884,1.631-0.788c0.758,0.118,1.544,0.855,2.178,1.248
		c0.75-0.297,1.043-1.151,1.528-1.725c0.463-0.549,0.65-1.016,0.934-1.716c0.663-1.639,0.643-3.7,1.88-5.032
		c0.433-0.465,0.839-0.658,1.427-0.948c0.998-0.492,1.924-1.097,2.937-1.561c1.135-0.52,2.819-0.837,3.773-1.711
		c0.568-0.521,0.389-1.676,0.384-2.334c-0.012-1.58-0.119-3.214-0.008-4.789c0.026-0.395,0.19-0.736,0.224-1.139
		c0.092-1.118-0.329-2.368-0.515-3.45c-0.153-0.887-0.163-2.005-0.8-2.728c-0.564-0.642-1.093-0.132-1.741,0.261
		c-0.851,0.514-1.826,0.985-2.625,1.577c-0.438,0.324-0.915,1.042-1.429,1.254c-0.418,0.173-1.087,0.021-1.531,0.03
		c-0.64,0.014-1.257,0.015-1.876-0.194c-1.535-0.519-2.949-2.364-2.925-3.983c0.004-0.272-0.022-0.546-0.017-0.816
		c0.019-0.695,0.327-1.268,0.413-1.932c0.106-0.828,0.081-2.011-0.044-2.803c-0.152-0.963-0.431-2.045-0.742-2.968
		c-0.187-0.558-0.481-1.069-0.407-1.683c0.165-1.328,1.527-1.122,2.451-0.864c0.604,0.168,2.346,0.733,2.712-0.056
		c0.253-0.543,0.238-1.332,0.24-1.914c0.001-1.07,0.014-2.084-0.417-3.08c-0.62-0.07-0.844,0.787-1.409,0.929
		c-0.837,0.213-2.147,0.002-2.952,0.003c-0.847,0.002-1.693,0.028-2.541,0.021c-0.443-0.002-0.965,0.056-1.343-0.236
		c-0.527-0.409-0.871-1.243-1.192-1.805c-0.132-0.227-0.397-0.973-0.674-1.073c-0.244,1.071-0.02,2.374-0.021,3.47
		c-0.001,0.616-0.115,1.141-0.202,1.732c-0.056,0.371-0.064,0.72-0.138,1.094c-0.078,0.398-0.074,0.753,0,1.16
		c0.107,0.596,0.155,1.093,0.143,1.705c-0.01,0.56-0.103,1.326,0.159,1.83c0.156,0.315,0.407,0.508,0.753,0.576
		c0.31,0.196,0.557,0.456,0.74,0.778c0.207,0.276,0.496,0.566,0.618,0.894c0.237,0.636,0.064,1.404,0.308,2.059
		c0.154,0.416,0.472,0.675,0.704,1.034c0.351,0.544,0.172,1.444,0.172,2.089c0,1.048,0.005,2.097-0.004,3.146
		c-0.005,0.646-0.052,1.355,0.143,1.985c0.131,0.415,0.252,0.644,0.25,1.097c-0.001,0.347-0.095,0.724,0.054,1.054
		c0.248,0.555,0.95,1.027,1.436,1.356c0.406,0.275,1.622,1.131,1.169,1.729c-0.313,0.412-2.173,0.162-2.398,0.146
		c-1.271-0.087-1.816-0.22-2.718-1.134c-1.01-1.027-1.78-2.253-2.704-3.352c-0.402-0.518-0.858-0.982-1.366-1.394
		c-0.153-0.139-0.312-0.274-0.473-0.405c-0.346-0.076-0.482,0.256-0.727,0.345c-0.233,0.083-0.528,0.032-0.773,0.032
		c-1.449-0.008-2.91-0.108-4.322,0.285c-1.005,0.28-1.916,0.816-2.786,1.385c0.888,1.196,2.896,2.23,4.445,2.362
		c1.454,0.124,3.096,0.39,4.37,1.167c0.689,0.42,1.135,1.057,1.409,1.799c0.286,0.771,0.129,1.467,0.239,2.252
		c0.136,0.99,0.79,1.875,0.833,2.881c-1.261-0.491-2.496-1.106-3.544-1.978c-1.097-0.912-1.983-2.387-2.89-3.483
		c-0.191-0.233-0.884-1.239-1.398-1.175c-0.379,0.05-0.709,0.646-0.92,0.87c-0.939,1.004-1.693,1.166-2.918,0.566
		c-0.649-0.318-1.27-0.668-1.863-1.079c-0.35-0.244-0.892-0.437-0.958-0.916c-1.162,1.185-1.829,2.987-2.43,4.505
		c-0.319,0.804-0.722,1.582-1.032,2.385c-0.133,0.344-0.154,0.453-0.067,0.853c0.099,0.45,0.333,0.831,0.494,1.254
		c0.207,0.544,0.266,1.241,0.22,1.825c-0.072,0.922-0.566,1.205-0.986,1.943c-0.256,0.449-0.218,0.821-0.208,1.315
		c0.021,1.099,0.003,2.201,0.003,3.3c0,1.031,0.154,2.177,0.025,3.191c-0.151,1.194-1.771,1.821-2.699,2.307
		c-0.571,0.299-1.3,0.279-1.94,0.371c-1.36,0.193-2.385,1.029-3.545,1.702c-0.372,0.215-0.606,0.668-1.002,0.778
		c-1.464,0.413-3.057-1.363-3.814-2.33c-0.929-1.183-1.823-2.634-2.335-4.064c-0.276-0.776-0.229-1.496-0.216-2.291
		c0.017-0.906,0.005-1.814,0.003-2.72c-0.002-0.658-0.271-1.419,0.513-1.597c1.019-0.229,2.312-0.078,3.207-0.766
		c0.945-0.727,1.751-1.279,2.879-1.822c0.593-0.27,1.184-0.541,1.776-0.81c0.594-0.017,1.01-0.245,1.248-0.687
		c-0.558-0.246-1.081-0.507-1.597-0.826c-0.701-0.433-1.037-1.102-1.514-1.764c-0.78-1.08-1.009-2.642-1.262-3.931
		c-0.129-0.661-0.071-1.314-0.074-1.981c-0.004-0.664-0.142-1.001-0.425-1.576c-0.545-1.106-0.852-2.564-0.91-3.8
		c-0.065-1.362-0.09-2.805,0.019-4.168c0.059-0.747,0.216-1.455,0.604-2.092c0.407-0.67,0.998-1.128,1.481-1.735
		c0.134-0.168,0.198-0.356,0.312-0.526c0.229-0.345,0.523-0.483,0.927-0.667c0.653-0.301,1.438-0.48,1.92-1.046
		c0.125-0.148,0.216-0.325,0.346-0.473c0.308-0.346,0.881-0.54,1.161-0.877c0.172-0.208,0.186-0.54,0.102-0.849
		c-0.188-0.701-0.977-0.969-0.979-1.77c-0.002-0.397,0.195-0.734,0.401-1.059c0.327-0.518,0.598-1.039,0.894-1.577
		c0.293-0.534,0.548-0.794,1.043-1.118c0.313-0.205,0.739-0.416,0.959-0.721c-0.315-0.244,0.654-1.87,0.608-2.092
		c-0.209-1.012-0.569-1.965-0.971-2.914c-0.476-1.131-1.073-2.055-1.975-2.882c-1.111-1.021-2.609-1.597-3.787-2.529
		c-0.595-0.47-1.095-0.864-1.167-1.671c-0.068-0.793-0.067-1.656,0.095-2.444c0.107-0.511,0.321-0.763,0.317-1.264
		c-0.004-0.385-0.141-0.765-0.194-1.144c-0.06-0.441-0.019-0.77-0.495-0.994c-0.5-0.237-0.944,0.074-1.418,0.246
		c-1.23,0.446-2.252,0.784-3.604,0.644c-1.127-0.118-1.977-0.817-2.795-1.526c-0.313-0.271-0.692-0.771-1.127-0.796
		c-0.218,0.241-0.191,0.606-0.199,0.911c-0.045,1.619,0.766,3.078,1.561,4.434c0.85,1.447,2.342,2.627,3.021,4.179
		c0.219,0.502,0.252,1.153,0.255,1.694c0.009,1.22,0.082,1.954,1.01,2.914c0.465,0.52,0.989,0.971,1.576,1.354
		c0.402,0.191,0.716,0.463,0.945,0.818c0.137,0.282,0.037,0.391,0.095,0.673c0.048,0.229,0.174,0.357,0.283,0.575
		c0.312,0.629,0.212,1.605-0.31,2.106c-0.595,0.569-1.795,0.563-2.51,0.491c-1.643-0.169-3.354-0.717-4.852-1.387
		c-1.216-0.543-2.264-1.217-3.02-2.363c-0.585-0.889-0.802-1.617-0.938-2.662c-0.126-0.963-0.526-1.903-0.552-2.874
		c-0.01-0.31,0.068-0.618,0.02-0.927c-0.15-0.928-1.216-2.378-1.586-3.018c-0.877-1.514-1.843-3.026-2.636-4.591
		c-0.895-1.764-0.744-3.511-0.753-5.443c-0.005-0.948-0.206-2.143,0.077-3.066c0.307-1,1.173-1.743,1.654-2.646
		c0.128-0.237,0.083-0.563,0.197-0.761c0.196-0.339,0.87-0.165,1.202-0.169c0.604-0.008,1.313-0.018,1.89-0.245
		c0.227-0.089,0.425-0.229,0.665-0.295c0.361-0.099,0.788-0.138,1.144,0.01c0.62,0.493,1.217,1.018,1.788,1.568
		c0.53,0.382,1.063,0.765,1.596,1.147c0.614,0.392,1.345,0.966,2.067,0.6c0.501-0.251,0.766-0.732,1.225-1.03
		c1.624-1.054,2.976,1.799,3.584,2.886c-0.179-1.613-0.519-3.22-0.841-4.812c-0.327-1.608-0.535-3.417-1.234-4.906
		c-0.218-0.463-0.498-1.021-0.86-1.395c-0.694-0.716-1.785-1.128-2.566-1.774c-0.55-0.454-1.02-0.965-1.472-1.516
		c-0.479-0.588-1.111-1.029-1.733-1.462c-1.579-1.102-3.632-1.813-5.399-2.597c-0.724-0.32-2.391-0.901-3.174-1.537
		c-0.811-0.658-1.106-1.763-1.882-2.432c-0.488-0.419-1.049-0.176-1.684-0.218c-0.791-0.052-1.456-0.499-2.08-0.955
		c-0.93-0.679-1.855-1.269-2.859-1.84c-0.856-0.488-1.707-0.995-2.571-1.465c-0.397-0.218-0.844-0.1-1.328-0.271
		c-0.188-0.066-0.339-0.195-0.522-0.279c-0.351-0.162-0.768-0.226-1.129-0.358c-0.583-0.215-1.134-0.53-1.72-0.744
		c-0.726-0.267-1.564-0.438-2.322-0.616c-1.703-0.402-3.462-0.548-5.147-1.023c-0.54-0.152-0.838-0.447-1.332-0.694
		c-0.559-0.277-0.819-0.606-1.101-1.147c-0.227-0.437-0.532-0.82-0.756-1.25c-0.426-0.814-0.652-1.86-1.648-2.041
		c-1.681-0.307-3.426-0.877-5.135-0.944c-1.07-0.042-2.596,0.362-3.462-0.41c-0.77-0.685-1.242-2.461-2.523-2.29
		c-0.788,0.105-1.491,0.824-2.216,1.146c-0.71,0.317-1.365,0.562-2.118,0.709c-1.027,0.202-2.039,0.541-3.025,0.886
		c-0.939,0.328-2.221,1.194-3.282,1.177c-1.417-0.023-2.541-0.773-3.804-1.275c-1.021-0.408-2.306,0.045-3.263,0.439
		c-0.521,0.215-1.171,0.686-1.725,0.777c-0.15,0.025-0.295-0.028-0.438-0.012c-0.684,0.078-1.41,0.497-2.078,0.68
		c-1.926,0.524-3.664,1.755-5.613,2.173c-0.493,0.105-1.009,0.034-1.512,0.034c-0.945-0.002-1.893-0.011-2.838,0.003
		c-0.801,0.011-1.537,0.073-2.126-0.572c-0.416-0.455-0.366-0.976-0.359-1.552c0.014-1.244,0.134-2.594-0.06-3.83
		c2.018-0.876,4.419-0.704,6.436-1.672c1.235-0.594,2.543-0.974,3.777-1.563c1.131-0.537,2.127-1.152,3.153-1.82
		c0.402-0.261,1.672-1.058,1.646-1.644c-0.066-1.405,2.703-2.006,3.843-2.625c3.466-1.886,7.276-3.677,11.181-4.414
		c1.662-0.313,3.982-0.608,5.625,0.155c0.936,0.434,1.751,1.014,2.719,1.398c2.666,1.063,5.454,1.801,8.335,1.652
		c1.923-0.099,3.951-0.172,5.791-0.77c0.801-0.259,1.6-0.574,2.396-0.85c1.821-0.628,3.71-0.964,5.598-1.331
		c1.837-0.356,3.589-0.304,5.448-0.305c1.828-0.001,3.67-0.127,5.494,0.044c2.456,0.23,4.821,1.007,7.271,1.288
		c3.105,0.354,6.232,0.151,9.335,0.576c2.363,0.323,4.652,0.952,6.986,1.424c0.921,0.186,1.846,0.326,2.761,0.541
		c0.792,0.185,1.721,0.25,2.438,0.668c0.824,0.479,1.601,1.008,2.361,1.589c0.032,0.49,1.389,0.646,1.694,0.995
		c1.119,1.271,2.42,2.334,3.752,3.376c3.871,3.025,8.151,5.533,12.002,8.591c4.683,3.719,8.922,7.988,12.902,12.439
		c6.994,7.825,14.054,16.027,19.278,25.156c4.245,7.416,6.587,15.748,10.34,23.418c1.687,3.448,3.434,6.836,5.518,10.062
		c1.907,2.951,3.998,5.766,5.836,8.759c2.83,4.612,4.942,9.68,6.29,14.917c1.727,6.697,3.909,13.277,5.343,20.044
		c0.943,4.448,2.459,8.853,2.396,13.446c-0.066,4.821-0.952,9.725-2.048,14.407c-0.655,2.797-1.462,5.556-2.101,8.358
		c-0.744,3.275-1.414,6.518-2.55,9.691c-1.129,3.155-2.56,6.24-3.896,9.311c-0.817,1.878-1.548,3.906-2.61,5.666
		c-0.716,1.187-1.655,2.209-2.499,3.3c-1.231,1.593-2.325,3.3-3.618,4.847c-4.98,5.959-11.408,10.68-17.204,15.795
		c-2.297,2.028-4.648,3.94-6.864,6.062c-1.081,1.034-2.23,1.979-3.398,2.912c-0.479,0.383-1.288,1.279-1.958,1.332
		c-0.299-0.021-0.792-0.203-0.858-0.365c-0.275-0.692-0.595-1.373-0.941-2.032c-0.481-0.911-1.125-1.822-1.762-2.636
		c-0.315-0.402-0.588-0.739-1.086-0.926c-0.804-0.3-1.739-0.174-2.577-0.174c-0.528,0-1.466-0.169-1.989,0.055
		c-0.241-0.351-0.138-1.191-0.131-1.565c0.011-0.575,0.048-1.048,0.189-1.622c0.218-0.878,0.5-1.723,0.975-2.49
		c0.132-0.215,0.303-0.375,0.438-0.582c0.151-0.227,0.234-0.497,0.339-0.75c0.035-0.084,0.114-0.104,0.129-0.193
		c0.064-0.392,0.023-0.688,0.141-1.106c0.279-0.992,0.372-1.92,0.362-2.951c-0.003-0.375,0.051-0.778-0.022-1.147
		c-0.085-0.424-0.335-0.748-0.368-1.185c-0.065-0.892,0.027-1.581,0.521-2.347c0.791-1.229,1.815-2.297,2.564-3.551
		c0.146-0.243,0.247-0.424,0.334-0.677c0.191-0.551,0.517-0.987,0.753-1.516c0.334-0.743,0.561-1.601,0.666-2.408
		c0.104-0.78-0.045-1.52-0.196-2.284c-0.295-1.469-0.387-3.022-0.263-4.521c0.06-0.707,0.103-1.396,0.102-2.106
		c0-0.183,0.056-0.458,0.021-0.631c-0.061-0.322-0.29-0.499-0.529-0.704c-0.432-0.368-0.734-0.692-0.995-1.21
		c-0.305-0.603-0.516-1.289-0.76-1.921c-0.292-0.764-0.591-1.528-0.893-2.289c-0.18-0.427-0.353-0.855-0.518-1.289
		c-0.235-0.948,0.144-1.998-0.044-2.955c-0.185-0.945-0.899-0.939-1.682-0.895c-1.547,0.091-3.044,0.53-4.555,0.757
		c-1.647,0.248-3.186,1.17-4.693,1.809c-1.381,0.586-2.806,1.086-4.18,1.691c0.176-0.077-1.919,0.785-2.021,1.115
		c-0.135,0.438,0.116,0.954-0.035,1.428c-0.393,1.229-1.367,2.251-2.435,2.924c-0.568,0.358-1.157,0.66-1.707,1.049
		c-0.282,0.198-0.506,0.353-0.832,0.5c-0.757,0.344-1.503,0.752-2.347,0.743c-0.542-0.005-1.061-0.004-1.588-0.148
		c-0.258-0.071-0.496-0.203-0.754-0.257c-0.07-0.014-0.213-0.026-0.285-0.024c-0.428,0.04-0.814,0.201-1.157,0.481
		c-0.67,0.408-1.366,0.768-2.085,1.078c-0.647,0.252-1.039,0.139-1.555-0.383c-0.427-0.429-0.689-0.967-1.079-1.428
		c-0.379-0.446-0.859-0.843-1.317-1.209c-0.43-0.343-1.035-0.927-1.619-0.934c-0.796-0.007-1.716,0.142-2.482-0.113
		c-0.271-0.09-0.546-0.178-0.815-0.273c-1.001-0.353-1.521-1.119-2.304-1.777c-0.554-0.465-1.27-0.765-1.661-1.392
		c-0.232-0.37-0.541-0.413-0.873-0.68c-0.205-0.165-0.37-0.349-0.592-0.485c-0.147-0.089-0.303-0.158-0.431-0.275
		c-0.365-0.34-0.556-0.857-0.689-1.326c-0.132-0.462-0.231-1.366-0.75-1.582c-0.213-0.089-0.627-0.012-0.86-0.014
		c-0.104-0.002-0.256-0.026-0.36-0.008C174.428,231.073,174.145,230.962,173.948,230.919"/>
	<path fill="#84A9FF" d="M44.396,244.717c-0.332,1.867-1.356,3.578-1.771,5.442c-0.232,1.043-0.627,2.55-0.017,3.558
		c0.818,1.354,3.083,2.554,4.242,3.146c1.532,0.786,3.079,1.36,4.672,2.008c1.074,0.438,0.852,0.159,0.991,0.901
		c0.136,0.708-0.125,1.556,0.036,2.319c0.374,1.774,1.387,3.451,2.563,4.813c0.678,0.784,1.565,1.395,2.24,2.196
		c0.979,1.16,1.549,2.724,2.396,3.989c0.854,1.275,2.078,2.522,2.679,3.964c0.555,1.326,0.485,2.803,1.067,4.143
		c0.938,2.161,2.77,3.751,3.817,5.868c0.486,0.983,1.185,2.171,1.247,3.278c0.051,0.863-0.156,1.155,0.382,1.918
		c1.059,1.504,3.133,2.44,4.635,3.443c1.59,1.064,2.508,2.744,4.218,3.671c4.112,2.229,8.859,1.872,13.32,2.052
		c1.386,0.055,2.442,0.786,3.829,0.87c1.871,0.113,4.137-0.077,5.839-0.687c1.599-0.507,2.935-1.371,4.01-2.592
		c0.727-0.665,1.404-1.381,2.03-2.146c0.623-0.44,0.842-0.385,1.589-0.413c1.17-0.044,2.032-0.51,3.174-0.877
		c1.002-0.322,1.958-0.519,2.976-0.627c0.78-0.083,1.127-0.172,1.994-0.463c1.71-0.573,3.628-0.982,5.187-1.898
		c1.581-0.931,2.991-2.826,4.732-3.382c0.545-0.174,1.313,0.218,1.807-0.067c0.973-0.564,0.391-3.229,0.423-4.163
		c0.021-0.638-0.104-1.034,0.365-1.493c0.26-0.253,0.831-0.383,1.15-0.63c0.696-0.538,1.271-1.259,1.939-1.834
		c0.556-0.479,1.46-0.927,1.928-1.457c0.627-0.709,0.291-1.535,0.465-2.448c0.113-0.585,0.357-1.171,0.402-1.773
		c0.128-1.729-0.964-2.654-2.177-3.66c-3.505-2.907-7.242-5.338-11.854-5.494c-0.556-0.021-1.229,0.102-1.766-0.047
		c-0.315-0.088-1.344-0.985-1.414-1.031c-1.481-0.965-3.311-0.938-4.989-1.374c-2.516-0.653-2.951-3.328-4.125-5.374
		c-1.724-3.006-4.006-5.956-7.047-7.697c-1.161-0.663-2.407-1.008-3.683-1.384c-2.256-0.664-4.281-1.758-6.346-2.864
		c-1.224-0.656-2.439-1.488-3.789-1.852c-0.757-0.204-1.46-0.117-2.167-0.297c-0.718-0.184-1.315-0.963-1.896-1.414
		c-1.5-1.169-3.007-2.309-4.474-3.523c-0.721-0.597-1.454-1.309-2.396-1.514c-0.461-0.102-0.716,0-1.141-0.206
		c-0.55-0.265-0.729-0.558-1.38-0.765c-2.106-0.67-4.139-1.14-6.034-2.322c-1.503-0.939-2.979-1.916-4.508-2.813
		c-1.154-0.677-2.512-1.773-3.863-1.962c-1.291-0.18-1.278,0.843-2.288,1.161c-0.697,0.219-1.615-0.118-2.336-0.015
		c-0.421,0.939,0.001,2.022-0.401,2.966c-0.194,0.457-0.489,0.63-0.797,0.984c-0.769,0.886-1.519,1.921-2.372,2.715
		c-0.686,0.639-1.691,0.906-2.516,1.389C48.591,239.306,45.604,240.622,44.396,244.717"/>
	<path fill="#84A9FF" d="M42.863,200.256c2.701-0.2,5.084,1.488,7.147,3.065c0.819,0.626,2.134,1.503,2.624,2.513
		c0.225,0.461,0.092,0.849,0.259,1.32c0.168,0.478,0.787,1.067,1.072,1.508c0.357,0.299,0.595,0.675,0.714,1.129
		c0.048,0.628,0.091,1.259,0.13,1.888c0.307,1.568,1.734,3.008,2.929,3.928c0.554,0.425,1.326,0.85,1.818,1.312
		c0.381,0.359,0.521,0.929,0.908,1.284c0.627,0.582,1.177,0.412,1.948,0.527c1.767,0.262,3.506,0.572,5.299,0.701
		c0.648,0.048,0.697,0.068,1.24,0.347c1.142,0.582,2.519,0.799,3.566,1.548c0.749,0.536,1.389,1.102,2.156,1.628
		c0.655,0.449,1.064,1.117,1.876,1.294c-0.159-0.259-0.5-0.447-0.642-0.747c-0.183-0.377-0.035-0.965-0.131-1.366
		c-0.139-0.589-0.581-1.394-1-1.823c-0.566-0.581-1.406-0.845-2.112-1.264c-0.694-0.409-1.263-0.84-1.877-1.341
		c-0.797-0.648-1.768-0.964-2.544-1.629c-0.784-0.673-1.349-1.135-2.32-1.563c-0.578-0.256-1.115-0.508-1.665-0.823
		c-0.751-0.433-2.178-0.863-2.749-1.414c-0.526-0.506-0.586-1.814-0.857-2.523c-0.312-0.813-0.655-1.67-1.146-2.392
		c-1.138-1.673-2.074-2.899-3.841-3.878c-2.093-1.161-4.229-2.437-6.225-3.756c-0.943-0.624-1.151-1.416-1.759-2.343
		c-0.676-1.033-1.556-1.608-2.866-1.304C44.539,196.8,44.78,197.963,42.863,200.256"/>
	<path fill="#84A9FF" d="M45.93,227.469c-0.496-1.725-1.604-3.136-2.497-4.671c-0.669-1.146-1.771-2.543-1.813-3.9
		c-0.056-1.805,1.648-2.752,1.979-4.279c0.311-1.434,1.087-4.003-0.299-5.076c-1.277-0.99-3.342-1.223-4.888-1.659
		c-1.088-0.307-1.169-0.526-2.045-1.102c-1.164-0.767-1.787-1.323-1.957-2.78c-0.141-1.209,0.033-2.521,0.019-3.748
		c-0.021-1.521-0.25-2.436-1.737-3.099c-1.153-0.515-2.289-0.64-2.871-1.877c-0.524-1.114-0.578-2.957-0.679-4.126
		c-0.138-1.571-0.081-3.137-0.077-4.71c0.003-1.287,0.006-2.575,0.001-3.862c-0.002-0.383-0.151-1.438,0.041-1.886
		c0.284-0.664,1.175-0.918,1.792-1.144c0.9-0.335,1.829-0.567,2.782-0.701c0.857-0.082,1.718-0.098,2.577-0.045
		c0.438-0.08,0.716-0.321,1.131-0.416c1.093-0.246,2.759,0.031,3.851,0.014c1.604-0.028,3.448,1.074,4.723,2.029
		c0.962,0.719,1.207,1.478,1.412,2.646c0.373,2.126,0.108,4.496,0.079,6.646c-0.01,0.846-0.043,1.442,0.364,2.207
		c0.576,1.084,1.77,2.021,3.055,1.347c0.382-2.321,0.05-4.922,0.038-7.286c-0.003-0.582-0.307-1.762,0.162-2.177
		c0.593-0.526,3.157-0.04,3.999-0.04c1.253,0.002,4.542,0.667,5.288-0.654c0.271-0.482,0.148-1.177,0.288-1.714
		c0.243-0.935,0.561-1.849,0.796-2.794c0.225-0.914,0.425-2.674,1.168-3.305c0.541-0.459,0.806-0.338,1.513-0.341
		c1.11-0.005,2.026-0.498,3.048-0.942c3.188-1.39,6.168-3.236,9.473-4.352c1.082-0.365,2.091-0.359,3.006-1.022
		c0.766-0.557,1.153-0.964,2.131-0.992c1.059-0.029,2.143-0.008,3.204,0.024c1.408,0.043,2.688-0.368,3.993-0.918
		c0.605-0.256,1.434-1.086,2.109-1.033c0.258-0.911,0.117-2.117-0.017-3.037c-0.103-0.704-0.695-2.289-0.238-3.016
		c0.585-0.929,2.419-0.418,3.39-0.435c1.673-0.027,3.278,0.158,4.948,0.384c0.694,0.094,2.578,0.006,3.152,0.419
		c0.622,0.448,0.336,1.744,0.331,2.386c-0.012,1.291-0.258,2.841,0.06,4.097c2.104,0.614,3.061-3.004,3.06-4.574
		c-0.001-1.21-0.596-1.42-1.234-2.267c-0.385-0.514-0.464-0.438-0.743-1.357c-0.446-1.469-0.778-3.27-0.76-4.821
		c0.012-0.897,0.046-1.573-0.396-2.395c-0.723-1.338-2.275-2.078-3.04-3.419c-0.4-0.703-0.387-1.004-0.398-1.748
		c-0.039-2.526-0.088-4.914,0.687-7.357c0.359-1.141,0.476-1.606,0.491-2.742c0.018-1.114-0.393-1.703-0.888-2.666
		c-0.33-0.643-0.519-1.241-1.056-1.765c-0.713-0.692-1.287-0.158-2.049-0.5c-0.957-0.429-1.784-2.146-2.212-3.129
		c-1.328,0.349-2.56,2.82-3.352,3.818c-0.432,0.544-0.594,1.266-1.035,1.778c-0.645,0.75-1.831,0.915-2.705,1.338
		c-1.088,0.526-0.935,0.696-0.905,1.867c0.047,1.878-0.156,5.174-2.297,5.816c-0.571,0.172-1.486-0.048-2.084-0.031
		c-1.301,0.039-1.791-0.216-2.272-1.627c-0.137-0.398-0.082-1.046-0.239-1.388c-0.191-0.422-0.316-0.317-0.54-0.657
		c-0.584-0.895-0.796-1.883-1.456-2.798c-0.638-0.888-1.109-1.431-1.493-2.426c-0.439-1.144-1.073-2.347-1.467-3.489
		c-0.414-1.206-0.183-3.418,0.319-4.602c0.547-1.289,1.22-2.305,2.412-3.033c0.737-0.452,1.367-1.241,2.184-1.469
		c0.83-0.23,2.242,0.026,3.115,0.026h2.696c1.998,0,3.994,0.001,5.992,0c0.529,0,1.329,0.142,1.83-0.005
		c1.269-0.371,1.797-2.348,2.35-3.443c0.595-1.18-0.054-0.568,0.837-0.742c0.584-0.114,2.252,0.646,2.847,0.944
		c1.415,0.709,1.635,1.988,1.918,3.415c0.259,1.297,0.705,2.416,0.674,3.731c-0.023,1.06-0.264,2.432,0.208,3.397
		c0.184,0.375,0.419,0.956,0.975,0.746c0.581-0.22,0.291-1.345,0.42-1.75c0.382-1.197,1.318-0.713,2.247-1.156
		c0.884-0.423,1.396-1.482,1.536-2.446c0.156-1.078,0.144-2.746-0.189-3.743c-0.475-1.42-0.697-2.844-1.083-4.293
		c-0.649-2.436-0.233-5.258-0.278-7.756c-0.03-1.726-0.139-2.027,1.634-2.931c0.946-0.481,1.889-1.442,2.866-1.819
		c2.006-0.774,5.51-0.122,6.999,1.288c1.503,1.425,2.979,3.838,3.399,5.905c0.685,3.362-0.658,6.844-1.772,9.947
		c-0.329,0.915-0.396,1.799-0.647,2.715c-0.409,1.491-1.234,2.827-1.613,4.331c-0.337,1.339-0.127,2.767-0.128,4.126
		c-0.001,1.196-0.231,2.468,0.119,3.633c0.544,1.813,2.038,3.325,2.765,5.088c0.33,0.799,0.378,1.288,1.014,1.886
		c0.741,0.698,2.233,1.226,3.263,1.198c1.149-2.209,0.501-6.053,0.501-8.373c0-1.209,0.01-2.418,0.002-3.629
		c-0.01-1.226,0.157-2.565,1.18-3.375c1.352-1.066,3.748-1.73,5.368-1.926c1.104-0.133,1.093-0.255,2.495-0.721
		c0.905-0.24,1.811-0.481,2.716-0.721c0.993-0.09,1.926-0.357,2.8-0.802c0.299-0.419-0.088-2.079,0.013-2.487
		c0.354-1.458,1.666-2.832,2.34-4.198c0.331-0.669,1.496-2.442,1.069-3.341c-0.271-0.574-1.112-0.453-1.507-0.766
		c-0.62-0.49-1.496-2.353-1.818-2.898c-1.072-1.807-1.586-3.857-2.555-5.727c-0.834-1.611-1.033-3.413-1.837-5.013
		c-0.419-0.834-1.058-1.548-1.487-2.378c-0.49-0.945-0.438-1.843-1.71-1.994c-2.739-0.324-5.813,0.003-8.586,0.017
		c-0.994,0.006-2.033,0.133-3.018-0.039c-1.617-0.279-3.122-0.976-4.617-1.617c-2.507-1.078-5.784-1.717-8.274-0.416
		c-1.157,0.603-2.356,1.613-3.328,2.49c-0.455,0.412-0.533,0.725-1.247,0.787c-0.857,0.075-1.661-0.487-2.412-0.813
		c-1.096-0.474-2.265-0.752-3.192-1.546c-1.144,0.313-2.12,1.943-2.813,2.839c-0.546,0.706-0.686,0.847-1.601,0.362
		c-0.86-0.457-1.797-2.569-2.93-2.521c-0.978,0.042-1.326,1.421-2.121,1.618c-0.271,0.067-1.37-0.218-1.621-0.329
		c-0.683-0.3-1.394-1.199-1.592-1.936c-0.118-0.44,0.026-1.08-0.045-1.551c-0.101-0.686-0.279-1.279-0.313-1.963
		c-0.044-0.822-0.174-1.458,0.336-2.136c1.435-1.911,3.512-3.323,4.834-5.343c0.652-0.998,0.598-1.896,0.596-3.014
		c-0.001-0.688,0.129-2.205-0.373-2.765c-1.098-1.224-4.532,1.148-5.454,1.677c-1.072,0.614-1.541,0.618-2.706,0.059
		c-0.876-0.421-1.549-1.172-2.377-1.598c-0.854-0.438-1.821-0.274-2.842-0.268c-2.658,0.02-4.917,1.162-7.61,0.623
		c-0.762,1.064-0.98,2.267-1.328,3.529c-0.598,2.179-1.115,4.376-1.83,6.521c-0.503,1.51-1.375,1.948-2.374,3.241
		c-0.738,0.957-9.378,11.235-9.693,11.896c-0.975,2.032-3.092,2.636-4.39,4.253c0.048-0.164-0.01-0.26-0.17-0.289
		c-0.792,1.218-1.409,2.455-2.426,3.502c-0.967,0.996-2.052,1.791-3.161,2.614c-2.158,1.604-4.313,3.489-6.06,5.533
		c-2.073,2.425-3.467,5.502-4.692,8.411c-0.724,1.721-1.759,3.3-2.59,4.946c-1.923,3.812-4.449,7.346-6.234,11.233
		c-0.859,1.873-1.302,3.93-2.108,5.77c-1.094,2.492-3.366,4.005-3.357,6.9c0.006,2.213,1.122,3.948,1.544,5.989
		c0.355,1.713,0.097,3.795,0.088,5.535c-0.015,2.841,0.367,5.611,0.354,8.446c-0.011,2.27,0.674,3.872,1.11,5.994
		c0.095,0.463,0.056,0.92,0.284,1.328c0.184,0.326,0.52,0.472,0.72,0.78c1.011,1.564,0.44,3.404,2.115,4.755
		c0.733,0.594,1.543,0.793,2.033,1.615c0.578,0.969,0.951,2.196,1.417,3.227c1.136,2.519,2.314,4.487,2.324,7.308
		c0.006,1.825,0.624,2.688,1.523,4.26c0.836,1.461,1.211,2.431,1.144,4.115c-0.05,1.25,0.089,2.332,0.811,3.412
		c0.849,1.269,2.089,1.716,2.67,3.216c0.41,1.058,0.568,2.131,0.809,3.236c0.291,1.344,1.037,2.219,1.6,3.41
		c0.623,1.318,0.683,2.824,1.397,4.146C39.828,227.769,45.319,232.533,45.93,227.469"/>
	<path fill="none" d="M2.617,180.708c0,69.485,56.33,125.814,125.815,125.814c69.486,0,125.814-56.329,125.814-125.814
		c0-69.486-56.328-125.815-125.814-125.815C58.947,54.893,2.617,111.222,2.617,180.708"/>
	<rect x="90.424" y="139.718" fill="#84A9FF" width="225.918" height="141.895"/>
	<path fill="#050F64" d="M320.294,124.751H86.473c-4.366,0-7.904,3.538-7.904,7.903v149.798c0,4.365,3.538,7.903,7.904,7.903
		h233.821c4.363,0,7.901-3.538,7.901-7.903V132.654C328.195,128.289,324.657,124.751,320.294,124.751"/>
	<rect x="90.424" y="136.605" fill="#FFFFFF" width="225.918" height="141.896"/>
	<rect x="90.424" y="136.605" fill="#155BCD" width="225.918" height="22.753"/>
	<path fill="#FFFFFF" d="M302.049,147.982c0,1.979-1.604,3.581-3.581,3.581c-1.979,0-3.581-1.603-3.581-3.581
		s1.603-3.581,3.581-3.581C300.444,144.401,302.049,146.004,302.049,147.982"/>
	<path fill="#FFFFFF" d="M280.609,147.982c0,1.979-1.604,3.581-3.581,3.581c-1.979,0-3.581-1.603-3.581-3.581
		s1.603-3.581,3.581-3.581C279.005,144.401,280.609,146.004,280.609,147.982"/>
	<path fill="#FFFFFF" d="M259.169,147.982c0,1.979-1.604,3.581-3.58,3.581c-1.979,0-3.581-1.603-3.581-3.581
		s1.603-3.581,3.581-3.581C257.565,144.401,259.169,146.004,259.169,147.982"/>
	<path fill="#155BCD" d="M306.72,181.973c0,4.022-1.632,7.665-4.267,10.304c-2.636,2.635-6.278,4.265-10.302,4.265H63.53
		c-8.045,0-14.57-6.521-14.57-14.568c0-4.021,1.632-7.665,4.27-10.303c2.636-2.635,6.277-4.265,10.301-4.265h228.621
		C300.198,167.405,306.72,173.926,306.72,181.973"/>
	<path fill="#FFFFFF" d="M63.53,195.394c-7.399,0-13.421-6.021-13.421-13.421c0-7.398,6.021-13.42,13.421-13.42h228.62
		c7.401,0,13.421,6.021,13.421,13.42c0,7.4-6.02,13.421-13.421,13.421H63.53z"/>
	<path fill="#155BCD" d="M306.72,181.973c0,4.022-1.632,7.665-4.267,10.304c-2.636,2.635-6.278,4.265-10.302,4.265h-27.774v-29.136
		h27.774C300.198,167.405,306.72,173.926,306.72,181.973"/>
	<path fill="#FFFFFF" d="M282.226,185.81c-1.834,0-3.67-0.698-5.065-2.094c-2.792-2.793-2.792-7.338,0-10.131
		c2.793-2.793,7.337-2.793,10.13,0c2.792,2.793,2.792,7.338,0,10.131C285.895,185.111,284.06,185.81,282.226,185.81
		 M282.226,173.786c-1.246,0-2.492,0.475-3.44,1.424c-1.897,1.896-1.897,4.983,0,6.882c1.896,1.896,4.984,1.896,6.88,0
		c1.898-1.898,1.898-4.985,0-6.882C284.717,174.261,283.472,173.786,282.226,173.786"/>
	<path fill="#FFFFFF" d="M294.887,192.459c-0.294,0-0.589-0.111-0.813-0.337l-8.409-8.406c-0.447-0.448-0.447-1.177,0-1.625
		c0.45-0.448,1.176-0.448,1.625,0l8.408,8.407c0.449,0.449,0.449,1.177,0,1.624C295.475,192.348,295.181,192.459,294.887,192.459"/>
	<polygon fill="#155BCD" points="76.677,178.942 74.48,186.438 72.958,186.438 71.608,181.184 70.266,186.438 68.699,186.438 
		66.392,178.942 68.188,178.942 69.663,183.981 70.955,178.942 72.49,178.942 73.805,183.981 75.251,178.942 	"/>
	<polygon fill="#155BCD" points="87.265,178.942 85.069,186.438 83.547,186.438 82.197,181.184 80.854,186.438 79.288,186.438 
		76.981,178.942 78.776,178.942 80.253,183.981 81.544,178.942 83.08,178.942 84.395,183.981 85.84,178.942 	"/>
	<polygon fill="#155BCD" points="97.854,178.942 95.658,186.438 94.137,186.438 92.787,181.184 91.443,186.438 89.877,186.438 
		87.57,178.942 89.366,178.942 90.842,183.981 92.133,178.942 93.669,178.942 94.983,183.981 96.43,178.942 	"/>
	<rect x="98.545" y="184.493" fill="#155BCD" width="1.833" height="1.944"/>
	<rect x="132.505" y="218.318" fill="#155BCD" width="1.833" height="1.944"/>
	<path fill="#155BCD" d="M142.025,216.744l1.69,0.187c-0.107,1.013-0.501,1.848-1.175,2.503c-0.676,0.657-1.563,0.983-2.661,0.983
		c-0.925,0-1.675-0.232-2.251-0.696c-0.578-0.465-1.021-1.097-1.333-1.894c-0.311-0.796-0.467-1.675-0.467-2.634
		c0-1.544,0.366-2.799,1.098-3.766c0.732-0.968,1.739-1.451,3.021-1.451c1.004,0,1.841,0.31,2.508,0.928
		c0.668,0.618,1.089,1.504,1.261,2.656l-1.69,0.178c-0.313-1.528-1-2.293-2.063-2.293c-0.683,0-1.213,0.319-1.592,0.954
		c-0.378,0.636-0.568,1.557-0.568,2.764c0,1.228,0.203,2.153,0.609,2.779c0.404,0.626,0.941,0.939,1.609,0.939
		c0.534,0,0.989-0.211,1.365-0.631S141.975,217.329,142.025,216.744"/>
	<path fill="#155BCD" d="M148.896,220.418c-1.345,0-2.393-0.505-3.142-1.515c-0.75-1.009-1.124-2.256-1.124-3.74
		c0-1.474,0.396-2.707,1.193-3.698c0.798-0.992,1.849-1.488,3.153-1.488c1.317,0,2.357,0.496,3.122,1.488
		c0.763,0.991,1.146,2.231,1.146,3.721c0,1.563-0.397,2.826-1.191,3.788S150.207,220.418,148.896,220.418 M148.911,218.948
		c0.657,0,1.215-0.271,1.67-0.815c0.455-0.545,0.683-1.532,0.683-2.961c0-1.162-0.188-2.075-0.565-2.735
		c-0.375-0.66-0.96-0.991-1.75-0.991c-1.563,0-2.346,1.261-2.346,3.777c0,1.222,0.2,2.149,0.599,2.78
		C147.599,218.634,148.169,218.948,148.911,218.948"/>
	<polygon fill="#155BCD" points="164.88,220.262 163.018,220.262 163.018,211.394 160.212,220.262 159.255,220.262 156.436,211.394 
		156.436,220.262 154.943,220.262 154.943,210.132 157.801,210.132 159.923,216.655 162.008,210.132 164.88,210.132 	"/>
	<rect x="132.505" y="240.231" fill="#155BCD" width="1.833" height="1.943"/>
	<rect x="136.362" y="232.046" fill="#155BCD" width="1.825" height="10.129"/>
	<path fill="#155BCD" d="M148.065,242.174h-1.773l-3.844-6.471c-0.061-0.098-0.156-0.259-0.29-0.481
		c-0.06-0.1-0.151-0.254-0.275-0.468v7.42h-1.468v-10.129h2.018l3.547,5.966c0.029,0.051,0.244,0.414,0.646,1.093v-7.059h1.439
		V242.174z"/>
	<polygon fill="#155BCD" points="152.169,242.174 150.29,242.174 150.29,232.045 156.694,232.045 156.694,233.611 152.169,233.611 
		152.169,236.379 155.73,236.379 155.73,237.901 152.169,237.901 	"/>
	<path fill="#155BCD" d="M161.451,242.331c-1.345,0-2.393-0.506-3.142-1.515c-0.75-1.009-1.125-2.256-1.125-3.739
		c0-1.475,0.397-2.707,1.194-3.699s1.849-1.488,3.153-1.488c1.317,0,2.357,0.496,3.121,1.488s1.146,2.231,1.146,3.721
		c0,1.564-0.396,2.826-1.19,3.788S162.763,242.331,161.451,242.331 M161.467,240.86c0.656,0,1.214-0.271,1.669-0.814
		c0.455-0.545,0.684-1.532,0.684-2.961c0-1.162-0.189-2.075-0.565-2.735c-0.376-0.661-0.96-0.991-1.751-0.991
		c-1.563,0-2.345,1.26-2.345,3.777c0,1.222,0.199,2.148,0.597,2.78C160.154,240.547,160.725,240.86,161.467,240.86"/>
	<rect x="202.771" y="218.318" fill="#155BCD" width="1.833" height="1.944"/>
	<path fill="#155BCD" d="M212.293,216.744l1.69,0.187c-0.107,1.013-0.5,1.848-1.175,2.503c-0.675,0.657-1.563,0.983-2.661,0.983
		c-0.924,0-1.675-0.232-2.251-0.696c-0.577-0.465-1.021-1.097-1.333-1.894c-0.311-0.796-0.467-1.675-0.467-2.634
		c0-1.544,0.366-2.799,1.098-3.766c0.733-0.968,1.739-1.451,3.021-1.451c1.005,0,1.841,0.31,2.509,0.928s1.088,1.504,1.26,2.656
		l-1.69,0.178c-0.313-1.528-0.999-2.293-2.063-2.293c-0.683,0-1.213,0.319-1.591,0.954c-0.379,0.636-0.569,1.557-0.569,2.764
		c0,1.228,0.203,2.153,0.61,2.779c0.405,0.626,0.941,0.939,1.608,0.939c0.535,0,0.989-0.211,1.366-0.631
		C212.029,217.831,212.242,217.329,212.293,216.744"/>
	<path fill="#155BCD" d="M219.163,220.418c-1.345,0-2.392-0.505-3.142-1.515c-0.749-1.009-1.124-2.256-1.124-3.74
		c0-1.474,0.397-2.707,1.193-3.698c0.798-0.992,1.849-1.488,3.154-1.488c1.316,0,2.356,0.496,3.121,1.488
		c0.764,0.991,1.146,2.231,1.146,3.721c0,1.563-0.397,2.826-1.191,3.788S220.476,220.418,219.163,220.418 M219.179,218.948
		c0.657,0,1.215-0.271,1.67-0.815c0.455-0.545,0.683-1.532,0.683-2.961c0-1.162-0.189-2.075-0.564-2.735
		c-0.376-0.66-0.96-0.991-1.752-0.991c-1.562,0-2.345,1.261-2.345,3.777c0,1.222,0.2,2.149,0.598,2.78
		C217.866,218.634,218.438,218.948,219.179,218.948"/>
	<rect x="132.505" y="262.3" fill="#155BCD" width="1.833" height="1.943"/>
	<path fill="#155BCD" d="M144.014,264.243h-1.773l-3.844-6.471c-0.061-0.099-0.156-0.259-0.289-0.482
		c-0.061-0.099-0.152-0.254-0.275-0.468v7.421h-1.469v-10.129h2.018l3.548,5.967c0.028,0.05,0.244,0.412,0.646,1.091v-7.058h1.439
		V264.243z"/>
	<polygon fill="#155BCD" points="152.822,264.243 146.24,264.243 146.24,254.114 152.755,254.114 152.755,255.62 148.064,255.62 
		148.064,258.366 151.835,258.366 151.835,259.835 148.064,259.835 148.064,262.671 152.822,262.671 	"/>
	<polygon fill="#155BCD" points="157.935,264.243 155.976,264.243 155.976,255.681 153.282,255.681 153.282,254.114 
		160.627,254.114 160.627,255.681 157.935,255.681 	"/>
	<rect x="202.771" y="240.231" fill="#155BCD" width="1.833" height="1.943"/>
	<path fill="#155BCD" d="M212.293,238.657l1.691,0.187c-0.108,1.013-0.501,1.848-1.176,2.503c-0.675,0.656-1.563,0.984-2.661,0.984
		c-0.924,0-1.675-0.233-2.251-0.698c-0.577-0.466-1.021-1.095-1.333-1.893c-0.311-0.797-0.467-1.675-0.467-2.635
		c0-1.543,0.366-2.798,1.098-3.765c0.733-0.967,1.739-1.451,3.021-1.451c1.004,0,1.84,0.309,2.508,0.928
		c0.668,0.618,1.088,1.504,1.261,2.656l-1.691,0.178c-0.313-1.527-0.999-2.293-2.063-2.293c-0.682,0-1.213,0.319-1.591,0.954
		c-0.379,0.636-0.568,1.558-0.568,2.765c0,1.227,0.202,2.152,0.609,2.778c0.405,0.626,0.941,0.939,1.609,0.939
		c0.534,0,0.989-0.21,1.365-0.632C212.03,239.743,212.242,239.24,212.293,238.657"/>
	<path fill="#155BCD" d="M223.305,242.174h-1.951l-0.81-2.411h-3.896l-0.794,2.411h-1.559l3.362-10.129h2.248L223.305,242.174z
		 M220.055,238.301l-1.478-4.52l-1.476,4.52H220.055z"/>
	<rect x="273.04" y="218.318" fill="#155BCD" width="1.832" height="1.943"/>
	<path fill="#155BCD" d="M283.853,210.132v6.508c0,0.882-0.101,1.559-0.298,2.033c-0.197,0.476-0.579,0.885-1.146,1.229
		c-0.568,0.343-1.258,0.515-2.075,0.515c-0.826,0-1.505-0.147-2.037-0.445c-0.532-0.297-0.914-0.703-1.146-1.221
		c-0.233-0.516-0.35-1.176-0.35-1.977v-6.643h1.863v6.508c0,0.891,0.186,1.476,0.561,1.756c0.373,0.279,0.808,0.42,1.302,0.42
		c0.568,0,1.023-0.151,1.366-0.45c0.341-0.298,0.512-0.874,0.512-1.726v-6.508H283.853z"/>
	<path fill="#155BCD" d="M284.876,217.819l1.772-0.378c0.213,1.005,1.03,1.507,2.45,1.507c0.646,0,1.146-0.129,1.495-0.387
		c0.348-0.257,0.522-0.576,0.522-0.957c0-0.277-0.08-0.533-0.236-0.767c-0.159-0.236-0.498-0.42-1.019-0.554l-1.936-0.504
		c-0.663-0.174-1.153-0.371-1.47-0.591c-0.316-0.221-0.569-0.53-0.761-0.932c-0.189-0.4-0.286-0.828-0.286-1.283
		c0-0.905,0.338-1.632,1.011-2.178s1.532-0.82,2.582-0.82c0.87,0,1.647,0.191,2.334,0.572c0.685,0.38,1.12,0.919,1.31,1.617
		l-1.737,0.43c-0.267-0.767-0.89-1.149-1.87-1.149c-0.568,0-1.003,0.118-1.302,0.355c-0.299,0.238-0.448,0.539-0.448,0.906
		c0,0.578,0.47,0.983,1.409,1.216l1.722,0.431c1.044,0.262,1.744,0.65,2.101,1.161c0.354,0.512,0.534,1.077,0.534,1.696
		c0,0.994-0.375,1.777-1.124,2.348c-0.75,0.572-1.722,0.858-2.913,0.858c-1.004,0-1.884-0.21-2.638-0.632
		C285.624,219.366,285.122,218.711,284.876,217.819"/>
	<rect x="113.713" y="207.555" fill="#FF654F" width="12.862" height="12.862"/>
	<rect x="113.713" y="229.467" fill="#FF654F" width="12.862" height="12.864"/>
	<rect x="113.713" y="251.38" fill="#FF654F" width="12.862" height="12.863"/>
	<rect x="202.771" y="218.318" fill="#155BCD" width="1.833" height="1.944"/>
	<path fill="#155BCD" d="M212.293,216.744l1.69,0.187c-0.107,1.013-0.5,1.848-1.175,2.503c-0.675,0.657-1.563,0.983-2.661,0.983
		c-0.924,0-1.675-0.232-2.251-0.696c-0.577-0.465-1.021-1.097-1.333-1.894c-0.311-0.796-0.467-1.675-0.467-2.634
		c0-1.544,0.366-2.799,1.098-3.766c0.733-0.968,1.739-1.451,3.021-1.451c1.005,0,1.841,0.31,2.509,0.928s1.088,1.504,1.26,2.656
		l-1.69,0.178c-0.313-1.528-0.999-2.293-2.063-2.293c-0.682,0-1.213,0.319-1.591,0.954c-0.379,0.636-0.569,1.557-0.569,2.764
		c0,1.228,0.203,2.153,0.61,2.779c0.405,0.626,0.941,0.939,1.608,0.939c0.535,0,0.989-0.211,1.366-0.631
		C212.029,217.831,212.242,217.329,212.293,216.744"/>
	<path fill="#155BCD" d="M219.163,220.418c-1.345,0-2.392-0.505-3.142-1.515c-0.749-1.009-1.124-2.256-1.124-3.74
		c0-1.474,0.397-2.707,1.193-3.698c0.798-0.992,1.849-1.488,3.154-1.488c1.316,0,2.356,0.496,3.121,1.488
		c0.764,0.991,1.146,2.231,1.146,3.721c0,1.563-0.397,2.826-1.191,3.788S220.476,220.418,219.163,220.418 M219.179,218.948
		c0.657,0,1.215-0.271,1.67-0.815c0.455-0.545,0.683-1.532,0.683-2.961c0-1.162-0.188-2.075-0.564-2.735s-0.96-0.991-1.752-0.991
		c-1.562,0-2.345,1.261-2.345,3.777c0,1.222,0.2,2.149,0.598,2.78C217.866,218.634,218.438,218.948,219.179,218.948"/>
	<polygon fill="#155BCD" points="235.147,220.262 233.285,220.262 233.285,211.394 230.479,220.262 229.523,220.262 
		226.703,211.394 226.703,220.262 225.211,220.262 225.211,210.132 228.069,210.132 230.191,216.655 232.276,210.132 
		235.147,210.132 	"/>
	<rect x="183.98" y="207.555" fill="#FF654F" width="12.863" height="12.862"/>
	<rect x="183.98" y="229.467" fill="#FF654F" width="12.863" height="12.864"/>
	<rect x="183.98" y="251.38" fill="#FF654F" width="12.863" height="12.863"/>
	<rect x="254.247" y="207.555" fill="#FF654F" width="12.864" height="12.862"/>
	<rect x="202.771" y="262.144" fill="#155BCD" width="1.833" height="1.943"/>
	<path fill="#155BCD" d="M210.362,264.244c-1.344,0-2.392-0.505-3.142-1.515c-0.749-1.01-1.124-2.256-1.124-3.74
		c0-1.474,0.397-2.707,1.194-3.698c0.797-0.992,1.849-1.488,3.153-1.488c1.316,0,2.357,0.496,3.121,1.488
		c0.764,0.991,1.146,2.231,1.146,3.721c0,1.563-0.396,2.826-1.19,3.788S211.675,264.244,210.362,264.244 M210.379,262.773
		c0.656,0,1.214-0.271,1.669-0.815c0.455-0.544,0.684-1.531,0.684-2.96c0-1.163-0.189-2.075-0.565-2.735
		c-0.376-0.661-0.96-0.991-1.751-0.991c-1.563,0-2.345,1.259-2.345,3.777c0,1.222,0.199,2.147,0.597,2.779
		C209.066,262.459,209.637,262.773,210.379,262.773"/>
	<path fill="#155BCD" d="M224.306,264.087h-1.929l-1.574-4.162h-2.567v4.162h-1.824v-10.129h4.392c1.223,0,2.12,0.276,2.695,0.828
		c0.573,0.551,0.859,1.266,0.859,2.141c0,1.302-0.607,2.196-1.824,2.686L224.306,264.087z M218.235,258.463h2.271
		c0.658,0,1.148-0.139,1.469-0.415c0.322-0.277,0.483-0.658,0.483-1.144c0-0.445-0.159-0.805-0.476-1.08
		c-0.316-0.274-0.76-0.411-1.327-0.411h-2.421V258.463z"/>
	<path fill="#155BCD" d="M233.745,258.908v5.18h-0.81l-0.556-1.366c-0.589,1.015-1.501,1.521-2.739,1.521
		c-1.379,0-2.41-0.523-3.089-1.572c-0.682-1.049-1.021-2.265-1.021-3.645c0-1.459,0.38-2.693,1.14-3.706
		c0.76-1.012,1.821-1.517,3.187-1.517c1.02,0,1.858,0.294,2.517,0.886c0.656,0.591,1.072,1.327,1.245,2.207l-1.588,0.283
		c-0.297-1.237-1.007-1.856-2.13-1.856c-0.717,0-1.302,0.292-1.755,0.876c-0.452,0.584-0.678,1.481-0.678,2.693
		c0,2.558,0.801,3.837,2.404,3.837c0.623,0,1.139-0.216,1.547-0.645c0.407-0.432,0.611-1,0.611-1.707h-2.093v-1.47H233.745z"/>
	<polygon fill="#155BCD" points="201.631,31.897 226.318,41.867 229.767,50.389 221.983,46.25 223.317,43.504 	"/>
	<polygon fill="#84A9FF" points="226.319,41.867 235.97,35.608 201.631,31.897 	"/>
	<polygon fill="#84A9FF" points="223.317,43.503 217.913,54.633 201.63,31.897 	"/>
	<path fill="#84A9FF" d="M359.786,287.979c-0.648-0.657-1.276-1.351-1.863-2.062l0.531-0.44c0.573,0.696,1.188,1.375,1.822,2.019
		L359.786,287.979z M355.239,282.133c-0.787-1.302-1.499-2.691-2.113-4.127l0.634-0.271c0.602,1.405,1.3,2.766,2.069,4.041
		L355.239,282.133z M351.575,273.638c-0.414-1.45-0.758-2.97-1.017-4.517l0.679-0.115c0.256,1.522,0.592,3.017,1,4.442
		L351.575,273.638z M350.026,264.522c-0.072-1.1-0.108-2.229-0.108-3.361c0-0.42,0.005-0.84,0.015-1.262l0.689,0.017
		c-0.011,0.416-0.016,0.831-0.016,1.245c0,1.115,0.037,2.231,0.108,3.316L350.026,264.522z M350.916,255.36l-0.687-0.071
		c0.159-1.509,0.378-3.046,0.655-4.573l0.677,0.122C351.288,252.348,351.071,253.87,350.916,255.36 M352.532,246.374l-0.667-0.17
		c0.376-1.482,0.811-2.974,1.289-4.435l0.655,0.216C353.336,243.431,352.905,244.907,352.532,246.374 M355.38,237.692l-0.64-0.259
		c0.557-1.374,1.171-2.797,1.829-4.229l0.627,0.287C356.543,234.915,355.932,236.329,355.38,237.692 M359.188,229.366l-0.615-0.311
		c0.665-1.314,1.364-2.648,2.141-4.077l0.604,0.329C360.548,226.73,359.852,228.058,359.188,229.366 M363.551,221.299l-0.601-0.34
		c0.683-1.198,1.412-2.463,2.302-3.983l0.595,0.348C364.96,218.841,364.229,220.104,363.551,221.299 M368.174,213.364l-0.595-0.351
		c0.776-1.319,1.553-2.638,2.321-3.962l0.597,0.347C369.727,210.723,368.95,212.044,368.174,213.364 M372.784,205.409l-0.6-0.338
		c0.805-1.433,1.528-2.746,2.209-4.021l0.607,0.326C374.317,202.653,373.594,203.973,372.784,205.409 M377.108,197.284l-0.617-0.307
		c0.698-1.412,1.356-2.806,1.952-4.142l0.63,0.28C378.474,194.462,377.812,195.864,377.108,197.284 M380.852,188.862l-0.641-0.25
		c0.55-1.418,1.066-2.867,1.536-4.309l0.654,0.213C381.929,185.97,381.407,187.432,380.852,188.862 M383.706,180.091l-0.666-0.175
		c0.39-1.478,0.737-2.977,1.037-4.454l0.677,0.136C384.45,177.09,384.099,178.602,383.706,180.091 M385.531,171.049l-0.682-0.094
		c0.211-1.518,0.377-3.046,0.489-4.546l0.687,0.052C385.911,167.975,385.745,169.519,385.531,171.049 M386.219,161.849l-0.69-0.006
		c0.001-0.165,0.002-0.33,0.002-0.496c0-1.363-0.044-2.732-0.129-4.07l0.688-0.044c0.087,1.353,0.131,2.736,0.131,4.114
		C386.221,161.515,386.22,161.682,386.219,161.849 M384.937,152.733c-0.213-1.515-0.489-3.025-0.818-4.489l0.673-0.152
		c0.334,1.483,0.611,3.012,0.829,4.546L384.937,152.733z M382.93,143.837c-0.46-1.453-0.989-2.895-1.57-4.283l0.636-0.265
		c0.59,1.407,1.125,2.868,1.592,4.341L382.93,143.837z M379.409,135.431c-0.7-1.326-1.476-2.648-2.305-3.934l0.581-0.373
		c0.837,1.301,1.623,2.642,2.333,3.984L379.409,135.431z M374.481,127.765c-0.902-1.184-1.88-2.37-2.902-3.525l0.517-0.457
		c1.033,1.168,2.02,2.367,2.934,3.564L374.481,127.765z M368.438,120.919c-1.05-1.044-2.173-2.096-3.337-3.128l0.457-0.517
		c1.173,1.04,2.306,2.103,3.366,3.154L368.438,120.919z M361.601,114.837c-1.15-0.922-2.371-1.864-3.63-2.794l0.409-0.556
		c1.267,0.938,2.496,1.885,3.651,2.813L361.601,114.837z M354.236,109.38c-1.203-0.829-2.485-1.686-3.812-2.548l0.376-0.578
		c1.331,0.866,2.619,1.726,3.828,2.559L354.236,109.38z M346.552,104.372c-1.22-0.757-2.501-1.54-3.918-2.394l0.354-0.59
		c1.42,0.854,2.704,1.639,3.927,2.398L346.552,104.372z M338.688,99.631c-1.187-0.701-2.374-1.396-3.554-2.09l-0.405-0.238
		l0.349-0.594l0.404,0.236c1.182,0.694,2.369,1.392,3.557,2.093L338.688,99.631z M330.773,94.963
		c-1.396-0.837-2.682-1.622-3.929-2.398l0.364-0.585c1.243,0.774,2.524,1.558,3.92,2.394L330.773,94.963z M322.962,90.091
		c-1.322-0.862-2.609-1.726-3.822-2.567l0.391-0.565c1.21,0.837,2.49,1.696,3.809,2.557L322.962,90.091z M315.394,84.841
		c-1.261-0.937-2.488-1.884-3.645-2.815l0.432-0.537c1.151,0.927,2.37,1.868,3.625,2.8L315.394,84.841z M308.226,79.055
		c-1.151-1.017-2.261-2.051-3.304-3.076l-0.565-0.188l0.218-0.654l1.03,0.343c1.109,0.211,2.249,0.35,3.389,0.411l-0.036,0.688
		c-0.913-0.05-1.826-0.147-2.726-0.29c0.788,0.752,1.609,1.506,2.45,2.25L308.226,79.055z M313.601,76.438l-0.079-0.685
		c1.483-0.169,2.981-0.461,4.452-0.869l0.183,0.663C316.651,75.965,315.118,76.265,313.601,76.438 M299.999,74.339l-4.358-1.452
		l0.217-0.654l4.359,1.453L299.999,74.339z M322.523,73.978l-0.28-0.629c1.375-0.612,2.725-1.33,4.009-2.137l0.366,0.584
		C325.307,72.62,323.929,73.354,322.523,73.978 M301.667,72.576c-1.044-1.164-2.04-2.355-2.96-3.54l0.544-0.423
		c0.91,1.173,1.896,2.351,2.929,3.502L301.667,72.576z M291.28,71.436l-4.357-1.451l0.218-0.654l4.358,1.451L291.28,71.436z
		 M330.363,69.059l-0.443-0.525c1.161-0.982,2.254-2.049,3.249-3.174l0.516,0.457C332.668,66.965,331.551,68.056,330.363,69.059
		 M282.563,68.531l-4.359-1.451l0.219-0.654l4.357,1.452L282.563,68.531z M273.847,65.629l-4.36-1.452l0.218-0.654l4.359,1.452
		L273.847,65.629z M296.019,65.281c-0.854-1.301-1.65-2.636-2.368-3.969l0.608-0.326c0.707,1.314,1.493,2.633,2.336,3.916
		L296.019,65.281z M265.129,62.725l-4.359-1.452l0.218-0.653l4.359,1.451L265.129,62.725z M336.491,62.119l-0.578-0.373
		c0.826-1.283,1.548-2.627,2.143-3.994l0.631,0.275C338.077,59.428,337.339,60.805,336.491,62.119 M256.411,59.82l-4.358-1.45
		l0.217-0.655l4.359,1.453L256.411,59.82z M291.651,57.144c-0.535-1.266-1.019-2.565-1.438-3.862
		c-0.052-0.16-0.103-0.32-0.152-0.481l0.66-0.202c0.048,0.157,0.097,0.314,0.147,0.471c0.413,1.278,0.892,2.56,1.418,3.808
		L291.651,57.144z M247.693,56.918l-4.358-1.452l0.218-0.654l4.358,1.452L247.693,56.918z M238.976,54.014l-4.359-1.451l0.219-0.654
		l4.358,1.451L238.976,54.014z M340.168,53.624l-0.669-0.162c0.093-0.385,0.178-0.776,0.252-1.163
		c0.208-1.084,0.348-2.199,0.414-3.314l0.687,0.041c-0.067,1.146-0.21,2.29-0.424,3.404
		C340.351,52.827,340.264,53.229,340.168,53.624 M288.985,48.291c-0.261-1.524-0.428-3.075-0.496-4.608l0.689-0.03
		c0.066,1.506,0.229,3.026,0.487,4.521L288.985,48.291z M340.049,44.456c-0.162-1.483-0.448-2.982-0.851-4.454l0.665-0.182
		c0.411,1.508,0.703,3.041,0.869,4.561L340.049,44.456z M289.278,39.109l-0.685-0.063c0.14-1.57,0.393-3.111,0.75-4.58l0.67,0.162
		C289.665,36.065,289.418,37.572,289.278,39.109 M337.684,35.724c-0.606-1.377-1.319-2.729-2.12-4.017l0.585-0.364
		c0.819,1.315,1.547,2.697,2.165,4.103L337.684,35.724z M291.445,30.333l-0.632-0.274c0.633-1.457,1.395-2.826,2.261-4.068
		l0.565,0.395C292.799,27.59,292.061,28.918,291.445,30.333 M332.899,28.027c-0.976-1.166-2.039-2.263-3.159-3.263l0.459-0.514
		c1.146,1.021,2.231,2.144,3.229,3.334L332.899,28.027z M296.609,22.996l-0.463-0.51c0.592-0.539,1.224-1.047,1.876-1.51
		c0.609-0.433,1.253-0.838,1.916-1.206l0.334,0.604c-0.64,0.354-1.263,0.747-1.85,1.164
		C297.792,21.986,297.183,22.477,296.609,22.996 M326.14,22.005c-1.28-0.833-2.62-1.56-3.984-2.162l0.278-0.63
		c1.398,0.616,2.771,1.361,4.082,2.214L326.14,22.005z M304.435,18.629l-0.2-0.66c1.458-0.439,2.993-0.744,4.564-0.907l0.071,0.687
		C307.343,17.904,305.851,18.202,304.435,18.629 M317.873,18.379c-0.415-0.102-0.837-0.195-1.257-0.276
		c-1.06-0.205-2.143-0.349-3.219-0.425l0.048-0.688c1.104,0.078,2.216,0.225,3.303,0.436c0.431,0.083,0.863,0.179,1.29,0.284
		L317.873,18.379z"/>
	<path fill="#E5E6EB" d="M139.761,43.265c-1.771,0-3.32-0.916-4.207-2.306c-0.101-0.141-0.19-0.302-0.262-0.463
		c-0.171-0.342-0.302-0.693-0.392-1.076c-0.01-0.051-0.021-0.111-0.031-0.161c-0.03-0.11-0.04-0.231-0.049-0.343
		c-0.04-0.211-0.051-0.423-0.051-0.644s0.011-0.433,0.051-0.644c0.009-0.111,0.019-0.232,0.049-0.344
		c0.011-0.05,0.021-0.109,0.031-0.16c0.09-0.383,0.221-0.734,0.392-1.076c0.081-0.161,0.171-0.323,0.262-0.474
		c0.896-1.389,2.445-2.305,4.207-2.305c2.355,0,4.328,1.63,4.853,3.813c0.009,0.012,0.009,0.031,0.009,0.041
		c0.04,0.16,0.071,0.322,0.091,0.483c0.011,0.01,0.011,0.01,0,0.021c0.04,0.211,0.05,0.423,0.05,0.644s-0.01,0.433-0.05,0.644
		c0.011,0.011,0.011,0.011,0,0.021c-0.02,0.161-0.051,0.322-0.091,0.483c0,0.011,0,0.03-0.009,0.041
		C144.089,41.645,142.116,43.265,139.761,43.265"/>
	<path fill="#E5E6EB" d="M109.88,16.92c0-0.449,0.184-0.899,0.545-1.226c8.087-7.304,18.511-11.327,29.35-11.327
		c10.852,0,21.277,4.035,29.35,11.363c0.679,0.615,0.724,1.661,0.113,2.332c-0.613,0.676-1.656,0.726-2.332,0.113
		c-7.464-6.774-17.101-10.506-27.131-10.506c-10.02,0-19.657,3.722-27.137,10.477c-0.676,0.611-1.722,0.558-2.332-0.12
		C110.02,17.713,109.88,17.316,109.88,16.92"/>
	<path fill="#E5E6EB" d="M123.192,31.618c0-0.442,0.179-0.887,0.529-1.213c4.339-4.011,10.039-6.219,16.053-6.219
		c5.976,0,11.674,2.206,16.046,6.214c0.672,0.616,0.717,1.66,0.102,2.334c-0.616,0.673-1.662,0.719-2.334,0.102
		c-3.761-3.447-8.667-5.347-13.813-5.347c-5.18,0-10.084,1.897-13.811,5.343c-0.668,0.619-1.714,0.577-2.334-0.093
		C123.338,32.422,123.192,32.021,123.192,31.618"/>
	<path fill="#E5E6EB" d="M116.519,24.286c0-0.446,0.182-0.894,0.537-1.219c6.207-5.67,14.275-8.791,22.719-8.791
		c8.458,0,16.514,3.123,22.686,8.794c0.673,0.619,0.713,1.664,0.099,2.334c-0.617,0.671-1.66,0.717-2.334,0.098
		c-5.56-5.109-12.823-7.922-20.45-7.922c-7.616,0-14.895,2.814-20.488,7.926c-0.675,0.615-1.72,0.567-2.334-0.105
		C116.663,25.084,116.519,24.685,116.519,24.286"/>
	<path fill="#E5E6EB" d="M123.192,31.618c0-0.442,0.179-0.887,0.529-1.213c4.339-4.011,10.039-6.219,16.053-6.219
		c5.976,0,11.674,2.206,16.046,6.214c0.672,0.616,0.717,1.66,0.102,2.334c-0.616,0.673-1.662,0.719-2.334,0.102
		c-3.761-3.447-8.667-5.347-13.813-5.347c-5.18,0-10.084,1.897-13.811,5.343c-0.668,0.619-1.714,0.577-2.334-0.093
		C123.338,32.422,123.192,32.021,123.192,31.618"/>
	<path fill="#050F64" d="M266.72,272.272v0.002l0.019-0.026c0.077-0.111,0.157-0.216,0.242-0.318l0.004-0.005
		c1.133-1.346,2.973-1.829,4.597-1.273l0.002-0.004c0,0,0.251,0.099,0.339,0.137l21.691,8.712c0.002,0.001,0.004,0.001,0.006,0.002
		c2.899,0.987,4.448,4.139,3.459,7.038c-0.988,2.897-4.139,4.447-7.038,3.459l-19.047-6.174l-19.683,17.154l-3.485-3.016
		L266.72,272.272z"/>
	<path fill="#155BCD" d="M265.118,273.934l0.327,0.071l1.273-1.732l0.001,0.001l0.02-0.025c0.076-0.11,0.155-0.217,0.24-0.317
		l0.005-0.006c1.134-1.347,2.974-1.829,4.598-1.274l0.002-0.003c0,0,0.251,0.098,0.339,0.137l1.21,0.486l0.036-0.314l-1.133-0.456
		c-0.08-0.036-0.342-0.138-0.342-0.138l-0.271-0.104l-0.011,0.021c-0.225-0.06-0.453-0.104-0.685-0.131
		c-1.514-0.171-3,0.419-3.979,1.581c0,0-0.054,0.064-0.074,0.088l-0.01,0.016c-0.056,0.07-0.112,0.146-0.168,0.226L265.118,273.934z
		 M248.89,299.285l2.42,2.095l17.697-15.422l-0.174-0.255l-17.523,15.273l-2.25-1.948L248.89,299.285z M274.206,284.861l-0.313,0.22
		l13.468,4.365l0.035-0.309L274.206,284.861z M279.837,273.962l10.808,4.342l0.128-0.278l-10.9-4.377L279.837,273.962z
		 M295.378,280.096l-0.249,0.191c1.889,1.397,2.75,3.903,1.95,6.248c-0.255,0.75-0.655,1.409-1.16,1.958l0.145,0.28
		c0.572-0.597,1.025-1.322,1.304-2.14C298.199,284.194,297.322,281.579,295.378,280.096 M249.317,295.417l0.231,0.198l11.365-15.45
		l-0.293-0.117L249.317,295.417z"/>
	<path fill="#EA8096" d="M265.134,283.273c-0.048-0.604,0.254-1.146,0.764-1.304c1.523-0.479,3.019-1.202,4.445-2.012
		c1.426-0.826,2.791-1.762,4.102-2.773c0.323-0.259,0.655-0.503,0.971-0.771l0.952-0.798l0.929-0.827
		c0.313-0.273,0.607-0.568,0.909-0.851l0.452-0.427l0.441-0.44c0.292-0.297,0.587-0.586,0.875-0.886
		c0.565-0.61,1.145-1.202,1.688-1.834c4.418-4.976,8.129-10.573,11.369-16.425c0.134-0.227,0.292-0.434,0.467-0.62
		c0.174-0.187,0.362-0.356,0.567-0.503c0.409-0.292,0.879-0.495,1.378-0.605c0.998-0.221,2.115-0.07,3.091,0.523
		c0.978,0.596,1.61,1.52,1.832,2.538c0.112,0.509,0.121,1.04,0.022,1.562c-0.052,0.26-0.124,0.518-0.232,0.767
		c-0.11,0.249-0.248,0.489-0.414,0.717c-4.274,5.694-9.029,11.085-14.483,15.741c-0.672,0.59-1.384,1.142-2.076,1.707
		c-0.354,0.277-0.713,0.545-1.069,0.816l-0.536,0.406l-0.548,0.391c-0.369,0.26-0.725,0.527-1.101,0.775l-1.12,0.748l-1.145,0.715
		c-0.379,0.239-0.774,0.457-1.162,0.687c-1.561,0.892-3.178,1.698-4.851,2.379c-1.684,0.667-3.408,1.231-5.242,1.54
		C265.784,284.319,265.181,283.884,265.134,283.273"/>
	<path fill="#84A9FF" d="M293.196,269.09l6.386-8.395c1.931-2.539,1.671-6.101-0.869-8.033c-2.539-1.931-6.396-1.501-8.327,1.038
		l-6.384,8.395L293.196,269.09z"/>
	<path fill="#84A9FF" d="M303.135,249.349L303.135,249.349c-6.146-1.103-11.917,3.286-12.498,9.502l-2.695,28.641
		c9.464,5.677,14.79,5.111,23.759,3.022l2.172-27.479C314.287,256.408,309.669,250.522,303.135,249.349"/>
	<path fill="#FFFFFF" d="M296.344,250.024l0.232,0.237c1.182-0.581,2.48-0.946,3.837-1.051c0.688-0.054,1.393-0.039,2.104,0.048
		l-0.106-0.321c-0.673-0.073-1.352-0.084-2.022-0.031C298.942,249.019,297.576,249.409,296.344,250.024 M290.096,261.339
		l0.309-0.025l0.231-2.463c0.227-2.413,1.234-4.55,2.742-6.199l-0.18-0.266c-1.589,1.717-2.635,3.951-2.865,6.437L290.096,261.339z
		 M288.542,277.855l0.296,0.106l1.259-13.385l-0.308,0.024L288.542,277.855z M312.199,284.214c0.096,0.033,0.193,0.068,0.297,0.104
		l0.421-5.315l-0.302-0.042L312.199,284.214z M303.906,249.2l0.159,0.353c4.892,1.246,8.552,5.178,9.557,9.981l0.316,0.026
		C312.921,254.527,309.058,250.413,303.906,249.2 M313.817,263.74l-0.813,10.298l0.303,0.023l0.812-10.239L313.817,263.74z"/>
	<path fill="#F5BDC8" d="M297.485,245.29l0.867,7.536c1.76,0.875,3.396,0.688,4.91-0.564l-0.867-7.536L297.485,245.29z"/>
	<path fill="#EA8096" d="M297.485,245.29l0.393,3.409c0.36,0.095,0.739,0.138,1.128,0.125c0.125-0.004,0.25-0.013,0.373-0.026
		c1.351-0.155,2.548-0.93,3.25-2.051l-0.233-2.021L297.485,245.29z"/>
	<path fill="#F5BDC8" d="M294.723,240.938l0.678,4.404c0.27,1.76,1.811,3.04,3.591,2.986c1.617-0.052,3.05-1.081,3.584-2.609
		c0.352-1.01,0.643-2.17,0.91-3.387c0.426-1.946-0.223-4-1.754-5.273c-1.307-1.085-2.815-1.295-4.54-0.564
		C295.448,237.231,294.435,239.067,294.723,240.938"/>
	<path fill="#050F64" d="M295.418,238.492c0,0-0.737,1.541-0.417,4.255c0,0-0.785-2.69-0.445-4.875L295.418,238.492z"/>
	<path fill="#050F64" d="M305.072,242.193c0,0,2.157-3.729-0.518-6.323c-2.882-2.795-4.64-2.369-6.518-1.731
		c-2.375,0.808-3.624,1.729-4.562,1.589c-0.5-0.076-0.963-0.468-1.024-0.18c-0.064,0.287-0.091,1.959,1.382,3.113
		c1.47,1.154,3.275,0.854,5.003-0.183c1.726-1.038,2.576-0.974,3.392,0.081c0.865,1.12-0.087,3.317-0.087,3.317l0.562,0.165
		C302.702,242.042,304.703,240.702,305.072,242.193"/>
	<path fill="#F5BDC8" d="M301.563,242.152c0.104,0.904,1.013,1.542,2.027,1.425c1.018-0.116,1.756-0.944,1.652-1.849
		c-0.105-0.903-1.013-1.543-2.029-1.426C302.199,240.421,301.459,241.249,301.563,242.152"/>
	<path fill="#F4BCC7" d="M268.544,286.389c0.838-0.098,1.684-0.22,2.502-0.339l0.599-0.086c0.333-0.05,0.664-0.104,0.995-0.161
		c0.181-0.03,0.361-0.06,0.544-0.09l0.765-0.128l0.764-0.145c0.181-0.036,0.359-0.07,0.541-0.104
		c0.321-0.06,0.654-0.122,0.978-0.196l1.505-0.332l1.489-0.377c0.315-0.078,0.632-0.173,0.938-0.264
		c0.176-0.051,0.352-0.104,0.525-0.153c2.093-0.633,3.905-1.345,5.537-2.179c1.784-0.911,3.374-1.984,4.726-3.189
		c2.522-2.248,4.616-5.215,6.592-9.338c0.772-1.609,1.547-3.428,2.366-5.557c0.649-1.702,1.311-3.55,2.082-5.814
		c0.413-1.17,1.274-2.129,2.361-2.631c0.974-0.447,2.038-0.492,2.997-0.123c0.957,0.368,1.709,1.118,2.118,2.11
		c0.464,1.125,0.429,2.442-0.098,3.614c-1.063,2.267-1.966,4.117-2.841,5.822c-1.156,2.231-2.188,4.062-3.248,5.761
		c-1.327,2.125-2.635,3.924-4.001,5.503c-1.589,1.839-3.316,3.427-5.135,4.718c-1.818,1.29-3.877,2.373-6.122,3.222
		c-1.954,0.738-4.064,1.313-6.454,1.756c-0.186,0.03-0.373,0.064-0.559,0.098c-0.348,0.063-0.705,0.126-1.06,0.175l-1.615,0.224
		l-1.609,0.174c-0.009,0.001-0.018,0.002-0.025,0.003c-0.341,0.039-0.686,0.063-1.02,0.09c-0.189,0.014-0.377,0.028-0.566,0.044
		l-0.804,0.064l-0.803,0.043c-0.188,0.011-0.375,0.021-0.563,0.031c-0.346,0.021-0.693,0.039-1.04,0.053l-0.591,0.019
		c-0.854,0.03-1.738,0.059-2.605,0.065c-0.693,0.01-1.268-0.477-1.305-1.107C267.365,287.034,267.866,286.474,268.544,286.389"/>
	<path fill="#84A9FF" d="M305.805,272.451l4.37-9.683c1.322-2.928,0.262-6.367-2.668-7.688l-0.24-0.01
		c-2.931-1.322-6.375-0.019-7.697,2.909l-4.371,9.685L305.805,272.451z"/>
	<path fill="#FFFFFF" d="M298.112,260.397l0.311,0.123l1.146-2.541c1.082-2.396,3.587-3.703,6.068-3.373l0.105-0.322
		c-0.514-0.075-1.041-0.082-1.56-0.024c-2.148,0.244-4.031,1.617-4.919,3.583L298.112,260.397z M294.755,267.831l6.759,3.05
		l0.129-0.308l-6.446-2.908l0.916-2.027l-0.312-0.123L294.755,267.831z M310.176,262.769l-3.467,7.68l0.33,0.078l3.441-7.619
		c0.682-1.514,0.779-3.18,0.271-4.691c-0.449-1.342-1.336-2.438-2.53-3.14l-0.13,0.31
		C310.572,256.877,311.406,260.044,310.176,262.769"/>
	<polygon fill="#FF654F" points="257.069,289.478 277.35,283.763 266.409,268.928 246.128,274.642 	"/>
	<path fill="#FFFFFF" d="M261.005,280.971c0.893,1.587,2.092,2.604,2.68,2.273c0.587-0.331,0.34-1.884-0.552-3.47
		c-0.894-1.586-2.093-2.604-2.68-2.274C259.865,277.831,260.112,279.385,261.005,280.971"/>
	<g opacity="0">
		<g>
			<defs>
				<path id="SVGID_1_" d="M37.021,236.3h0.002H37.021z"/>
			</defs>
			<clipPath id="SVGID_2_">
				<use xlink:href="#SVGID_1_"  overflow="visible"/>
			</clipPath>
			<polyline clip-path="url(#SVGID_2_)" fill="#84A9FF" points="37.023,236.302 37.022,236.304 37.021,236.302 37.022,236.301 
				37.023,236.302 			"/>
		</g>
	</g>
	<path fill="#F5BDC8" d="M49.365,263.117l-1.477-7.198l-11.743,2.969l3.115,6.562l0.445,34.597l0.098,3.242l2.502-0.064l0.372-2.902
		l6.721-35.021l-0.002-0.001l0.009-0.037c0.029-0.161,0.055-0.321,0.069-0.479l0.001-0.008
		C49.531,264.208,49.49,263.648,49.365,263.117"/>
	<path fill="#050F64" d="M47.89,255.919c0,0-4.664-22.213-4.664-22.215c-0.549-3.673-19.207-0.15-19.207-0.15
		c-3.057,3.756-3.693,9.434-3.824,16.064c-0.051,2.538,0.077,5.076,0.353,7.449l13.639,2.077l0.111-1.708
		c0.272,0.581,0.552,1.15,0.835,1.708L47.89,255.919z"/>
	<g opacity="0">
		<g>
			<defs>
				<path id="SVGID_3_" d="M30.312,236.329h0.002H30.312z"/>
			</defs>
			<clipPath id="SVGID_4_">
				<use xlink:href="#SVGID_3_"  overflow="visible"/>
			</clipPath>
			<polyline clip-path="url(#SVGID_4_)" fill="#84A9FF" points="30.314,236.333 30.312,236.335 30.312,236.333 30.313,236.332 
				30.314,236.333 			"/>
		</g>
	</g>
	<polygon fill="#F5BDC8" points="33.54,259.045 21.589,257.227 23.99,303.265 26.486,303.206 	"/>
	<path fill="#050F64" d="M33.537,199.852c0,0-5.48,1.746-6.078-7.188c0,0,1.971-1.969,2.115-2.071
		c0.146-0.101,3.261,5.539,3.261,5.539L33.537,199.852z"/>
	<path fill="#EA8096" d="M78.349,217.17c-0.071-0.665-0.592-1.169-1.186-1.15l-1.322,0.028l-1.317,0.011
		c-0.879,0.013-1.755-0.011-2.629-0.018c-1.746-0.047-3.485-0.112-5.192-0.278c-1.708-0.163-3.388-0.398-5.006-0.75
		c-1.619-0.353-3.169-0.825-4.634-1.442c-1.468-0.617-2.854-1.367-4.204-2.263c-1.354-0.891-2.686-1.9-4.032-2.972
		c-1.347-1.07-2.71-2.198-4.102-3.327c-1.393-1.131-2.807-2.27-4.255-3.383c-0.935-0.684-2.084-0.871-3.164-0.604
		c-1.08,0.262-2.078,0.965-2.742,2.031c-0.664,1.063-0.867,2.271-0.678,3.34c0.194,1.065,0.774,2.01,1.721,2.566
		c1.511,0.842,3.013,1.723,4.529,2.62c1.518,0.899,3.047,1.823,4.636,2.743c1.588,0.917,3.242,1.83,5,2.643
		c1.752,0.818,3.628,1.504,5.532,1.985c1.905,0.487,3.836,0.767,5.73,0.892c1.896,0.127,3.76,0.106,5.598,0.012
		c1.84-0.094,3.646-0.293,5.442-0.51c0.894-0.127,1.791-0.236,2.678-0.381l1.332-0.207l1.326-0.229
		C78.008,218.431,78.419,217.834,78.349,217.17"/>
	<path fill="#FFFFFF" d="M44.612,216.136l-8.425-5.459c-2.548-1.649-3.463-4.925-1.811-7.473c1.651-2.548,5.242-3.405,7.791-1.755
		l8.423,5.459L44.612,216.136z"/>
	<path fill="#050F64" d="M36.559,248.673L36.559,248.673c-0.865-0.723-0.981-2.009-0.26-2.873l29.675-35.543l3.134,2.615
		l-29.677,35.542C38.709,249.279,37.422,249.396,36.559,248.673"/>
	
		<rect x="59.01" y="211.061" transform="matrix(0.7677 0.6408 -0.6408 0.7677 152.0047 7.1421)" fill="#155BCD" width="14.283" height="4.336"/>
	<path fill="#050F64" d="M103.501,168.495c-12.233-10.214-30.498-8.572-40.713,3.662s-8.571,30.499,3.662,40.713
		c12.235,10.215,30.498,8.573,40.713-3.662C117.378,196.974,115.735,178.71,103.501,168.495 M68.631,210.26
		c-10.796-9.013-12.244-25.128-3.231-35.923c9.012-10.795,25.127-12.244,35.922-3.23c10.795,9.012,12.245,25.128,3.232,35.923
		C95.54,217.823,79.426,219.273,68.631,210.26"/>
	<g opacity="0.5">
		<g>
			<defs>
				<rect id="SVGID_5_" x="59.483" y="165.189" width="50.985" height="50.99"/>
			</defs>
			<clipPath id="SVGID_6_">
				<use xlink:href="#SVGID_5_"  overflow="visible"/>
			</clipPath>
			<path clip-path="url(#SVGID_6_)" fill="#E5E6EB" d="M104.554,207.028c-9.014,10.795-25.129,12.244-35.924,3.231
				c-10.795-9.012-12.244-25.127-3.23-35.922c9.012-10.795,25.128-12.245,35.923-3.232
				C112.116,180.118,113.566,196.233,104.554,207.028"/>
		</g>
	</g>
	<path fill="#FFFFFF" d="M31.638,198.737L31.638,198.737c7.623-0.48,13.892,5.932,13.233,13.543l-1.646,21.424
		c-5.324,2.384-12.783,1.212-19.207-0.15l-1.96-23.04C21.205,204.547,25.62,199.118,31.638,198.737"/>
	<path fill="#84A9FF" d="M41.797,202.613c-1.369-1.492-3.063-2.623-4.925-3.318l-0.116,0.187c2.371,0.878,4.405,2.456,5.849,4.479
		l0.195-0.11C42.495,203.421,42.16,203.009,41.797,202.613 M43.751,226.867l-0.524,6.837c-0.837,0.374-1.726,0.66-2.653,0.872v0.231
		c0.987-0.224,1.898-0.523,2.743-0.901l0.12-0.053l0.539-7.007L43.751,226.867z M23.562,228.179l-0.218,0.075l0.468,5.482
		l0.16,0.035c2.534,0.536,5.382,1.083,8.239,1.353V234.9c-2.759-0.263-5.562-0.789-8.192-1.347L23.562,228.179z M21.962,208.597
		l-0.216-0.057c-0.033,0.664-0.003,1.332,0.091,1.999l0.604,7.082l0.218-0.063l-0.601-7.043
		C21.964,209.866,21.936,209.226,21.962,208.597 M43.797,205.498l-0.201,0.107c0.999,1.985,1.483,4.27,1.275,6.673l-0.4,5.208h0.223
		l0.398-5.187C45.299,209.902,44.847,207.571,43.797,205.498 M27.143,199.84c-1.156,0.646-2.192,1.507-3.044,2.552
		c-0.645,0.793-1.166,1.672-1.553,2.603l0.227,0.026c0.887-2.088,2.444-3.844,4.431-4.969L27.143,199.84z"/>
	<path fill="#F5BDC8" d="M35.792,196.682l-0.257,5.778c-1.731,0.968-3.393,0.857-4.98-0.333l0.256-5.778L35.792,196.682z"/>
	<path fill="#EA8096" d="M35.746,197.374l-0.128,1.897c-0.777,0.396-1.659,0.61-2.58,0.593c-0.053-0.002-0.104-0.004-0.155-0.007
		c-0.864-0.058-1.673-0.444-2.236-1.067l0.118-1.748L35.746,197.374z"/>
	<path fill="#F5BDC8" d="M38.728,192.187l-0.529,1.851l-0.354,1.017c-0.247,2.461-2.342,4.32-4.814,4.274
		c-0.245-0.005-0.496-0.045-0.739-0.12c-0.093-0.03-0.186-0.063-0.278-0.102c-0.018-0.008-0.038-0.017-0.056-0.024
		c-0.344-0.157-0.66-0.39-0.915-0.692c-0.549-0.658-0.892-1.365-1.202-2.098c-0.27-0.637-0.511-1.268-0.676-1.905
		c-0.196-0.759-0.282-1.53-0.177-2.348l0.281-4.687l7.361,1.654L38.728,192.187z"/>
	<path fill="#050F64" d="M38.067,190.705c0,0-0.075-1.604-0.954-3.192c-0.757-1.367-3.514-3.078-5.914-1.671
		c-0.08-0.824-0.493-1.598-1.21-2.089c-1.323-0.909-3.169-0.521-4.122,0.868c-0.954,1.39-0.654,3.251,0.669,4.159
		c0.399,0.276,0.848,0.43,1.305,0.475c-0.03,0.075-0.059,0.153-0.087,0.236c-0.419,1.258-0.639,3.917,0.9,4.837
		c0.518,0.312,1.768-0.064,1.844-1.784c0.005-0.097-0.232-2.904,0.096-3.692c0.202,0.304,0.837,0.889,2.667,0.567
		c0.915-0.16,1.68-0.112,2.32,0.1c0.986,0.807,1.673,1.697,2.419,2.425c0.73,0.716,0.263,1.433-0.232,2.115
		c-0.729,1.007-0.023,2.422,0.795,2.794c0,0-1.35-1.368,0.059-2.641C39.722,193.218,38.989,190.925,38.067,190.705"/>
	<path fill="#F5BDC8" d="M30.639,193.034c-0.066,1.002-0.934,1.76-1.935,1.691c-1.001-0.066-1.758-0.932-1.69-1.934
		c0.066-1,0.933-1.759,1.934-1.691C29.949,191.167,30.705,192.033,30.639,193.034"/>
	<path fill="#F5BDC8" d="M47.984,244.863c0.43-0.511,0.434-1.234,0.009-1.651l-0.938-0.933l-0.92-0.944
		c-0.619-0.624-1.209-1.273-1.809-1.908c-1.176-1.292-2.332-2.591-3.396-3.938c-1.064-1.344-2.059-2.719-2.926-4.13
		c-0.868-1.41-1.6-2.856-2.17-4.341c-0.571-1.485-0.99-3.004-1.281-4.599c-0.295-1.594-0.488-3.252-0.648-4.967
		c-0.16-1.714-0.292-3.478-0.441-5.264c-0.148-1.787-0.308-3.595-0.508-5.411c-0.154-1.146-0.815-2.106-1.756-2.7
		c-0.938-0.598-2.137-0.83-3.364-0.57c-1.228,0.258-2.24,0.947-2.877,1.824c-0.635,0.88-0.915,1.951-0.662,3.019
		c0.441,1.672,0.846,3.366,1.249,5.082c0.403,1.717,0.794,3.461,1.232,5.244c0.438,1.78,0.926,3.604,1.558,5.437
		c0.623,1.83,1.428,3.656,2.4,5.364c0.97,1.712,2.103,3.298,3.324,4.751c1.224,1.455,2.529,2.786,3.871,4.046
		c1.343,1.261,2.738,2.427,4.139,3.571c0.71,0.558,1.408,1.129,2.129,1.668l1.071,0.816l1.082,0.8
		C46.839,245.491,47.553,245.376,47.984,244.863"/>
	<path fill="#FFFFFF" d="M25.36,219.815l-1.897-9.855c-0.575-2.982,1.153-5.91,4.134-6.484c2.982-0.574,6.088,1.423,6.662,4.404
		l1.899,9.857L25.36,219.815z"/>
	<path fill="#84A9FF" d="M35.923,215.348l-0.208,0.091l0.442,2.299l-1.753,0.338l0.053,0.215l1.959-0.377L35.923,215.348z
		 M35.422,212.745l-0.79-4.105l-0.215,0.061l0.789,4.102L35.422,212.745z M28.598,203.155c-0.351,0.002-0.7,0.037-1.042,0.104
		c-1.341,0.258-2.496,0.988-3.299,2.074l0.188,0.119c0.738-0.991,1.821-1.72,3.153-1.977c2.265-0.436,4.602,0.613,5.845,2.449
		l0.153-0.171C32.508,204.177,30.632,203.143,28.598,203.155 M28.788,219.155l0.04,0.219l3.809-0.733l-0.061-0.214L28.788,219.155z
		 M23.38,210.698l1.487,7.731l0.224-0.015l-1.486-7.719L23.38,210.698z"/>
	<path fill="#050F64" d="M370.587,252.481c-1.014-2.565-1.704-5.354-3.5-7.447c-0.433-0.504-0.943-0.972-1.575-1.17
		s-1.404-0.066-1.811,0.457c-0.379,0.49-0.355,1.17-0.316,1.789c0.116,1.795,0.231,3.59,0.348,5.385
		c0.106,1.654,0.215,3.326,0.669,4.922c0.752,2.641,2.63,5.109,5.268,5.875c1.705,0.496,6.559-0.311,6.181-2.955
		c-0.158-1.102-1.928-1.809-2.633-2.516C372.017,255.618,371.204,254.048,370.587,252.481"/>
	<path fill="#155BCD" d="M365.258,262.589c0.267-1.4,0.747-2.863,1.87-3.744c1.862-1.463,4.615-0.743,6.847-1.539
		c3.314-1.183,4.643-5.301,7.68-7.079c0.738-0.433,1.591-0.716,2.44-0.625c0.849,0.091,1.681,0.611,1.981,1.411
		c0.411,1.094-0.227,2.275-0.828,3.278c-0.601,1.002-1.202,2.22-0.724,3.286c0.328,0.733,1.089,1.172,1.848,1.432
		c0.76,0.261,1.567,0.393,2.282,0.754c1.953,0.987,2.732,3.537,2.213,5.664c-0.518,2.125-2.061,3.857-3.767,5.227
		c-3.465,2.781-7.844,4.35-12.271,4.561c-2.031,0.098-4.314,0.176-6.247-0.544c-2.605-0.97-3.133-3.276-3.479-5.772
		C364.813,266.804,364.861,264.664,365.258,262.589"/>
	<path fill="#84A9FF" d="M387.982,268.943c-0.512,1.903-1.511,3.634-2.5,5.341c-0.688,1.188-1.801,1.627-3.136,1.953
		c-0.564,0.14-1.139,0.224-1.719,0.276c-0.118,0.011-0.236,0.021-0.354,0.03c-0.674,0.046-1.351,0.057-2.024,0.07
		c-1.332,0.021-2.705-0.025-4.066-0.111c-0.104-0.008-0.21-0.014-0.313-0.021c-0.766-0.052-1.526-0.115-2.272-0.184
		c-1.678-0.157-3.079-1.468-3.776-3c-0.697-1.535-0.809-3.264-0.813-4.95c-0.032-9.622,3.068-19.228,8.715-27.018
		c0.2-0.277,0.425-0.56,0.668-0.818c0.214-0.228,0.445-0.437,0.689-0.61c0.489-0.347,1.037-0.544,1.627-0.435
		c1.228,0.228,1.803,1.633,2.077,2.853c1.71,7.656-0.339,16.062-5.381,22.069c-0.508,0.606-1.058,1.212-1.283,1.968
		c-0.228,0.758-0.011,1.715,0.698,2.062c0.995,0.485,2.082-0.481,2.661-1.425c0.709-1.153,1.224-2.42,1.957-3.559
		c0.733-1.137,1.75-2.178,3.055-2.537c0.874-0.24,1.789-0.133,2.62,0.221c0.098,0.041,0.192,0.086,0.288,0.135
		c0.854,0.431,1.601,1.124,2.08,1.953C388.469,264.909,388.494,267.041,387.982,268.943"/>
	<path fill="#155BCD" d="M385.399,261.252c-0.354,2.938-1.008,5.839-1.942,8.646c-0.05,0.149-0.101,0.297-0.151,0.446
		c-0.732,2.121-1.629,4.185-2.678,6.17c-0.118,0.01-0.236,0.02-0.354,0.028c1.136-2.127,2.093-4.35,2.861-6.637
		c0.051-0.149,0.102-0.299,0.15-0.45c0.879-2.712,1.492-5.508,1.825-8.339C385.209,261.158,385.304,261.203,385.399,261.252"/>
	<path fill="#155BCD" d="M383.457,269.898c-0.051,0.148-0.101,0.298-0.151,0.444l-0.169-0.436l-1.444-3.722l0.282-0.107l1.312,3.379
		L383.457,269.898z"/>
	<path fill="#155BCD" d="M373.482,272.939c0.178,1.197,0.406,2.389,0.701,3.563c-0.104-0.006-0.21-0.013-0.313-0.021
		c-0.307-1.229-0.538-2.474-0.718-3.725c-0.03-0.21-0.061-0.421-0.086-0.631c-0.306-2.365-0.427-4.751-0.47-7.108
		c-0.003-0.167-0.006-0.334-0.008-0.499c-0.013-0.933-0.015-1.859-0.013-2.779c0.003-1.195,0.011-2.409,0.043-3.637
		c0.004-0.158,0.008-0.317,0.012-0.477v-0.001c0.067-2.21,0.211-4.455,0.53-6.688v-0.001c0.021-0.159,0.045-0.315,0.068-0.475
		c0.149-0.978,0.334-1.952,0.56-2.92c0.6-2.579,1.478-4.941,2.602-7.03c0.214-0.226,0.444-0.436,0.688-0.609
		c-1.315,2.243-2.328,4.838-2.997,7.707c-0.195,0.838-0.359,1.68-0.496,2.522c-0.026,0.16-0.05,0.32-0.074,0.479
		c-0.373,2.467-0.525,4.952-0.591,7.395v0.001c-0.003,0.161-0.006,0.32-0.01,0.479v0.002c-0.024,1.096-0.032,2.182-0.033,3.254
		c-0.002,0.785,0,1.578,0.007,2.373c0.002,0.168,0.004,0.334,0.007,0.5v0.002c0.04,2.66,0.17,5.361,0.547,8.026
		C373.453,272.741,373.467,272.84,373.482,272.939"/>
	<path fill="#155BCD" d="M378.341,246.139l-4.828,4.472l-0.353,0.326c0.022-0.159,0.045-0.317,0.07-0.477l0.356-0.329l4.549-4.213
		L378.341,246.139z"/>
	<path fill="#155BCD" d="M372.922,258.005v0.002c-0.005,0.159-0.008,0.318-0.012,0.479l-0.292-0.382l-3.002-3.931l0.24-0.185
		l2.775,3.636v0.001L372.922,258.005z"/>
	<path fill="#155BCD" d="M376.261,260.02l-3.368,4.596v0.001l-0.295,0.401c-0.003-0.167-0.007-0.334-0.009-0.499l0.297-0.403
		l3.132-4.273L376.261,260.02z"/>
	<path fill="#155BCD" d="M373.482,272.939l-0.132,0.096l-0.198-0.278l-2.492-3.449l0.244-0.176l2.162,2.994l0.372,0.517
		C373.453,272.741,373.467,272.84,373.482,272.939"/>
	<path fill="#FF654F" d="M390.989,272.889v27.899c0,1.825-0.854,3.451-2.182,4.5c-0.977,0.773-2.212,1.234-3.554,1.234h-16.12
		c-3.167,0-5.735-2.567-5.735-5.734v-27.899H390.989z"/>
</g>
<g>
</g>
<g>
</g>
<g>
</g>
<g>
</g>
<g>
</g>
<g>
</g>
<g>
</g>
<g>
</g>
<g>
</g>
<g>
</g>
<g>
</g>
<g>
</g>
<g>
</g>
<g>
</g>
<g>
</g>
</svg>
