<?xml version="1.0" encoding="utf-8"?>
<!-- Generator: Adobe Illustrator 16.0.0, SVG Export Plug-In . SVG Version: 6.00 Build 0)  -->
<!DOCTYPE svg PUBLIC "-//W3C//DTD SVG 1.1//EN" "http://www.w3.org/Graphics/SVG/1.1/DTD/svg11.dtd">
<svg version="1.1" id="Layer_1" xmlns="http://www.w3.org/2000/svg" xmlns:xlink="http://www.w3.org/1999/xlink" x="0px" y="0px"
	 width="115.667px" height="114.001px" viewBox="0 0 115.667 114.001" enable-background="new 0 0 115.667 114.001"
	 xml:space="preserve">
<g>
	<defs>
		<rect id="SVGID_1_" x="-110.667" y="-2034.997" width="1312.329" height="3063.478"/>
	</defs>
	<clipPath id="SVGID_2_">
		<use xlink:href="#SVGID_1_"  overflow="visible"/>
	</clipPath>
	<path clip-path="url(#SVGID_2_)" fill="#12E3FF" d="M109.24,63.83l-5.352,5.354c5.476,13.625-1.131,29.111-14.758,34.586
		c-13.625,5.477-29.11-1.129-34.586-14.756c-5.477-13.625,1.131-29.111,14.756-34.586c7.56-3.039,16.095-2.443,23.16,1.613
		l-2.067,2.066c-0.172,0.176-0.304,0.387-0.39,0.619c-11.209-5.912-25.088-1.619-31,9.59s-1.616,25.088,9.592,31
		c11.209,5.912,25.088,1.619,31-9.59c1.742-3.305,2.652-6.986,2.65-10.723c0.004-2.545-0.427-5.07-1.272-7.473
		c-0.978,0.406-2.054,0.512-3.091,0.301l-3.285-0.652l-0.973,0.971c3.787,7.924,0.435,17.416-7.488,21.203
		c-7.924,3.787-17.416,0.434-21.203-7.49c-3.787-7.922-0.434-17.416,7.488-21.203c4.336-2.072,9.377-2.072,13.715,0
		c1.089,0.523,2.115,1.168,3.055,1.926l-2.535,2.537c-2.121-1.607-4.711-2.48-7.373-2.482c-6.857-0.029-12.437,5.508-12.464,12.363
		c-0.026,6.855,5.509,12.436,12.364,12.463s12.438-5.508,12.464-12.363c0.005-1.445-0.241-2.881-0.729-4.242l-7.889,7.889
		c-0.689,0.689-1.806,0.689-2.494,0c-0.685-0.684-0.691-1.791-0.014-2.482l0.016-0.01l8.637-8.637l2.527-2.525l1.748-1.748
		l5.141,1.023c0.576,0.125,1.177-0.055,1.589-0.479c0.463-0.461,12.335-12.334,12.154-12.152c0.688-0.697,0.68-1.822-0.02-2.512
		c-0.242-0.238-0.549-0.402-0.882-0.473l-4.929-0.971l-0.971-4.93c-0.199-0.959-1.138-1.576-2.097-1.377
		c-0.336,0.07-0.646,0.236-0.89,0.477l-4.928,4.928c-15.49-10.064-36.209-5.666-46.273,9.826
		c-10.065,15.492-5.666,36.209,9.826,46.275c15.49,10.064,36.209,5.664,46.273-9.826C113.938,87.162,114.624,74.467,109.24,63.83
		 M102.705,50.795l0.565,2.826c0.14,0.705,0.69,1.256,1.396,1.396l2.826,0.564l-3.074,3.074l-3.992-0.795l-0.795-3.992
		L102.705,50.795z M96.629,56.871l0.564,2.826c0.141,0.705,0.691,1.256,1.396,1.396l2.826,0.564l-3.057,3.057l-3.992-0.795
		l-0.795-3.992L96.629,56.871z"/>
</g>
<g>
	<defs>
		<path id="SVGID_3_" d="M8.631,86.07V61.34c0-0.975,0.791-1.766,1.767-1.766h14.13c0.975,0,1.766,0.791,1.766,1.766v26.496H10.397
			C9.422,87.834,8.631,87.045,8.631,86.07 M38.658,50.742c0.002-0.975,0.791-1.764,1.766-1.766h14.132
			c0.976,0.002,1.766,0.791,1.767,1.766v37.094H38.658V50.742z M68.688,40.145c0.001-0.977,0.791-1.766,1.766-1.768h14.131
			c0.976,0.002,1.766,0.792,1.767,1.768V86.07c-0.001,0.975-0.791,1.764-1.767,1.766H68.688V40.145z M45.338,25.35
			c0.516-0.646,0.516-1.563,0-2.207l-4.771-5.962h12.222v8.832c0,0.975,0.791,1.766,1.766,1.766h0.001h5.299v3.533H40.567
			L45.338,25.35z M56.322,10.116h19.43v14.131h-19.43V10.116z M75.752,4.817v1.765H54.556c-0.976,0-1.767,0.79-1.767,1.767v0.001
			v5.299H36.893c-0.977,0.002-1.768,0.795-1.766,1.771c0.002,0.399,0.137,0.786,0.386,1.099l6.184,7.728l-6.184,7.729
			c-0.609,0.764-0.482,1.877,0.282,2.485c0.312,0.248,0.699,0.384,1.098,0.385h24.729c0.977,0,1.767-0.79,1.768-1.766v-0.001v-5.3
			h12.363v7.066h-5.299c-2.925,0.004-5.295,2.373-5.3,5.299v47.691h-5.299V50.742c-0.003-2.926-2.373-5.297-5.299-5.299H40.424
			c-2.924,0.002-5.295,2.373-5.297,5.299v37.094h-5.299V61.34c-0.004-2.926-2.375-5.295-5.301-5.297h-14.13
			c-2.926,0.002-5.297,2.371-5.3,5.297v24.73c0.003,2.924,2.374,5.295,5.3,5.297h74.187c2.924-0.002,5.295-2.373,5.299-5.297V40.145
			c-0.004-2.926-2.375-5.295-5.299-5.299h-5.299V4.817c0-0.975-0.791-1.766-1.766-1.766C76.543,3.051,75.752,3.842,75.752,4.817"/>
	</defs>
	<clipPath id="SVGID_4_">
		<use xlink:href="#SVGID_3_"  overflow="visible"/>
	</clipPath>
	
		<linearGradient id="SVGID_5_" gradientUnits="userSpaceOnUse" x1="-544.7822" y1="1631.9414" x2="-543.7822" y2="1631.9414" gradientTransform="matrix(138.2857 126.2857 126.2857 -138.2857 -130790.8203 294443.7188)">
		<stop  offset="0" style="stop-color:#3B42ED"/>
		<stop  offset="1" style="stop-color:#0000AF"/>
	</linearGradient>
	<polygon clip-path="url(#SVGID_4_)" fill="url(#SVGID_5_)" points="43.652,-39.167 133.862,43.213 51.328,133.588 -38.88,51.207 	
		"/>
</g>
<g>
	<defs>
		<path id="SVGID_6_" d="M9.148,3.567L9.148,3.567l-5.3,5.299c-0.687,0.695-0.679,1.813,0.015,2.499
			c0.689,0.678,1.795,0.678,2.483,0l2.284-2.284v41.662c0,0.975,0.791,1.766,1.767,1.766c0.974,0,1.765-0.791,1.765-1.766V9.081
			l2.285,2.284c0.695,0.685,1.814,0.673,2.497-0.022c0.675-0.688,0.675-1.788,0-2.477l-5.299-5.298
			c-0.345-0.345-0.797-0.517-1.249-0.517S9.494,3.223,9.148,3.567"/>
	</defs>
	<clipPath id="SVGID_7_">
		<use xlink:href="#SVGID_6_"  overflow="visible"/>
	</clipPath>
	
		<linearGradient id="SVGID_8_" gradientUnits="userSpaceOnUse" x1="-544.7822" y1="1631.9258" x2="-543.7822" y2="1631.9258" gradientTransform="matrix(138.2857 126.2857 126.2857 -138.2857 -130796.0703 294449.5)">
		<stop  offset="0" style="stop-color:#3B42ED"/>
		<stop  offset="1" style="stop-color:#0000AF"/>
	</linearGradient>
	<polygon clip-path="url(#SVGID_7_)" fill="url(#SVGID_8_)" points="9.736,-4.148 42.246,25.541 11.045,59.707 -21.465,30.018 	"/>
</g>
<g>
	<defs>
		<path id="SVGID_9_" d="M21.513,14.166L21.513,14.166l-5.3,5.301c-0.689,0.688-0.689,1.806,0,2.496l0,0
			c0.69,0.69,1.808,0.69,2.498,0.001v-0.001l2.283-2.282l0.002,31.062c0,0.975,0.789,1.766,1.766,1.766
			c0.975,0,1.766-0.791,1.766-1.766l-0.001-31.065l2.285,2.285c0.696,0.684,1.813,0.674,2.498-0.022
			c0.674-0.687,0.674-1.788,0-2.474l-5.3-5.301c-0.344-0.345-0.797-0.517-1.248-0.517C22.31,13.649,21.857,13.821,21.513,14.166"/>
	</defs>
	<clipPath id="SVGID_10_">
		<use xlink:href="#SVGID_9_"  overflow="visible"/>
	</clipPath>
	
		<linearGradient id="SVGID_11_" gradientUnits="userSpaceOnUse" x1="-544.7822" y1="1631.9258" x2="-543.7822" y2="1631.9258" gradientTransform="matrix(138.2857 126.2857 126.2857 -138.2857 -130793.0703 294446.2188)">
		<stop  offset="0" style="stop-color:#3B42ED"/>
		<stop  offset="1" style="stop-color:#0000AF"/>
	</linearGradient>
	<polygon clip-path="url(#SVGID_10_)" fill="url(#SVGID_11_)" points="22.1,6.449 49.333,31.32 23.408,59.709 -3.826,34.837 	"/>
</g>
<g>
</g>
<g>
</g>
<g>
</g>
<g>
</g>
<g>
</g>
<g>
</g>
<g>
</g>
<g>
</g>
<g>
</g>
<g>
</g>
<g>
</g>
<g>
</g>
<g>
</g>
<g>
</g>
<g>
</g>
</svg>
