<?xml version="1.0" encoding="utf-8"?>
<!-- Generator: Adobe Illustrator 16.0.0, SVG Export Plug-In . SVG Version: 6.00 Build 0)  -->
<!DOCTYPE svg PUBLIC "-//W3C//DTD SVG 1.1//EN" "http://www.w3.org/Graphics/SVG/1.1/DTD/svg11.dtd">
<svg version="1.1" id="Layer_1" xmlns="http://www.w3.org/2000/svg" xmlns:xlink="http://www.w3.org/1999/xlink" x="0px" y="0px"
	 width="115.667px" height="114.001px" viewBox="0 0 115.667 114.001" enable-background="new 0 0 115.667 114.001"
	 xml:space="preserve">
<g>
	<defs>
		<rect id="SVGID_1_" x="-111.924" y="-1888.178" width="1312.329" height="3063.477"/>
	</defs>
	<clipPath id="SVGID_2_">
		<use xlink:href="#SVGID_1_"  overflow="visible"/>
	</clipPath>
	<path clip-path="url(#SVGID_2_)" fill="#12E3FF" d="M63.155,60.731l-2.563,14.938c-0.162,0.955,0.48,1.859,1.436,2.021
		c0.378,0.064,0.768,0.002,1.107-0.176l13.416-7.051l13.414,7.051c0.857,0.449,1.918,0.119,2.367-0.738
		c0.178-0.34,0.239-0.729,0.176-1.107l-2.563-14.938l10.851-10.58c0.693-0.676,0.705-1.787,0.027-2.479
		c-0.268-0.273-0.619-0.452-0.998-0.507l-14.998-2.181l-6.707-13.591c-0.513-0.867-1.632-1.155-2.5-0.642
		c-0.265,0.155-0.486,0.377-0.643,0.642l-6.707,13.591l-14.998,2.181c-0.958,0.14-1.62,1.03-1.48,1.988
		c0.057,0.381,0.235,0.73,0.51,0.998L63.155,60.731z"/>
	<path clip-path="url(#SVGID_2_)" fill="#12E3FF" d="M109.836,107.496h-2.122l-4.059-16.986c-0.561-2.369-2.678-4.041-5.112-4.035
		H85.309v-7.449l-8.759-4.604l-8.759,4.604v7.449H54.555c-2.434-0.006-4.552,1.666-5.111,4.035l-4.058,16.986h-2.121
		c-0.967,0-1.752,0.785-1.752,1.752c0,0.969,0.785,1.754,1.752,1.754h66.571c0.967,0,1.75-0.785,1.75-1.754
		C111.586,108.281,110.803,107.496,109.836,107.496 M95.821,100.49H57.28c-0.967,0-1.752-0.785-1.752-1.752
		c0-0.969,0.785-1.752,1.752-1.752h38.541c0.967,0,1.75,0.783,1.75,1.752C97.571,99.705,96.788,100.49,95.821,100.49"/>
</g>
<g>
	<defs>
		<path id="SVGID_3_" d="M32.755,19.907h5.255c0.464,0,0.91-0.186,1.238-0.515l2.265-2.264l2.267,2.264
			c0.328,0.329,0.773,0.515,1.237,0.515h15.767c0,7.739-6.274,14.014-14.015,14.014C39.03,33.921,32.755,27.646,32.755,19.907
			 M46.769,5.892c6.384,0.013,11.953,4.332,13.554,10.511h-14.58l-2.99-2.989c-0.684-0.685-1.793-0.686-2.477-0.001
			c0,0.001,0,0.001,0,0.001l-2.992,2.989h-4.068C34.817,10.224,40.386,5.904,46.769,5.892 M29.25,19.907
			c0.012,9.67,7.849,17.508,17.519,17.518c9.675,0,17.519-7.844,17.519-17.518c0-9.676-7.844-17.52-17.519-17.52
			S29.25,10.231,29.25,19.907"/>
	</defs>
	<clipPath id="SVGID_4_">
		<use xlink:href="#SVGID_3_"  overflow="visible"/>
	</clipPath>
	
		<linearGradient id="SVGID_5_" gradientUnits="userSpaceOnUse" x1="-544.3564" y1="1632.666" x2="-543.3551" y2="1632.666" gradientTransform="matrix(96.5714 93.1429 93.1429 -96.5714 -99483.5391 208364.25)">
		<stop  offset="0" style="stop-color:#3B42ED"/>
		<stop  offset="1" style="stop-color:#0000AF"/>
	</linearGradient>
	<polygon clip-path="url(#SVGID_4_)" fill="url(#SVGID_5_)" points="46.136,-15.119 81.794,19.273 47.403,54.932 11.745,20.539 	"/>
</g>
<g>
	<defs>
		<path id="SVGID_6_" d="M52.728,43.83c11.696-2.389,20.836-11.529,23.224-23.225c0.584-2.845,3.361-4.679,6.207-4.096
			c2.805,0.575,4.633,3.286,4.117,6.102c-2.234,11.005-8.943,20.582-18.523,26.442c-0.483,0.293-0.795,0.807-0.834,1.371
			l-2.514,36.051H29.133l-2.516-36.051c-0.037-0.564-0.349-1.078-0.832-1.371c-9.58-5.86-16.289-15.437-18.522-26.442
			c-0.524-2.856,1.366-5.598,4.222-6.121c2.815-0.518,5.527,1.312,6.102,4.115c2.881,14.108,15.293,23.832,29.152,23.832
			C48.713,44.438,50.718,44.24,52.728,43.83 M10.68,13.078c-4.695,0.959-7.748,5.513-6.852,10.221
			C6.19,34.95,13.175,45.146,23.186,51.557l2.566,36.791c0.064,0.918,0.826,1.631,1.746,1.631H66.04c0.92,0,1.684-0.713,1.746-1.631
			l2.567-36.791c10.011-6.412,16.995-16.607,19.356-28.258c0.904-4.754-2.217-9.341-6.969-10.245
			c-4.709-0.895-9.262,2.158-10.223,6.854c-2.904,14.22-16.787,23.395-31.008,20.489c-10.32-2.107-18.383-10.172-20.491-20.489
			c-0.848-4.149-4.498-7.01-8.573-7.01C11.864,12.897,11.273,12.956,10.68,13.078"/>
	</defs>
	<clipPath id="SVGID_7_">
		<use xlink:href="#SVGID_6_"  overflow="visible"/>
	</clipPath>
	
		<linearGradient id="SVGID_8_" gradientUnits="userSpaceOnUse" x1="-544.356" y1="1632.6221" x2="-543.356" y2="1632.6221" gradientTransform="matrix(96.5714 93.1429 93.1429 -96.5714 -99495.0391 208376.1094)">
		<stop  offset="0" style="stop-color:#3B42ED"/>
		<stop  offset="1" style="stop-color:#0000AF"/>
	</linearGradient>
	<polygon clip-path="url(#SVGID_7_)" fill="url(#SVGID_8_)" points="45.189,-31.653 129.499,49.663 48.358,133.791 -35.953,52.475 	
		"/>
</g>
<g>
	<defs>
		<path id="SVGID_9_" d="M82.319,57.208l-5.256,5.256c-0.678,0.691-0.667,1.799,0.021,2.477c0.683,0.67,1.775,0.67,2.455,0
			l2.266-2.266v25.553c0,0.967,0.784,1.752,1.753,1.752c0.966,0,1.751-0.785,1.751-1.752V62.674l2.266,2.266
			c0.688,0.682,1.797,0.674,2.477-0.016c0.674-0.682,0.674-1.779,0-2.461l-5.255-5.256c-0.343-0.34-0.791-0.51-1.239-0.51
			C83.11,56.698,82.661,56.868,82.319,57.208"/>
	</defs>
	<clipPath id="SVGID_10_">
		<use xlink:href="#SVGID_9_"  overflow="visible"/>
	</clipPath>
	
		<linearGradient id="SVGID_11_" gradientUnits="userSpaceOnUse" x1="-544.356" y1="1632.666" x2="-543.356" y2="1632.666" gradientTransform="matrix(96.5714 93.1429 93.1429 -96.5714 -99492.5391 208373.5469)">
		<stop  offset="0" style="stop-color:#3B42ED"/>
		<stop  offset="1" style="stop-color:#0000AF"/>
	</linearGradient>
	<polygon clip-path="url(#SVGID_10_)" fill="url(#SVGID_11_)" points="83.295,49.532 107.355,72.737 83.815,97.145 59.754,73.94 	
		"/>
</g>
<g>
	<defs>
		<path id="SVGID_12_" d="M8.743,57.208l-5.256,5.256c-0.678,0.691-0.668,1.799,0.022,2.477c0.681,0.67,1.774,0.67,2.454,0
			l2.266-2.266v25.553c0,0.967,0.785,1.752,1.752,1.752s1.751-0.785,1.751-1.752V62.674l2.267,2.266
			c0.679,0.689,1.789,0.695,2.477,0.016c0.688-0.678,0.695-1.789,0.016-2.477c-0.006-0.006-0.011-0.01-0.016-0.016l-5.255-5.256
			c-0.343-0.34-0.791-0.51-1.239-0.51C9.534,56.698,9.084,56.868,8.743,57.208"/>
	</defs>
	<clipPath id="SVGID_13_">
		<use xlink:href="#SVGID_12_"  overflow="visible"/>
	</clipPath>
	
		<linearGradient id="SVGID_14_" gradientUnits="userSpaceOnUse" x1="-544.3569" y1="1632.666" x2="-543.355" y2="1632.666" gradientTransform="matrix(96.5714 93.1429 93.1429 -96.5714 -99528.0391 208410.3125)">
		<stop  offset="0" style="stop-color:#3B42ED"/>
		<stop  offset="1" style="stop-color:#0000AF"/>
	</linearGradient>
	<polygon clip-path="url(#SVGID_13_)" fill="url(#SVGID_14_)" points="9.73,49.522 33.8,72.737 10.249,97.154 -13.821,73.94 	"/>
</g>
<g>
</g>
<g>
</g>
<g>
</g>
<g>
</g>
<g>
</g>
<g>
</g>
<g>
</g>
<g>
</g>
<g>
</g>
<g>
</g>
<g>
</g>
<g>
</g>
<g>
</g>
<g>
</g>
<g>
</g>
</svg>
